<?xml version="1.0" encoding="utf-8"?>
<!-- Generator: Adobe Illustrator 23.0.1, SVG Export Plug-In . SVG Version: 6.00 Build 0)  -->
<svg version="1.1" id="Capa_1" xmlns="http://www.w3.org/2000/svg" xmlns:xlink="http://www.w3.org/1999/xlink" x="0px" y="0px"
	 viewBox="0 0 32 40" style="enable-background:new 0 0 32 40;" xml:space="preserve">
<style type="text/css">
	.st0{fill:#FFFFFF;}
</style>
<title>08, confetti, party, event, happy, new year,</title>
<path class="st0" d="M3.4,33.6l8.7-3.1C11.3,27.4,9,25,5.9,24.1l-3.7,8.2c-0.2,0.5,0,1.1,0.5,1.3c0.1,0.1,0.3,0.1,0.4,0.1L3.4,33.6z
	"/>
<path class="st0" d="M13.7,15.3h-0.6c-0.9,0-1.7,0.6-2.1,1.4c-0.2,0.5,0.1,1.1,0.6,1.3c0,0,0,0,0,0H12c0.4,0,0.7-0.2,0.9-0.6
	l0.6-0.2c0.9,0,1.7-0.6,2.1-1.4c0.2-0.9,0-1.8-0.7-2.4L14.6,13h0.5c0.9,0,1.7-0.6,2.1-1.4c0.2-0.5-0.1-1.1-0.6-1.3c0,0,0,0,0,0
	c-0.5-0.2-1.1,0.1-1.3,0.6c0,0,0,0,0,0l-0.6,0.2c-0.9,0-1.7,0.6-2.1,1.4c-0.2,0.9,0,1.8,0.7,2.4L13.7,15.3z"/>
<path class="st0" d="M29.7,24.5c-0.2-0.5-0.8-0.8-1.3-0.6c0,0,0,0,0,0l-0.5-0.4c-0.6-0.7-1.5-0.9-2.4-0.7c-0.9,0.4-1.4,1.3-1.4,2.2
	v0.5l-0.4-0.3c-0.6-0.7-1.5-0.9-2.4-0.7c-0.5,0.2-0.8,0.8-0.6,1.3c0,0,0,0,0,0c0.2,0.5,0.8,0.8,1.3,0.6c0,0,0,0,0,0l0.5,0.4
	c0.5,0.5,1.1,0.8,1.8,0.8H25c0.7-0.5,1.2-1.3,1.1-2.2v-0.5l0.4,0.3c0.6,0.7,1.5,0.9,2.4,0.7c0.5-0.1,0.9-0.6,0.9-1.1
	C29.8,24.7,29.8,24.6,29.7,24.5z"/>
<path class="st0" d="M9.6,10.1l0.5,0.3l-0.4,0.3c-0.8,0.4-1.4,1.2-1.4,2.1c0,0.6,0.4,1,1,1l0,0c0.5-0.1,0.9-0.5,0.9-1l0.5-0.4
	c0.8-0.4,1.4-1.2,1.4-2.1c-0.1-0.9-0.7-1.7-1.6-2L10.1,8l0.5-0.3C11.5,7.3,12,6.5,12,5.6c0-0.6-0.4-1-1-1c-0.5,0.1-0.9,0.5-0.9,1
	L9.6,6C8.7,6.3,8.1,7.1,8,8.1C8.2,9,8.8,9.8,9.6,10.1z"/>
<circle class="st0" cx="27.1" cy="30.7" r="1"/>
<circle class="st0" cx="19.1" cy="17.7" r="1"/>
<circle class="st0" cx="18.1" cy="5.7" r="1"/>
<circle class="st0" cx="6.1" cy="14.7" r="1"/>
<path class="st0" d="M20.4,15.4c1.1,0.9,2.7,0.9,3.8,0c1.1-0.7,1.4-2.1,0.8-3.2c-0.2-0.5-0.9-0.7-1.3-0.4c-0.5,0.2-0.7,0.9-0.5,1.3
	c0.2,0.3,0.1,0.5-0.1,0.7c-0.4,0.3-0.9,0.4-1.3,0.2c-0.6-0.6-0.9-1.4-0.9-2.3c0-0.7,0.3-1.3,0.8-1.7c0.7-0.6,1.6-1,2.5-0.9
	c0.8,0.1,1.5,0.5,2,1.2c0.8,1.2,2.4,4.4-0.7,6.6l-9.3,6.5c-1.6-2.3-4-4-6.8-4.7c-0.5-0.2-1,0.1-1.2,0.5l-1.4,3
	c3.5,1.1,6.3,3.9,7.3,7.5l3.4-1.2c0.5-0.2,0.7-0.7,0.6-1.2c-0.2-0.8-0.5-1.5-0.9-2.2l9.5-6.7c3.7-2.7,3.1-6.6,1.3-9.4
	c-0.8-1.1-2-1.9-3.4-2.1c-1.5-0.2-3,0.3-4.1,1.4c-0.9,0.8-1.5,1.9-1.5,3.1C19,12.9,19.5,14.3,20.4,15.4z"/>
</svg>
