<?xml version="1.0" encoding="utf-8"?>
<!-- Generator: Adobe Illustrator 23.0.1, SVG Export Plug-In . SVG Version: 6.00 Build 0)  -->
<svg version="1.1"
	 id="Capa_1" xmlns:inkscape="http://www.inkscape.org/namespaces/inkscape" xmlns:sodipodi="http://sodipodi.sourceforge.net/DTD/sodipodi-0.dtd" xmlns:svg="http://www.w3.org/2000/svg"
	 xmlns="http://www.w3.org/2000/svg" xmlns:xlink="http://www.w3.org/1999/xlink" x="0px" y="0px" viewBox="0 0 512 640"
	 style="enable-background:new 0 0 512 640;" xml:space="preserve">
<g>
	<path d="M197.5,188.4c-3.9,0-7.6,1.5-10.3,4.3c-2.7,2.7-4.3,6.5-4.3,10.3c0,3.9,1.5,7.6,4.3,10.3s6.5,4.3,10.3,4.3H256
		c3.9,0,7.6-1.5,10.3-4.3s4.3-6.5,4.3-10.3c0-3.9-1.5-7.6-4.3-10.3c-2.7-2.7-6.5-4.3-10.3-4.3H197.5z"/>
	<path d="M65.9,100.6c-24.1,0-43.9,19.8-43.9,43.9v351c0,24.1,19.8,43.9,43.9,43.9h277.9c24.1,0,43.9-19.8,43.9-43.9v-29.3
		c0-3.9-1.5-7.6-4.3-10.3c-2.7-2.7-6.5-4.3-10.3-4.3c-8.1,0-14.6,6.6-14.6,14.6v29.3c0,8.3-6.4,14.6-14.6,14.6H65.9
		c-8.2,0-14.6-6.4-14.6-14.6v-351c0-8.3,6.4-14.6,14.6-14.6h277.9c8.3,0,14.6,6.4,14.6,14.6v29.3c0,8.1,6.6,14.6,14.6,14.6
		c3.9,0,7.6-1.5,10.3-4.3c2.7-2.7,4.3-6.5,4.3-10.3v-29.3c0-24.1-19.8-43.9-43.9-43.9H65.9z"/>
	<path d="M358.4,268.8c-3.9,0-7.6,1.5-10.3,4.3c-2.7,2.7-4.3,6.5-4.3,10.3v51.2c0,8.1,6.6,14.6,14.6,14.6h29.3
		c8.1,0,14.6-6.5,14.6-14.6c0-8.1-6.5-14.6-14.6-14.6H373v-36.6c0-3.9-1.5-7.6-4.3-10.3C366,270.3,362.3,268.8,358.4,268.8z"/>
	<path d="M373,232.2c48.6,0,87.8,39.1,87.8,87.8s-39.1,87.7-87.8,87.7s-87.8-39.1-87.8-87.7S324.4,232.2,373,232.2L373,232.2z
		 M373,203c-64.4,0-117,52.6-117,117c0,64.4,52.6,117,117,117c64.4,0,117-52.6,117-117C490,255.6,437.4,203,373,203z"/>
	<path d="M124.4,188.4c8.3,0,14.6,6.4,14.6,14.6c0,8.3-6.4,14.6-14.6,14.6c-8.3,0-14.6-6.4-14.6-14.6S116.1,188.4,124.4,188.4z
		 M124.4,159.1c-24.1,0-43.9,19.8-43.9,43.9c0,24.1,19.8,43.9,43.9,43.9c24.1,0,43.9-19.8,43.9-43.9
		C168.2,178.9,148.4,159.1,124.4,159.1z"/>
	<path d="M124.4,305.4c8.3,0,14.6,6.4,14.6,14.6c0,8.3-6.4,14.6-14.6,14.6c-8.3,0-14.6-6.4-14.6-14.6
		C109.7,311.7,116.1,305.4,124.4,305.4L124.4,305.4z M124.4,276.1c-24.1,0-43.9,19.8-43.9,43.9c0,24.1,19.8,43.9,43.9,43.9
		c24.1,0,43.9-19.8,43.9-43.9C168.2,295.9,148.4,276.1,124.4,276.1L124.4,276.1z"/>
	<path d="M197.5,305.4c-3.9,0-7.6,1.5-10.3,4.3c-2.7,2.7-4.3,6.5-4.3,10.3c0,3.9,1.5,7.6,4.3,10.3s6.5,4.3,10.3,4.3h29.3
		c8.1,0,14.6-6.5,14.6-14.6c0-3.9-1.5-7.6-4.3-10.3s-6.5-4.3-10.3-4.3H197.5z"/>
	<path d="M197.5,422.4c-3.9,0-7.6,1.5-10.3,4.3s-4.3,6.5-4.3,10.3c0,3.9,1.5,7.6,4.3,10.3c2.7,2.7,6.5,4.3,10.3,4.3H256
		c3.9,0,7.6-1.5,10.3-4.3c2.7-2.7,4.3-6.5,4.3-10.3c0-3.9-1.5-7.6-4.3-10.3s-6.5-4.3-10.3-4.3H197.5z"/>
	<path d="M124.4,422.4c8.3,0,14.6,6.4,14.6,14.6c0,8.3-6.4,14.6-14.6,14.6c-8.3,0-14.6-6.4-14.6-14.6
		C109.7,428.7,116.1,422.4,124.4,422.4z M124.4,393.1c-24.1,0-43.9,19.8-43.9,43.9c0,24.1,19.8,43.9,43.9,43.9
		c24.1,0,43.9-19.8,43.9-43.9C168.2,412.9,148.4,393.1,124.4,393.1z"/>
</g>
</svg>
