<?xml version="1.0" encoding="utf-8"?>
<!-- Generator: Adobe Illustrator 23.0.1, SVG Export Plug-In . SVG Version: 6.00 Build 0)  -->
<svg version="1.1" id="Capa_1" xmlns="http://www.w3.org/2000/svg" xmlns:xlink="http://www.w3.org/1999/xlink" x="0px" y="0px"
	 viewBox="0 0 333.3 416.7" style="enable-background:new 0 0 333.3 416.7;" xml:space="preserve">
<g>
	<path d="M166.7,66.9c8.3-2.1,43.1-12.4,69.1-43.4c3.8-4.6,8.8-7.6,14.3-9c5.4-1.4,11.2-1,16.8,1.2c5.5,2.2,10,6,13,10.7
		c3,4.7,4.5,10.4,4.1,16.3c-0.7,11.3-2.7,23.7-6.5,36.7c-3.3,11.2-8,22.9-14.6,34.7c-2.4,4.3-5.8,7.8-9.9,10.2
		c-4.1,2.4-8.7,3.7-13.7,3.8c-2.7,0-5.2-0.3-7.6-0.9c-2.4-0.7-4.8-1.7-7-3.1c-3.6-2.3-6.7-4.3-9.4-6.2l-6.4,21.4L229,335.9
		c0.6,5.9,0,11.5-1.9,16.8c-1.8,5.3-4.8,10.1-8.9,14.3l-23.6,24.3c-3.8,3.9-8,6.8-12.7,8.8c-4.7,2-9.8,3-15.1,3
		c-5.3,0-10.4-1-15.1-3c-4.7-2-9-4.9-12.7-8.8L115.2,367c-4.1-4.2-7.1-9-8.9-14.3c-1.8-5.3-2.5-10.9-1.9-16.8l20.2-196.5l-6.4-21.4
		c-2.7,1.9-5.8,4-9.4,6.2c-2.2,1.4-4.6,2.4-7,3.1c-2.3,0.6-4.9,1-7.6,0.9c-5,0-9.7-1.4-13.7-3.8c-4.1-2.4-7.5-5.9-9.9-10.2
		C64.1,102.3,59.3,90.6,56,79.4c-3.9-13-5.8-25.4-6.5-36.7c-0.4-5.9,1.1-11.6,4.1-16.3c3-4.7,7.4-8.5,13-10.7
		c5.5-2.2,11.4-2.6,16.8-1.2c5.4,1.4,10.4,4.4,14.3,9C123.6,54.5,158.4,64.8,166.7,66.9L166.7,66.9z M117.2,95.9
		c0.2-0.2,0.4-0.3,0.6-0.5l0.7-0.6c6.5-5.3,12.7-10.3,24.5-16.9c-16.8-7-40.2-20-59.3-42.8c-1.3-1.5-2.9-2.6-4.7-3
		c-1.8-0.4-3.7-0.3-5.6,0.4c-1.9,0.8-3.4,2-4.3,3.5c-1,1.5-1.5,3.4-1.3,5.5c0.7,10.1,2.4,21.1,5.8,32.7c3,10,7.2,20.4,13.1,31
		c0.8,1.5,2,2.7,3.2,3.5c1.3,0.8,2.9,1.2,4.6,1.2c0.9,0,1.8-0.1,2.7-0.4c0.9-0.2,1.6-0.5,2.2-0.9C107.3,103.8,112.5,99.7,117.2,95.9
		L117.2,95.9z M133.6,106l7,23.5h52.1l7-23.5c-6.9-5.5-15.1-11.2-33-19.7C148.7,94.8,140.6,100.5,133.6,106z M142,147.7l-19.5,190.1
		c-0.3,3.2,0,6.2,0.9,8.9c1,2.7,2.6,5.3,4.8,7.6l23.6,24.3c2.1,2.1,4.3,3.7,6.7,4.7c2.4,1,5.1,1.5,8.1,1.5c3,0,5.7-0.5,8.1-1.5
		c2.4-1,4.7-2.6,6.7-4.7l23.6-24.3c2.2-2.3,3.9-4.9,4.8-7.6c1-2.7,1.3-5.7,0.9-8.9l-19.5-190.1L142,147.7L142,147.7z M215.6,95.4
		c0.2,0.2,0.4,0.3,0.6,0.5c4.7,3.8,9.9,7.9,17.9,12.9c0.6,0.4,1.4,0.7,2.2,0.9c0.9,0.2,1.8,0.4,2.7,0.4c1.7,0,3.3-0.4,4.6-1.2
		c1.3-0.8,2.4-1.9,3.2-3.5c5.9-10.6,10.1-21,13.1-31c3.4-11.6,5.2-22.7,5.8-32.7c0.1-2-0.3-3.9-1.3-5.5c-1-1.5-2.5-2.8-4.3-3.5
		c-1.9-0.8-3.8-0.9-5.6-0.4c-1.8,0.4-3.4,1.5-4.7,3C230.6,58,207.2,71,190.4,77.9c11.8,6.6,17.9,11.6,24.5,16.9L215.6,95.4
		L215.6,95.4z"/>
</g>
</svg>
