<?xml version="1.0" encoding="utf-8"?>
<!-- Generator: Adobe Illustrator 23.0.1, SVG Export Plug-In . SVG Version: 6.00 Build 0)  -->
<svg version="1.1" id="Capa_1" xmlns="http://www.w3.org/2000/svg" xmlns:xlink="http://www.w3.org/1999/xlink" x="0px" y="0px"
	 viewBox="0 0 244.8 407.16" style="enable-background:new 0 0 244.8 407.16;" xml:space="preserve">
<style type="text/css">
	.st0{fill:#FFFFFF;stroke:#FFFFFF;stroke-miterlimit:10;}
	.st1{fill:#FFFFFF;stroke:#FFFFFF;stroke-width:10.8552;stroke-miterlimit:10;}
	.st2{fill:#002800;stroke:#000000;stroke-width:0.8018;stroke-miterlimit:10;}
	.st3{fill:#002800;stroke:#000000;stroke-width:0.4009;stroke-miterlimit:10;}
	.st4{fill:#002800;}
	.st5{fill:#111010;}
	.st6{fill:#FEFDFD;}
	.st7{fill:none;stroke:#000000;stroke-width:0.4009;stroke-miterlimit:10;}
	.st8{fill:#002800;stroke:#000000;stroke-width:0.3489;stroke-miterlimit:10;}
	.st9{fill:#0E0D0D;}
	.st10{fill:#FEFEFE;}
	.st11{fill:#0A0909;}
	.st12{fill:#FCFCFC;}
	.st13{fill:#0F0E0E;}
	.st14{fill:none;}
</style>
<g>
	<line class="st2" x1="123.27" y1="11.41" x2="123.27" y2="395.62"/>
	<line class="st2" x1="96.21" y1="130.39" x2="209.96" y2="130.39"/>
	<g>
		<g>
			<path class="st3" d="M35.37,58.43c-0.57,0-1.1-0.1-1.59-0.29c-0.49-0.19-0.91-0.47-1.27-0.82s-0.64-0.76-0.84-1.24
				c-0.2-0.47-0.3-0.99-0.3-1.56c0-0.56,0.1-1.08,0.3-1.56c0.2-0.47,0.48-0.89,0.84-1.24c0.36-0.35,0.79-0.63,1.27-0.82
				c0.48-0.19,1.01-0.29,1.58-0.29c0.54,0,1.05,0.09,1.52,0.26c0.47,0.18,0.88,0.44,1.22,0.8l-0.35,0.36
				c-0.33-0.32-0.7-0.56-1.09-0.7c-0.4-0.14-0.82-0.21-1.27-0.21c-0.49,0-0.95,0.08-1.37,0.25c-0.42,0.17-0.79,0.41-1.1,0.71
				s-0.55,0.67-0.73,1.08c-0.17,0.41-0.26,0.86-0.26,1.34s0.09,0.93,0.26,1.34c0.17,0.41,0.41,0.77,0.73,1.08
				c0.31,0.31,0.68,0.55,1.1,0.72c0.42,0.17,0.88,0.25,1.37,0.25c0.45,0,0.87-0.07,1.27-0.21c0.4-0.14,0.76-0.38,1.09-0.71
				l0.35,0.36c-0.34,0.36-0.74,0.63-1.22,0.81C36.42,58.34,35.92,58.43,35.37,58.43z"/>
			<path class="st3" d="M42.76,57.87h4.75v0.51h-5.31v-7.7h5.15v0.51h-4.59V57.87z M42.69,54.22h4.17v0.5h-4.17V54.22z"/>
			<path class="st3" d="M51.75,58.38v-7.7h2.76c0.65,0,1.2,0.1,1.66,0.31c0.46,0.21,0.82,0.5,1.07,0.89
				c0.25,0.38,0.37,0.85,0.37,1.4c0,0.54-0.13,1-0.37,1.38c-0.25,0.39-0.61,0.68-1.07,0.89s-1.02,0.31-1.66,0.31h-2.45l0.25-0.26
				v2.78H51.75z M52.31,55.63l-0.25-0.26h2.45c0.83,0,1.46-0.18,1.89-0.55c0.43-0.37,0.64-0.88,0.64-1.54
				c0-0.67-0.21-1.18-0.64-1.55c-0.43-0.36-1.06-0.54-1.89-0.54h-2.45l0.25-0.28V55.63z M57.1,58.38l-2-2.79h0.64l2,2.79H57.1z"/>
			<path class="st3" d="M62.43,57.87h4.75v0.51h-5.31v-7.7h5.15v0.51h-4.59V57.87z M62.37,54.22h4.17v0.5h-4.17V54.22z"/>
			<path class="st3" d="M71.43,58.38v-7.7h0.47l3.57,6.17h-0.25l3.56-6.17h0.46l0.01,7.7h-0.55l-0.01-6.85h0.15l-3.38,5.83h-0.27
				l-3.39-5.83h0.17v6.85H71.43z"/>
			<path class="st3" d="M87.42,58.43c-0.57,0-1.1-0.1-1.59-0.29c-0.49-0.19-0.91-0.47-1.28-0.83c-0.36-0.36-0.64-0.77-0.84-1.24
				c-0.2-0.47-0.3-0.99-0.3-1.55c0-0.56,0.1-1.07,0.3-1.55c0.2-0.47,0.48-0.89,0.84-1.24c0.36-0.36,0.79-0.63,1.28-0.82
				c0.49-0.19,1.02-0.29,1.59-0.29c0.57,0,1.1,0.1,1.59,0.29c0.49,0.19,0.91,0.47,1.27,0.82s0.64,0.76,0.84,1.24
				c0.2,0.47,0.3,0.99,0.3,1.56c0,0.56-0.1,1.08-0.3,1.56c-0.2,0.47-0.48,0.89-0.84,1.24s-0.78,0.63-1.27,0.82
				C88.52,58.34,87.99,58.43,87.42,58.43z M87.42,57.92c0.49,0,0.95-0.08,1.36-0.25c0.42-0.17,0.78-0.41,1.09-0.72
				c0.31-0.31,0.55-0.67,0.72-1.08c0.17-0.41,0.26-0.86,0.26-1.34c0-0.49-0.09-0.94-0.26-1.35c-0.17-0.41-0.41-0.76-0.72-1.07
				c-0.31-0.31-0.67-0.55-1.09-0.71c-0.42-0.17-0.87-0.25-1.36-0.25c-0.49,0-0.95,0.08-1.36,0.25c-0.42,0.17-0.78,0.41-1.09,0.71
				s-0.55,0.67-0.73,1.07c-0.17,0.41-0.26,0.86-0.26,1.35c0,0.48,0.09,0.93,0.26,1.34c0.17,0.41,0.41,0.77,0.73,1.08
				c0.31,0.31,0.68,0.55,1.09,0.72C86.47,57.83,86.92,57.92,87.42,57.92z"/>
			<path class="st3" d="M95.57,58.38v-7.7h0.47l5.49,7.01h-0.25v-7.01h0.56v7.7h-0.46l-5.5-7.01h0.25v7.01H95.57z"/>
			<path class="st3" d="M106.72,58.38v-7.7h0.56v7.7H106.72z"/>
			<path class="st3" d="M110.88,58.38l3.54-7.7h0.56l3.54,7.7h-0.61l-3.34-7.35h0.24l-3.33,7.35H110.88z M112.17,56.21l0.19-0.47
				h4.61l0.19,0.47H112.17z"/>
		</g>
	</g>
	<g>
		<g>
			<path class="st4" d="M30.96,73.4v-0.44l4.57-5.64h0.69l-4.56,5.64l-0.34-0.1h6.81v0.54H30.96z M35.76,75.73V73.4l0.01-0.54V70.8
				h0.59v4.93H35.76z"/>
			<path class="st4" d="M39.51,70.43c-0.14,0-0.25-0.05-0.36-0.15c-0.1-0.1-0.15-0.22-0.15-0.37c0-0.14,0.05-0.26,0.15-0.36
				c0.1-0.1,0.22-0.14,0.36-0.14c0.14,0,0.25,0.05,0.35,0.14c0.1,0.1,0.15,0.22,0.15,0.36c0,0.14-0.05,0.27-0.15,0.37
				C39.77,70.38,39.65,70.43,39.51,70.43z M39.51,75.78c-0.14,0-0.25-0.05-0.36-0.15c-0.1-0.1-0.15-0.22-0.15-0.37
				c0-0.14,0.05-0.26,0.15-0.36c0.1-0.1,0.22-0.14,0.36-0.14c0.14,0,0.25,0.05,0.35,0.14c0.1,0.1,0.15,0.22,0.15,0.36
				c0,0.14-0.05,0.27-0.15,0.37C39.77,75.73,39.65,75.78,39.51,75.78z"/>
			<path class="st4" d="M47.76,75.79c-0.64,0-1.21-0.17-1.71-0.52s-0.89-0.84-1.17-1.47c-0.28-0.64-0.42-1.4-0.42-2.28
				s0.14-1.64,0.42-2.28c0.28-0.64,0.67-1.13,1.17-1.47s1.07-0.52,1.71-0.52c0.65,0,1.22,0.17,1.71,0.52s0.88,0.84,1.16,1.47
				c0.28,0.64,0.42,1.4,0.42,2.28s-0.14,1.64-0.42,2.28c-0.28,0.64-0.67,1.13-1.16,1.47S48.41,75.79,47.76,75.79z M47.76,75.23
				c0.54,0,1.01-0.15,1.41-0.44c0.4-0.29,0.71-0.72,0.94-1.27c0.22-0.55,0.34-1.22,0.34-2c0-0.79-0.11-1.45-0.34-2
				c-0.22-0.55-0.54-0.97-0.94-1.26c-0.4-0.29-0.87-0.44-1.41-0.44c-0.53,0-1,0.15-1.4,0.44c-0.41,0.29-0.72,0.71-0.94,1.26
				s-0.34,1.22-0.34,2c0,0.78,0.11,1.44,0.34,2s0.54,0.98,0.94,1.27C46.77,75.08,47.24,75.23,47.76,75.23z"/>
			<path class="st4" d="M55.68,75.79c-0.64,0-1.21-0.17-1.71-0.52s-0.89-0.84-1.17-1.47c-0.28-0.64-0.42-1.4-0.42-2.28
				s0.14-1.64,0.42-2.28c0.28-0.64,0.67-1.13,1.17-1.47s1.07-0.52,1.71-0.52c0.65,0,1.22,0.17,1.71,0.52s0.88,0.84,1.16,1.47
				c0.28,0.64,0.42,1.4,0.42,2.28s-0.14,1.64-0.42,2.28c-0.28,0.64-0.67,1.13-1.16,1.47S56.33,75.79,55.68,75.79z M55.68,75.23
				c0.54,0,1.01-0.15,1.41-0.44c0.4-0.29,0.71-0.72,0.94-1.27c0.22-0.55,0.34-1.22,0.34-2c0-0.79-0.11-1.45-0.34-2
				c-0.22-0.55-0.54-0.97-0.94-1.26c-0.4-0.29-0.87-0.44-1.41-0.44c-0.53,0-1,0.15-1.4,0.44c-0.41,0.29-0.72,0.71-0.94,1.26
				s-0.34,1.22-0.34,2c0,0.78,0.11,1.44,0.34,2s0.54,0.98,0.94,1.27C54.68,75.08,55.15,75.23,55.68,75.23z"/>
			<path class="st4" d="M64,78.07v-8.61h0.58v2.06l-0.1,1.09l0.12,1.09v4.37H64z M67.15,75.78c-0.55,0-1.05-0.13-1.5-0.39
				c-0.45-0.26-0.8-0.62-1.06-1.1c-0.26-0.48-0.39-1.04-0.39-1.7c0-0.66,0.13-1.22,0.39-1.7s0.61-0.84,1.06-1.1
				c0.45-0.26,0.94-0.38,1.5-0.38c0.59,0,1.13,0.13,1.59,0.4s0.84,0.64,1.11,1.12s0.4,1.03,0.4,1.66s-0.13,1.18-0.4,1.66
				c-0.27,0.48-0.64,0.86-1.11,1.12C68.28,75.65,67.75,75.78,67.15,75.78z M67.12,75.24c0.48,0,0.91-0.11,1.3-0.33
				c0.39-0.22,0.69-0.53,0.91-0.93s0.33-0.86,0.33-1.38c0-0.53-0.11-0.99-0.33-1.39s-0.52-0.71-0.91-0.93
				c-0.38-0.22-0.82-0.33-1.3-0.33c-0.48,0-0.91,0.11-1.29,0.33c-0.38,0.22-0.68,0.53-0.9,0.93c-0.22,0.4-0.33,0.86-0.33,1.39
				c0,0.52,0.11,0.98,0.33,1.38c0.22,0.4,0.52,0.71,0.9,0.93S66.63,75.24,67.12,75.24z"/>
			<path class="st4" d="M79.94,69.41c0.5,0,0.94,0.1,1.32,0.29c0.37,0.2,0.66,0.49,0.87,0.89c0.21,0.4,0.31,0.89,0.31,1.47v3.67
				h-0.6v-3.62c0-0.71-0.17-1.24-0.52-1.61c-0.34-0.37-0.83-0.55-1.44-0.55c-0.47,0-0.88,0.1-1.23,0.3
				c-0.34,0.2-0.61,0.48-0.79,0.84s-0.28,0.79-0.28,1.3v3.34h-0.6v-3.62c0-0.71-0.17-1.24-0.52-1.61c-0.35-0.37-0.83-0.55-1.44-0.55
				c-0.47,0-0.88,0.1-1.23,0.3c-0.34,0.2-0.61,0.48-0.79,0.84c-0.18,0.36-0.28,0.79-0.28,1.3v3.34h-0.6v-6.28h0.58v1.73l-0.08-0.19
				c0.18-0.49,0.49-0.88,0.93-1.16c0.43-0.28,0.95-0.43,1.56-0.43c0.63,0,1.15,0.16,1.58,0.48c0.43,0.32,0.7,0.79,0.81,1.41
				l-0.21-0.08c0.17-0.54,0.49-0.97,0.95-1.3S79.27,69.41,79.94,69.41z"/>
		</g>
	</g>
	<g>
		<path class="st4" d="M72.12,116.67c1.46,0,2.92,0,4.38,0.01c0.19,0,0.25-0.06,0.29-0.24c0.56-2.61,2.12-4.28,4.73-4.9
			c3.27-0.77,6.62,1.49,7.23,4.8c0.6,3.29-1.49,6.38-4.73,7.08c-1.06,0.23-2.12,0.17-3.14-0.19c-0.19-0.07-0.29-0.05-0.4,0.14
			c-1.42,2.5-2.85,4.99-4.28,7.49c-0.07,0.12-0.1,0.24-0.1,0.38c0,2.38,0,4.77,0,7.15c0,0.21,0.05,0.27,0.26,0.26
			c0.79-0.01,1.58,0,2.37,0c0.28,0,0.48,0.15,0.59,0.39c0.12,0.26,0.08,0.51-0.09,0.73c-0.15,0.19-0.36,0.27-0.59,0.27
			c-2.15,0-4.3,0-6.45,0c-0.44,0-0.75-0.31-0.74-0.72c0.01-0.4,0.3-0.67,0.75-0.67c0.76-0.01,1.52-0.01,2.28,0
			c0.2,0,0.25-0.05,0.25-0.25c-0.01-2.39-0.01-4.78,0-7.18c0-0.15-0.05-0.27-0.12-0.4c-2.48-4.33-4.96-8.66-7.44-12.99
			c-0.06-0.1-0.12-0.2-0.15-0.31c-0.11-0.47,0.19-0.85,0.7-0.85C69.18,116.67,70.65,116.67,72.12,116.67z M68.92,118.02
			c0,0.02-0.01,0.04,0,0.06c0.67,1.17,1.33,2.34,2,3.52c0.04,0.08,0.1,0.12,0.18,0.14c0.94,0.21,1.88,0.32,2.85,0.29
			c1.04-0.03,2.02-0.33,3-0.64c1.1-0.35,2.19-0.72,3.36-0.71c0.14,0,0.17-0.1,0.23-0.19c0.44-0.76,0.87-1.52,1.3-2.28
			c0.03-0.05,0.11-0.1,0.05-0.19C77.56,118.02,73.24,118.02,68.92,118.02z M82.72,112.8c0.16,0.98,0.32,1.93,0.48,2.92
			c0.57-0.79,1.11-1.54,1.65-2.28c0.07-0.09,0.05-0.13-0.05-0.17C84.16,112.94,83.47,112.8,82.72,112.8z M84.54,117.88
			c0.79,0.57,1.54,1.11,2.28,1.65c0.16,0.11,0.16-0.03,0.2-0.1c0.27-0.57,0.41-1.17,0.44-1.81c0.01-0.22-0.08-0.22-0.25-0.19
			C86.34,117.59,85.47,117.73,84.54,117.88z M87.25,116.06c-0.23-0.71-0.6-1.31-1.1-1.83c-0.07-0.07-0.11-0.07-0.16,0.01
			c-0.12,0.17-0.24,0.33-0.36,0.5c-0.42,0.58-0.84,1.15-1.3,1.79C85.34,116.38,86.28,116.22,87.25,116.06z M81.35,113.01
			c-0.68,0.22-1.26,0.57-1.77,1.05c-0.13,0.12-0.11,0.17,0.03,0.27c0.68,0.48,1.35,0.97,2.02,1.46c0.05,0.03,0.09,0.1,0.19,0.07
			C81.66,114.91,81.51,113.97,81.35,113.01z M83.74,119.02c-0.01,0.05-0.01,0.08-0.01,0.11c0.14,0.88,0.29,1.76,0.43,2.64
			c0.02,0.16,0.1,0.14,0.2,0.1c0.66-0.25,1.25-0.61,1.74-1.14C85.31,120.16,84.54,119.6,83.74,119.02z M82.47,119.95
			c-0.38,0.67-0.72,1.28-1.07,1.88c-0.08,0.13,0.03,0.14,0.1,0.15c0.38,0.1,0.76,0.18,1.16,0.19c0.15,0,0.18-0.03,0.15-0.18
			C82.69,121.33,82.59,120.67,82.47,119.95z M80.43,116.66c-0.58-0.43-1.12-0.82-1.64-1.22c-0.15-0.11-0.2-0.07-0.26,0.07
			c-0.16,0.37-0.29,0.75-0.37,1.15C78.9,116.66,79.63,116.66,80.43,116.66z"/>
	</g>
	<g>
		<g>
			<path class="st3" d="M145.81,125.78c-0.63,0-1.21-0.11-1.74-0.32c-0.53-0.21-1-0.51-1.39-0.9c-0.39-0.38-0.7-0.84-0.91-1.35
				s-0.33-1.08-0.33-1.7c0-0.62,0.11-1.18,0.33-1.7c0.22-0.52,0.52-0.97,0.92-1.35c0.4-0.38,0.86-0.68,1.39-0.9
				c0.53-0.21,1.11-0.32,1.73-0.32c0.59,0,1.15,0.1,1.67,0.29c0.52,0.19,0.96,0.48,1.33,0.88l-0.38,0.4
				c-0.36-0.35-0.76-0.61-1.2-0.76c-0.44-0.16-0.9-0.23-1.39-0.23c-0.54,0-1.04,0.09-1.5,0.28s-0.86,0.44-1.2,0.78
				s-0.61,0.73-0.79,1.18s-0.28,0.94-0.28,1.47s0.09,1.02,0.28,1.47s0.45,0.84,0.79,1.18s0.74,0.6,1.2,0.78s0.96,0.28,1.5,0.28
				c0.49,0,0.95-0.08,1.39-0.23c0.44-0.16,0.84-0.42,1.2-0.78l0.38,0.4c-0.37,0.39-0.81,0.69-1.33,0.88
				C146.96,125.68,146.4,125.78,145.81,125.78z"/>
			<path class="st3" d="M156.84,125.78c-0.63,0-1.2-0.11-1.74-0.32c-0.53-0.21-1-0.51-1.4-0.9c-0.4-0.39-0.7-0.84-0.92-1.36
				c-0.22-0.52-0.33-1.08-0.33-1.69s0.11-1.17,0.33-1.69s0.52-0.97,0.92-1.36c0.4-0.39,0.86-0.69,1.4-0.9
				c0.53-0.21,1.11-0.32,1.74-0.32c0.63,0,1.21,0.11,1.74,0.32c0.53,0.21,1,0.51,1.39,0.9c0.39,0.39,0.7,0.84,0.92,1.35
				c0.22,0.52,0.33,1.08,0.33,1.7c0,0.62-0.11,1.18-0.33,1.7c-0.22,0.52-0.53,0.97-0.92,1.35c-0.39,0.39-0.86,0.68-1.39,0.9
				C158.04,125.68,157.46,125.78,156.84,125.78z M156.84,125.22c0.54,0,1.04-0.09,1.49-0.28s0.85-0.44,1.19-0.78s0.6-0.73,0.79-1.18
				c0.19-0.45,0.28-0.94,0.28-1.47c0-0.54-0.09-1.03-0.28-1.47c-0.19-0.44-0.45-0.84-0.79-1.17s-0.73-0.6-1.19-0.78
				s-0.96-0.28-1.49-0.28s-1.03,0.09-1.49,0.28s-0.86,0.44-1.2,0.78s-0.61,0.73-0.79,1.17c-0.19,0.45-0.28,0.94-0.28,1.47
				c0,0.53,0.09,1.02,0.28,1.47s0.45,0.84,0.79,1.18s0.74,0.6,1.2,0.78S156.3,125.22,156.84,125.22z M156.15,116.62l1.67-1.42h0.87
				l-1.89,1.42H156.15z"/>
			<path class="st3" d="M169.31,125.78c-0.63,0-1.21-0.11-1.74-0.32c-0.53-0.21-1-0.51-1.39-0.9c-0.39-0.38-0.7-0.84-0.91-1.35
				s-0.33-1.08-0.33-1.7c0-0.62,0.11-1.18,0.33-1.7c0.22-0.52,0.52-0.97,0.92-1.35c0.4-0.38,0.86-0.68,1.39-0.9
				c0.53-0.21,1.11-0.32,1.73-0.32c0.59,0,1.15,0.1,1.67,0.29c0.52,0.19,0.96,0.48,1.33,0.88l-0.38,0.4
				c-0.36-0.35-0.76-0.61-1.2-0.76c-0.44-0.16-0.9-0.23-1.39-0.23c-0.54,0-1.04,0.09-1.5,0.28s-0.86,0.44-1.2,0.78
				s-0.61,0.73-0.79,1.18s-0.28,0.94-0.28,1.47s0.09,1.02,0.28,1.47s0.45,0.84,0.79,1.18s0.74,0.6,1.2,0.78s0.96,0.28,1.5,0.28
				c0.49,0,0.95-0.08,1.39-0.23c0.44-0.16,0.84-0.42,1.2-0.78l0.38,0.4c-0.37,0.39-0.81,0.69-1.33,0.88
				C170.46,125.68,169.9,125.78,169.31,125.78z"/>
			<path class="st3" d="M178.38,125.72v-7.87h-3.03v-0.55h6.68v0.55h-3.03v7.87H178.38z"/>
			<path class="st3" d="M186.56,125.17h5.2v0.55h-5.81v-8.42h5.63v0.55h-5.01V125.17z M186.49,121.18h4.56v0.54h-4.56V121.18z"/>
			<path class="st3" d="M196.4,125.72v-8.42h0.61v7.87h4.85v0.55H196.4z"/>
		</g>
	</g>
	<g>
		<g>
			<path class="st4" d="M162.79,142.61c-0.61,0-1.18-0.1-1.71-0.31s-0.95-0.48-1.25-0.82l0.31-0.47c0.26,0.3,0.62,0.54,1.08,0.74
				c0.46,0.2,0.98,0.29,1.55,0.29c0.78,0,1.36-0.18,1.76-0.53c0.39-0.35,0.59-0.81,0.59-1.37c0-0.4-0.09-0.75-0.28-1.03
				s-0.5-0.51-0.94-0.67c-0.44-0.16-1.04-0.23-1.8-0.23h-1.71l0.45-4.08h4.46v0.55h-4.21l0.3-0.29l-0.4,3.57l-0.29-0.31h1.53
				c0.86,0,1.54,0.1,2.05,0.31c0.51,0.2,0.88,0.49,1.11,0.86c0.23,0.37,0.34,0.8,0.34,1.3c0,0.47-0.11,0.89-0.32,1.26
				c-0.22,0.38-0.54,0.68-0.98,0.9C163.99,142.5,163.44,142.61,162.79,142.61z"/>
			<path class="st4" d="M167.43,137.25c-0.14,0-0.25-0.05-0.36-0.15c-0.1-0.1-0.15-0.22-0.15-0.37c0-0.14,0.05-0.26,0.15-0.36
				c0.1-0.1,0.22-0.14,0.36-0.14c0.14,0,0.25,0.05,0.35,0.14c0.1,0.1,0.15,0.22,0.15,0.36c0,0.14-0.05,0.27-0.15,0.37
				C167.68,137.2,167.57,137.25,167.43,137.25z M167.43,142.6c-0.14,0-0.25-0.05-0.36-0.15c-0.1-0.1-0.15-0.22-0.15-0.37
				c0-0.14,0.05-0.26,0.15-0.36c0.1-0.1,0.22-0.14,0.36-0.14c0.14,0,0.25,0.05,0.35,0.14c0.1,0.1,0.15,0.22,0.15,0.36
				c0,0.14-0.05,0.27-0.15,0.37C167.68,142.55,167.57,142.6,167.43,142.6z"/>
			<path class="st4" d="M175.68,142.61c-0.64,0-1.21-0.17-1.71-0.52s-0.89-0.84-1.17-1.47c-0.28-0.64-0.42-1.4-0.42-2.28
				s0.14-1.64,0.42-2.28c0.28-0.64,0.67-1.13,1.17-1.47s1.07-0.52,1.71-0.52c0.65,0,1.22,0.17,1.71,0.52s0.88,0.84,1.16,1.47
				c0.28,0.64,0.42,1.4,0.42,2.28s-0.14,1.64-0.42,2.28c-0.28,0.64-0.67,1.13-1.16,1.47S176.33,142.61,175.68,142.61z
				 M175.68,142.05c0.54,0,1.01-0.15,1.41-0.44c0.4-0.29,0.71-0.72,0.94-1.27c0.22-0.55,0.34-1.22,0.34-2c0-0.79-0.11-1.45-0.34-2
				c-0.22-0.55-0.54-0.97-0.94-1.26c-0.4-0.29-0.87-0.44-1.41-0.44c-0.53,0-1,0.15-1.4,0.44c-0.41,0.29-0.72,0.71-0.94,1.26
				s-0.34,1.22-0.34,2c0,0.78,0.11,1.44,0.34,2s0.54,0.98,0.94,1.27C174.68,141.9,175.15,142.05,175.68,142.05z"/>
			<path class="st4" d="M183.59,142.61c-0.64,0-1.21-0.17-1.71-0.52s-0.89-0.84-1.17-1.47c-0.28-0.64-0.42-1.4-0.42-2.28
				s0.14-1.64,0.42-2.28c0.28-0.64,0.67-1.13,1.17-1.47s1.07-0.52,1.71-0.52c0.65,0,1.22,0.17,1.71,0.52s0.88,0.84,1.16,1.47
				c0.28,0.64,0.42,1.4,0.42,2.28s-0.14,1.64-0.42,2.28c-0.28,0.64-0.67,1.13-1.16,1.47S184.24,142.61,183.59,142.61z
				 M183.59,142.05c0.54,0,1.01-0.15,1.41-0.44c0.4-0.29,0.71-0.72,0.94-1.27c0.22-0.55,0.34-1.22,0.34-2c0-0.79-0.11-1.45-0.34-2
				c-0.22-0.55-0.54-0.97-0.94-1.26c-0.4-0.29-0.87-0.44-1.41-0.44c-0.53,0-1,0.15-1.4,0.44c-0.41,0.29-0.72,0.71-0.94,1.26
				s-0.34,1.22-0.34,2c0,0.78,0.11,1.44,0.34,2s0.54,0.98,0.94,1.27C182.6,141.9,183.06,142.05,183.59,142.05z"/>
			<path class="st4" d="M191.92,144.89v-8.61h0.58v2.06l-0.1,1.09l0.12,1.09v4.37H191.92z M195.07,142.6c-0.55,0-1.05-0.13-1.5-0.39
				c-0.45-0.26-0.8-0.62-1.06-1.1c-0.26-0.48-0.39-1.04-0.39-1.7c0-0.66,0.13-1.22,0.39-1.7s0.61-0.84,1.06-1.1
				c0.45-0.26,0.94-0.38,1.5-0.38c0.59,0,1.13,0.13,1.59,0.4s0.84,0.64,1.11,1.12s0.4,1.03,0.4,1.66s-0.13,1.18-0.4,1.66
				c-0.27,0.48-0.64,0.86-1.11,1.12C196.19,142.47,195.66,142.6,195.07,142.6z M195.03,142.06c0.48,0,0.91-0.11,1.3-0.33
				c0.39-0.22,0.69-0.53,0.91-0.93s0.33-0.86,0.33-1.38c0-0.53-0.11-0.99-0.33-1.39s-0.52-0.71-0.91-0.93
				c-0.38-0.22-0.82-0.33-1.3-0.33c-0.48,0-0.91,0.11-1.29,0.33c-0.38,0.22-0.68,0.53-0.9,0.93c-0.22,0.4-0.33,0.86-0.33,1.39
				c0,0.52,0.11,0.98,0.33,1.38c0.22,0.4,0.52,0.71,0.9,0.93S194.55,142.06,195.03,142.06z"/>
			<path class="st4" d="M207.85,136.23c0.5,0,0.94,0.1,1.32,0.29c0.37,0.2,0.66,0.49,0.87,0.89c0.21,0.4,0.31,0.89,0.31,1.47v3.67
				h-0.6v-3.62c0-0.71-0.17-1.24-0.52-1.61c-0.34-0.37-0.83-0.55-1.44-0.55c-0.47,0-0.88,0.1-1.23,0.3
				c-0.34,0.2-0.61,0.48-0.79,0.84s-0.28,0.79-0.28,1.3v3.34h-0.6v-3.62c0-0.71-0.17-1.24-0.52-1.61c-0.35-0.37-0.83-0.55-1.44-0.55
				c-0.47,0-0.88,0.1-1.23,0.3c-0.34,0.2-0.61,0.48-0.79,0.84c-0.18,0.36-0.28,0.79-0.28,1.3v3.34h-0.6v-6.28h0.58v1.73l-0.08-0.19
				c0.18-0.49,0.49-0.88,0.93-1.16c0.43-0.28,0.95-0.43,1.56-0.43c0.63,0,1.15,0.16,1.58,0.48c0.43,0.32,0.7,0.79,0.81,1.41
				l-0.21-0.08c0.17-0.54,0.49-0.97,0.95-1.3S207.19,136.23,207.85,136.23z"/>
		</g>
	</g>
	<g>
		<g>
			<path class="st3" d="M33.38,199.01v-7.7h2.76c0.65,0,1.2,0.1,1.66,0.31c0.46,0.21,0.82,0.5,1.07,0.89
				c0.25,0.38,0.37,0.85,0.37,1.4c0,0.54-0.13,1-0.37,1.38c-0.25,0.39-0.61,0.68-1.07,0.89s-1.02,0.31-1.66,0.31h-2.45l0.25-0.26
				v2.78H33.38z M33.94,196.26L33.69,196h2.45c0.83,0,1.46-0.18,1.89-0.55c0.43-0.37,0.64-0.88,0.64-1.54
				c0-0.67-0.21-1.18-0.64-1.55c-0.43-0.36-1.06-0.54-1.89-0.54h-2.45l0.25-0.28V196.26z M38.73,199.01l-2-2.79h0.64l2,2.79H38.73z"
				/>
			<path class="st3" d="M44.06,198.51h4.75v0.51H43.5v-7.7h5.15v0.51h-4.59V198.51z M44,194.85h4.17v0.5H44V194.85z"/>
			<path class="st3" d="M56.32,199.07c-0.57,0-1.1-0.1-1.59-0.29c-0.49-0.19-0.91-0.47-1.27-0.82s-0.64-0.76-0.84-1.24
				c-0.2-0.47-0.3-0.99-0.3-1.56c0-0.56,0.1-1.08,0.3-1.56c0.2-0.47,0.48-0.89,0.84-1.24c0.36-0.35,0.79-0.63,1.27-0.82
				c0.48-0.19,1.01-0.29,1.58-0.29c0.54,0,1.05,0.09,1.52,0.26c0.47,0.18,0.88,0.44,1.22,0.8l-0.35,0.36
				c-0.33-0.32-0.7-0.56-1.09-0.7c-0.4-0.14-0.82-0.21-1.27-0.21c-0.49,0-0.95,0.08-1.37,0.25c-0.42,0.17-0.79,0.41-1.1,0.71
				s-0.55,0.67-0.73,1.08c-0.17,0.41-0.26,0.86-0.26,1.34s0.09,0.93,0.26,1.34c0.17,0.41,0.41,0.77,0.73,1.08
				c0.31,0.31,0.68,0.55,1.1,0.72c0.42,0.17,0.88,0.25,1.37,0.25c0.45,0,0.87-0.07,1.27-0.21c0.4-0.14,0.76-0.38,1.09-0.71
				l0.35,0.36c-0.34,0.36-0.74,0.63-1.22,0.81C57.37,198.98,56.86,199.07,56.32,199.07z"/>
			<path class="st3" d="M63.7,198.51h4.75v0.51h-5.31v-7.7h5.15v0.51H63.7V198.51z M63.63,194.85h4.17v0.5h-4.17V194.85z"/>
			<path class="st3" d="M72.69,199.01v-7.7h2.76c0.65,0,1.2,0.1,1.66,0.31c0.46,0.21,0.82,0.5,1.07,0.89
				c0.25,0.38,0.37,0.85,0.37,1.4c0,0.54-0.13,1-0.37,1.39s-0.61,0.69-1.07,0.89c-0.46,0.21-1.02,0.31-1.66,0.31H73l0.25-0.26v2.78
				H72.69z M73.26,196.26L73,195.99h2.45c0.83,0,1.46-0.18,1.89-0.54c0.43-0.36,0.64-0.87,0.64-1.53c0-0.67-0.21-1.18-0.64-1.55
				c-0.43-0.36-1.06-0.54-1.89-0.54H73l0.25-0.28V196.26z"/>
			<path class="st3" d="M86.02,199.07c-0.57,0-1.1-0.1-1.59-0.29c-0.49-0.19-0.91-0.47-1.27-0.82s-0.64-0.76-0.84-1.24
				c-0.2-0.47-0.3-0.99-0.3-1.56c0-0.56,0.1-1.08,0.3-1.56c0.2-0.47,0.48-0.89,0.84-1.24c0.36-0.35,0.79-0.63,1.27-0.82
				c0.48-0.19,1.01-0.29,1.58-0.29c0.54,0,1.05,0.09,1.52,0.26c0.47,0.18,0.88,0.44,1.22,0.8l-0.35,0.36
				c-0.33-0.32-0.7-0.56-1.09-0.7c-0.4-0.14-0.82-0.21-1.27-0.21c-0.49,0-0.95,0.08-1.37,0.25c-0.42,0.17-0.79,0.41-1.1,0.71
				s-0.55,0.67-0.73,1.08c-0.17,0.41-0.26,0.86-0.26,1.34s0.09,0.93,0.26,1.34c0.17,0.41,0.41,0.77,0.73,1.08
				c0.31,0.31,0.68,0.55,1.1,0.72c0.42,0.17,0.88,0.25,1.37,0.25c0.45,0,0.87-0.07,1.27-0.21c0.4-0.14,0.76-0.38,1.09-0.71
				l0.35,0.36c-0.34,0.36-0.74,0.63-1.22,0.81C87.07,198.98,86.56,199.07,86.02,199.07z"/>
			<path class="st3" d="M92.84,199.01v-7.7h0.56v7.7H92.84z"/>
			<path class="st3" d="M101.55,199.07c-0.57,0-1.1-0.1-1.59-0.29c-0.49-0.19-0.91-0.47-1.28-0.83c-0.36-0.36-0.64-0.77-0.84-1.24
				c-0.2-0.47-0.3-0.99-0.3-1.55c0-0.56,0.1-1.07,0.3-1.55c0.2-0.47,0.48-0.89,0.84-1.24c0.36-0.36,0.79-0.63,1.28-0.82
				c0.49-0.19,1.02-0.29,1.59-0.29c0.57,0,1.1,0.1,1.59,0.29c0.49,0.19,0.91,0.47,1.27,0.82s0.64,0.76,0.84,1.24
				c0.2,0.47,0.3,0.99,0.3,1.56c0,0.56-0.1,1.08-0.3,1.56c-0.2,0.47-0.48,0.89-0.84,1.24s-0.78,0.63-1.27,0.82
				C102.65,198.97,102.12,199.07,101.55,199.07z M101.55,198.55c0.49,0,0.95-0.08,1.36-0.25c0.42-0.17,0.78-0.41,1.09-0.72
				c0.31-0.31,0.55-0.67,0.72-1.08c0.17-0.41,0.26-0.86,0.26-1.34c0-0.49-0.09-0.94-0.26-1.35c-0.17-0.41-0.41-0.76-0.72-1.07
				c-0.31-0.31-0.67-0.55-1.09-0.71c-0.42-0.17-0.87-0.25-1.36-0.25c-0.49,0-0.95,0.08-1.36,0.25c-0.42,0.17-0.78,0.41-1.09,0.71
				s-0.55,0.67-0.73,1.07c-0.17,0.41-0.26,0.86-0.26,1.35c0,0.48,0.09,0.93,0.26,1.34c0.17,0.41,0.41,0.77,0.73,1.08
				c0.31,0.31,0.68,0.55,1.09,0.72C100.6,198.47,101.06,198.55,101.55,198.55z M100.92,190.68l1.53-1.3h0.79l-1.73,1.3H100.92z"/>
			<path class="st3" d="M109.7,199.01v-7.7h0.47l5.49,7.01h-0.25v-7.01h0.56v7.7h-0.46l-5.5-7.01h0.25v7.01H109.7z"/>
		</g>
	</g>
	<g>
		<g>
			<path class="st4" d="M36.91,214.86c-0.74,0-1.36-0.17-1.86-0.5s-0.88-0.82-1.14-1.46c-0.26-0.63-0.38-1.39-0.38-2.26
				c0-0.95,0.16-1.75,0.47-2.39c0.31-0.64,0.75-1.12,1.31-1.44c0.56-0.33,1.21-0.49,1.96-0.49c0.36,0,0.71,0.03,1.03,0.1
				c0.33,0.06,0.62,0.18,0.88,0.34l-0.25,0.49c-0.22-0.14-0.47-0.23-0.75-0.29c-0.28-0.06-0.59-0.09-0.91-0.09
				c-0.95,0-1.7,0.31-2.27,0.92c-0.57,0.61-0.85,1.53-0.85,2.76c0,0.18,0.01,0.42,0.04,0.7c0.02,0.29,0.08,0.56,0.16,0.84
				l-0.22-0.06c0.06-0.46,0.21-0.86,0.47-1.19c0.26-0.33,0.58-0.58,0.99-0.75c0.4-0.17,0.84-0.26,1.32-0.26
				c0.56,0,1.05,0.1,1.47,0.31c0.42,0.2,0.75,0.5,0.99,0.87c0.24,0.38,0.36,0.82,0.36,1.32c0,0.51-0.12,0.96-0.37,1.34
				s-0.58,0.68-1,0.88C37.92,214.76,37.44,214.86,36.91,214.86z M36.88,214.33c0.44,0,0.83-0.08,1.15-0.25
				c0.33-0.16,0.59-0.4,0.78-0.7s0.28-0.65,0.28-1.05c0-0.6-0.2-1.08-0.61-1.44c-0.41-0.36-0.96-0.54-1.68-0.54
				c-0.46,0-0.86,0.09-1.21,0.26c-0.35,0.18-0.63,0.42-0.82,0.72s-0.29,0.65-0.29,1.02c0,0.33,0.09,0.64,0.28,0.94
				c0.18,0.3,0.45,0.55,0.81,0.74C35.92,214.24,36.36,214.33,36.88,214.33z"/>
			<path class="st4" d="M41.31,209.5c-0.14,0-0.25-0.05-0.36-0.15c-0.1-0.1-0.15-0.22-0.15-0.37s0.05-0.26,0.15-0.36
				c0.1-0.1,0.22-0.14,0.36-0.14c0.14,0,0.25,0.05,0.35,0.14c0.1,0.1,0.15,0.22,0.15,0.36s-0.05,0.27-0.15,0.37
				C41.56,209.45,41.44,209.5,41.31,209.5z M41.31,214.85c-0.14,0-0.25-0.05-0.36-0.15c-0.1-0.1-0.15-0.22-0.15-0.37
				c0-0.14,0.05-0.26,0.15-0.36c0.1-0.1,0.22-0.14,0.36-0.14c0.14,0,0.25,0.05,0.35,0.14c0.1,0.1,0.15,0.22,0.15,0.36
				c0,0.14-0.05,0.27-0.15,0.37C41.56,214.8,41.44,214.85,41.31,214.85z"/>
			<path class="st4" d="M49.56,214.86c-0.64,0-1.21-0.17-1.71-0.52s-0.89-0.84-1.17-1.47c-0.28-0.64-0.42-1.4-0.42-2.28
				s0.14-1.64,0.42-2.28c0.28-0.64,0.67-1.13,1.17-1.47s1.07-0.52,1.71-0.52c0.65,0,1.22,0.17,1.71,0.52s0.88,0.84,1.16,1.47
				c0.28,0.64,0.42,1.4,0.42,2.28s-0.14,1.64-0.42,2.28c-0.28,0.64-0.67,1.13-1.16,1.47S50.21,214.86,49.56,214.86z M49.56,214.29
				c0.54,0,1.01-0.15,1.41-0.44c0.4-0.29,0.71-0.72,0.94-1.27c0.22-0.55,0.34-1.22,0.34-2c0-0.79-0.11-1.45-0.34-2
				c-0.22-0.55-0.54-0.97-0.94-1.26c-0.4-0.29-0.87-0.44-1.41-0.44c-0.53,0-1,0.15-1.4,0.44c-0.41,0.29-0.72,0.71-0.94,1.26
				c-0.22,0.55-0.34,1.22-0.34,2c0,0.78,0.11,1.44,0.34,2c0.22,0.55,0.54,0.98,0.94,1.27S49.03,214.29,49.56,214.29z"/>
			<path class="st4" d="M57.47,214.86c-0.64,0-1.21-0.17-1.71-0.52s-0.89-0.84-1.17-1.47c-0.28-0.64-0.42-1.4-0.42-2.28
				s0.14-1.64,0.42-2.28c0.28-0.64,0.67-1.13,1.17-1.47s1.07-0.52,1.71-0.52c0.65,0,1.22,0.17,1.71,0.52s0.88,0.84,1.16,1.47
				c0.28,0.64,0.42,1.4,0.42,2.28s-0.14,1.64-0.42,2.28c-0.28,0.64-0.67,1.13-1.16,1.47S58.12,214.86,57.47,214.86z M57.47,214.29
				c0.54,0,1.01-0.15,1.41-0.44c0.4-0.29,0.71-0.72,0.94-1.27c0.22-0.55,0.34-1.22,0.34-2c0-0.79-0.11-1.45-0.34-2
				c-0.22-0.55-0.54-0.97-0.94-1.26c-0.4-0.29-0.87-0.44-1.41-0.44c-0.53,0-1,0.15-1.4,0.44c-0.41,0.29-0.72,0.71-0.94,1.26
				c-0.22,0.55-0.34,1.22-0.34,2c0,0.78,0.11,1.44,0.34,2c0.22,0.55,0.54,0.98,0.94,1.27S56.94,214.29,57.47,214.29z"/>
			<path class="st4" d="M65.79,217.13v-8.61h0.58v2.06l-0.1,1.09l0.12,1.09v4.37H65.79z M68.95,214.85c-0.55,0-1.05-0.13-1.5-0.38
				s-0.8-0.62-1.06-1.1c-0.26-0.48-0.39-1.04-0.39-1.7c0-0.66,0.13-1.22,0.39-1.7c0.26-0.48,0.61-0.84,1.06-1.1s0.94-0.38,1.5-0.38
				c0.59,0,1.13,0.13,1.59,0.4s0.84,0.64,1.11,1.13c0.27,0.48,0.4,1.03,0.4,1.66c0,0.63-0.13,1.18-0.4,1.66s-0.64,0.86-1.11,1.12
				C70.07,214.71,69.54,214.85,68.95,214.85z M68.91,214.31c0.48,0,0.91-0.11,1.3-0.33c0.39-0.22,0.69-0.53,0.91-0.93
				c0.22-0.4,0.33-0.86,0.33-1.38c0-0.53-0.11-0.99-0.33-1.39c-0.22-0.4-0.52-0.71-0.91-0.93c-0.38-0.22-0.82-0.33-1.3-0.33
				c-0.48,0-0.91,0.11-1.29,0.33c-0.38,0.22-0.68,0.53-0.9,0.93c-0.22,0.4-0.33,0.86-0.33,1.39c0,0.52,0.11,0.98,0.33,1.38
				c0.22,0.4,0.52,0.71,0.9,0.93S68.43,214.31,68.91,214.31z"/>
			<path class="st4" d="M81.73,208.47c0.5,0,0.94,0.1,1.32,0.29c0.37,0.2,0.66,0.49,0.87,0.89c0.21,0.4,0.31,0.89,0.31,1.47v3.67
				h-0.6v-3.62c0-0.71-0.17-1.24-0.52-1.61c-0.34-0.37-0.83-0.55-1.44-0.55c-0.47,0-0.88,0.1-1.23,0.3s-0.61,0.48-0.79,0.84
				c-0.18,0.36-0.28,0.79-0.28,1.3v3.34h-0.6v-3.62c0-0.71-0.17-1.24-0.52-1.61c-0.35-0.37-0.83-0.55-1.44-0.55
				c-0.47,0-0.88,0.1-1.23,0.3s-0.61,0.48-0.79,0.84c-0.18,0.36-0.28,0.79-0.28,1.3v3.34h-0.6v-6.28h0.58v1.73l-0.08-0.19
				c0.18-0.49,0.49-0.88,0.93-1.16c0.43-0.29,0.95-0.43,1.56-0.43c0.63,0,1.15,0.16,1.58,0.47c0.43,0.32,0.7,0.79,0.81,1.41
				l-0.21-0.08c0.17-0.54,0.49-0.97,0.95-1.3C80.5,208.64,81.07,208.47,81.73,208.47z"/>
		</g>
	</g>
	<circle class="st2" cx="123.27" cy="11.41" r="5.05"/>
	<circle class="st2" cx="123.27" cy="395.62" r="5.05"/>
	<g>
		<path class="st5" d="M178.39,52.73c0-0.68,0.01-1.32,0-1.96c-0.01-0.62-0.04-1.24-0.06-1.87c-0.02-0.77,0.38-1.31,1.12-1.51
			c0.52-0.14,1.03-0.28,1.56-0.39c0.48-0.1,0.93,0,1.29,0.35c0.93,0.91,1.84,1.83,2.76,2.75c0.35,0.36,0.45,0.81,0.35,1.29
			c-0.11,0.54-0.23,1.07-0.35,1.6c-0.16,0.7-0.72,1.15-1.43,1.14c-1.18-0.03-2.36-0.07-3.55-0.1c-0.11,0-0.23,0-0.38,0
			c0.16,0.21,0.3,0.4,0.44,0.59c1.44,2.03,2.15,4.29,1.94,6.78c-0.36,4.32-2.59,7.33-6.55,9.05c-0.17,0.07-0.27,0.17-0.34,0.33
			c-1.5,3.56-4.16,5.75-7.95,6.45c-5.45,1.01-10.82-2.64-11.96-8.04c-1.08-5.11,1.53-10.02,6.37-11.99c0.17-0.07,0.24-0.17,0.3-0.32
			c1.55-3.62,4.26-5.83,8.15-6.46c3.02-0.49,5.76,0.3,8.16,2.21C178.3,52.65,178.34,52.68,178.39,52.73z M173.64,67.89
			c0.46-0.1,0.86-0.28,1.26-0.45c0.18-0.08,0.25-0.18,0.25-0.38c-0.01-0.74-0.07-1.47-0.23-2.2c-1.11-5.06-6.02-8.51-11.37-7.42
			c-5.24,1.07-8.51,5.98-7.59,11.23c0.87,4.97,5.58,8.46,10.6,7.86c2.24-0.27,4.17-1.2,5.77-2.79c0.83-0.83,1.5-1.79,1.99-2.9
			c-0.57,0.13-1.1,0.24-1.64,0.28c-0.15,0.01-0.2,0.13-0.28,0.23c-2.02,2.9-4.78,4.19-8.29,3.67c-4.51-0.67-7.6-5.15-6.73-9.64
			c1.06-5.42,7.03-8.32,11.9-5.73c2.6,1.38,4.05,3.6,4.37,6.54C173.73,66.75,173.69,67.31,173.64,67.89z M162.82,56.81
			c0.54-0.13,1.02-0.23,1.51-0.27c0.19-0.01,0.3-0.07,0.4-0.23c1.87-2.87,5.14-4.27,8.5-3.65c4.35,0.81,7.31,5.09,6.55,9.45
			c-0.76,4.34-4.73,7.33-9.11,6.76c-3.33-0.43-5.57-2.32-6.77-5.43c-0.45-1.18-0.54-2.41-0.41-3.69c-0.49,0.13-0.93,0.31-1.37,0.52
			c-0.14,0.06-0.13,0.16-0.14,0.28c-0.01,0.68,0.05,1.35,0.18,2.01c1.09,5.69,6.9,9.15,12.41,7.4c4.78-1.51,7.61-6.42,6.53-11.31
			c-0.91-4.12-4.39-7.2-8.6-7.55c-2.37-0.2-4.56,0.38-6.5,1.78C164.62,53.88,163.56,55.17,162.82,56.81z M161.22,60.86
			c-2.13,1.37-3.67,4.3-3.07,7.43c0.62,3.3,3.28,5.66,6.46,6.04c3.32,0.39,5.98-1.53,6.92-3.15
			C165.71,71.09,161.28,66.38,161.22,60.86z M175.96,66.78c2.21-1.44,3.68-4.45,2.99-7.61c-0.72-3.34-3.51-5.64-6.69-5.86
			c-2.7-0.19-6.07,1.46-6.63,3.15C171.69,56.61,175.96,61.56,175.96,66.78z M172.94,66.86c-0.12-2.8-1.36-4.99-3.84-6.43
			c-1.41-0.82-2.95-1.09-4.57-0.88c-0.15,0.02-0.24,0.06-0.26,0.24c-0.13,0.99-0.05,1.96,0.21,2.91c0.98,3.57,4.45,5.88,8.11,5.43
			c0.18-0.02,0.26-0.09,0.27-0.27C172.88,67.54,172.91,67.23,172.94,66.86z M179.55,48.16c0.38,0.37,0.71,0.69,1.04,1.01
			c0.06,0.06,0.13,0.1,0.22,0.08c0.6-0.15,1.21-0.3,1.85-0.46c-0.31-0.31-0.58-0.59-0.86-0.86c-0.17-0.16-0.37-0.25-0.61-0.19
			C180.67,47.87,180.16,48.01,179.55,48.16z M184.29,52.88c0.14-0.62,0.27-1.19,0.38-1.76c0.03-0.17-0.04-0.34-0.16-0.46
			c-0.28-0.3-0.58-0.58-0.89-0.9c-0.14,0.63-0.27,1.22-0.4,1.81c-0.02,0.1-0.04,0.19,0.05,0.29
			C183.61,52.18,183.93,52.51,184.29,52.88z M182.02,51.78c-0.45-0.45-0.89-0.89-1.33-1.33c-0.34,0.76-0.68,1.54-1.06,2.39
			C180.48,52.46,181.26,52.11,182.02,51.78z M179.1,51.74c0.05,0.01,0.1,0.01,0.15,0.02c0.27-0.62,0.55-1.24,0.82-1.85
			c0.04-0.08,0.03-0.13-0.03-0.19c-0.3-0.3-0.6-0.6-0.94-0.95c0,0.13,0,0.18,0,0.23C179.1,49.91,179.1,50.83,179.1,51.74z
			 M183.67,53.3c-0.13-0.11-0.25-0.21-0.36-0.32c-0.22-0.21-0.42-0.55-0.67-0.59c-0.25-0.04-0.55,0.2-0.83,0.32
			c-0.36,0.16-0.72,0.32-1.08,0.48c0.01,0.03,0.01,0.07,0.02,0.1C181.71,53.3,182.66,53.3,183.67,53.3z M181.42,49.91
			c0.38,0.38,0.74,0.75,1.12,1.12c0.1-0.46,0.21-0.95,0.33-1.48C182.34,49.68,181.87,49.79,181.42,49.91z"/>
		<path class="st6" d="M173.64,67.89c0.05-0.58,0.08-1.14,0.02-1.7c-0.32-2.94-1.77-5.16-4.37-6.54c-4.88-2.59-10.85,0.31-11.9,5.73
			c-0.88,4.49,2.22,8.98,6.73,9.64c3.51,0.52,6.27-0.77,8.29-3.67c0.07-0.1,0.12-0.22,0.28-0.23c0.54-0.04,1.08-0.15,1.64-0.28
			c-0.49,1.12-1.15,2.07-1.99,2.9c-1.6,1.6-3.53,2.52-5.77,2.79c-5.02,0.6-9.72-2.9-10.6-7.86c-0.92-5.26,2.35-10.17,7.59-11.23
			c5.35-1.09,10.27,2.36,11.37,7.42c0.16,0.72,0.22,1.46,0.23,2.2c0,0.2-0.07,0.3-0.25,0.38C174.51,67.61,174.11,67.79,173.64,67.89
			z"/>
		<path class="st6" d="M162.82,56.81c0.74-1.64,1.8-2.93,3.2-3.94c1.94-1.39,4.13-1.98,6.5-1.78c4.22,0.36,7.69,3.43,8.6,7.55
			c1.08,4.89-1.76,9.8-6.53,11.31c-5.52,1.75-11.32-1.71-12.41-7.4c-0.13-0.67-0.19-1.33-0.18-2.01c0-0.12,0-0.22,0.14-0.28
			c0.44-0.21,0.88-0.38,1.37-0.52c-0.14,1.28-0.05,2.52,0.41,3.69c1.2,3.11,3.44,5.01,6.77,5.43c4.39,0.56,8.35-2.42,9.11-6.76
			c0.76-4.36-2.2-8.64-6.55-9.45c-3.36-0.63-6.63,0.77-8.5,3.65c-0.11,0.16-0.22,0.22-0.4,0.23
			C163.84,56.58,163.36,56.68,162.82,56.81z"/>
		<path class="st6" d="M175.96,66.78c0-5.22-4.27-10.17-10.33-10.31c0.56-1.69,3.93-3.34,6.63-3.15c3.18,0.22,5.97,2.52,6.69,5.86
			C179.64,62.33,178.17,65.33,175.96,66.78z"/>
		<path class="st6" d="M179.55,48.16c0.61-0.15,1.13-0.29,1.64-0.42c0.24-0.06,0.44,0.03,0.61,0.19c0.28,0.27,0.55,0.55,0.86,0.86
			c-0.64,0.16-1.24,0.31-1.85,0.46c-0.1,0.02-0.16-0.01-0.22-0.08C180.26,48.85,179.93,48.53,179.55,48.16z"/>
		<path class="st6" d="M184.29,52.88c-0.36-0.36-0.68-0.7-1.01-1.02c-0.1-0.09-0.08-0.19-0.05-0.29c0.13-0.59,0.26-1.18,0.4-1.81
			c0.31,0.31,0.61,0.6,0.89,0.9c0.12,0.12,0.19,0.29,0.16,0.46C184.56,51.69,184.42,52.26,184.29,52.88z"/>
		<path class="st6" d="M182.02,51.78c-0.75,0.33-1.54,0.68-2.39,1.05c0.38-0.85,0.72-1.63,1.06-2.39
			C181.13,50.88,181.57,51.33,182.02,51.78z"/>
		<path class="st6" d="M179.1,51.74c0-0.91,0-1.83,0-2.74c0-0.05,0-0.1,0-0.23c0.34,0.35,0.64,0.65,0.94,0.95
			c0.06,0.06,0.07,0.11,0.03,0.19c-0.28,0.62-0.55,1.23-0.82,1.85C179.2,51.75,179.15,51.75,179.1,51.74z"/>
		<path class="st6" d="M183.67,53.3c-1.01,0-1.97,0-2.92,0c-0.01-0.03-0.01-0.07-0.02-0.1c0.36-0.16,0.72-0.32,1.08-0.48
			c0.28-0.12,0.58-0.37,0.83-0.32c0.25,0.04,0.45,0.38,0.67,0.59C183.43,53.09,183.55,53.19,183.67,53.3z"/>
		<path class="st6" d="M181.42,49.91c0.45-0.11,0.92-0.23,1.45-0.36c-0.12,0.53-0.23,1.02-0.33,1.48
			C182.17,50.65,181.8,50.28,181.42,49.91z"/>
	</g>
	<line class="st2" x1="29.71" y1="347.25" x2="150.33" y2="346.89"/>
	<g>
		<g>
			<path class="st8" d="M132.34,262.41c-0.54,0-1.06-0.09-1.54-0.28c-0.49-0.19-0.86-0.42-1.13-0.72l0.24-0.4
				c0.25,0.26,0.59,0.48,1.03,0.65s0.9,0.27,1.39,0.27c0.49,0,0.89-0.06,1.2-0.19s0.54-0.3,0.69-0.52c0.15-0.22,0.23-0.46,0.23-0.72
				c0-0.31-0.08-0.57-0.25-0.75c-0.17-0.19-0.39-0.34-0.66-0.45c-0.27-0.11-0.57-0.21-0.89-0.28c-0.32-0.08-0.65-0.16-0.97-0.25
				c-0.33-0.09-0.63-0.2-0.9-0.34c-0.27-0.14-0.49-0.33-0.65-0.57c-0.16-0.24-0.25-0.55-0.25-0.94c0-0.35,0.09-0.67,0.27-0.96
				c0.18-0.29,0.46-0.53,0.85-0.71s0.88-0.27,1.48-0.27c0.4,0,0.8,0.06,1.2,0.18c0.39,0.12,0.73,0.28,1.01,0.48l-0.2,0.43
				c-0.31-0.21-0.64-0.36-0.99-0.47c-0.35-0.1-0.69-0.15-1.02-0.15c-0.47,0-0.86,0.07-1.16,0.2c-0.31,0.13-0.53,0.31-0.68,0.53
				c-0.15,0.22-0.22,0.47-0.22,0.74c0,0.31,0.08,0.57,0.25,0.75c0.16,0.19,0.38,0.34,0.65,0.45c0.27,0.11,0.57,0.21,0.9,0.28
				c0.33,0.08,0.65,0.16,0.97,0.25c0.32,0.09,0.62,0.2,0.89,0.34s0.49,0.33,0.66,0.57c0.17,0.24,0.25,0.54,0.25,0.92
				c0,0.34-0.09,0.66-0.28,0.96c-0.19,0.3-0.48,0.53-0.86,0.71C133.44,262.32,132.94,262.41,132.34,262.41z"/>
			<path class="st8" d="M139.41,261.88h4.52v0.48h-5.06v-7.33h4.9v0.48h-4.37V261.88z M139.35,258.4h3.97v0.47h-3.97V258.4z"/>
			<path class="st8" d="M151.54,262.36l3.37-7.33h0.53l3.37,7.33h-0.58l-3.18-6.99h0.23l-3.17,6.99H151.54z M152.77,260.3l0.18-0.45
				h4.39l0.18,0.45H152.77z"/>
			<path class="st8" d="M165.33,262.41c-0.54,0-1.05-0.09-1.51-0.28c-0.46-0.19-0.87-0.45-1.21-0.78c-0.34-0.33-0.61-0.73-0.8-1.18
				s-0.28-0.94-0.28-1.48s0.09-1.03,0.28-1.48s0.46-0.84,0.8-1.18c0.35-0.33,0.75-0.59,1.21-0.78c0.46-0.19,0.96-0.28,1.51-0.28
				c0.52,0,1,0.08,1.45,0.25c0.45,0.17,0.83,0.42,1.16,0.76l-0.33,0.35c-0.31-0.31-0.66-0.53-1.04-0.67
				c-0.38-0.14-0.78-0.2-1.21-0.2c-0.47,0-0.9,0.08-1.3,0.24s-0.75,0.39-1.05,0.68c-0.3,0.29-0.53,0.63-0.69,1.03
				c-0.16,0.39-0.25,0.82-0.25,1.28s0.08,0.89,0.25,1.28s0.39,0.73,0.69,1.03c0.3,0.29,0.65,0.52,1.05,0.68
				c0.4,0.16,0.83,0.24,1.3,0.24c0.43,0,0.83-0.07,1.21-0.2c0.38-0.14,0.73-0.36,1.04-0.68l0.33,0.35c-0.32,0.34-0.71,0.6-1.16,0.77
				S165.85,262.41,165.33,262.41z"/>
			<path class="st8" d="M170.6,262.36l3.37-7.33h0.53l3.37,7.33h-0.58l-3.18-6.99h0.23l-3.17,6.99H170.6z M171.83,260.3l0.18-0.45
				h4.39l0.18,0.45H171.83z"/>
			<path class="st8" d="M181.3,262.36v-7.33h3.06c0.79,0,1.41,0.16,1.85,0.48c0.45,0.32,0.67,0.79,0.67,1.39c0,0.4-0.09,0.73-0.28,1
				s-0.45,0.48-0.78,0.61c-0.33,0.14-0.7,0.2-1.11,0.2l0.19-0.21c0.5,0,0.93,0.07,1.29,0.22c0.36,0.15,0.63,0.36,0.81,0.64
				s0.28,0.63,0.28,1.05c0,0.61-0.22,1.09-0.67,1.43c-0.45,0.34-1.12,0.51-2.03,0.51H181.3z M181.83,261.9h2.73
				c0.71,0,1.24-0.12,1.61-0.36c0.37-0.24,0.55-0.63,0.55-1.16c0-0.52-0.18-0.91-0.55-1.15c-0.37-0.24-0.91-0.36-1.61-0.36h-2.79
				v-0.46h2.57c0.63,0,1.13-0.12,1.48-0.37c0.35-0.24,0.52-0.61,0.52-1.1c0-0.48-0.17-0.84-0.52-1.09
				c-0.35-0.24-0.84-0.37-1.48-0.37h-2.5V261.9z"/>
			<path class="st8" d="M190.04,262.36l3.37-7.33h0.53l3.37,7.33h-0.58l-3.18-6.99h0.23l-3.17,6.99H190.04z M191.28,260.3l0.18-0.45
				h4.39l0.18,0.45H191.28z"/>
			<path class="st8" d="M129.88,274.92v-7.33h0.53v6.85h4.22v0.48H129.88z"/>
			<path class="st8" d="M136.88,274.92l3.37-7.33h0.53l3.37,7.33h-0.58l-3.18-6.99h0.23l-3.17,6.99H136.88z M138.11,272.86
				l0.18-0.45h4.39l0.18,0.45H138.11z"/>
			<path class="st8" d="M152.89,274.92h-0.53v-7.33h4.9v0.48h-4.37V274.92z M152.83,271.21h3.97v0.48h-3.97V271.21z"/>
			<path class="st8" d="M161.06,274.92v-7.33h0.53v7.33H161.06z"/>
			<path class="st8" d="M166.77,274.44h4.52v0.48h-5.06v-7.33h4.9v0.48h-4.37V274.44z M166.71,270.97h3.97v0.47h-3.97V270.97z"/>
			<path class="st8" d="M177.26,274.98c-0.54,0-1.06-0.09-1.54-0.28c-0.49-0.19-0.86-0.42-1.13-0.72l0.24-0.4
				c0.25,0.26,0.59,0.48,1.03,0.65s0.9,0.27,1.39,0.27c0.49,0,0.89-0.06,1.2-0.19s0.54-0.3,0.69-0.52c0.15-0.22,0.23-0.46,0.23-0.72
				c0-0.31-0.08-0.57-0.25-0.75c-0.17-0.19-0.39-0.34-0.66-0.45c-0.27-0.11-0.57-0.21-0.89-0.28c-0.32-0.08-0.65-0.16-0.97-0.25
				c-0.33-0.09-0.63-0.2-0.9-0.34c-0.27-0.14-0.49-0.33-0.65-0.57c-0.16-0.24-0.25-0.55-0.25-0.94c0-0.35,0.09-0.67,0.27-0.96
				s0.46-0.53,0.85-0.71s0.88-0.27,1.48-0.27c0.4,0,0.8,0.06,1.2,0.18c0.39,0.12,0.73,0.28,1.01,0.48l-0.2,0.43
				c-0.31-0.21-0.64-0.36-0.99-0.47c-0.35-0.1-0.69-0.15-1.02-0.15c-0.47,0-0.86,0.07-1.16,0.2c-0.31,0.13-0.53,0.31-0.68,0.53
				s-0.22,0.47-0.22,0.74c0,0.31,0.08,0.57,0.25,0.75c0.16,0.19,0.38,0.34,0.65,0.45c0.27,0.11,0.57,0.21,0.9,0.28
				s0.65,0.16,0.97,0.25c0.32,0.09,0.62,0.2,0.89,0.34s0.49,0.33,0.66,0.57c0.17,0.24,0.25,0.54,0.25,0.92
				c0,0.34-0.09,0.66-0.28,0.96c-0.19,0.3-0.48,0.53-0.86,0.71C178.37,274.89,177.87,274.98,177.26,274.98z"/>
			<path class="st8" d="M185.21,274.92v-6.85h-2.64v-0.48h5.81v0.48h-2.64v6.85H185.21z"/>
			<path class="st8" d="M190.57,274.92l3.37-7.33h0.53l3.37,7.33h-0.58l-3.18-6.99h0.23l-3.17,6.99H190.57z M191.8,272.86l0.18-0.45
				h4.39l0.18,0.45H191.8z"/>
		</g>
	</g>
	<g>
		<g>
			<path class="st4" d="M158.96,292.32v-8.15l0.28,0.29h-2.33v-0.55h2.67v8.42H158.96z"/>
			<path class="st4" d="M164.99,292.38c-0.64,0-1.21-0.17-1.71-0.52s-0.89-0.84-1.17-1.47c-0.28-0.64-0.42-1.4-0.42-2.28
				c0-0.88,0.14-1.64,0.42-2.28c0.28-0.64,0.67-1.13,1.17-1.47s1.07-0.52,1.71-0.52c0.65,0,1.22,0.17,1.71,0.52s0.88,0.84,1.16,1.47
				c0.28,0.64,0.42,1.4,0.42,2.28c0,0.88-0.14,1.64-0.42,2.28c-0.28,0.64-0.67,1.13-1.16,1.47S165.64,292.38,164.99,292.38z
				 M164.99,291.82c0.54,0,1.01-0.15,1.41-0.44c0.4-0.29,0.71-0.72,0.94-1.27c0.22-0.55,0.34-1.22,0.34-2c0-0.79-0.11-1.45-0.34-2
				c-0.22-0.55-0.54-0.97-0.94-1.26c-0.4-0.29-0.87-0.44-1.41-0.44c-0.53,0-1,0.15-1.4,0.44c-0.41,0.29-0.72,0.71-0.94,1.26
				s-0.34,1.22-0.34,2c0,0.78,0.11,1.44,0.34,2c0.22,0.55,0.54,0.98,0.94,1.27C164,291.67,164.46,291.82,164.99,291.82z"/>
			<path class="st4" d="M170.15,287.02c-0.14,0-0.25-0.05-0.36-0.15c-0.1-0.1-0.15-0.22-0.15-0.37s0.05-0.26,0.15-0.36
				c0.1-0.1,0.22-0.14,0.36-0.14c0.14,0,0.25,0.05,0.35,0.14c0.1,0.1,0.15,0.22,0.15,0.36s-0.05,0.27-0.15,0.37
				C170.41,286.97,170.29,287.02,170.15,287.02z M170.15,292.37c-0.14,0-0.25-0.05-0.36-0.15c-0.1-0.1-0.15-0.22-0.15-0.37
				c0-0.14,0.05-0.26,0.15-0.36c0.1-0.1,0.22-0.14,0.36-0.14c0.14,0,0.25,0.05,0.35,0.14c0.1,0.1,0.15,0.22,0.15,0.36
				c0,0.14-0.05,0.27-0.15,0.37C170.41,292.32,170.29,292.37,170.15,292.37z"/>
			<path class="st4" d="M178.4,292.38c-0.64,0-1.21-0.17-1.71-0.52s-0.89-0.84-1.17-1.47c-0.28-0.64-0.42-1.4-0.42-2.28
				c0-0.88,0.14-1.64,0.42-2.28c0.28-0.64,0.67-1.13,1.17-1.47s1.07-0.52,1.71-0.52c0.65,0,1.22,0.17,1.71,0.52s0.88,0.84,1.16,1.47
				c0.28,0.64,0.42,1.4,0.42,2.28c0,0.88-0.14,1.64-0.42,2.28c-0.28,0.64-0.67,1.13-1.16,1.47S179.05,292.38,178.4,292.38z
				 M178.4,291.82c0.54,0,1.01-0.15,1.41-0.44c0.4-0.29,0.71-0.72,0.94-1.27c0.22-0.55,0.34-1.22,0.34-2c0-0.79-0.11-1.45-0.34-2
				c-0.22-0.55-0.54-0.97-0.94-1.26c-0.4-0.29-0.87-0.44-1.41-0.44c-0.53,0-1,0.15-1.4,0.44c-0.41,0.29-0.72,0.71-0.94,1.26
				s-0.34,1.22-0.34,2c0,0.78,0.11,1.44,0.34,2c0.22,0.55,0.54,0.98,0.94,1.27C177.41,291.67,177.87,291.82,178.4,291.82z"/>
			<path class="st4" d="M186.32,292.38c-0.64,0-1.21-0.17-1.71-0.52s-0.89-0.84-1.17-1.47c-0.28-0.64-0.42-1.4-0.42-2.28
				c0-0.88,0.14-1.64,0.42-2.28c0.28-0.64,0.67-1.13,1.17-1.47s1.07-0.52,1.71-0.52c0.65,0,1.22,0.17,1.71,0.52s0.88,0.84,1.16,1.47
				c0.28,0.64,0.42,1.4,0.42,2.28c0,0.88-0.14,1.64-0.42,2.28c-0.28,0.64-0.67,1.13-1.16,1.47S186.97,292.38,186.32,292.38z
				 M186.32,291.82c0.54,0,1.01-0.15,1.41-0.44c0.4-0.29,0.71-0.72,0.94-1.27c0.22-0.55,0.34-1.22,0.34-2c0-0.79-0.11-1.45-0.34-2
				c-0.22-0.55-0.54-0.97-0.94-1.26c-0.4-0.29-0.87-0.44-1.41-0.44c-0.53,0-1,0.15-1.4,0.44c-0.41,0.29-0.72,0.71-0.94,1.26
				s-0.34,1.22-0.34,2c0,0.78,0.11,1.44,0.34,2c0.22,0.55,0.54,0.98,0.94,1.27C185.32,291.67,185.79,291.82,186.32,291.82z"/>
			<path class="st4" d="M194.64,294.65v-8.61h0.58v2.06l-0.1,1.09l0.12,1.09v4.37H194.64z M197.79,292.37
				c-0.55,0-1.05-0.13-1.5-0.38s-0.8-0.62-1.06-1.1c-0.26-0.48-0.39-1.04-0.39-1.7c0-0.66,0.13-1.23,0.39-1.7
				c0.26-0.48,0.61-0.84,1.06-1.1s0.94-0.38,1.5-0.38c0.59,0,1.13,0.13,1.59,0.4c0.47,0.27,0.84,0.64,1.11,1.13s0.4,1.03,0.4,1.66
				c0,0.63-0.13,1.18-0.4,1.66c-0.27,0.48-0.64,0.86-1.11,1.13S198.38,292.37,197.79,292.37z M197.75,291.83
				c0.48,0,0.91-0.11,1.3-0.33c0.39-0.22,0.69-0.53,0.91-0.93s0.33-0.86,0.33-1.38c0-0.53-0.11-0.99-0.33-1.39s-0.52-0.71-0.91-0.93
				c-0.38-0.22-0.82-0.33-1.3-0.33c-0.48,0-0.91,0.11-1.29,0.33s-0.68,0.53-0.9,0.93c-0.22,0.4-0.33,0.86-0.33,1.39
				c0,0.52,0.11,0.98,0.33,1.38c0.22,0.4,0.52,0.71,0.9,0.93C196.84,291.72,197.27,291.83,197.75,291.83z"/>
			<path class="st4" d="M210.58,286c0.5,0,0.94,0.1,1.32,0.29c0.37,0.2,0.66,0.49,0.87,0.89c0.21,0.4,0.31,0.89,0.31,1.47v3.67h-0.6
				v-3.62c0-0.71-0.17-1.24-0.52-1.61c-0.34-0.37-0.83-0.55-1.44-0.55c-0.47,0-0.88,0.1-1.23,0.3s-0.61,0.48-0.79,0.84
				c-0.18,0.36-0.28,0.79-0.28,1.3v3.34h-0.6v-3.62c0-0.71-0.17-1.24-0.52-1.61c-0.35-0.37-0.83-0.55-1.44-0.55
				c-0.47,0-0.88,0.1-1.23,0.3s-0.61,0.48-0.79,0.84c-0.18,0.36-0.28,0.79-0.28,1.3v3.34h-0.6v-6.28h0.58v1.73l-0.08-0.19
				c0.18-0.49,0.49-0.88,0.93-1.16c0.43-0.28,0.95-0.43,1.56-0.43c0.63,0,1.15,0.16,1.58,0.47c0.43,0.32,0.7,0.79,0.81,1.41
				l-0.21-0.08c0.17-0.54,0.49-0.97,0.95-1.3S209.91,286,210.58,286z"/>
		</g>
	</g>
	<g>
		<g>
			<path class="st3" d="M21.14,342.85l3.38-7.35h0.54l3.38,7.35h-0.58l-3.19-7.01h0.23l-3.18,7.01H21.14z M22.37,340.78l0.18-0.45
				h4.4l0.18,0.45H22.37z"/>
			<path class="st3" d="M32.4,342.85h-0.54v-7.35h4.91v0.48H32.4V342.85z M32.34,339.12h3.98v0.48h-3.98V339.12z"/>
			<path class="st3" d="M42,342.85v-6.87h-2.65v-0.48h5.83v0.48h-2.65v6.87H42z"/>
			<path class="st3" d="M49.14,342.37h4.54v0.48H48.6v-7.35h4.91v0.48h-4.38V342.37z M49.08,338.88h3.98v0.47h-3.98V338.88z"/>
			<path class="st3" d="M57.73,342.85v-7.35h2.63c0.62,0,1.14,0.1,1.59,0.29c0.44,0.2,0.78,0.48,1.02,0.84
				c0.24,0.37,0.36,0.81,0.36,1.34c0,0.51-0.12,0.95-0.36,1.32c-0.24,0.37-0.58,0.65-1.02,0.85c-0.44,0.2-0.97,0.3-1.59,0.3h-2.34
				l0.24-0.25v2.66H57.73z M58.26,340.22l-0.24-0.25h2.34c0.79,0,1.39-0.17,1.8-0.53c0.41-0.35,0.61-0.84,0.61-1.47
				c0-0.64-0.2-1.13-0.61-1.48c-0.41-0.35-1.01-0.52-1.8-0.52h-2.34l0.24-0.26V340.22z M62.83,342.85l-1.91-2.67h0.61l1.91,2.67
				H62.83z"/>
			<path class="st3" d="M72.19,342.85v-7.35h2.63c0.62,0,1.14,0.1,1.59,0.29c0.44,0.2,0.78,0.48,1.02,0.84
				c0.24,0.37,0.36,0.81,0.36,1.34c0,0.51-0.12,0.95-0.36,1.32s-0.58,0.65-1.02,0.85c-0.44,0.2-0.97,0.29-1.59,0.29h-2.34l0.24-0.25
				v2.66H72.19z M72.72,340.22l-0.24-0.26h2.34c0.79,0,1.39-0.17,1.8-0.52c0.41-0.35,0.61-0.83,0.61-1.46c0-0.64-0.2-1.13-0.61-1.48
				c-0.41-0.35-1.01-0.52-1.8-0.52h-2.34l0.24-0.26V340.22z"/>
			<path class="st3" d="M80.57,342.85l3.38-7.35h0.54l3.38,7.35h-0.58l-3.19-7.01h0.23l-3.18,7.01H80.57z M81.8,340.78l0.18-0.45
				h4.4l0.18,0.45H81.8z"/>
			<path class="st3" d="M91.3,342.85v-7.35h2.63c0.62,0,1.14,0.1,1.59,0.29c0.44,0.2,0.78,0.48,1.02,0.84
				c0.24,0.37,0.36,0.81,0.36,1.34c0,0.51-0.12,0.95-0.36,1.32c-0.24,0.37-0.58,0.65-1.02,0.85c-0.44,0.2-0.97,0.3-1.59,0.3h-2.34
				l0.24-0.25v2.66H91.3z M91.83,340.22l-0.24-0.25h2.34c0.79,0,1.39-0.17,1.8-0.53c0.41-0.35,0.61-0.84,0.61-1.47
				c0-0.64-0.2-1.13-0.61-1.48c-0.41-0.35-1.01-0.52-1.8-0.52h-2.34l0.24-0.26V340.22z M96.4,342.85l-1.91-2.67h0.61l1.91,2.67H96.4
				z"/>
			<path class="st3" d="M102.36,342.85v-6.87h-2.65v-0.48h5.83v0.48h-2.65v6.87H102.36z"/>
			<path class="st3" d="M110.7,342.85v-2.67l0.13,0.35l-3.09-5.03h0.59l2.8,4.57h-0.29l2.8-4.57h0.56l-3.09,5.03l0.13-0.35v2.67
				H110.7z"/>
			<path class="st3" d="M117.67,342.89c-0.12,0-0.22-0.04-0.3-0.13c-0.08-0.09-0.13-0.19-0.13-0.3c0-0.12,0.04-0.22,0.13-0.3
				s0.19-0.13,0.3-0.13c0.13,0,0.23,0.04,0.31,0.13s0.13,0.19,0.13,0.3c0,0.11-0.04,0.21-0.13,0.3
				C117.9,342.85,117.8,342.89,117.67,342.89z M117.47,340.74l-0.1-5.24h0.61l-0.11,5.24H117.47z"/>
		</g>
	</g>
	<g>
		<g>
			<path class="st4" d="M31.06,360.52v-8.15l0.28,0.29h-2.33v-0.55h2.67v8.42H31.06z"/>
			<path class="st4" d="M37.1,360.58c-0.64,0-1.21-0.17-1.71-0.52s-0.89-0.84-1.17-1.47c-0.28-0.64-0.42-1.4-0.42-2.28
				c0-0.88,0.14-1.64,0.42-2.28c0.28-0.64,0.67-1.13,1.17-1.47s1.07-0.52,1.71-0.52c0.65,0,1.22,0.17,1.71,0.52s0.88,0.84,1.16,1.47
				c0.28,0.64,0.42,1.4,0.42,2.28c0,0.88-0.14,1.64-0.42,2.28c-0.28,0.64-0.67,1.13-1.16,1.47S37.75,360.58,37.1,360.58z
				 M37.1,360.02c0.54,0,1.01-0.15,1.41-0.44c0.4-0.29,0.71-0.72,0.94-1.27c0.22-0.55,0.34-1.22,0.34-2c0-0.79-0.11-1.45-0.34-2
				c-0.22-0.55-0.54-0.97-0.94-1.26c-0.4-0.29-0.87-0.44-1.41-0.44c-0.53,0-1,0.15-1.4,0.44c-0.41,0.29-0.72,0.71-0.94,1.26
				s-0.34,1.22-0.34,2c0,0.78,0.11,1.44,0.34,2c0.22,0.55,0.54,0.98,0.94,1.27C36.11,359.87,36.57,360.02,37.1,360.02z"/>
			<path class="st4" d="M42.26,355.22c-0.14,0-0.25-0.05-0.36-0.15c-0.1-0.1-0.15-0.22-0.15-0.37s0.05-0.26,0.15-0.36
				c0.1-0.1,0.22-0.14,0.36-0.14c0.14,0,0.25,0.05,0.35,0.14c0.1,0.1,0.15,0.22,0.15,0.36s-0.05,0.27-0.15,0.37
				C42.52,355.17,42.4,355.22,42.26,355.22z M42.26,360.57c-0.14,0-0.25-0.05-0.36-0.15c-0.1-0.1-0.15-0.22-0.15-0.37
				c0-0.14,0.05-0.26,0.15-0.36c0.1-0.1,0.22-0.14,0.36-0.14c0.14,0,0.25,0.05,0.35,0.14c0.1,0.1,0.15,0.22,0.15,0.36
				c0,0.14-0.05,0.27-0.15,0.37C42.52,360.52,42.4,360.57,42.26,360.57z"/>
			<path class="st4" d="M49.68,360.58c-0.62,0-1.19-0.1-1.73-0.31c-0.53-0.21-0.95-0.48-1.25-0.82l0.31-0.47
				c0.26,0.3,0.62,0.54,1.09,0.74s0.99,0.29,1.57,0.29c0.75,0,1.33-0.17,1.73-0.51c0.4-0.34,0.6-0.79,0.6-1.36
				c0-0.56-0.2-1.01-0.6-1.35c-0.4-0.34-1.02-0.51-1.86-0.51h-0.53v-0.45l2.68-3.43l0.08,0.24h-4.76v-0.55h5.28v0.43l-2.67,3.43
				l-0.26-0.19h0.26c1,0,1.75,0.22,2.25,0.66c0.5,0.44,0.75,1.01,0.75,1.72c0,0.46-0.11,0.88-0.33,1.25
				c-0.22,0.37-0.55,0.66-0.99,0.87C50.87,360.48,50.33,360.58,49.68,360.58z"/>
			<path class="st4" d="M57.22,360.58c-0.64,0-1.21-0.17-1.71-0.52s-0.89-0.84-1.17-1.47c-0.28-0.64-0.42-1.4-0.42-2.28
				c0-0.88,0.14-1.64,0.42-2.28c0.28-0.64,0.67-1.13,1.17-1.47s1.07-0.52,1.71-0.52c0.65,0,1.22,0.17,1.71,0.52s0.88,0.84,1.16,1.47
				c0.28,0.64,0.42,1.4,0.42,2.28c0,0.88-0.14,1.64-0.42,2.28c-0.28,0.64-0.67,1.13-1.16,1.47S57.87,360.58,57.22,360.58z
				 M57.22,360.02c0.54,0,1.01-0.15,1.41-0.44c0.4-0.29,0.71-0.72,0.94-1.27c0.22-0.55,0.34-1.22,0.34-2c0-0.79-0.11-1.45-0.34-2
				c-0.22-0.55-0.54-0.97-0.94-1.26c-0.4-0.29-0.87-0.44-1.41-0.44c-0.53,0-1,0.15-1.4,0.44c-0.41,0.29-0.72,0.71-0.94,1.26
				s-0.34,1.22-0.34,2c0,0.78,0.11,1.44,0.34,2c0.22,0.55,0.54,0.98,0.94,1.27C56.23,359.87,56.69,360.02,57.22,360.02z"/>
			<path class="st4" d="M65.55,362.85v-8.61h0.58v2.06l-0.1,1.09l0.12,1.09v4.37H65.55z M68.7,360.57c-0.55,0-1.05-0.13-1.5-0.38
				s-0.8-0.62-1.06-1.1c-0.26-0.48-0.39-1.04-0.39-1.7c0-0.66,0.13-1.23,0.39-1.7c0.26-0.48,0.61-0.84,1.06-1.1s0.94-0.38,1.5-0.38
				c0.59,0,1.13,0.13,1.59,0.4c0.47,0.27,0.84,0.64,1.11,1.13s0.4,1.03,0.4,1.66c0,0.63-0.13,1.18-0.4,1.66
				c-0.27,0.48-0.64,0.86-1.11,1.13S69.29,360.57,68.7,360.57z M68.66,360.03c0.48,0,0.91-0.11,1.3-0.33
				c0.39-0.22,0.69-0.53,0.91-0.93s0.33-0.86,0.33-1.38c0-0.53-0.11-0.99-0.33-1.39s-0.52-0.71-0.91-0.93
				c-0.38-0.22-0.82-0.33-1.3-0.33c-0.48,0-0.91,0.11-1.29,0.33s-0.68,0.53-0.9,0.93c-0.22,0.4-0.33,0.86-0.33,1.39
				c0,0.52,0.11,0.98,0.33,1.38c0.22,0.4,0.52,0.71,0.9,0.93C67.75,359.92,68.18,360.03,68.66,360.03z"/>
			<path class="st4" d="M81.48,354.2c0.5,0,0.94,0.1,1.32,0.29c0.37,0.2,0.66,0.49,0.87,0.89c0.21,0.4,0.31,0.89,0.31,1.47v3.67
				h-0.6v-3.62c0-0.71-0.17-1.24-0.52-1.61c-0.34-0.37-0.83-0.55-1.44-0.55c-0.47,0-0.88,0.1-1.23,0.3s-0.61,0.48-0.79,0.84
				c-0.18,0.36-0.28,0.79-0.28,1.3v3.34h-0.6v-3.62c0-0.71-0.17-1.24-0.52-1.61c-0.35-0.37-0.83-0.55-1.44-0.55
				c-0.47,0-0.88,0.1-1.23,0.3s-0.61,0.48-0.79,0.84c-0.18,0.36-0.28,0.79-0.28,1.3v3.34h-0.6v-6.28h0.58v1.73l-0.08-0.19
				c0.18-0.49,0.49-0.88,0.93-1.16c0.43-0.28,0.95-0.43,1.56-0.43c0.63,0,1.15,0.16,1.58,0.47c0.43,0.32,0.7,0.79,0.81,1.41
				L78.84,356c0.17-0.54,0.49-0.97,0.95-1.3S80.82,354.2,81.48,354.2z"/>
		</g>
	</g>
	<g>
		<path class="st9" d="M174.9,344.93c0.14,0.27,0.25,0.55,0.3,0.84c0.2,1.14-0.95,2.26-2.06,1.99c-0.59-0.14-1.01-0.73-1.06-1.44
			c-0.06-0.8,0.27-1.39,0.95-1.84c-0.35-0.23-0.71-0.35-1.1-0.39c-0.57-0.05-1.08,0.11-1.56,0.4c-0.15,0.09-0.16,0.16-0.06,0.3
			c0.47,0.68,0.89,1.39,1.15,2.18c0.08,0.26,0.14,0.52,0.14,0.79c0.01,0.53-0.22,0.9-0.72,1.12c-3.58,1.58-7.17,3.17-10.75,4.76
			c-0.98,0.44-1.96,0.87-2.95,1.3c-1.48,0.65-3.08-0.18-3.38-1.77c-0.1-0.51,0-0.99,0.21-1.47c2-4.51,3.99-9.01,5.99-13.52
			c0.32-0.72,0.75-0.94,1.52-0.8c0.91,0.17,1.69,0.63,2.44,1.13c1.48,0.98,2.8,2.17,4.02,3.46c0.15,0.16,0.25,0.18,0.44,0.05
			c1.34-0.87,2.81-1.34,4.41-1.34c0.35,0,0.54,0.16,0.54,0.46c0,0.29-0.2,0.45-0.55,0.46c-1.38,0.01-2.64,0.42-3.82,1.13
			c-0.19,0.11-0.17,0.18-0.04,0.33c0.2,0.22,0.38,0.45,0.57,0.69c0.07,0.09,0.12,0.11,0.24,0.04c1.42-0.92,2.81-0.8,4.15,0.18
			c0.11,0.08,0.21,0.11,0.36,0.09c1.11-0.16,2.18,0.04,3.21,0.47c0.29,0.12,0.39,0.35,0.3,0.6c-0.1,0.26-0.35,0.36-0.65,0.24
			c-0.6-0.24-1.21-0.4-1.85-0.43C175.18,344.92,175.05,344.93,174.9,344.93z M160.45,352.47c-1.25-0.56-2.25-1.43-3.09-2.5
			c-0.28-0.36-0.29-0.6-0.04-0.8c0.25-0.2,0.48-0.12,0.78,0.25c0.81,1.01,1.75,1.85,2.99,2.3c0.43,0.15,0.84,0.19,1.26-0.05
			c0.28-0.17,0.6-0.27,0.91-0.4c0.2-0.09,0.41-0.18,0.61-0.27c0.2-0.09,0.41-0.19,0.62-0.28c-2.13-1.11-3.81-2.69-5.22-4.58
			c-0.2-0.27-0.17-0.55,0.05-0.71c0.22-0.16,0.49-0.1,0.69,0.17c0.77,1.05,1.66,1.99,2.66,2.81c0.82,0.68,1.68,1.28,2.69,1.64
			c0.25,0.09,0.48,0.13,0.71-0.05c-0.11-0.1-0.27-0.13-0.4-0.2c-2.36-1.21-4.2-2.99-5.71-5.14c-0.17-0.24-0.11-0.51,0.11-0.66
			c0.22-0.15,0.49-0.08,0.67,0.18c0.93,1.35,2.06,2.52,3.35,3.53c0.87,0.68,1.79,1.29,2.88,1.58c0.18,0.05,0.38,0.14,0.55,0.07
			c0.55-0.22,1.09-0.48,1.61-0.71c-3.74-2.15-6.68-5.09-8.82-8.83c-0.23,0.53-0.47,1.07-0.71,1.6c-0.05,0.11-0.02,0.21,0,0.32
			c0.07,0.36,0.19,0.71,0.34,1.04c0.12,0.26,0,0.53-0.24,0.63c-0.24,0.1-0.47-0.01-0.6-0.26c-0.04-0.09-0.05-0.19-0.13-0.24
			c-0.19,0.21-0.15,0.44-0.06,0.68c0.09,0.25,0.2,0.5,0.32,0.74c0.11,0.25,0.03,0.51-0.2,0.62c-0.23,0.12-0.47,0.04-0.62-0.21
			c-0.05-0.08-0.09-0.17-0.15-0.27c-0.25,0.57-0.46,1.13-0.74,1.66c-0.36,0.68-0.54,1.35-0.16,2.08c0.11,0.21,0.01,0.43-0.21,0.55
			c-0.22,0.11-0.42,0.07-0.58-0.12c-0.03-0.04-0.04-0.1-0.1-0.11c-0.22,0.44-0.22,0.44,0.01,0.86c0.06,0.12,0.14,0.23,0.2,0.35
			c0.14,0.26,0.09,0.52-0.13,0.66c-0.22,0.14-0.46,0.07-0.63-0.16c-0.04-0.05-0.05-0.14-0.14-0.15c-0.32,0.72-0.65,1.43-0.94,2.16
			c-0.24,0.58-0.1,1.12,0.33,1.56c0.43,0.44,0.97,0.57,1.53,0.35c0.75-0.29,1.47-0.64,2.23-0.98c-0.1-0.07-0.17-0.12-0.24-0.17
			c-0.72-0.48-1.36-1.06-1.94-1.7c-0.14-0.15-0.17-0.32-0.11-0.5c0.06-0.17,0.19-0.26,0.36-0.29c0.21-0.03,0.35,0.09,0.48,0.23
			c0.62,0.68,1.3,1.29,2.11,1.74C159.87,352.66,160.15,352.74,160.45,352.47z M164.19,340.21c-0.61-0.01-0.99,0.35-1.01,0.89
			c-0.03,0.65,0.23,1.2,0.55,1.74c0.43,0.73,1.01,1.33,1.62,1.9c1.15,1.07,2.36,2.08,3.76,2.82c0.35,0.19,0.7,0.35,1.1,0.42
			c0.47,0.08,0.56-0.01,0.46-0.47c0-0.02-0.01-0.03-0.02-0.05c-0.16-0.66-0.51-1.24-0.86-1.81c-0.26-0.42-0.26-0.42-0.58-0.05
			c-0.18,0.21-0.44,0.25-0.65,0.1c-0.2-0.15-0.24-0.41-0.08-0.65c0.11-0.16,0.24-0.32,0.37-0.46c0.08-0.09,0.1-0.15,0.01-0.24
			c-0.23-0.27-0.45-0.54-0.67-0.81c-0.08-0.11-0.14-0.1-0.23-0.01c-0.33,0.29-0.64,0.6-0.92,0.94c-0.22,0.26-0.49,0.31-0.7,0.13
			c-0.22-0.18-0.22-0.45-0.01-0.72c0.3-0.37,0.63-0.71,0.99-1.03c0.09-0.08,0.14-0.13,0.03-0.25c-0.64-0.66-1.29-1.3-1.99-1.89
			C165.01,340.42,164.59,340.24,164.19,340.21z M173,346.11c0,0.42,0.15,0.72,0.4,0.77c0.26,0.06,0.64-0.18,0.8-0.49
			c0.19-0.37,0.03-1.02-0.29-1.24c-0.04-0.03-0.07-0.03-0.12-0.02C173.37,345.23,173,345.69,173,346.11z"/>
		<path class="st9" d="M160.84,333.1c-0.2,0.28-0.18,0.53-0.04,0.79c0.19,0.35,0.51,0.54,0.85,0.71c0.62,0.3,1.04,0.75,1.17,1.44
			c0.05,0.25,0.09,0.5,0.08,0.75c-0.01,0.28-0.2,0.46-0.46,0.46c-0.26,0-0.44-0.17-0.45-0.46c-0.01-0.16-0.03-0.32-0.04-0.48
			c-0.03-0.36-0.21-0.62-0.52-0.79c-0.29-0.16-0.59-0.3-0.85-0.51c-0.73-0.58-0.99-1.47-0.63-2.19c0.08-0.15,0.16-0.31,0.29-0.41
			c0.23-0.17,0.25-0.39,0.24-0.65c-0.02-0.86,0.24-1.59,1.01-2.07c0.29-0.18,0.56-0.14,0.71,0.09c0.15,0.24,0.08,0.49-0.22,0.68
			c-0.38,0.24-0.54,0.61-0.59,1.04c-0.02,0.19,0.04,0.24,0.21,0.19c0.29-0.08,0.59-0.08,0.88-0.02c0.6,0.11,0.99,0.54,0.97,1.08
			c-0.01,0.53-0.47,0.97-1.07,1.06C161.74,333.88,161.23,333.66,160.84,333.1z M161.65,332.61c0.2,0.28,0.47,0.35,0.75,0.22
			c0.07-0.03,0.14-0.06,0.14-0.14c-0.01-0.09-0.09-0.11-0.16-0.12C162.14,332.52,161.9,332.51,161.65,332.61z"/>
		<path class="st9" d="M158.19,332.54c-0.56,0.6-1.2,0.83-1.97,0.6c-0.55-0.16-0.9-0.69-0.84-1.23c0.07-0.65,0.54-1.15,1.14-1.21
			c0.37-0.04,0.72,0.06,1.08,0.17c-0.12-0.48-0.51-0.82-1.04-0.92c-0.1-0.02-0.2-0.03-0.29-0.05c-0.25-0.06-0.4-0.29-0.36-0.52
			c0.05-0.24,0.27-0.4,0.51-0.38c1.29,0.11,2.15,1.04,2.17,2.36c0,0.08,0,0.15,0.06,0.23c0.68,0.8,0.69,1.73,0.5,2.7
			c-0.02,0.11-0.04,0.21-0.08,0.31c-0.09,0.28-0.33,0.41-0.58,0.33c-0.26-0.08-0.38-0.31-0.29-0.6c0.11-0.38,0.16-0.77,0.14-1.17
			C158.32,332.95,158.28,332.75,158.19,332.54z M157.52,331.85c-0.28-0.14-0.56-0.24-0.87-0.23c-0.23,0.01-0.34,0.17-0.35,0.37
			c-0.01,0.2,0.12,0.28,0.31,0.3C156.99,332.35,157.29,332.21,157.52,331.85z"/>
		<path class="st9" d="M180.59,347.27c-0.41-0.33-0.84-0.39-1.31-0.24c-0.12,0.04-0.23,0.1-0.35,0.13
			c-0.24,0.07-0.47-0.03-0.57-0.24c-0.1-0.22-0.02-0.48,0.21-0.6c1.18-0.6,2.42-0.26,3.06,0.78c0.08,0.13,0.17,0.21,0.32,0.26
			c0.93,0.35,1.4,1.1,1.73,1.97c0.04,0.12,0.08,0.24,0.11,0.36c0.05,0.28-0.1,0.51-0.36,0.57c-0.23,0.05-0.46-0.09-0.53-0.35
			c-0.07-0.27-0.17-0.53-0.3-0.77c-0.15-0.29-0.34-0.55-0.62-0.73c-0.09,0.03-0.07,0.1-0.08,0.16c-0.14,0.69-0.79,1.33-1.44,1.4
			c-0.61,0.07-1.12-0.25-1.32-0.83c-0.2-0.58,0.02-1.2,0.54-1.53C179.96,347.45,180.27,347.39,180.59,347.27z M180.01,348.71
			c0.01,0.27,0.18,0.4,0.41,0.34c0.31-0.09,0.59-0.44,0.61-0.75c0.01-0.08,0.01-0.14-0.11-0.13c-0.26,0.04-0.51,0.1-0.74,0.23
			C180.06,348.47,180,348.58,180.01,348.71z"/>
		<path class="st9" d="M169.76,338.62c-0.78-0.82-0.92-1.45-0.46-2.02c0.45-0.55,1.22-0.67,1.87-0.28c0.76,0.46,0.95,1.08,0.59,1.94
			c0.75-0.06,1.28-0.42,1.64-1.06c0.12-0.22,0.28-0.36,0.54-0.31c0.32,0.07,0.45,0.39,0.3,0.7c-0.51,1.07-1.79,1.76-2.96,1.57
			c-0.31-0.05-0.56-0.02-0.83,0.15c-0.47,0.29-0.99,0.49-1.52,0.67c-0.31,0.11-0.58,0-0.66-0.26c-0.09-0.28,0.04-0.5,0.37-0.61
			C169.02,338.96,169.4,338.82,169.76,338.62z M170.39,337.01c-0.23,0-0.42,0.14-0.42,0.32c-0.01,0.24,0.47,0.73,0.69,0.72
			c0.12-0.01,0.4-0.37,0.4-0.51C171.05,337.32,170.66,337.01,170.39,337.01z"/>
		<path class="st9" d="M169.7,331.38c0.26-0.33,0.23-0.66,0.15-1c-0.05-0.2-0.15-0.38-0.24-0.57c-0.13-0.25-0.05-0.51,0.17-0.63
			c0.22-0.12,0.49-0.05,0.63,0.18c0.56,0.94,0.67,2.19-0.33,2.93c-0.08,0.06-0.08,0.13-0.07,0.21c0.08,0.87-0.21,1.64-0.67,2.36
			c-0.11,0.17-0.26,0.25-0.46,0.22c-0.19-0.03-0.31-0.14-0.37-0.31c-0.06-0.17,0-0.31,0.09-0.46c0.25-0.41,0.45-0.83,0.49-1.32
			c0.01-0.16-0.03-0.21-0.19-0.16c-0.29,0.08-0.58,0.13-0.88,0.07c-0.78-0.15-1.19-0.79-0.97-1.56c0.14-0.5,0.39-0.95,0.94-1.08
			c0.55-0.13,0.97,0.16,1.32,0.55C169.46,330.97,169.57,331.16,169.7,331.38z M168.9,331.87c-0.11-0.26-0.25-0.46-0.44-0.62
			c-0.17-0.14-0.31-0.15-0.42,0.07c-0.05,0.1-0.1,0.19-0.11,0.3c-0.03,0.28,0.05,0.38,0.33,0.39
			C168.47,332.01,168.67,331.94,168.9,331.87z"/>
		<path class="st9" d="M167.29,336.29c0.01,0.91-0.28,1.95-0.71,2.95c-0.15,0.34-0.38,0.46-0.65,0.34
			c-0.27-0.11-0.34-0.38-0.19-0.71c0.43-0.95,0.68-1.94,0.63-2.99c-0.03-0.85-0.23-1.64-0.68-2.37c-0.17-0.27-0.13-0.53,0.1-0.68
			c0.23-0.16,0.51-0.08,0.68,0.2C167.05,333.97,167.29,335,167.29,336.29z"/>
		<path class="st9" d="M172.36,335.08c-0.19-0.01-0.33-0.09-0.4-0.27c-0.08-0.19-0.05-0.37,0.09-0.52c0.38-0.42,0.81-0.79,1.27-1.12
			c1.02-0.73,2.12-1.26,3.35-1.5c0.3-0.06,0.53,0.06,0.59,0.31c0.07,0.28-0.07,0.5-0.38,0.57c-1.4,0.31-2.62,0.96-3.69,1.9
			c-0.17,0.15-0.33,0.33-0.5,0.49C172.6,335.03,172.5,335.09,172.36,335.08z"/>
		<path class="st9" d="M176,342.11c1.23-0.01,2.43,0.16,3.6,0.52c0.08,0.02,0.16,0.04,0.23,0.08c0.24,0.11,0.34,0.35,0.26,0.58
			c-0.09,0.24-0.32,0.36-0.56,0.28c-0.72-0.23-1.45-0.39-2.2-0.47c-0.66-0.07-1.33-0.11-1.99-0.07c-0.34,0.02-0.57-0.11-0.6-0.39
			c-0.04-0.28,0.16-0.5,0.51-0.52C175.5,342.1,175.75,342.11,176,342.11z"/>
		<path class="st9" d="M175.48,336.19c0.11-0.39,0.2-0.84,0.35-1.27c0.07-0.21,0.28-0.29,0.51-0.23c0.37,0.1,0.74,0.19,1.11,0.29
			c0.3,0.08,0.42,0.28,0.35,0.58c-0.09,0.37-0.18,0.75-0.28,1.12c-0.07,0.26-0.3,0.4-0.56,0.34c-0.38-0.09-0.76-0.2-1.14-0.3
			C175.6,336.65,175.48,336.48,175.48,336.19z"/>
		<path class="st9" d="M157.76,334.81c-0.01,0.09-0.03,0.18-0.09,0.27c-0.17,0.26-0.33,0.52-0.5,0.77
			c-0.16,0.24-0.41,0.29-0.66,0.14c-0.26-0.16-0.52-0.32-0.77-0.49c-0.26-0.17-0.31-0.41-0.15-0.68c0.15-0.25,0.32-0.5,0.48-0.75
			c0.18-0.27,0.42-0.32,0.69-0.15c0.25,0.16,0.5,0.32,0.75,0.48C157.67,334.5,157.75,334.63,157.76,334.81z"/>
		<path class="st9" d="M176.34,339.19c0.26,0.02,0.52,0.03,0.78,0.05c0.27,0.03,0.44,0.2,0.44,0.45c0,0.29-0.03,0.59-0.06,0.88
			c-0.04,0.28-0.23,0.43-0.5,0.41c-0.24-0.01-0.48-0.03-0.72-0.05c-0.37-0.04-0.52-0.21-0.51-0.58c0.01-0.23,0.03-0.46,0.05-0.7
			C175.84,339.36,176.03,339.18,176.34,339.19z"/>
		<path class="st9" d="M176.69,347.97c0.31,0.12,0.7,0.24,1.02,0.49c0.15,0.12,0.16,0.31,0.09,0.49c-0.11,0.25-0.22,0.51-0.34,0.76
			c-0.12,0.25-0.35,0.33-0.61,0.23c-0.26-0.1-0.51-0.22-0.76-0.34c-0.26-0.13-0.34-0.35-0.22-0.63c0.1-0.24,0.21-0.47,0.32-0.71
			C176.27,348.08,176.41,347.96,176.69,347.97z"/>
		<path class="st9" d="M182.98,341.47c-0.03,0.21-0.08,0.35-0.22,0.44c-0.21,0.13-0.43,0.26-0.65,0.38
			c-0.24,0.12-0.46,0.07-0.61-0.16c-0.14-0.21-0.26-0.43-0.38-0.65c-0.12-0.24-0.06-0.46,0.17-0.61c0.21-0.14,0.43-0.26,0.65-0.38
			c0.14-0.08,0.31-0.09,0.43,0.01C182.68,340.77,182.81,341.16,182.98,341.47z"/>
		<path class="st9" d="M173.29,351.93c-0.22,0-0.36-0.04-0.43-0.16c-0.16-0.25-0.31-0.5-0.44-0.77c-0.11-0.23-0.01-0.42,0.2-0.55
			c0.2-0.13,0.41-0.25,0.63-0.36c0.24-0.13,0.46-0.07,0.61,0.15c0.14,0.22,0.26,0.45,0.39,0.67c0.08,0.15,0.08,0.31-0.03,0.43
			C173.94,351.65,173.57,351.79,173.29,351.93z"/>
		<path class="st9" d="M165.28,330.86c-0.03,0.21-0.1,0.36-0.27,0.44c-0.21,0.1-0.42,0.2-0.63,0.29c-0.26,0.11-0.48,0.03-0.61-0.22
			c-0.11-0.21-0.21-0.42-0.3-0.63c-0.11-0.26-0.02-0.48,0.23-0.61c0.22-0.11,0.44-0.2,0.66-0.3c0.17-0.08,0.34-0.05,0.45,0.08
			C165.05,330.19,165.15,330.55,165.28,330.86z"/>
		<path class="st9" d="M163.99,327.12c0.02,0.42-0.1,0.61-0.4,0.66c-0.22,0.04-0.44,0.06-0.67,0.07c-0.3,0.01-0.46-0.11-0.51-0.39
			c-0.04-0.24-0.07-0.48-0.08-0.72c-0.02-0.26,0.13-0.43,0.38-0.48c0.25-0.05,0.52-0.07,0.77-0.08c0.25-0.01,0.42,0.15,0.46,0.4
			c0,0.02,0,0.04,0,0.05C163.96,326.83,163.98,327.02,163.99,327.12z"/>
		<path class="st9" d="M173.31,330.64c0,0.26-0.56,0.71-0.88,0.71c-0.25,0-0.71-0.56-0.71-0.88c0-0.25,0.56-0.71,0.88-0.71
			C172.85,329.76,173.31,330.32,173.31,330.64z"/>
		<path class="st9" d="M181.2,332.36c-0.13,0.32-0.26,0.65-0.41,0.97c-0.04,0.09-0.15,0.09-0.24,0.05
			c-0.27-0.11-0.55-0.22-0.82-0.33c-0.14-0.06-0.19-0.16-0.13-0.3c0.11-0.27,0.21-0.55,0.33-0.82c0.05-0.12,0.14-0.19,0.28-0.13
			c0.28,0.11,0.56,0.23,0.84,0.34C181.13,332.18,181.19,332.24,181.2,332.36z"/>
		<path class="st10" d="M161.65,332.61c0.25-0.1,0.49-0.09,0.73-0.05c0.06,0.01,0.15,0.04,0.16,0.12c0.01,0.09-0.07,0.11-0.14,0.14
			C162.12,332.96,161.85,332.89,161.65,332.61z"/>
		<path class="st10" d="M157.52,331.85c-0.22,0.36-0.52,0.5-0.91,0.44c-0.18-0.03-0.32-0.11-0.31-0.3c0.01-0.2,0.11-0.36,0.35-0.37
			C156.96,331.61,157.24,331.71,157.52,331.85z"/>
		<path class="st10" d="M170.39,337.01c0.28,0,0.67,0.32,0.67,0.53c0,0.14-0.28,0.5-0.4,0.51c-0.22,0.01-0.69-0.49-0.69-0.72
			C169.97,337.14,170.15,337,170.39,337.01z"/>
		<path class="st10" d="M168.9,331.87c-0.22,0.07-0.43,0.14-0.64,0.13c-0.28-0.01-0.36-0.11-0.33-0.39c0.01-0.11,0.06-0.2,0.11-0.3
			c0.11-0.22,0.25-0.21,0.42-0.07C168.65,331.41,168.79,331.62,168.9,331.87z"/>
	</g>
	<line class="st2" x1="33.08" y1="201.98" x2="146.82" y2="201.98"/>
	<line class="st2" x1="32.76" y1="62.17" x2="150.33" y2="62.17"/>
	<line class="st2" x1="95.47" y1="279.78" x2="209.22" y2="279.78"/>
	<g>
		<path class="st11" d="M168.86,185.49c0,0.58,0,1.16,0,1.73c0,0.13,0.04,0.21,0.17,0.27c0.49,0.23,0.84,0.61,0.99,1.13
			c0.06,0.24,0.2,0.28,0.39,0.32c1.63,0.26,3.15,0.82,4.54,1.69c3.36,2.09,5.47,5.08,6.15,8.99c1.21,6.88-3.21,13.47-10,15.03
			c-7.09,1.62-14.2-2.87-15.73-10.02c-1.58-7.42,3.26-14.11,9.98-15.57c0.01,0,0.02-0.01,0.03-0.01c0.55-0.05,1-0.18,1.16-0.82
			c0.08-0.32,0.4-0.55,0.71-0.69c0.21-0.1,0.25-0.22,0.25-0.43c-0.01-1.09-0.01-2.17,0-3.26c0-0.54,0.45-0.88,0.91-0.7
			c0.29,0.11,0.44,0.33,0.45,0.64C168.86,184.35,168.86,184.92,168.86,185.49z M162.91,199.49c0-0.47-0.01-0.94,0-1.4
			c0-0.15-0.04-0.21-0.2-0.21c-0.95,0.01-1.89,0.01-2.84,0c-0.16,0-0.2,0.05-0.2,0.21c0.01,0.94,0.01,1.87,0,2.81
			c0,0.17,0.04,0.23,0.22,0.22c0.94-0.01,1.87-0.01,2.81,0c0.18,0,0.22-0.06,0.21-0.22C162.9,200.43,162.91,199.96,162.91,199.49z
			 M170.45,201.12c0.48,0,0.96-0.01,1.43,0c0.17,0,0.22-0.04,0.22-0.22c-0.01-0.94-0.01-1.87,0-2.81c0-0.17-0.05-0.22-0.22-0.22
			c-0.94,0.01-1.87,0.01-2.81,0c-0.17,0-0.22,0.04-0.22,0.21c0.01,0.94,0.01,1.87,0,2.81c0,0.17,0.04,0.22,0.22,0.22
			C169.53,201.11,169.99,201.12,170.45,201.12z M176.7,199.53c0-0.47-0.01-0.94,0-1.4c0-0.17-0.02-0.25-0.22-0.24
			c-0.94,0.01-1.87,0.01-2.81,0c-0.17,0-0.22,0.05-0.22,0.22c0.01,0.94,0.01,1.87,0,2.81c0,0.18,0.06,0.21,0.22,0.21
			c0.94-0.01,1.87-0.01,2.81,0c0.17,0,0.22-0.05,0.21-0.22C176.69,200.44,176.7,199.99,176.7,199.53z M165.89,197.89
			c-0.47,0-0.94,0-1.4,0c-0.15,0-0.23,0.02-0.23,0.21c0.01,0.94,0.01,1.87,0,2.81c0,0.17,0.05,0.22,0.22,0.22
			c0.94-0.01,1.87-0.01,2.81,0c0.15,0,0.21-0.03,0.21-0.19c-0.01-0.95-0.01-1.89,0-2.84c0-0.16-0.05-0.21-0.2-0.2
			C166.83,197.89,166.36,197.89,165.89,197.89z M161.3,205.7c0.46,0,0.92-0.01,1.37,0c0.17,0,0.24-0.03,0.24-0.23
			c-0.01-0.93-0.01-1.85,0-2.78c0-0.18-0.04-0.24-0.23-0.24c-0.93,0.01-1.85,0.01-2.78,0c-0.16,0-0.23,0.03-0.23,0.21
			c0.01,0.94,0.01,1.87,0,2.81c0,0.17,0.05,0.22,0.22,0.22C160.36,205.69,160.83,205.7,161.3,205.7z M162.91,194.91
			c0-0.47,0-0.94,0-1.4c0-0.14-0.01-0.22-0.19-0.22c-0.82,0.01-1.63,0-2.45,0.01c-0.23,0-0.59,0.39-0.59,0.62c0,0.81,0,1.61,0,2.42
			c0,0.16,0.06,0.2,0.21,0.2c0.94-0.01,1.87-0.01,2.81,0c0.17,0,0.22-0.05,0.22-0.22C162.9,195.85,162.91,195.38,162.91,194.91z
			 M168.86,208.71c0,0.46,0.01,0.92,0,1.37c0,0.16,0.03,0.22,0.21,0.22c0.95-0.01,1.89-0.01,2.84,0c0.16,0,0.2-0.05,0.2-0.2
			c-0.01-0.95-0.01-1.89,0-2.84c0-0.18-0.07-0.21-0.22-0.2c-0.94,0.01-1.87,0.01-2.81,0c-0.17,0-0.22,0.05-0.21,0.22
			C168.87,207.75,168.86,208.23,168.86,208.71z M165.87,207.06c-0.46,0-0.91,0.01-1.37,0c-0.17,0-0.24,0.02-0.24,0.22
			c0.01,0.93,0.01,1.87,0,2.8c0,0.17,0.05,0.22,0.22,0.22c0.93-0.01,1.87-0.01,2.8,0c0.16,0,0.22-0.03,0.22-0.21
			c-0.01-0.94-0.01-1.89,0-2.83c0-0.15-0.04-0.2-0.2-0.2C166.83,207.07,166.35,207.06,165.87,207.06z M167.5,194.91
			c0-0.46-0.01-0.92,0-1.37c0-0.17-0.02-0.24-0.22-0.24c-0.94,0.01-1.87,0.01-2.81,0c-0.17,0-0.21,0.06-0.21,0.22
			c0.01,0.93,0.01,1.85,0,2.78c0,0.2,0.06,0.25,0.25,0.24c0.92-0.01,1.83-0.01,2.75,0c0.21,0,0.25-0.07,0.24-0.25
			C167.49,195.82,167.5,195.37,167.5,194.91z M176.7,204.1c0-0.48-0.01-0.96,0-1.43c0-0.16-0.04-0.2-0.2-0.2
			c-0.95,0.01-1.89,0.01-2.84,0c-0.16,0-0.2,0.05-0.2,0.2c0.01,0.95,0.01,1.89,0,2.84c0,0.16,0.05,0.2,0.2,0.2
			c0.95-0.01,1.89-0.01,2.84,0c0.16,0,0.2-0.04,0.2-0.2C176.69,205.04,176.7,204.57,176.7,204.1z M172.1,204.1
			c0-0.48-0.01-0.96,0-1.43c0-0.16-0.04-0.2-0.2-0.2c-0.95,0.01-1.89,0.01-2.84,0c-0.16,0-0.2,0.05-0.2,0.2
			c0.01,0.95,0.01,1.89,0,2.84c0,0.16,0.05,0.2,0.2,0.2c0.95-0.01,1.89-0.01,2.84,0c0.16,0,0.2-0.04,0.2-0.2
			C172.09,205.04,172.1,204.57,172.1,204.1z M162.91,208.7c0-0.48,0-0.96,0-1.43c0-0.14-0.01-0.21-0.19-0.21
			c-0.96,0.01-1.91,0.01-2.87,0c-0.15,0-0.18,0.06-0.18,0.19c0,0.85,0,1.69,0,2.54c0,0.25,0.27,0.51,0.52,0.51
			c0.84,0,1.67,0,2.51,0.01c0.18,0,0.21-0.07,0.21-0.22C162.9,209.62,162.91,209.16,162.91,208.7z M173.46,194.89
			c0,0.47,0.01,0.94,0,1.4c0,0.17,0.03,0.24,0.23,0.24c0.93-0.01,1.85-0.01,2.78,0c0.21,0,0.24-0.07,0.24-0.26
			c-0.01-0.78,0-1.55,0-2.33c0-0.28-0.37-0.65-0.64-0.65c-0.79,0-1.57,0-2.36-0.01c-0.18,0-0.24,0.03-0.24,0.23
			C173.47,193.98,173.46,194.44,173.46,194.89z M170.48,211.66c-0.48,0-0.96,0.01-1.43,0c-0.14,0-0.19,0.04-0.18,0.18
			c0.01,0.52,0.01,1.04,0,1.55c0,0.18,0.07,0.19,0.21,0.18c0.97-0.1,1.93-0.27,2.85-0.58c0.15-0.05,0.18-0.12,0.18-0.26
			c-0.01-0.29-0.01-0.58,0-0.87c0.01-0.17-0.05-0.22-0.22-0.21C171.42,211.67,170.95,211.66,170.48,211.66z M165.9,211.66
			c-0.45,0-0.9,0.01-1.34,0c-0.22-0.01-0.33,0.03-0.3,0.28c0.02,0.24,0.02,0.48,0,0.72c-0.02,0.2,0.05,0.29,0.25,0.36
			c0.9,0.29,1.82,0.46,2.76,0.56c0.15,0.02,0.23,0,0.23-0.19c-0.01-0.51-0.01-1.02,0-1.52c0.01-0.19-0.08-0.2-0.23-0.2
			C166.82,211.67,166.36,211.66,165.9,211.66z M158.33,204.07c0-0.47-0.01-0.94,0-1.4c0-0.16-0.05-0.21-0.2-0.2
			c-0.48,0.01-0.96,0.01-1.43,0c-0.19-0.01-0.23,0.05-0.22,0.24c0.05,0.84,0.21,1.65,0.44,2.46c0.15,0.54,0.16,0.54,0.73,0.54
			c0.12,0,0.24-0.01,0.36,0c0.25,0.03,0.35-0.03,0.33-0.32C158.31,204.95,158.33,204.51,158.33,204.07z M178.06,199.49
			c0,0.48,0,0.95,0,1.43c0,0.12,0.01,0.2,0.17,0.2c0.51-0.01,1.01-0.01,1.52,0c0.14,0,0.16-0.05,0.15-0.18
			c-0.06-0.77-0.2-1.53-0.4-2.28c-0.21-0.78-0.22-0.78-1.03-0.78c-0.07,0-0.14,0.01-0.21,0c-0.16-0.02-0.21,0.04-0.2,0.2
			C178.07,198.55,178.06,199.02,178.06,199.49z M179.01,202.47c-0.24,0-0.48,0.01-0.72,0c-0.18-0.01-0.24,0.03-0.24,0.23
			c0.01,0.94,0.01,1.87,0,2.81c0,0.15,0.03,0.21,0.2,0.2c0.28-0.01,0.56-0.01,0.84,0c0.13,0,0.21-0.03,0.26-0.18
			c0.31-0.94,0.48-1.9,0.57-2.88c0.01-0.13-0.02-0.18-0.15-0.18C179.51,202.48,179.26,202.47,179.01,202.47z M170.48,191.93
			c0.23,0,0.46,0.01,0.69,0c0.3-0.01,0.73,0.13,0.88-0.06c0.16-0.2,0.04-0.61,0.05-0.92c0-0.02,0-0.04,0-0.06
			c0.01-0.1-0.04-0.13-0.13-0.16c-0.95-0.32-1.93-0.52-2.94-0.59c-0.13-0.01-0.17,0.03-0.17,0.16c0.01,0.49,0.01,0.97,0,1.46
			c0,0.15,0.05,0.18,0.19,0.18C169.52,191.93,170,191.93,170.48,191.93z M165.87,191.93c0.48,0,0.96-0.01,1.43,0
			c0.16,0,0.2-0.04,0.2-0.2c-0.01-0.45-0.02-0.9,0-1.34c0.01-0.25-0.09-0.28-0.29-0.25c-0.7,0.07-1.4,0.19-2.08,0.37
			c-0.87,0.23-0.87,0.23-0.87,1.14c0,0.03,0,0.06,0,0.09c-0.03,0.16,0.04,0.2,0.2,0.2C164.93,191.93,165.4,191.93,165.87,191.93z
			 M158.33,208.21c0-0.25,0-0.41,0-0.57c0-0.59,0-0.59-0.59-0.57c-0.01,0-0.03,0.02-0.05,0.04
			C157.87,207.46,158.05,207.82,158.33,208.21z M162.91,212.34c0-0.2,0-0.36,0-0.53c0-0.1-0.03-0.15-0.13-0.14
			c-0.32,0-0.64,0-1.04,0C162.16,211.94,162.5,212.15,162.91,212.34z M174.63,211.66c-0.25,0-0.42,0-0.6,0c-0.59,0-0.59,0-0.57,0.58
			c0,0.02,0.02,0.05,0.04,0.08C173.87,212.13,174.23,211.94,174.63,211.66z M178.7,207.06c-0.2,0-0.37,0-0.53,0
			c-0.07,0-0.11,0.02-0.11,0.1c0,0.32,0,0.64,0,0.96C178.32,207.79,178.53,207.46,178.7,207.06z M157.7,196.53c0.2,0,0.33,0,0.47,0
			c0.09,0,0.15-0.02,0.15-0.13c0-0.28,0-0.56,0-0.83c-0.02,0-0.04-0.01-0.06-0.01C158.09,195.86,157.91,196.17,157.7,196.53z
			 M161.98,191.88c0,0.02,0.01,0.04,0.01,0.06c0.25,0,0.51,0,0.76,0c0.11,0,0.17-0.03,0.16-0.15c-0.02-0.13,0.04-0.27-0.05-0.41
			C162.56,191.55,162.27,191.71,161.98,191.88z M178.06,195.6c0,0.26,0,0.52,0,0.79c0,0.09,0.02,0.15,0.13,0.14
			c0.14-0.01,0.28,0,0.45,0C178.48,196.17,178.3,195.88,178.06,195.6z M174.38,191.93c-0.28-0.23-0.57-0.42-0.9-0.56
			c-0.03,0.56-0.03,0.56,0.49,0.56C174.1,191.93,174.24,191.93,174.38,191.93z"/>
		<path class="st11" d="M178.15,211.66c0.33,0.09,0.76,0.19,1.16,0.34c0.47,0.18,0.91,0.18,1.37-0.01c0.32-0.13,0.66-0.2,1-0.29
			c0.28-0.08,0.53-0.06,0.74,0.16c0.21,0.22,0.23,0.47,0.14,0.75c-0.14,0.47-0.27,0.95-0.42,1.43c-0.06,0.18-0.05,0.34,0,0.52
			c0.15,0.47,0.28,0.95,0.42,1.43c0.08,0.28,0.06,0.54-0.16,0.74c-0.2,0.19-0.44,0.24-0.72,0.16c-0.49-0.15-0.99-0.28-1.48-0.44
			c-0.16-0.05-0.3-0.05-0.46,0c-0.5,0.15-1.01,0.3-1.51,0.44c-0.56,0.15-0.99-0.3-0.84-0.85c0.14-0.52,0.29-1.03,0.44-1.54
			c0.04-0.14,0.04-0.26,0-0.4c-0.16-0.52-0.31-1.04-0.45-1.57C177.27,212.06,177.59,211.65,178.15,211.66z M179.07,213.35
			c0.29,0.63,0.25,1.24-0.03,1.87c0.37-0.09,0.66-0.23,0.96-0.23c0.3,0,0.6,0.14,0.97,0.23c-0.32-0.65-0.32-1.25-0.04-1.88
			C180.31,213.61,179.71,213.64,179.07,213.35z"/>
		<path class="st11" d="M179.47,192.61c-0.47-0.01-0.78-0.37-0.68-0.81c0.09-0.4,0.2-0.79,0.33-1.17c0.07-0.22,0.08-0.41,0.01-0.63
			c-0.12-0.34-0.2-0.68-0.31-1.02c-0.09-0.28-0.08-0.55,0.15-0.77c0.22-0.22,0.49-0.27,0.77-0.14c0.9,0.41,1.79,0.39,2.69,0
			c0.27-0.12,0.53-0.07,0.74,0.14c0.22,0.22,0.29,0.49,0.16,0.77c-0.41,0.91-0.4,1.81,0,2.71c0.12,0.27,0.06,0.53-0.15,0.74
			c-0.21,0.22-0.49,0.27-0.74,0.15c-0.92-0.41-1.83-0.4-2.74,0.01C179.61,192.6,179.52,192.6,179.47,192.61z M180.46,189.72
			c0.19,0.41,0.16,0.8-0.01,1.2c0.42-0.18,0.81-0.18,1.22-0.01c-0.14-0.38-0.19-0.72-0.03-1.07c0.05-0.1-0.01-0.17-0.11-0.12
			C181.19,189.89,180.84,189.82,180.46,189.72z"/>
		<path class="st11" d="M153.04,212.14c-0.26,0-0.45-0.11-0.58-0.32c-0.07-0.1-0.13-0.2-0.17-0.31c-0.3-0.77-0.82-1.3-1.6-1.6
			c-0.33-0.13-0.64-0.32-0.64-0.74c-0.01-0.43,0.31-0.63,0.65-0.76c0.76-0.3,1.28-0.82,1.58-1.58c0.13-0.34,0.33-0.66,0.76-0.65
			c0.42,0.01,0.61,0.32,0.74,0.64c0.3,0.78,0.84,1.3,1.6,1.6c0.09,0.04,0.18,0.09,0.26,0.14c0.5,0.3,0.5,0.91-0.01,1.21
			c-0.36,0.21-0.73,0.41-1.1,0.6c-0.14,0.07-0.23,0.17-0.31,0.31c-0.19,0.36-0.39,0.72-0.58,1.07
			C153.51,211.99,153.32,212.14,153.04,212.14z M152.16,209.17c0.43,0.16,0.68,0.45,0.86,0.92c0.17-0.48,0.45-0.75,0.95-0.93
			c-0.51-0.16-0.77-0.45-0.95-0.92C152.85,208.71,152.57,208.99,152.16,209.17z"/>
		<path class="st11" d="M156.1,187.86c0.26-0.01,0.5,0.11,0.59,0.35c0.38,0.98,1.06,1.62,2.02,2.03c0.51,0.22,0.52,0.95,0.01,1.17
			c-0.96,0.42-1.62,1.06-2.03,2.03c-0.22,0.53-0.96,0.52-1.19-0.01c-0.41-0.95-1.05-1.6-2.01-2.01c-0.54-0.23-0.51-0.91,0.02-1.21
			c0.34-0.2,0.69-0.39,1.05-0.57c0.17-0.09,0.28-0.2,0.37-0.37c0.18-0.35,0.38-0.7,0.57-1.05C155.62,188,155.81,187.86,156.1,187.86
			z M157.06,190.83c-0.52-0.15-0.78-0.45-0.96-0.91c-0.17,0.46-0.45,0.75-0.92,0.91c0.46,0.17,0.76,0.45,0.92,0.93
			C156.27,191.29,156.55,191,157.06,190.83z"/>
		<path class="st12" d="M162.91,199.49c0,0.47-0.01,0.94,0,1.4c0,0.16-0.04,0.23-0.21,0.22c-0.94-0.01-1.87-0.01-2.81,0
			c-0.17,0-0.22-0.06-0.22-0.22c0.01-0.94,0.01-1.87,0-2.81c0-0.15,0.04-0.21,0.2-0.21c0.95,0.01,1.89,0.01,2.84,0
			c0.16,0,0.2,0.05,0.2,0.21C162.9,198.56,162.91,199.02,162.91,199.49z"/>
		<path class="st12" d="M170.45,201.12c-0.46,0-0.92-0.01-1.37,0c-0.17,0-0.22-0.05-0.22-0.22c0.01-0.94,0.01-1.87,0-2.81
			c0-0.17,0.05-0.21,0.22-0.21c0.94,0.01,1.87,0.01,2.81,0c0.17,0,0.22,0.05,0.22,0.22c-0.01,0.94-0.01,1.87,0,2.81
			c0,0.17-0.05,0.22-0.22,0.22C171.4,201.11,170.92,201.12,170.45,201.12z"/>
		<path class="st12" d="M176.7,199.53c0,0.46-0.01,0.92,0,1.37c0,0.17-0.04,0.22-0.21,0.22c-0.94-0.01-1.87-0.01-2.81,0
			c-0.16,0-0.22-0.04-0.22-0.21c0.01-0.94,0.01-1.87,0-2.81c0-0.17,0.04-0.22,0.22-0.22c0.94,0.01,1.87,0.01,2.81,0
			c0.2,0,0.22,0.08,0.22,0.24C176.69,198.59,176.7,199.06,176.7,199.53z"/>
		<path class="st12" d="M165.89,197.89c0.47,0,0.94,0.01,1.4,0c0.16,0,0.2,0.04,0.2,0.2c-0.01,0.95-0.01,1.89,0,2.84
			c0,0.17-0.07,0.2-0.21,0.19c-0.94-0.01-1.87-0.01-2.81,0c-0.17,0-0.22-0.05-0.22-0.22c0.01-0.94,0.01-1.87,0-2.81
			c0-0.19,0.07-0.21,0.23-0.21C164.96,197.89,165.43,197.89,165.89,197.89z"/>
		<path class="st12" d="M161.3,205.7c-0.47,0-0.94-0.01-1.4,0c-0.17,0-0.22-0.05-0.22-0.22c0.01-0.94,0.01-1.87,0-2.81
			c0-0.18,0.07-0.21,0.23-0.21c0.93,0.01,1.85,0.01,2.78,0c0.19,0,0.23,0.06,0.23,0.24c-0.01,0.93-0.01,1.85,0,2.78
			c0,0.2-0.07,0.23-0.24,0.23C162.22,205.69,161.76,205.7,161.3,205.7z"/>
		<path class="st12" d="M162.91,194.91c0,0.47-0.01,0.94,0,1.4c0,0.17-0.05,0.22-0.22,0.22c-0.94-0.01-1.87-0.01-2.81,0
			c-0.15,0-0.21-0.04-0.21-0.2c0.01-0.81,0-1.61,0-2.42c0-0.23,0.37-0.61,0.59-0.62c0.82-0.01,1.63,0,2.45-0.01
			c0.17,0,0.19,0.08,0.19,0.22C162.91,193.98,162.91,194.45,162.91,194.91z"/>
		<path class="st12" d="M168.86,208.71c0-0.48,0.01-0.96,0-1.43c0-0.17,0.04-0.22,0.21-0.22c0.94,0.01,1.87,0.01,2.81,0
			c0.16,0,0.22,0.02,0.22,0.2c-0.01,0.95-0.01,1.89,0,2.84c0,0.15-0.04,0.2-0.2,0.2c-0.95-0.01-1.89-0.01-2.84,0
			c-0.18,0-0.21-0.06-0.21-0.22C168.87,209.62,168.86,209.16,168.86,208.71z"/>
		<path class="st12" d="M165.87,207.06c0.48,0,0.95,0.01,1.43,0c0.16,0,0.2,0.05,0.2,0.2c-0.01,0.94-0.01,1.89,0,2.83
			c0,0.18-0.06,0.21-0.22,0.21c-0.93-0.01-1.87-0.01-2.8,0c-0.17,0-0.22-0.05-0.22-0.22c0.01-0.93,0.01-1.87,0-2.8
			c0-0.2,0.07-0.23,0.24-0.22C164.96,207.07,165.42,207.06,165.87,207.06z"/>
		<path class="st12" d="M167.5,194.91c0,0.46-0.01,0.92,0,1.37c0,0.19-0.03,0.26-0.24,0.25c-0.92-0.01-1.83-0.01-2.75,0
			c-0.19,0-0.26-0.04-0.25-0.24c0.01-0.93,0.01-1.85,0-2.78c0-0.16,0.04-0.22,0.21-0.22c0.94,0.01,1.87,0.01,2.81,0
			c0.2,0,0.22,0.08,0.22,0.24C167.49,193.99,167.5,194.45,167.5,194.91z"/>
		<path class="st12" d="M176.7,204.1c0,0.47-0.01,0.94,0,1.4c0,0.16-0.04,0.2-0.2,0.2c-0.95-0.01-1.89-0.01-2.84,0
			c-0.15,0-0.2-0.04-0.2-0.2c0.01-0.95,0.01-1.89,0-2.84c0-0.15,0.04-0.2,0.2-0.2c0.95,0.01,1.89,0.01,2.84,0
			c0.16,0,0.2,0.05,0.2,0.2C176.69,203.15,176.7,203.62,176.7,204.1z"/>
		<path class="st12" d="M172.1,204.1c0,0.47-0.01,0.94,0,1.4c0,0.16-0.05,0.2-0.2,0.2c-0.95-0.01-1.89-0.01-2.84,0
			c-0.15,0-0.2-0.04-0.2-0.2c0.01-0.95,0.01-1.89,0-2.84c0-0.15,0.04-0.2,0.2-0.2c0.95,0.01,1.89,0.01,2.84,0
			c0.16,0,0.2,0.05,0.2,0.2C172.09,203.15,172.1,203.62,172.1,204.1z"/>
		<path class="st12" d="M162.91,208.7c0,0.46-0.01,0.92,0,1.37c0,0.16-0.02,0.23-0.21,0.22c-0.84-0.01-1.67,0-2.51-0.01
			c-0.25,0-0.52-0.26-0.52-0.51c0-0.85,0-1.69,0-2.54c0-0.14,0.03-0.19,0.18-0.19c0.96,0.01,1.91,0.01,2.87,0
			c0.18,0,0.19,0.08,0.19,0.21C162.91,207.75,162.91,208.22,162.91,208.7z"/>
		<path class="st12" d="M173.46,194.89c0-0.46,0.01-0.92-0.01-1.37c-0.01-0.19,0.06-0.23,0.24-0.23c0.79,0.01,1.57,0,2.36,0.01
			c0.28,0,0.64,0.37,0.64,0.65c0,0.78,0,1.55,0,2.33c0,0.18-0.03,0.26-0.24,0.26c-0.93-0.01-1.85-0.01-2.78,0
			c-0.19,0-0.23-0.06-0.23-0.24C173.47,195.83,173.46,195.36,173.46,194.89z"/>
		<path class="st12" d="M170.48,211.66c0.47,0,0.94,0.01,1.4,0c0.17,0,0.22,0.04,0.22,0.21c-0.01,0.29-0.01,0.58,0,0.87
			c0,0.14-0.03,0.21-0.18,0.26c-0.93,0.31-1.88,0.49-2.85,0.58c-0.14,0.01-0.21,0-0.21-0.18c0.01-0.52,0.01-1.04,0-1.55
			c0-0.15,0.04-0.18,0.18-0.18C169.52,211.67,170,211.66,170.48,211.66z"/>
		<path class="st12" d="M165.9,211.66c0.46,0,0.92,0,1.37,0c0.15,0,0.23,0.01,0.23,0.2c-0.01,0.51-0.01,1.02,0,1.52
			c0.01,0.19-0.08,0.21-0.23,0.19c-0.94-0.1-1.86-0.27-2.76-0.56c-0.2-0.06-0.27-0.15-0.25-0.36c0.02-0.24,0.02-0.48,0-0.72
			c-0.03-0.25,0.08-0.29,0.3-0.28C165.01,211.67,165.46,211.66,165.9,211.66z"/>
		<path class="st12" d="M158.33,204.07c0,0.44-0.02,0.88,0.01,1.31c0.02,0.28-0.08,0.35-0.33,0.32c-0.12-0.02-0.24,0-0.36,0
			c-0.58,0-0.58,0-0.73-0.54c-0.22-0.8-0.39-1.62-0.44-2.46c-0.01-0.18,0.03-0.24,0.22-0.24c0.48,0.01,0.96,0.01,1.43,0
			c0.16,0,0.21,0.05,0.2,0.2C158.32,203.14,158.33,203.61,158.33,204.07z"/>
		<path class="st12" d="M178.06,199.49c0-0.47,0.01-0.93,0-1.4c0-0.16,0.04-0.22,0.2-0.2c0.07,0.01,0.14,0,0.21,0
			c0.81,0,0.82,0,1.03,0.78c0.2,0.75,0.34,1.51,0.4,2.28c0.01,0.13-0.01,0.18-0.15,0.18c-0.51,0-1.01-0.01-1.52,0
			c-0.16,0-0.17-0.08-0.17-0.2C178.06,200.44,178.06,199.96,178.06,199.49z"/>
		<path class="st12" d="M179.01,202.47c0.25,0,0.5,0.01,0.75,0c0.14,0,0.17,0.05,0.15,0.18c-0.09,0.98-0.26,1.95-0.57,2.88
			c-0.05,0.15-0.12,0.18-0.26,0.18c-0.28-0.01-0.56-0.01-0.84,0c-0.16,0.01-0.2-0.05-0.2-0.2c0.01-0.94,0.01-1.87,0-2.81
			c0-0.19,0.07-0.24,0.24-0.23C178.53,202.48,178.77,202.47,179.01,202.47z"/>
		<path class="st12" d="M170.48,191.93c-0.48,0-0.96,0-1.43,0c-0.14,0-0.19-0.03-0.19-0.18c0.01-0.49,0.01-0.97,0-1.46
			c0-0.13,0.04-0.17,0.17-0.16c1,0.07,1.98,0.27,2.94,0.59c0.09,0.03,0.14,0.07,0.13,0.16c0,0.02,0,0.04,0,0.06
			c-0.01,0.32,0.1,0.72-0.05,0.92c-0.15,0.19-0.58,0.04-0.88,0.06C170.94,191.94,170.71,191.93,170.48,191.93z"/>
		<path class="st12" d="M165.87,191.93c-0.47,0-0.94-0.01-1.4,0c-0.16,0-0.22-0.04-0.2-0.2c0-0.03,0-0.06,0-0.09
			c0-0.91,0-0.92,0.87-1.14c0.68-0.18,1.38-0.29,2.08-0.37c0.2-0.02,0.3,0,0.29,0.25c-0.03,0.45-0.01,0.9,0,1.34
			c0,0.16-0.04,0.2-0.2,0.2C166.83,191.93,166.35,191.93,165.87,191.93z"/>
		<path class="st12" d="M158.33,208.21c-0.28-0.39-0.46-0.75-0.65-1.1c0.03-0.02,0.04-0.04,0.05-0.04c0.59-0.02,0.59-0.02,0.59,0.57
			C158.33,207.8,158.33,207.96,158.33,208.21z"/>
		<path class="st12" d="M162.91,212.34c-0.41-0.19-0.75-0.4-1.17-0.67c0.4,0,0.72,0,1.04,0c0.11,0,0.14,0.05,0.13,0.14
			C162.91,211.97,162.91,212.14,162.91,212.34z"/>
		<path class="st12" d="M174.63,211.66c-0.4,0.28-0.76,0.47-1.13,0.67c-0.02-0.04-0.03-0.06-0.04-0.08
			c-0.02-0.58-0.02-0.58,0.57-0.58C174.21,211.66,174.38,211.66,174.63,211.66z"/>
		<path class="st12" d="M178.7,207.06c-0.18,0.4-0.38,0.73-0.64,1.06c0-0.32,0-0.64,0-0.96c0-0.08,0.04-0.1,0.11-0.1
			C178.34,207.06,178.5,207.06,178.7,207.06z"/>
		<path class="st12" d="M157.7,196.53c0.21-0.36,0.38-0.67,0.56-0.97c0.02,0,0.04,0.01,0.06,0.01c0,0.28,0,0.56,0,0.83
			c0,0.11-0.06,0.13-0.15,0.13C158.04,196.53,157.9,196.53,157.7,196.53z"/>
		<path class="st12" d="M161.98,191.88c0.29-0.16,0.58-0.33,0.89-0.5c0.08,0.14,0.03,0.28,0.05,0.41c0.02,0.12-0.04,0.15-0.16,0.15
			c-0.25-0.01-0.51,0-0.76,0C161.99,191.91,161.98,191.9,161.98,191.88z"/>
		<path class="st12" d="M178.06,195.6c0.24,0.28,0.42,0.57,0.58,0.93c-0.17,0-0.31,0-0.45,0c-0.11,0-0.13-0.05-0.13-0.14
			C178.06,196.12,178.06,195.86,178.06,195.6z"/>
		<path class="st12" d="M174.38,191.93c-0.14,0-0.28,0-0.42,0c-0.52,0-0.52,0-0.49-0.56C173.81,191.52,174.1,191.71,174.38,191.93z"
			/>
		<path class="st12" d="M179.07,213.35c0.64,0.3,1.24,0.26,1.87-0.01c-0.28,0.63-0.29,1.23,0.04,1.88
			c-0.37-0.09-0.67-0.23-0.97-0.23c-0.3,0-0.59,0.13-0.96,0.23C179.32,214.58,179.36,213.97,179.07,213.35z"/>
		<path class="st12" d="M180.46,189.72c0.38,0.11,0.72,0.18,1.07,0.01c0.11-0.05,0.16,0.02,0.11,0.12
			c-0.16,0.35-0.11,0.69,0.03,1.07c-0.41-0.17-0.8-0.18-1.22,0.01C180.62,190.51,180.65,190.12,180.46,189.72z"/>
		<path class="st12" d="M152.16,209.17c0.41-0.18,0.69-0.45,0.86-0.93c0.18,0.47,0.44,0.76,0.95,0.92c-0.5,0.18-0.77,0.46-0.95,0.93
			C152.85,209.62,152.59,209.32,152.16,209.17z"/>
		<path class="st12" d="M157.06,190.83c-0.51,0.17-0.78,0.47-0.96,0.93c-0.16-0.47-0.46-0.75-0.92-0.93
			c0.47-0.16,0.75-0.45,0.92-0.91C156.27,190.38,156.54,190.68,157.06,190.83z"/>
	</g>
	<g>
		<path class="st13" d="M77.91,267.27c7.08,0,12.81,5.73,12.81,12.81c0,7.06-5.74,12.79-12.8,12.79c-7.07,0-12.8-5.74-12.8-12.82
			C65.12,273,70.85,267.27,77.91,267.27z M89.83,280.08c0-6.57-5.32-11.91-11.89-11.91c-6.59-0.01-11.92,5.32-11.93,11.9
			c0,6.57,5.32,11.91,11.89,11.91C84.48,291.99,89.82,286.66,89.83,280.08z"/>
		<path class="st10" d="M89.83,280.08c0,6.58-5.34,11.91-11.93,11.9c-6.57-0.01-11.89-5.34-11.89-11.91
			c0-6.58,5.34-11.91,11.93-11.9C84.5,268.17,89.83,273.5,89.83,280.08z M82.56,285.98c-0.01-0.16-0.08-0.28-0.19-0.37
			c-0.28-0.23-0.58-0.43-0.9-0.59c-1.85-0.94-3.78-1.07-5.77-0.53c-0.8,0.22-1.53,0.57-2.19,1.09c-0.25,0.2-0.3,0.46-0.13,0.67
			c0.18,0.22,0.42,0.23,0.68,0.03c0.08-0.06,0.16-0.13,0.25-0.18c1.72-1.09,3.56-1.26,5.5-0.77c0.73,0.18,1.41,0.51,2,0.98
			c0.15,0.12,0.32,0.16,0.5,0.06C82.47,286.28,82.55,286.14,82.56,285.98z M73.05,279.51c0.76-0.01,1.42-0.19,1.99-0.62
			c0.71-0.53,1.09-1.21,1-2.12c-0.03-0.3-0.24-0.49-0.49-0.46c-0.26,0.03-0.43,0.25-0.4,0.54c0.05,0.49-0.14,0.89-0.5,1.21
			c-0.61,0.52-1.32,0.65-2.09,0.49c-0.98-0.21-1.46-0.79-1.48-1.78c-0.01-0.24-0.19-0.44-0.42-0.46c-0.23-0.02-0.43,0.15-0.47,0.4
			c-0.09,0.63,0.07,1.2,0.47,1.69C71.3,279.17,72.14,279.47,73.05,279.51z M82.67,279.51c0.75-0.02,1.41-0.19,1.98-0.62
			c0.71-0.53,1.1-1.23,1-2.14c-0.03-0.28-0.24-0.46-0.48-0.43c-0.25,0.03-0.43,0.25-0.4,0.51c0.06,0.56-0.17,0.99-0.61,1.32
			c-0.59,0.45-1.27,0.55-1.98,0.4c-0.98-0.21-1.46-0.79-1.48-1.78c-0.01-0.24-0.19-0.44-0.42-0.46c-0.23-0.02-0.44,0.15-0.47,0.4
			c-0.09,0.63,0.07,1.2,0.47,1.69C80.9,279.17,81.75,279.47,82.67,279.51z"/>
		<path class="st13" d="M82.56,285.98c-0.01,0.16-0.08,0.31-0.24,0.39c-0.18,0.1-0.35,0.06-0.5-0.06c-0.59-0.48-1.27-0.8-2-0.98
			c-1.93-0.49-3.78-0.32-5.5,0.77c-0.09,0.05-0.17,0.12-0.25,0.18c-0.27,0.2-0.51,0.19-0.68-0.03c-0.17-0.21-0.12-0.47,0.13-0.67
			c0.65-0.52,1.38-0.88,2.19-1.09c1.99-0.54,3.92-0.41,5.77,0.53c0.32,0.16,0.62,0.37,0.9,0.59
			C82.48,285.7,82.54,285.81,82.56,285.98z"/>
		<path class="st13" d="M73.05,279.51c-0.91-0.04-1.75-0.34-2.38-1.11c-0.4-0.49-0.57-1.05-0.47-1.69c0.04-0.25,0.24-0.42,0.47-0.4
			c0.23,0.02,0.41,0.22,0.42,0.46c0.02,0.99,0.49,1.57,1.48,1.78c0.77,0.16,1.48,0.03,2.09-0.49c0.36-0.31,0.55-0.71,0.5-1.21
			c-0.03-0.29,0.14-0.51,0.4-0.54c0.25-0.03,0.46,0.16,0.49,0.46c0.09,0.91-0.29,1.59-1,2.12
			C74.47,279.32,73.81,279.49,73.05,279.51z"/>
		<path class="st13" d="M82.67,279.51c-0.92-0.04-1.77-0.34-2.39-1.11c-0.4-0.49-0.57-1.05-0.47-1.69c0.04-0.25,0.24-0.42,0.47-0.4
			c0.23,0.02,0.41,0.22,0.42,0.46c0.02,0.99,0.49,1.57,1.48,1.78c0.71,0.15,1.39,0.05,1.98-0.4c0.43-0.33,0.67-0.75,0.61-1.32
			c-0.03-0.27,0.15-0.49,0.4-0.51c0.24-0.03,0.45,0.16,0.48,0.43c0.1,0.92-0.28,1.61-1,2.14C84.07,279.32,83.42,279.49,82.67,279.51
			z"/>
	</g>
</g>
</svg>
