<?xml version="1.0" encoding="utf-8"?>
<!-- Generator: Adobe Illustrator 23.0.1, SVG Export Plug-In . SVG Version: 6.00 Build 0)  -->
<svg version="1.1" id="Capa_1" xmlns="http://www.w3.org/2000/svg" xmlns:xlink="http://www.w3.org/1999/xlink" x="0px" y="0px"
	 viewBox="0 0 244.8 407.16" style="enable-background:new 0 0 244.8 407.16;" xml:space="preserve">
<style type="text/css">
	.st0{fill:#FFFFFF;stroke:#FFFFFF;stroke-miterlimit:10;}
	.st1{fill:#FFFFFF;stroke:#FFFFFF;stroke-width:10.8552;stroke-miterlimit:10;}
	.st2{fill:#002800;stroke:#000000;stroke-width:0.8018;stroke-miterlimit:10;}
	.st3{fill:#002800;stroke:#000000;stroke-width:0.4009;stroke-miterlimit:10;}
	.st4{fill:#002800;}
	.st5{fill:#111010;}
	.st6{fill:#FEFDFD;}
	.st7{fill:none;stroke:#000000;stroke-width:0.4009;stroke-miterlimit:10;}
	.st8{fill:#002800;stroke:#000000;stroke-width:0.3489;stroke-miterlimit:10;}
	.st9{fill:#0E0D0D;}
	.st10{fill:#FEFEFE;}
	.st11{fill:#0A0909;}
	.st12{fill:#FCFCFC;}
	.st13{fill:#0F0E0E;}
</style>
<g>
	<line class="st2" x1="122.5" y1="11.41" x2="122.5" y2="395.62"/>
	<line class="st2" x1="146.76" y1="59.69" x2="9.27" y2="59.69"/>
	<line class="st2" x1="95.44" y1="130.39" x2="209.19" y2="130.39"/>
	<g>
		<g>
			<path class="st3" d="M13.97,56.56c-0.63,0-1.21-0.11-1.74-0.32c-0.53-0.21-1-0.51-1.39-0.9c-0.39-0.38-0.7-0.84-0.91-1.35
				s-0.33-1.08-0.33-1.7c0-0.62,0.11-1.18,0.33-1.7c0.22-0.52,0.52-0.97,0.92-1.35c0.4-0.38,0.86-0.68,1.39-0.9
				c0.53-0.21,1.11-0.32,1.73-0.32c0.59,0,1.15,0.1,1.67,0.29c0.52,0.19,0.96,0.48,1.33,0.88l-0.38,0.4
				c-0.36-0.35-0.76-0.61-1.2-0.76c-0.44-0.16-0.9-0.23-1.39-0.23c-0.54,0-1.04,0.09-1.5,0.28s-0.86,0.44-1.2,0.78
				s-0.61,0.73-0.79,1.18s-0.28,0.94-0.28,1.47s0.09,1.02,0.28,1.47s0.45,0.84,0.79,1.18s0.74,0.6,1.2,0.78s0.96,0.28,1.5,0.28
				c0.49,0,0.95-0.08,1.39-0.23c0.44-0.16,0.84-0.42,1.2-0.78l0.38,0.4c-0.37,0.39-0.81,0.69-1.33,0.88
				C15.12,56.46,14.56,56.56,13.97,56.56z"/>
			<path class="st3" d="M22.04,55.95h5.2v0.55h-5.81v-8.42h5.63v0.55h-5.01V55.95z M21.97,51.95h4.56v0.54h-4.56V51.95z"/>
			<path class="st3" d="M31.88,56.5v-8.42h3.02c0.71,0,1.31,0.11,1.82,0.34c0.5,0.22,0.89,0.55,1.17,0.97s0.41,0.93,0.41,1.53
				c0,0.59-0.14,1.09-0.41,1.51s-0.66,0.75-1.17,0.97c-0.51,0.23-1.11,0.34-1.82,0.34h-2.68l0.28-0.29v3.04H31.88z M32.49,53.49
				l-0.28-0.29h2.68c0.91,0,1.59-0.2,2.06-0.6c0.47-0.4,0.7-0.96,0.7-1.68c0-0.73-0.24-1.29-0.7-1.69s-1.16-0.6-2.06-0.6h-2.68
				l0.28-0.3V53.49z M37.72,56.5l-2.19-3.05h0.7l2.19,3.05H37.72z"/>
			<path class="st3" d="M43.56,55.95h5.2v0.55h-5.81v-8.42h5.63v0.55h-5.01V55.95z M43.48,51.95h4.56v0.54h-4.56V51.95z"/>
			<path class="st3" d="M53.4,56.5v-8.42h0.52l3.91,6.75h-0.28l3.9-6.75h0.5l0.01,8.42h-0.6l-0.01-7.49h0.17l-3.69,6.37h-0.3
				l-3.7-6.37H54v7.49H53.4z"/>
			<path class="st3" d="M70.87,56.56c-0.63,0-1.2-0.11-1.74-0.32c-0.53-0.21-1-0.51-1.4-0.9c-0.4-0.39-0.7-0.84-0.92-1.36
				c-0.22-0.52-0.33-1.08-0.33-1.69s0.11-1.17,0.33-1.69s0.52-0.97,0.92-1.36c0.4-0.39,0.86-0.69,1.4-0.9
				c0.53-0.21,1.11-0.32,1.74-0.32c0.63,0,1.21,0.11,1.74,0.32c0.53,0.21,1,0.51,1.39,0.9c0.39,0.39,0.7,0.84,0.92,1.35
				c0.22,0.52,0.33,1.08,0.33,1.7c0,0.62-0.11,1.18-0.33,1.7c-0.22,0.52-0.53,0.97-0.92,1.35c-0.39,0.39-0.86,0.68-1.39,0.9
				C72.07,56.45,71.5,56.56,70.87,56.56z M70.87,55.99c0.54,0,1.04-0.09,1.49-0.28s0.85-0.44,1.19-0.78s0.6-0.73,0.79-1.18
				c0.19-0.45,0.28-0.94,0.28-1.47c0-0.54-0.09-1.03-0.28-1.47c-0.19-0.44-0.45-0.84-0.79-1.17s-0.73-0.6-1.19-0.78
				s-0.96-0.28-1.49-0.28s-1.03,0.09-1.49,0.28s-0.86,0.44-1.2,0.78s-0.61,0.73-0.79,1.17c-0.19,0.45-0.28,0.94-0.28,1.47
				c0,0.53,0.09,1.02,0.28,1.47s0.45,0.84,0.79,1.18s0.74,0.6,1.2,0.78S70.33,55.99,70.87,55.99z"/>
			<path class="st3" d="M79.78,56.5v-8.42h0.52l6,7.66h-0.28v-7.66h0.61v8.42h-0.51l-6.01-7.66h0.28v7.66H79.78z"/>
			<path class="st3" d="M91.98,56.5v-8.42h0.61v8.42H91.98z"/>
			<path class="st3" d="M96.52,56.5l3.87-8.42h0.61l3.87,8.42h-0.66l-3.66-8.03h0.26l-3.64,8.03H96.52z M97.94,54.13l0.2-0.52h5.04
				l0.2,0.52H97.94z"/>
		</g>
	</g>
	<g>
		<g>
			<path class="st4" d="M9.68,73.4v-0.44l4.57-5.64h0.69l-4.56,5.64l-0.34-0.1h6.81v0.54H9.68z M14.48,75.73V73.4l0.01-0.54V70.8
				h0.59v4.93H14.48z"/>
			<path class="st4" d="M18.23,70.43c-0.14,0-0.25-0.05-0.36-0.15c-0.1-0.1-0.15-0.22-0.15-0.37c0-0.14,0.05-0.26,0.15-0.36
				c0.1-0.1,0.22-0.14,0.36-0.14c0.14,0,0.25,0.05,0.35,0.14c0.1,0.1,0.15,0.22,0.15,0.36c0,0.14-0.05,0.27-0.15,0.37
				C18.48,70.38,18.36,70.43,18.23,70.43z M18.23,75.78c-0.14,0-0.25-0.05-0.36-0.15c-0.1-0.1-0.15-0.22-0.15-0.37
				c0-0.14,0.05-0.26,0.15-0.36c0.1-0.1,0.22-0.14,0.36-0.14c0.14,0,0.25,0.05,0.35,0.14c0.1,0.1,0.15,0.22,0.15,0.36
				c0,0.14-0.05,0.27-0.15,0.37C18.48,75.73,18.36,75.78,18.23,75.78z"/>
			<path class="st4" d="M25.65,75.79c-0.62,0-1.19-0.1-1.73-0.31s-0.95-0.48-1.25-0.82l0.31-0.47c0.26,0.3,0.62,0.54,1.09,0.74
				c0.47,0.2,0.99,0.29,1.57,0.29c0.75,0,1.33-0.17,1.73-0.5c0.4-0.34,0.6-0.79,0.6-1.36c0-0.56-0.2-1.01-0.6-1.35
				c-0.4-0.34-1.02-0.51-1.86-0.51h-0.53v-0.45l2.68-3.43l0.08,0.24h-4.76v-0.55h5.28v0.43l-2.67,3.43l-0.26-0.19h0.26
				c1,0,1.75,0.22,2.25,0.66s0.75,1.01,0.75,1.72c0,0.46-0.11,0.88-0.33,1.25c-0.22,0.37-0.55,0.66-0.99,0.87
				C26.84,75.69,26.3,75.79,25.65,75.79z"/>
			<path class="st4" d="M33.19,75.79c-0.64,0-1.21-0.17-1.71-0.52s-0.89-0.84-1.17-1.47c-0.28-0.64-0.42-1.4-0.42-2.28
				s0.14-1.64,0.42-2.28c0.28-0.64,0.67-1.13,1.17-1.47s1.07-0.52,1.71-0.52c0.65,0,1.22,0.17,1.71,0.52s0.88,0.84,1.16,1.47
				c0.28,0.64,0.42,1.4,0.42,2.28s-0.14,1.64-0.42,2.28c-0.28,0.64-0.67,1.13-1.16,1.47S33.84,75.79,33.19,75.79z M33.19,75.23
				c0.54,0,1.01-0.15,1.41-0.44c0.4-0.29,0.71-0.72,0.94-1.27c0.22-0.55,0.34-1.22,0.34-2c0-0.79-0.11-1.45-0.34-2
				c-0.22-0.55-0.54-0.97-0.94-1.26c-0.4-0.29-0.87-0.44-1.41-0.44c-0.53,0-1,0.15-1.4,0.44c-0.41,0.29-0.72,0.71-0.94,1.26
				s-0.34,1.22-0.34,2c0,0.78,0.11,1.44,0.34,2s0.54,0.98,0.94,1.27C32.19,75.08,32.66,75.23,33.19,75.23z"/>
			<path class="st4" d="M41.51,78.06v-8.61h0.58v2.06l-0.1,1.09l0.12,1.09v4.37H41.51z M44.66,75.78c-0.55,0-1.05-0.13-1.5-0.39
				c-0.45-0.26-0.8-0.62-1.06-1.1c-0.26-0.48-0.39-1.04-0.39-1.7c0-0.66,0.13-1.22,0.39-1.7s0.61-0.84,1.06-1.1
				c0.45-0.26,0.94-0.38,1.5-0.38c0.59,0,1.13,0.13,1.59,0.4s0.84,0.64,1.11,1.12s0.4,1.03,0.4,1.66s-0.13,1.18-0.4,1.66
				c-0.27,0.48-0.64,0.86-1.11,1.12C45.79,75.65,45.26,75.78,44.66,75.78z M44.63,75.24c0.48,0,0.91-0.11,1.3-0.33
				c0.39-0.22,0.69-0.53,0.91-0.93s0.33-0.86,0.33-1.38c0-0.53-0.11-0.99-0.33-1.39s-0.52-0.71-0.91-0.93
				c-0.38-0.22-0.82-0.33-1.3-0.33c-0.48,0-0.91,0.11-1.29,0.33c-0.38,0.22-0.68,0.53-0.9,0.93c-0.22,0.4-0.33,0.86-0.33,1.39
				c0,0.52,0.11,0.98,0.33,1.38c0.22,0.4,0.52,0.71,0.9,0.93S44.15,75.24,44.63,75.24z"/>
			<path class="st4" d="M57.45,69.4c0.5,0,0.94,0.1,1.32,0.29c0.37,0.2,0.66,0.49,0.87,0.89c0.21,0.4,0.31,0.89,0.31,1.47v3.67h-0.6
				v-3.62c0-0.71-0.17-1.24-0.52-1.61c-0.34-0.37-0.83-0.55-1.44-0.55c-0.47,0-0.88,0.1-1.23,0.3c-0.34,0.2-0.61,0.48-0.79,0.84
				s-0.28,0.79-0.28,1.3v3.34h-0.6v-3.62c0-0.71-0.17-1.24-0.52-1.61c-0.35-0.37-0.83-0.55-1.44-0.55c-0.47,0-0.88,0.1-1.23,0.3
				c-0.34,0.2-0.61,0.48-0.79,0.84c-0.18,0.36-0.28,0.79-0.28,1.3v3.34h-0.6v-6.28h0.58v1.73l-0.08-0.19
				c0.18-0.49,0.49-0.88,0.93-1.16c0.43-0.28,0.95-0.43,1.56-0.43c0.63,0,1.15,0.16,1.58,0.48c0.43,0.32,0.7,0.79,0.81,1.41
				l-0.21-0.08c0.17-0.54,0.49-0.97,0.95-1.3S56.78,69.4,57.45,69.4z"/>
		</g>
	</g>
	<g>
		<path class="st4" d="M72.14,117.78c1.46,0,2.92,0,4.38,0.01c0.19,0,0.25-0.06,0.29-0.24c0.56-2.61,2.12-4.28,4.73-4.9
			c3.27-0.77,6.62,1.49,7.23,4.8c0.6,3.29-1.49,6.38-4.73,7.08c-1.06,0.23-2.12,0.17-3.14-0.19c-0.19-0.07-0.29-0.05-0.4,0.14
			c-1.42,2.5-2.85,4.99-4.28,7.49c-0.07,0.12-0.1,0.24-0.1,0.38c0,2.38,0,4.77,0,7.15c0,0.21,0.05,0.27,0.26,0.26
			c0.79-0.01,1.58,0,2.37,0c0.28,0,0.48,0.15,0.59,0.39c0.12,0.26,0.08,0.51-0.09,0.73c-0.15,0.19-0.36,0.27-0.59,0.27
			c-2.15,0-4.3,0-6.45,0c-0.44,0-0.75-0.31-0.74-0.72c0.01-0.4,0.3-0.67,0.75-0.67c0.76-0.01,1.52-0.01,2.28,0
			c0.2,0,0.25-0.05,0.25-0.25c-0.01-2.39-0.01-4.78,0-7.18c0-0.15-0.05-0.27-0.12-0.4c-2.48-4.33-4.96-8.66-7.44-12.99
			c-0.06-0.1-0.12-0.2-0.15-0.31c-0.11-0.47,0.19-0.85,0.7-0.85C69.2,117.78,70.67,117.78,72.14,117.78z M68.94,119.13
			c0,0.02-0.01,0.04,0,0.06c0.67,1.17,1.33,2.34,2,3.52c0.04,0.08,0.1,0.12,0.18,0.14c0.94,0.21,1.88,0.32,2.85,0.29
			c1.04-0.03,2.02-0.33,3-0.64c1.1-0.35,2.19-0.72,3.36-0.71c0.14,0,0.17-0.1,0.23-0.19c0.44-0.76,0.87-1.52,1.3-2.28
			c0.03-0.05,0.11-0.1,0.05-0.19C77.58,119.13,73.26,119.13,68.94,119.13z M82.74,113.91c0.16,0.98,0.32,1.93,0.48,2.92
			c0.57-0.79,1.11-1.54,1.65-2.28c0.07-0.09,0.05-0.13-0.05-0.17C84.18,114.05,83.49,113.91,82.74,113.91z M84.56,119
			c0.79,0.57,1.54,1.11,2.28,1.65c0.16,0.11,0.16-0.03,0.2-0.1c0.27-0.57,0.41-1.17,0.44-1.81c0.01-0.22-0.08-0.22-0.25-0.19
			C86.36,118.7,85.49,118.84,84.56,119z M87.27,117.18c-0.23-0.71-0.6-1.31-1.1-1.83c-0.07-0.07-0.11-0.07-0.16,0.01
			c-0.12,0.17-0.24,0.33-0.36,0.5c-0.42,0.58-0.84,1.15-1.3,1.79C85.36,117.49,86.3,117.33,87.27,117.18z M81.37,114.12
			c-0.68,0.22-1.26,0.57-1.77,1.05c-0.13,0.12-0.11,0.17,0.03,0.27c0.68,0.48,1.35,0.97,2.02,1.46c0.05,0.03,0.09,0.1,0.19,0.07
			C81.68,116.02,81.53,115.08,81.37,114.12z M83.76,120.14c-0.01,0.05-0.01,0.08-0.01,0.11c0.14,0.88,0.29,1.76,0.43,2.64
			c0.02,0.16,0.1,0.14,0.2,0.1c0.66-0.25,1.25-0.61,1.74-1.14C85.33,121.28,84.56,120.71,83.76,120.14z M82.49,121.06
			c-0.38,0.67-0.72,1.28-1.07,1.88c-0.08,0.13,0.03,0.14,0.1,0.15c0.38,0.1,0.76,0.18,1.16,0.19c0.15,0,0.18-0.03,0.15-0.18
			C82.71,122.44,82.61,121.78,82.49,121.06z M80.45,117.77c-0.58-0.43-1.12-0.82-1.64-1.22c-0.15-0.11-0.2-0.07-0.26,0.07
			c-0.16,0.37-0.29,0.75-0.37,1.15C78.92,117.77,79.65,117.77,80.45,117.77z"/>
	</g>
	<g>
		<g>
			<path class="st3" d="M145.04,125.78c-0.63,0-1.21-0.11-1.74-0.32c-0.53-0.21-1-0.51-1.39-0.9c-0.39-0.38-0.7-0.84-0.91-1.35
				s-0.33-1.08-0.33-1.7c0-0.62,0.11-1.18,0.33-1.7c0.22-0.52,0.52-0.97,0.92-1.35c0.4-0.38,0.86-0.68,1.39-0.9
				c0.53-0.21,1.11-0.32,1.73-0.32c0.59,0,1.15,0.1,1.67,0.29c0.52,0.19,0.96,0.48,1.33,0.88l-0.38,0.4
				c-0.36-0.35-0.76-0.61-1.2-0.76c-0.44-0.16-0.9-0.23-1.39-0.23c-0.54,0-1.04,0.09-1.5,0.28s-0.86,0.44-1.2,0.78
				s-0.61,0.73-0.79,1.18s-0.28,0.94-0.28,1.47s0.09,1.02,0.28,1.47s0.45,0.84,0.79,1.18s0.74,0.6,1.2,0.78s0.96,0.28,1.5,0.28
				c0.49,0,0.95-0.08,1.39-0.23c0.44-0.16,0.84-0.42,1.2-0.78l0.38,0.4c-0.37,0.39-0.81,0.69-1.33,0.88
				C146.19,125.68,145.63,125.78,145.04,125.78z"/>
			<path class="st3" d="M156.07,125.78c-0.63,0-1.2-0.11-1.74-0.32c-0.53-0.21-1-0.51-1.4-0.9c-0.4-0.39-0.7-0.84-0.92-1.36
				c-0.22-0.52-0.33-1.08-0.33-1.69s0.11-1.17,0.33-1.69s0.52-0.97,0.92-1.36c0.4-0.39,0.86-0.69,1.4-0.9
				c0.53-0.21,1.11-0.32,1.74-0.32c0.63,0,1.21,0.11,1.74,0.32c0.53,0.21,1,0.51,1.39,0.9c0.39,0.39,0.7,0.84,0.92,1.35
				c0.22,0.52,0.33,1.08,0.33,1.7c0,0.62-0.11,1.18-0.33,1.7c-0.22,0.52-0.53,0.97-0.92,1.35c-0.39,0.39-0.86,0.68-1.39,0.9
				C157.27,125.68,156.7,125.78,156.07,125.78z M156.07,125.22c0.54,0,1.04-0.09,1.49-0.28s0.85-0.44,1.19-0.78s0.6-0.73,0.79-1.18
				c0.19-0.45,0.28-0.94,0.28-1.47c0-0.54-0.09-1.03-0.28-1.47c-0.19-0.44-0.45-0.84-0.79-1.17s-0.73-0.6-1.19-0.78
				s-0.96-0.28-1.49-0.28s-1.03,0.09-1.49,0.28s-0.86,0.44-1.2,0.78s-0.61,0.73-0.79,1.17c-0.19,0.45-0.28,0.94-0.28,1.47
				c0,0.53,0.09,1.02,0.28,1.47s0.45,0.84,0.79,1.18s0.74,0.6,1.2,0.78S155.53,125.22,156.07,125.22z M155.38,116.62l1.67-1.42h0.87
				l-1.89,1.42H155.38z"/>
			<path class="st3" d="M168.54,125.78c-0.63,0-1.21-0.11-1.74-0.32c-0.53-0.21-1-0.51-1.39-0.9c-0.39-0.38-0.7-0.84-0.91-1.35
				s-0.33-1.08-0.33-1.7c0-0.62,0.11-1.18,0.33-1.7c0.22-0.52,0.52-0.97,0.92-1.35c0.4-0.38,0.86-0.68,1.39-0.9
				c0.53-0.21,1.11-0.32,1.73-0.32c0.59,0,1.15,0.1,1.67,0.29c0.52,0.19,0.96,0.48,1.33,0.88l-0.38,0.4
				c-0.36-0.35-0.76-0.61-1.2-0.76c-0.44-0.16-0.9-0.23-1.39-0.23c-0.54,0-1.04,0.09-1.5,0.28s-0.86,0.44-1.2,0.78
				s-0.61,0.73-0.79,1.18s-0.28,0.94-0.28,1.47s0.09,1.02,0.28,1.47s0.45,0.84,0.79,1.18s0.74,0.6,1.2,0.78s0.96,0.28,1.5,0.28
				c0.49,0,0.95-0.08,1.39-0.23c0.44-0.16,0.84-0.42,1.2-0.78l0.38,0.4c-0.37,0.39-0.81,0.69-1.33,0.88
				C169.69,125.68,169.14,125.78,168.54,125.78z"/>
			<path class="st3" d="M177.61,125.72v-7.87h-3.03v-0.55h6.68v0.55h-3.03v7.87H177.61z"/>
			<path class="st3" d="M185.79,125.17h5.2v0.55h-5.81v-8.42h5.63v0.55h-5.01V125.17z M185.72,121.18h4.56v0.54h-4.56V121.18z"/>
			<path class="st3" d="M195.63,125.72v-8.42h0.61v7.87h4.85v0.55H195.63z"/>
		</g>
	</g>
	<g>
		<g>
			<path class="st4" d="M162.62,142.61c-0.61,0-1.18-0.1-1.71-0.31s-0.95-0.48-1.25-0.82l0.31-0.47c0.26,0.3,0.62,0.54,1.08,0.74
				c0.46,0.2,0.98,0.29,1.55,0.29c0.78,0,1.36-0.18,1.76-0.53c0.39-0.35,0.59-0.81,0.59-1.37c0-0.4-0.09-0.75-0.28-1.03
				s-0.5-0.51-0.94-0.67c-0.44-0.16-1.04-0.23-1.8-0.23h-1.71l0.45-4.08h4.46v0.55h-4.21l0.3-0.29l-0.4,3.57l-0.29-0.31h1.53
				c0.86,0,1.54,0.1,2.05,0.31c0.51,0.2,0.88,0.49,1.11,0.86c0.23,0.37,0.34,0.8,0.34,1.3c0,0.47-0.11,0.89-0.32,1.26
				c-0.22,0.38-0.54,0.68-0.98,0.9C163.82,142.5,163.28,142.61,162.62,142.61z"/>
			<path class="st4" d="M167.26,137.25c-0.14,0-0.25-0.05-0.36-0.15c-0.1-0.1-0.15-0.22-0.15-0.37c0-0.14,0.05-0.26,0.15-0.36
				c0.1-0.1,0.22-0.14,0.36-0.14c0.14,0,0.25,0.05,0.35,0.14c0.1,0.1,0.15,0.22,0.15,0.36c0,0.14-0.05,0.27-0.15,0.37
				C167.52,137.2,167.4,137.25,167.26,137.25z M167.26,142.6c-0.14,0-0.25-0.05-0.36-0.15c-0.1-0.1-0.15-0.22-0.15-0.37
				c0-0.14,0.05-0.26,0.15-0.36c0.1-0.1,0.22-0.14,0.36-0.14c0.14,0,0.25,0.05,0.35,0.14c0.1,0.1,0.15,0.22,0.15,0.36
				c0,0.14-0.05,0.27-0.15,0.37C167.52,142.55,167.4,142.6,167.26,142.6z"/>
			<path class="st4" d="M174.68,142.61c-0.62,0-1.19-0.1-1.73-0.31s-0.95-0.48-1.25-0.82l0.31-0.47c0.26,0.3,0.62,0.54,1.09,0.74
				c0.47,0.2,0.99,0.29,1.57,0.29c0.75,0,1.33-0.17,1.73-0.5c0.4-0.34,0.6-0.79,0.6-1.36c0-0.56-0.2-1.01-0.6-1.35
				c-0.4-0.34-1.02-0.51-1.86-0.51h-0.53v-0.45l2.68-3.43l0.08,0.24h-4.76v-0.55h5.28v0.43l-2.67,3.43l-0.26-0.19h0.26
				c1,0,1.75,0.22,2.25,0.66s0.75,1.01,0.75,1.72c0,0.46-0.11,0.88-0.33,1.25c-0.22,0.37-0.55,0.66-0.99,0.87
				C175.87,142.51,175.33,142.61,174.68,142.61z"/>
			<path class="st4" d="M182.22,142.61c-0.64,0-1.21-0.17-1.71-0.52s-0.89-0.84-1.17-1.47c-0.28-0.64-0.42-1.4-0.42-2.28
				s0.14-1.64,0.42-2.28c0.28-0.64,0.67-1.13,1.17-1.47s1.07-0.52,1.71-0.52c0.65,0,1.22,0.17,1.71,0.52s0.88,0.84,1.16,1.47
				c0.28,0.64,0.42,1.4,0.42,2.28s-0.14,1.64-0.42,2.28c-0.28,0.64-0.67,1.13-1.16,1.47S182.87,142.61,182.22,142.61z
				 M182.22,142.05c0.54,0,1.01-0.15,1.41-0.44c0.4-0.29,0.71-0.72,0.94-1.27c0.22-0.55,0.34-1.22,0.34-2c0-0.79-0.11-1.45-0.34-2
				c-0.22-0.55-0.54-0.97-0.94-1.26c-0.4-0.29-0.87-0.44-1.41-0.44c-0.53,0-1,0.15-1.4,0.44c-0.41,0.29-0.72,0.71-0.94,1.26
				s-0.34,1.22-0.34,2c0,0.78,0.11,1.44,0.34,2s0.54,0.98,0.94,1.27C181.23,141.9,181.7,142.05,182.22,142.05z"/>
			<path class="st4" d="M190.55,144.89v-8.61h0.58v2.06l-0.1,1.09l0.12,1.09v4.37H190.55z M193.7,142.6c-0.55,0-1.05-0.13-1.5-0.39
				c-0.45-0.26-0.8-0.62-1.06-1.1c-0.26-0.48-0.39-1.04-0.39-1.7c0-0.66,0.13-1.22,0.39-1.7s0.61-0.84,1.06-1.1
				c0.45-0.26,0.94-0.38,1.5-0.38c0.59,0,1.13,0.13,1.59,0.4s0.84,0.64,1.11,1.12s0.4,1.03,0.4,1.66s-0.13,1.18-0.4,1.66
				c-0.27,0.48-0.64,0.86-1.11,1.12C194.82,142.47,194.29,142.6,193.7,142.6z M193.66,142.06c0.48,0,0.91-0.11,1.3-0.33
				c0.39-0.22,0.69-0.53,0.91-0.93s0.33-0.86,0.33-1.38c0-0.53-0.11-0.99-0.33-1.39s-0.52-0.71-0.91-0.93
				c-0.38-0.22-0.82-0.33-1.3-0.33c-0.48,0-0.91,0.11-1.29,0.33c-0.38,0.22-0.68,0.53-0.9,0.93c-0.22,0.4-0.33,0.86-0.33,1.39
				c0,0.52,0.11,0.98,0.33,1.38c0.22,0.4,0.52,0.71,0.9,0.93S193.18,142.06,193.66,142.06z"/>
			<path class="st4" d="M206.48,136.23c0.5,0,0.94,0.1,1.32,0.29c0.37,0.2,0.66,0.49,0.87,0.89c0.21,0.4,0.31,0.89,0.31,1.47v3.67
				h-0.6v-3.62c0-0.71-0.17-1.24-0.52-1.61c-0.34-0.37-0.83-0.55-1.44-0.55c-0.47,0-0.88,0.1-1.23,0.3
				c-0.34,0.2-0.61,0.48-0.79,0.84s-0.28,0.79-0.28,1.3v3.34h-0.6v-3.62c0-0.71-0.17-1.24-0.52-1.61c-0.35-0.37-0.83-0.55-1.44-0.55
				c-0.47,0-0.88,0.1-1.23,0.3c-0.34,0.2-0.61,0.48-0.79,0.84c-0.18,0.36-0.28,0.79-0.28,1.3v3.34h-0.6v-6.28h0.58v1.73l-0.08-0.19
				c0.18-0.49,0.49-0.88,0.93-1.16c0.43-0.28,0.95-0.43,1.56-0.43c0.63,0,1.15,0.16,1.58,0.48c0.43,0.32,0.7,0.79,0.81,1.41
				l-0.21-0.08c0.17-0.54,0.49-0.97,0.95-1.3S205.82,136.23,206.48,136.23z"/>
		</g>
	</g>
	<line class="st2" x1="146.76" y1="201.09" x2="4.07" y2="201.09"/>
	<g>
		<g>
			<path class="st3" d="M11.79,197.33v-8.42h3.02c0.71,0,1.31,0.11,1.82,0.34c0.5,0.22,0.89,0.55,1.17,0.97s0.41,0.93,0.41,1.53
				c0,0.59-0.14,1.09-0.41,1.51s-0.66,0.75-1.17,0.97c-0.51,0.23-1.11,0.34-1.82,0.34h-2.68l0.28-0.29v3.04H11.79z M12.4,194.32
				l-0.28-0.29h2.68c0.91,0,1.59-0.2,2.06-0.6c0.47-0.4,0.7-0.96,0.7-1.68c0-0.73-0.24-1.29-0.7-1.69s-1.16-0.6-2.06-0.6h-2.68
				l0.28-0.3V194.32z M17.64,197.33l-2.19-3.05h0.7l2.19,3.05H17.64z"/>
			<path class="st3" d="M23.47,196.78h5.2v0.55h-5.81v-8.42h5.63v0.55h-5.01V196.78z M23.4,192.78h4.56v0.54H23.4V192.78z"/>
			<path class="st3" d="M36.87,197.39c-0.63,0-1.21-0.11-1.74-0.32c-0.53-0.21-1-0.51-1.39-0.9c-0.39-0.38-0.7-0.84-0.91-1.35
				s-0.33-1.08-0.33-1.7c0-0.62,0.11-1.18,0.33-1.7c0.22-0.52,0.52-0.97,0.92-1.35c0.4-0.38,0.86-0.68,1.39-0.9
				c0.53-0.21,1.11-0.32,1.73-0.32c0.59,0,1.15,0.1,1.67,0.29c0.52,0.19,0.96,0.48,1.33,0.88l-0.38,0.4
				c-0.36-0.35-0.76-0.61-1.2-0.76c-0.44-0.16-0.9-0.23-1.39-0.23c-0.54,0-1.04,0.09-1.5,0.28s-0.86,0.44-1.2,0.78
				s-0.61,0.73-0.79,1.18s-0.28,0.94-0.28,1.47s0.09,1.02,0.28,1.47s0.45,0.84,0.79,1.18s0.74,0.6,1.2,0.78s0.96,0.28,1.5,0.28
				c0.49,0,0.95-0.08,1.39-0.23c0.44-0.16,0.84-0.42,1.2-0.78l0.38,0.4c-0.37,0.39-0.81,0.69-1.33,0.88
				C38.02,197.29,37.46,197.39,36.87,197.39z"/>
			<path class="st3" d="M44.94,196.78h5.2v0.55h-5.81v-8.42h5.63v0.55h-5.01V196.78z M44.87,192.78h4.56v0.54h-4.56V192.78z"/>
			<path class="st3" d="M54.78,197.33v-8.42h3.02c0.71,0,1.31,0.11,1.82,0.34c0.5,0.22,0.89,0.55,1.17,0.97s0.41,0.93,0.41,1.53
				c0,0.59-0.14,1.09-0.41,1.52c-0.27,0.43-0.66,0.75-1.17,0.97c-0.51,0.22-1.11,0.34-1.82,0.34h-2.68l0.28-0.29v3.04H54.78z
				 M55.39,194.32l-0.28-0.3h2.68c0.91,0,1.59-0.2,2.06-0.6s0.7-0.96,0.7-1.68c0-0.73-0.24-1.29-0.7-1.69s-1.16-0.6-2.06-0.6h-2.68
				l0.28-0.3V194.32z"/>
			<path class="st3" d="M69.34,197.39c-0.63,0-1.21-0.11-1.74-0.32c-0.53-0.21-1-0.51-1.39-0.9c-0.39-0.38-0.7-0.84-0.91-1.35
				s-0.33-1.08-0.33-1.7c0-0.62,0.11-1.18,0.33-1.7c0.22-0.52,0.52-0.97,0.92-1.35c0.4-0.38,0.86-0.68,1.39-0.9
				c0.53-0.21,1.11-0.32,1.73-0.32c0.59,0,1.15,0.1,1.67,0.29c0.52,0.19,0.96,0.48,1.33,0.88l-0.38,0.4
				c-0.36-0.35-0.76-0.61-1.2-0.76c-0.44-0.16-0.9-0.23-1.39-0.23c-0.54,0-1.04,0.09-1.5,0.28s-0.86,0.44-1.2,0.78
				s-0.61,0.73-0.79,1.18s-0.28,0.94-0.28,1.47s0.09,1.02,0.28,1.47s0.45,0.84,0.79,1.18s0.74,0.6,1.2,0.78s0.96,0.28,1.5,0.28
				c0.49,0,0.95-0.08,1.39-0.23c0.44-0.16,0.84-0.42,1.2-0.78l0.38,0.4c-0.37,0.39-0.81,0.69-1.33,0.88
				C70.49,197.29,69.94,197.39,69.34,197.39z"/>
			<path class="st3" d="M76.8,197.33v-8.42h0.61v8.42H76.8z"/>
			<path class="st3" d="M86.32,197.39c-0.63,0-1.2-0.11-1.74-0.32c-0.53-0.21-1-0.51-1.4-0.9c-0.4-0.39-0.7-0.84-0.92-1.36
				c-0.22-0.52-0.33-1.08-0.33-1.69s0.11-1.17,0.33-1.69s0.52-0.97,0.92-1.36c0.4-0.39,0.86-0.69,1.4-0.9
				c0.53-0.21,1.11-0.32,1.74-0.32c0.63,0,1.21,0.11,1.74,0.32c0.53,0.21,1,0.51,1.39,0.9c0.39,0.39,0.7,0.84,0.92,1.35
				c0.22,0.52,0.33,1.08,0.33,1.7c0,0.62-0.11,1.18-0.33,1.7c-0.22,0.52-0.53,0.97-0.92,1.35c-0.39,0.39-0.86,0.68-1.39,0.9
				C87.53,197.28,86.95,197.39,86.32,197.39z M86.32,196.82c0.54,0,1.04-0.09,1.49-0.28s0.85-0.44,1.19-0.78s0.6-0.73,0.79-1.18
				c0.19-0.45,0.28-0.94,0.28-1.47c0-0.54-0.09-1.03-0.28-1.47c-0.19-0.44-0.45-0.84-0.79-1.17s-0.73-0.6-1.19-0.78
				s-0.96-0.28-1.49-0.28s-1.03,0.09-1.49,0.28s-0.86,0.44-1.2,0.78s-0.61,0.73-0.79,1.17c-0.19,0.45-0.28,0.94-0.28,1.47
				c0,0.53,0.09,1.02,0.28,1.47s0.45,0.84,0.79,1.18s0.74,0.6,1.2,0.78S85.79,196.82,86.32,196.82z M85.64,188.23l1.67-1.42h0.87
				l-1.89,1.42H85.64z"/>
			<path class="st3" d="M95.24,197.33v-8.42h0.52l6,7.66h-0.28v-7.66h0.61v8.42h-0.51l-6.01-7.66h0.28v7.66H95.24z"/>
		</g>
	</g>
	<g>
		<g>
			<path class="st4" d="M13.51,215.3c-0.74,0-1.36-0.17-1.86-0.5c-0.5-0.34-0.88-0.82-1.14-1.46c-0.26-0.63-0.38-1.39-0.38-2.26
				c0-0.95,0.16-1.75,0.47-2.39c0.31-0.64,0.75-1.12,1.31-1.44c0.56-0.32,1.21-0.49,1.96-0.49c0.36,0,0.71,0.03,1.03,0.1
				c0.33,0.06,0.62,0.18,0.88,0.34l-0.25,0.49c-0.22-0.14-0.47-0.23-0.75-0.29c-0.28-0.06-0.59-0.09-0.91-0.09
				c-0.95,0-1.7,0.31-2.27,0.92s-0.85,1.53-0.85,2.76c0,0.18,0.01,0.42,0.04,0.7c0.02,0.28,0.08,0.56,0.16,0.84l-0.22-0.06
				c0.06-0.46,0.21-0.86,0.47-1.19s0.58-0.58,0.99-0.75c0.4-0.17,0.84-0.26,1.32-0.26c0.56,0,1.05,0.1,1.47,0.31
				c0.42,0.2,0.75,0.5,0.99,0.87c0.24,0.38,0.36,0.82,0.36,1.32c0,0.51-0.12,0.96-0.37,1.34c-0.24,0.38-0.58,0.68-1,0.88
				C14.53,215.2,14.05,215.3,13.51,215.3z M13.49,214.77c0.44,0,0.83-0.08,1.15-0.25c0.33-0.16,0.59-0.4,0.78-0.7
				s0.28-0.65,0.28-1.05c0-0.6-0.2-1.08-0.61-1.44c-0.41-0.36-0.96-0.54-1.68-0.54c-0.46,0-0.86,0.09-1.21,0.26
				c-0.35,0.18-0.63,0.42-0.82,0.72s-0.29,0.65-0.29,1.02c0,0.33,0.09,0.64,0.28,0.94c0.18,0.3,0.45,0.55,0.81,0.74
				C12.53,214.68,12.97,214.77,13.49,214.77z"/>
			<path class="st4" d="M17.91,209.94c-0.14,0-0.25-0.05-0.36-0.15c-0.1-0.1-0.15-0.22-0.15-0.37c0-0.14,0.05-0.26,0.15-0.36
				c0.1-0.1,0.22-0.14,0.36-0.14c0.14,0,0.25,0.05,0.35,0.14c0.1,0.1,0.15,0.22,0.15,0.36c0,0.14-0.05,0.27-0.15,0.37
				C18.17,209.89,18.05,209.94,17.91,209.94z M17.91,215.29c-0.14,0-0.25-0.05-0.36-0.15c-0.1-0.1-0.15-0.22-0.15-0.37
				s0.05-0.26,0.15-0.36c0.1-0.1,0.22-0.14,0.36-0.14c0.14,0,0.25,0.05,0.35,0.14c0.1,0.1,0.15,0.22,0.15,0.36s-0.05,0.27-0.15,0.37
				C18.17,215.24,18.05,215.29,17.91,215.29z"/>
			<path class="st4" d="M25.33,215.3c-0.62,0-1.19-0.1-1.73-0.31c-0.53-0.21-0.95-0.48-1.25-0.82l0.31-0.47
				c0.26,0.3,0.62,0.54,1.09,0.74c0.47,0.2,0.99,0.29,1.57,0.29c0.75,0,1.33-0.17,1.73-0.5c0.4-0.34,0.6-0.79,0.6-1.36
				c0-0.56-0.2-1.01-0.6-1.35c-0.4-0.34-1.02-0.51-1.86-0.51h-0.53v-0.45l2.68-3.43l0.08,0.24h-4.76v-0.55h5.28v0.43l-2.67,3.43
				l-0.26-0.19h0.26c1,0,1.75,0.22,2.25,0.66c0.5,0.44,0.75,1.01,0.75,1.72c0,0.46-0.11,0.88-0.33,1.25s-0.55,0.66-0.99,0.87
				C26.53,215.2,25.98,215.3,25.33,215.3z"/>
			<path class="st4" d="M32.88,215.3c-0.64,0-1.21-0.17-1.71-0.52s-0.89-0.84-1.17-1.47c-0.28-0.64-0.42-1.4-0.42-2.28
				s0.14-1.64,0.42-2.28c0.28-0.64,0.67-1.13,1.17-1.47s1.07-0.52,1.71-0.52c0.65,0,1.22,0.17,1.71,0.52s0.88,0.84,1.16,1.47
				c0.28,0.64,0.42,1.4,0.42,2.28s-0.14,1.64-0.42,2.28c-0.28,0.64-0.67,1.13-1.16,1.47S33.53,215.3,32.88,215.3z M32.88,214.74
				c0.54,0,1.01-0.15,1.41-0.44c0.4-0.29,0.71-0.71,0.94-1.27c0.22-0.55,0.34-1.22,0.34-2c0-0.79-0.11-1.45-0.34-2
				c-0.22-0.55-0.54-0.97-0.94-1.26c-0.4-0.29-0.87-0.44-1.41-0.44c-0.53,0-1,0.15-1.4,0.44s-0.72,0.71-0.94,1.26
				c-0.22,0.55-0.34,1.22-0.34,2c0,0.78,0.11,1.44,0.34,2c0.22,0.55,0.54,0.98,0.94,1.27C31.88,214.59,32.35,214.74,32.88,214.74z"
				/>
			<path class="st4" d="M41.2,217.58v-8.61h0.58v2.06l-0.1,1.09l0.12,1.09v4.37H41.2z M44.35,215.29c-0.55,0-1.05-0.13-1.5-0.39
				c-0.45-0.26-0.8-0.62-1.06-1.1c-0.26-0.48-0.39-1.04-0.39-1.7s0.13-1.22,0.39-1.7c0.26-0.48,0.61-0.84,1.06-1.1
				c0.45-0.26,0.94-0.38,1.5-0.38c0.59,0,1.13,0.13,1.59,0.4s0.84,0.64,1.11,1.12c0.27,0.48,0.4,1.03,0.4,1.66
				c0,0.63-0.13,1.18-0.4,1.66c-0.27,0.48-0.64,0.86-1.11,1.13S44.94,215.29,44.35,215.29z M44.31,214.75c0.48,0,0.91-0.11,1.3-0.33
				c0.39-0.22,0.69-0.53,0.91-0.93c0.22-0.4,0.33-0.86,0.33-1.38c0-0.53-0.11-0.99-0.33-1.39c-0.22-0.4-0.52-0.71-0.91-0.93
				c-0.38-0.22-0.82-0.33-1.3-0.33c-0.48,0-0.91,0.11-1.29,0.33s-0.68,0.53-0.9,0.93c-0.22,0.4-0.33,0.86-0.33,1.39
				c0,0.52,0.11,0.98,0.33,1.38c0.22,0.4,0.52,0.71,0.9,0.93S43.83,214.75,44.31,214.75z"/>
			<path class="st4" d="M57.13,208.92c0.5,0,0.94,0.1,1.32,0.29c0.37,0.2,0.66,0.49,0.87,0.89c0.21,0.4,0.31,0.89,0.31,1.47v3.67
				h-0.6v-3.62c0-0.71-0.17-1.24-0.52-1.61s-0.83-0.55-1.44-0.55c-0.47,0-0.88,0.1-1.23,0.3c-0.34,0.2-0.61,0.48-0.79,0.84
				c-0.18,0.36-0.28,0.79-0.28,1.3v3.34h-0.6v-3.62c0-0.71-0.17-1.24-0.52-1.61c-0.35-0.37-0.83-0.55-1.44-0.55
				c-0.47,0-0.88,0.1-1.23,0.3c-0.34,0.2-0.61,0.48-0.79,0.84c-0.18,0.36-0.28,0.79-0.28,1.3v3.34h-0.6v-6.28h0.58v1.73l-0.08-0.19
				c0.18-0.49,0.49-0.88,0.93-1.16c0.43-0.28,0.95-0.43,1.56-0.43c0.63,0,1.15,0.16,1.58,0.48c0.43,0.32,0.7,0.79,0.81,1.41
				l-0.21-0.08c0.17-0.54,0.49-0.97,0.95-1.3C55.9,209.08,56.47,208.92,57.13,208.92z"/>
		</g>
	</g>
	<circle class="st2" cx="122.5" cy="11.41" r="5.05"/>
	<circle class="st2" cx="122.5" cy="395.62" r="5.05"/>
	<g>
		<path class="st5" d="M174.93,51.07c0-0.68,0.01-1.32,0-1.96c-0.01-0.62-0.04-1.24-0.06-1.87c-0.02-0.77,0.38-1.31,1.12-1.51
			c0.52-0.14,1.03-0.28,1.56-0.39c0.48-0.1,0.93,0,1.29,0.35c0.93,0.91,1.84,1.83,2.76,2.75c0.35,0.36,0.45,0.81,0.35,1.29
			c-0.11,0.54-0.23,1.07-0.35,1.6c-0.16,0.7-0.72,1.15-1.43,1.14c-1.18-0.03-2.36-0.07-3.55-0.1c-0.11,0-0.23,0-0.38,0
			c0.16,0.21,0.3,0.4,0.44,0.59c1.44,2.03,2.15,4.29,1.94,6.78c-0.36,4.32-2.59,7.33-6.55,9.05c-0.17,0.07-0.27,0.17-0.34,0.33
			c-1.5,3.56-4.16,5.75-7.95,6.45c-5.45,1.01-10.82-2.64-11.96-8.04c-1.08-5.11,1.53-10.02,6.37-11.99c0.17-0.07,0.24-0.17,0.3-0.32
			c1.55-3.62,4.26-5.83,8.15-6.46c3.02-0.49,5.76,0.3,8.16,2.21C174.84,51,174.88,51.03,174.93,51.07z M170.18,66.23
			c0.46-0.1,0.86-0.28,1.26-0.45c0.18-0.08,0.25-0.18,0.25-0.38c-0.01-0.74-0.07-1.47-0.23-2.2c-1.11-5.06-6.02-8.51-11.37-7.42
			c-5.24,1.07-8.51,5.98-7.59,11.23c0.87,4.97,5.58,8.46,10.6,7.86c2.24-0.27,4.17-1.2,5.77-2.79c0.83-0.83,1.5-1.79,1.99-2.9
			c-0.57,0.13-1.1,0.24-1.64,0.28c-0.15,0.01-0.2,0.13-0.28,0.23c-2.02,2.9-4.78,4.19-8.29,3.67c-4.51-0.67-7.6-5.15-6.73-9.64
			c1.06-5.42,7.03-8.32,11.9-5.73c2.6,1.38,4.05,3.6,4.37,6.54C170.26,65.1,170.23,65.65,170.18,66.23z M159.36,55.15
			c0.54-0.13,1.02-0.23,1.51-0.27c0.19-0.01,0.3-0.07,0.4-0.23c1.87-2.87,5.14-4.27,8.5-3.65c4.35,0.81,7.31,5.09,6.55,9.45
			c-0.76,4.34-4.73,7.33-9.11,6.76c-3.33-0.43-5.57-2.32-6.77-5.43c-0.45-1.18-0.54-2.41-0.41-3.69c-0.49,0.13-0.93,0.31-1.37,0.52
			c-0.14,0.06-0.13,0.16-0.14,0.28c-0.01,0.68,0.05,1.35,0.18,2.01c1.09,5.69,6.9,9.15,12.41,7.4c4.78-1.51,7.61-6.42,6.53-11.31
			c-0.91-4.12-4.39-7.2-8.6-7.55c-2.37-0.2-4.56,0.38-6.5,1.78C161.16,52.22,160.1,53.51,159.36,55.15z M157.76,59.2
			c-2.13,1.37-3.67,4.3-3.07,7.43c0.62,3.3,3.28,5.66,6.46,6.04c3.32,0.39,5.98-1.53,6.92-3.15
			C162.25,69.43,157.82,64.72,157.76,59.2z M172.5,65.12c2.21-1.44,3.68-4.45,2.99-7.61c-0.72-3.34-3.51-5.64-6.69-5.86
			c-2.7-0.19-6.07,1.46-6.63,3.15C168.23,54.95,172.5,59.9,172.5,65.12z M169.47,65.2c-0.12-2.8-1.36-4.99-3.84-6.43
			c-1.41-0.82-2.95-1.09-4.57-0.88c-0.15,0.02-0.24,0.06-0.26,0.24c-0.13,0.99-0.05,1.96,0.21,2.91c0.98,3.57,4.45,5.88,8.11,5.43
			c0.18-0.02,0.26-0.09,0.27-0.27C169.42,65.88,169.45,65.57,169.47,65.2z M176.09,46.5c0.38,0.37,0.71,0.69,1.04,1.01
			c0.06,0.06,0.13,0.1,0.22,0.08c0.6-0.15,1.21-0.3,1.85-0.46c-0.31-0.31-0.58-0.59-0.86-0.86c-0.17-0.16-0.37-0.25-0.61-0.19
			C177.21,46.21,176.69,46.35,176.09,46.5z M180.83,51.22c0.14-0.62,0.27-1.19,0.38-1.76c0.03-0.17-0.04-0.34-0.16-0.46
			c-0.28-0.3-0.58-0.58-0.89-0.9c-0.14,0.63-0.27,1.22-0.4,1.81c-0.02,0.1-0.04,0.19,0.05,0.29
			C180.14,50.52,180.46,50.85,180.83,51.22z M178.55,50.12c-0.45-0.45-0.89-0.89-1.33-1.33c-0.34,0.76-0.68,1.54-1.06,2.39
			C177.02,50.8,177.8,50.45,178.55,50.12z M175.64,50.08c0.05,0.01,0.1,0.01,0.15,0.02c0.27-0.62,0.55-1.24,0.82-1.85
			c0.04-0.08,0.03-0.13-0.03-0.19c-0.3-0.3-0.6-0.6-0.94-0.95c0,0.13,0,0.18,0,0.23C175.64,48.26,175.64,49.17,175.64,50.08z
			 M180.21,51.64c-0.13-0.11-0.25-0.21-0.36-0.32c-0.22-0.21-0.42-0.55-0.67-0.59c-0.25-0.04-0.55,0.2-0.83,0.32
			c-0.36,0.16-0.72,0.32-1.08,0.48c0.01,0.03,0.01,0.07,0.02,0.1C178.25,51.64,179.2,51.64,180.21,51.64z M177.96,48.25
			c0.38,0.38,0.74,0.75,1.12,1.12c0.1-0.46,0.21-0.95,0.33-1.48C178.88,48.02,178.41,48.13,177.96,48.25z"/>
		<path class="st6" d="M170.18,66.23c0.05-0.58,0.08-1.14,0.02-1.7c-0.32-2.94-1.77-5.16-4.37-6.54c-4.88-2.59-10.85,0.31-11.9,5.73
			c-0.88,4.49,2.22,8.98,6.73,9.64c3.51,0.52,6.27-0.77,8.29-3.67c0.07-0.1,0.12-0.22,0.28-0.23c0.54-0.04,1.08-0.15,1.64-0.28
			c-0.49,1.12-1.15,2.07-1.99,2.9c-1.6,1.6-3.53,2.52-5.77,2.79c-5.02,0.6-9.72-2.9-10.6-7.86c-0.92-5.26,2.35-10.17,7.59-11.23
			c5.35-1.09,10.27,2.36,11.37,7.42c0.16,0.72,0.22,1.46,0.23,2.2c0,0.2-0.07,0.3-0.25,0.38C171.04,65.95,170.65,66.14,170.18,66.23
			z"/>
		<path class="st6" d="M159.36,55.15c0.74-1.64,1.8-2.93,3.2-3.94c1.94-1.39,4.13-1.98,6.5-1.78c4.22,0.36,7.69,3.43,8.6,7.55
			c1.08,4.89-1.76,9.8-6.53,11.31c-5.52,1.75-11.32-1.71-12.41-7.4c-0.13-0.67-0.19-1.33-0.18-2.01c0-0.12,0-0.22,0.14-0.28
			c0.44-0.21,0.88-0.38,1.37-0.52c-0.14,1.28-0.05,2.52,0.41,3.69c1.2,3.11,3.44,5.01,6.77,5.43c4.39,0.56,8.35-2.42,9.11-6.76
			c0.76-4.36-2.2-8.64-6.55-9.45c-3.36-0.63-6.63,0.77-8.5,3.65c-0.11,0.16-0.22,0.22-0.4,0.23
			C160.38,54.92,159.9,55.02,159.36,55.15z"/>
		<path class="st6" d="M172.5,65.12c0-5.22-4.27-10.17-10.33-10.31c0.56-1.69,3.93-3.34,6.63-3.15c3.18,0.22,5.97,2.52,6.69,5.86
			C176.18,60.67,174.71,63.67,172.5,65.12z"/>
		<path class="st6" d="M176.09,46.5c0.61-0.15,1.13-0.29,1.64-0.42c0.24-0.06,0.44,0.03,0.61,0.19c0.28,0.27,0.55,0.55,0.86,0.86
			c-0.64,0.16-1.24,0.31-1.85,0.46c-0.1,0.02-0.16-0.01-0.22-0.08C176.8,47.19,176.47,46.87,176.09,46.5z"/>
		<path class="st6" d="M180.83,51.22c-0.36-0.36-0.68-0.7-1.01-1.02c-0.1-0.09-0.08-0.19-0.05-0.29c0.13-0.59,0.26-1.18,0.4-1.81
			c0.31,0.31,0.61,0.6,0.89,0.9c0.12,0.12,0.19,0.29,0.16,0.46C181.09,50.03,180.96,50.6,180.83,51.22z"/>
		<path class="st6" d="M178.55,50.12c-0.75,0.33-1.54,0.68-2.39,1.05c0.38-0.85,0.72-1.63,1.06-2.39
			C177.66,49.23,178.1,49.67,178.55,50.12z"/>
		<path class="st6" d="M175.64,50.08c0-0.91,0-1.83,0-2.74c0-0.05,0-0.1,0-0.23c0.34,0.35,0.64,0.65,0.94,0.95
			c0.06,0.06,0.07,0.11,0.03,0.19c-0.28,0.62-0.55,1.23-0.82,1.85C175.74,50.09,175.69,50.09,175.64,50.08z"/>
		<path class="st6" d="M180.21,51.64c-1.01,0-1.97,0-2.92,0c-0.01-0.03-0.01-0.07-0.02-0.1c0.36-0.16,0.72-0.32,1.08-0.48
			c0.28-0.12,0.58-0.37,0.83-0.32c0.25,0.04,0.45,0.38,0.67,0.59C179.97,51.43,180.08,51.53,180.21,51.64z"/>
		<path class="st6" d="M177.96,48.25c0.45-0.11,0.92-0.23,1.45-0.36c-0.12,0.53-0.23,1.02-0.33,1.48
			C178.7,48.99,178.34,48.62,177.96,48.25z"/>
	</g>
	<line class="st2" x1="95.44" y1="278.38" x2="209.19" y2="278.38"/>
	<g>
		<g>
			<path class="st8" d="M131.57,262.41c-0.54,0-1.06-0.09-1.54-0.28c-0.49-0.19-0.86-0.42-1.13-0.72l0.24-0.4
				c0.25,0.26,0.59,0.48,1.03,0.65s0.9,0.27,1.39,0.27c0.49,0,0.89-0.06,1.2-0.19s0.54-0.3,0.69-0.52c0.15-0.22,0.23-0.46,0.23-0.72
				c0-0.31-0.08-0.57-0.25-0.75c-0.17-0.19-0.39-0.34-0.66-0.45c-0.27-0.11-0.57-0.21-0.89-0.28c-0.32-0.08-0.65-0.16-0.97-0.25
				c-0.33-0.09-0.63-0.2-0.9-0.34c-0.27-0.14-0.49-0.33-0.65-0.57c-0.16-0.24-0.25-0.55-0.25-0.94c0-0.35,0.09-0.67,0.27-0.96
				c0.18-0.29,0.46-0.53,0.85-0.71s0.88-0.27,1.48-0.27c0.4,0,0.8,0.06,1.2,0.18c0.39,0.12,0.73,0.28,1.01,0.48l-0.2,0.43
				c-0.31-0.21-0.64-0.36-0.99-0.47c-0.35-0.1-0.69-0.15-1.02-0.15c-0.47,0-0.86,0.07-1.16,0.2c-0.31,0.13-0.53,0.31-0.68,0.53
				c-0.15,0.22-0.22,0.47-0.22,0.74c0,0.31,0.08,0.57,0.25,0.75c0.16,0.19,0.38,0.34,0.65,0.45c0.27,0.11,0.57,0.21,0.9,0.28
				s0.65,0.16,0.97,0.25c0.32,0.09,0.62,0.2,0.89,0.34s0.49,0.33,0.66,0.57c0.17,0.24,0.25,0.54,0.25,0.92
				c0,0.34-0.09,0.66-0.28,0.96c-0.19,0.3-0.48,0.53-0.86,0.71C132.67,262.32,132.18,262.41,131.57,262.41z"/>
			<path class="st8" d="M138.65,261.88h4.52v0.48h-5.06v-7.33h4.9v0.48h-4.37V261.88z M138.58,258.4h3.97v0.47h-3.97V258.4z"/>
			<path class="st8" d="M150.77,262.36l3.37-7.33h0.53l3.37,7.33h-0.58l-3.18-6.99h0.23l-3.17,6.99H150.77z M152,260.3l0.18-0.45
				h4.39l0.18,0.45H152z"/>
			<path class="st8" d="M164.57,262.41c-0.54,0-1.05-0.09-1.51-0.28c-0.46-0.19-0.87-0.45-1.21-0.78c-0.34-0.33-0.61-0.73-0.8-1.18
				s-0.28-0.94-0.28-1.48s0.09-1.03,0.28-1.48s0.46-0.84,0.8-1.18c0.35-0.33,0.75-0.59,1.21-0.78c0.46-0.19,0.96-0.28,1.51-0.28
				c0.52,0,1,0.08,1.45,0.25c0.45,0.17,0.83,0.42,1.16,0.76l-0.33,0.35c-0.31-0.31-0.66-0.53-1.04-0.67
				c-0.38-0.14-0.78-0.2-1.21-0.2c-0.47,0-0.9,0.08-1.3,0.24s-0.75,0.39-1.05,0.68c-0.3,0.29-0.53,0.63-0.69,1.03
				c-0.16,0.39-0.25,0.82-0.25,1.28s0.08,0.89,0.25,1.28s0.39,0.73,0.69,1.03c0.3,0.29,0.65,0.52,1.05,0.68
				c0.4,0.16,0.83,0.24,1.3,0.24c0.43,0,0.83-0.07,1.21-0.2c0.38-0.14,0.73-0.36,1.04-0.68l0.33,0.35c-0.32,0.34-0.71,0.6-1.16,0.77
				S165.08,262.41,164.57,262.41z"/>
			<path class="st8" d="M169.83,262.36l3.37-7.33h0.53l3.37,7.33h-0.58l-3.18-6.99h0.23l-3.17,6.99H169.83z M171.07,260.3l0.18-0.45
				h4.39l0.18,0.45H171.07z"/>
			<path class="st8" d="M180.53,262.36v-7.33h3.06c0.79,0,1.41,0.16,1.85,0.48c0.45,0.32,0.67,0.79,0.67,1.39
				c0,0.4-0.09,0.73-0.28,1s-0.45,0.48-0.78,0.61c-0.33,0.14-0.7,0.2-1.11,0.2l0.19-0.21c0.5,0,0.93,0.07,1.29,0.22
				c0.36,0.15,0.63,0.36,0.81,0.64s0.28,0.63,0.28,1.05c0,0.61-0.22,1.09-0.67,1.43c-0.45,0.34-1.12,0.51-2.03,0.51H180.53z
				 M181.06,261.9h2.73c0.71,0,1.24-0.12,1.61-0.36c0.37-0.24,0.55-0.63,0.55-1.16c0-0.52-0.18-0.91-0.55-1.15
				c-0.37-0.24-0.91-0.36-1.61-0.36H181v-0.46h2.57c0.63,0,1.13-0.12,1.48-0.37c0.35-0.24,0.52-0.61,0.52-1.1
				c0-0.48-0.17-0.84-0.52-1.09c-0.35-0.24-0.84-0.37-1.48-0.37h-2.5V261.9z"/>
			<path class="st8" d="M189.27,262.36l3.37-7.33h0.53l3.37,7.33h-0.58l-3.18-6.99h0.23l-3.17,6.99H189.27z M190.51,260.3l0.18-0.45
				h4.39l0.18,0.45H190.51z"/>
			<path class="st8" d="M129.11,274.92v-7.33h0.53v6.85h4.22v0.48H129.11z"/>
			<path class="st8" d="M136.11,274.92l3.37-7.33h0.53l3.37,7.33h-0.58l-3.18-6.99h0.23l-3.17,6.99H136.11z M137.34,272.86
				l0.18-0.45h4.39l0.18,0.45H137.34z"/>
			<path class="st8" d="M152.12,274.92h-0.53v-7.33h4.9v0.48h-4.37V274.92z M152.06,271.21h3.97v0.48h-3.97V271.21z"/>
			<path class="st8" d="M160.29,274.92v-7.33h0.53v7.33H160.29z"/>
			<path class="st8" d="M166.01,274.44h4.52v0.48h-5.06v-7.33h4.9v0.48h-4.37V274.44z M165.94,270.97h3.97v0.47h-3.97V270.97z"/>
			<path class="st8" d="M176.49,274.98c-0.54,0-1.06-0.09-1.54-0.28c-0.49-0.19-0.86-0.42-1.13-0.72l0.24-0.4
				c0.25,0.26,0.59,0.48,1.03,0.65s0.9,0.27,1.39,0.27c0.49,0,0.89-0.06,1.2-0.19s0.54-0.3,0.69-0.52c0.15-0.22,0.23-0.46,0.23-0.72
				c0-0.31-0.08-0.57-0.25-0.75c-0.17-0.19-0.39-0.34-0.66-0.45c-0.27-0.11-0.57-0.21-0.89-0.28c-0.32-0.08-0.65-0.16-0.97-0.25
				c-0.33-0.09-0.63-0.2-0.9-0.34c-0.27-0.14-0.49-0.33-0.65-0.57c-0.16-0.24-0.25-0.55-0.25-0.94c0-0.35,0.09-0.67,0.27-0.96
				s0.46-0.53,0.85-0.71s0.88-0.27,1.48-0.27c0.4,0,0.8,0.06,1.2,0.18c0.39,0.12,0.73,0.28,1.01,0.48l-0.2,0.43
				c-0.31-0.21-0.64-0.36-0.99-0.47c-0.35-0.1-0.69-0.15-1.02-0.15c-0.47,0-0.86,0.07-1.16,0.2c-0.31,0.13-0.53,0.31-0.68,0.53
				s-0.22,0.47-0.22,0.74c0,0.31,0.08,0.57,0.25,0.75c0.16,0.19,0.38,0.34,0.65,0.45c0.27,0.11,0.57,0.21,0.9,0.28
				s0.65,0.16,0.97,0.25c0.32,0.09,0.62,0.2,0.89,0.34s0.49,0.33,0.66,0.57c0.17,0.24,0.25,0.54,0.25,0.92
				c0,0.34-0.09,0.66-0.28,0.96c-0.19,0.3-0.48,0.53-0.86,0.71C177.6,274.89,177.1,274.98,176.49,274.98z"/>
			<path class="st8" d="M184.44,274.92v-6.85h-2.64v-0.48h5.81v0.48h-2.64v6.85H184.44z"/>
			<path class="st8" d="M189.8,274.92l3.37-7.33h0.53l3.37,7.33h-0.58l-3.18-6.99h0.23l-3.17,6.99H189.8z M191.03,272.86l0.18-0.45
				h4.39l0.18,0.45H191.03z"/>
		</g>
	</g>
	<g>
		<g>
			<path class="st4" d="M162.28,283.84c0.74,0,1.36,0.17,1.86,0.51c0.5,0.34,0.88,0.82,1.14,1.45c0.26,0.63,0.38,1.38,0.38,2.27
				c0,0.95-0.16,1.74-0.47,2.38c-0.31,0.64-0.75,1.12-1.31,1.45c-0.56,0.32-1.21,0.49-1.96,0.49c-0.36,0-0.7-0.03-1.03-0.1
				c-0.33-0.06-0.62-0.18-0.88-0.34l0.25-0.49c0.22,0.14,0.47,0.23,0.76,0.29c0.29,0.06,0.59,0.09,0.9,0.09
				c0.95,0,1.7-0.31,2.27-0.92s0.85-1.53,0.85-2.76c0-0.19-0.01-0.43-0.04-0.71c-0.02-0.28-0.08-0.56-0.16-0.83l0.22,0.06
				c-0.06,0.46-0.21,0.86-0.47,1.18c-0.26,0.32-0.58,0.58-0.98,0.75c-0.4,0.18-0.84,0.26-1.33,0.26c-0.56,0-1.05-0.1-1.47-0.31
				c-0.42-0.21-0.75-0.5-0.99-0.87c-0.24-0.38-0.36-0.82-0.36-1.32c0-0.51,0.12-0.96,0.37-1.34s0.58-0.68,1-0.88
				C161.27,283.95,161.75,283.84,162.28,283.84z M162.31,284.37c-0.44,0-0.83,0.08-1.16,0.25c-0.33,0.16-0.59,0.39-0.78,0.69
				s-0.28,0.65-0.28,1.06c0,0.6,0.2,1.08,0.61,1.44c0.41,0.36,0.97,0.54,1.67,0.54c0.46,0,0.86-0.09,1.21-0.26
				c0.35-0.18,0.63-0.42,0.82-0.72s0.29-0.65,0.29-1.02c0-0.33-0.09-0.64-0.28-0.94c-0.18-0.3-0.45-0.55-0.81-0.74
				C163.28,284.47,162.84,284.37,162.31,284.37z"/>
			<path class="st4" d="M167.53,287.02c-0.14,0-0.25-0.05-0.36-0.15c-0.1-0.1-0.15-0.22-0.15-0.37s0.05-0.26,0.15-0.36
				c0.1-0.1,0.22-0.14,0.36-0.14c0.14,0,0.25,0.05,0.35,0.14c0.1,0.1,0.15,0.22,0.15,0.36s-0.05,0.27-0.15,0.37
				C167.78,286.97,167.66,287.02,167.53,287.02z M167.53,292.37c-0.14,0-0.25-0.05-0.36-0.15c-0.1-0.1-0.15-0.22-0.15-0.37
				c0-0.14,0.05-0.26,0.15-0.36c0.1-0.1,0.22-0.14,0.36-0.14c0.14,0,0.25,0.05,0.35,0.14c0.1,0.1,0.15,0.22,0.15,0.36
				c0,0.14-0.05,0.27-0.15,0.37C167.78,292.32,167.66,292.37,167.53,292.37z"/>
			<path class="st4" d="M174.95,292.38c-0.62,0-1.19-0.1-1.73-0.31c-0.53-0.21-0.95-0.48-1.25-0.82l0.31-0.47
				c0.26,0.3,0.62,0.54,1.09,0.74s0.99,0.29,1.57,0.29c0.75,0,1.33-0.17,1.73-0.51c0.4-0.34,0.6-0.79,0.6-1.36
				c0-0.56-0.2-1.01-0.6-1.35c-0.4-0.34-1.02-0.51-1.86-0.51h-0.53v-0.45l2.68-3.43l0.08,0.24h-4.76v-0.55h5.28v0.43l-2.67,3.43
				l-0.26-0.19h0.26c1,0,1.75,0.22,2.25,0.66c0.5,0.44,0.75,1.01,0.75,1.72c0,0.46-0.11,0.88-0.33,1.25
				c-0.22,0.37-0.55,0.66-0.99,0.87C176.14,292.28,175.6,292.38,174.95,292.38z"/>
			<path class="st4" d="M182.49,292.38c-0.64,0-1.21-0.17-1.71-0.52s-0.89-0.84-1.17-1.47c-0.28-0.64-0.42-1.4-0.42-2.28
				c0-0.88,0.14-1.64,0.42-2.28c0.28-0.64,0.67-1.13,1.17-1.47s1.07-0.52,1.71-0.52c0.65,0,1.22,0.17,1.71,0.52s0.88,0.84,1.16,1.47
				c0.28,0.64,0.42,1.4,0.42,2.28c0,0.88-0.14,1.64-0.42,2.28c-0.28,0.64-0.67,1.13-1.16,1.47S183.14,292.38,182.49,292.38z
				 M182.49,291.82c0.54,0,1.01-0.15,1.41-0.44c0.4-0.29,0.71-0.72,0.94-1.27c0.22-0.55,0.34-1.22,0.34-2c0-0.79-0.11-1.45-0.34-2
				c-0.22-0.55-0.54-0.97-0.94-1.26c-0.4-0.29-0.87-0.44-1.41-0.44c-0.53,0-1,0.15-1.4,0.44c-0.41,0.29-0.72,0.71-0.94,1.26
				s-0.34,1.22-0.34,2c0,0.78,0.11,1.44,0.34,2c0.22,0.55,0.54,0.98,0.94,1.27C181.49,291.67,181.96,291.82,182.49,291.82z"/>
			<path class="st4" d="M190.81,294.65v-8.61h0.58v2.06l-0.1,1.09l0.12,1.09v4.37H190.81z M193.96,292.37
				c-0.55,0-1.05-0.13-1.5-0.38s-0.8-0.62-1.06-1.1c-0.26-0.48-0.39-1.04-0.39-1.7c0-0.66,0.13-1.23,0.39-1.7
				c0.26-0.48,0.61-0.84,1.06-1.1s0.94-0.38,1.5-0.38c0.59,0,1.13,0.13,1.59,0.4c0.47,0.27,0.84,0.64,1.11,1.13s0.4,1.03,0.4,1.66
				c0,0.63-0.13,1.18-0.4,1.66c-0.27,0.48-0.64,0.86-1.11,1.13S194.56,292.37,193.96,292.37z M193.93,291.83
				c0.48,0,0.91-0.11,1.3-0.33c0.39-0.22,0.69-0.53,0.91-0.93s0.33-0.86,0.33-1.38c0-0.53-0.11-0.99-0.33-1.39s-0.52-0.71-0.91-0.93
				c-0.38-0.22-0.82-0.33-1.3-0.33c-0.48,0-0.91,0.11-1.29,0.33s-0.68,0.53-0.9,0.93c-0.22,0.4-0.33,0.86-0.33,1.39
				c0,0.52,0.11,0.98,0.33,1.38c0.22,0.4,0.52,0.71,0.9,0.93C193.01,291.72,193.45,291.83,193.93,291.83z"/>
			<path class="st4" d="M206.75,286c0.5,0,0.94,0.1,1.32,0.29c0.37,0.2,0.66,0.49,0.87,0.89c0.21,0.4,0.31,0.89,0.31,1.47v3.67h-0.6
				v-3.62c0-0.71-0.17-1.24-0.52-1.61c-0.34-0.37-0.83-0.55-1.44-0.55c-0.47,0-0.88,0.1-1.23,0.3s-0.61,0.48-0.79,0.84
				c-0.18,0.36-0.28,0.79-0.28,1.3v3.34h-0.6v-3.62c0-0.71-0.17-1.24-0.52-1.61c-0.35-0.37-0.83-0.55-1.44-0.55
				c-0.47,0-0.88,0.1-1.23,0.3s-0.61,0.48-0.79,0.84c-0.18,0.36-0.28,0.79-0.28,1.3v3.34h-0.6v-6.28h0.58v1.73l-0.08-0.19
				c0.18-0.49,0.49-0.88,0.93-1.16c0.43-0.28,0.95-0.43,1.56-0.43c0.63,0,1.15,0.16,1.58,0.47c0.43,0.32,0.7,0.79,0.81,1.41
				l-0.21-0.08c0.17-0.54,0.49-0.97,0.95-1.3S206.08,286,206.75,286z"/>
		</g>
	</g>
	<line class="st2" x1="147.87" y1="344.64" x2="4.07" y2="344.64"/>
	<g>
		<g>
			<path class="st3" d="M5.55,340.13l3.87-8.42h0.61l3.87,8.42h-0.66l-3.66-8.03h0.26l-3.64,8.03H5.55z M6.97,337.76l0.2-0.52h5.04
				l0.2,0.52H6.97z"/>
			<path class="st3" d="M18.45,340.13h-0.61v-8.42h5.63v0.55h-5.01V340.13z M18.38,335.86h4.56v0.55h-4.56V335.86z"/>
			<path class="st3" d="M29.44,340.13v-7.87h-3.03v-0.55h6.68v0.55h-3.03v7.87H29.44z"/>
			<path class="st3" d="M37.62,339.58h5.2v0.55h-5.81v-8.42h5.63v0.55h-5.01V339.58z M37.55,335.58h4.56v0.54h-4.56V335.58z"/>
			<path class="st3" d="M47.46,340.13v-8.42h3.02c0.71,0,1.31,0.11,1.82,0.34c0.5,0.22,0.89,0.55,1.17,0.97s0.41,0.93,0.41,1.53
				c0,0.59-0.14,1.09-0.41,1.51s-0.66,0.75-1.17,0.97c-0.51,0.23-1.11,0.34-1.82,0.34H47.8l0.28-0.29v3.04H47.46z M48.07,337.12
				l-0.28-0.29h2.68c0.91,0,1.59-0.2,2.06-0.6c0.47-0.4,0.7-0.96,0.7-1.68c0-0.73-0.24-1.29-0.7-1.69s-1.16-0.6-2.06-0.6H47.8
				l0.28-0.3V337.12z M53.31,340.13l-2.19-3.05h0.7l2.19,3.05H53.31z"/>
			<path class="st3" d="M64.02,340.13v-8.42h3.02c0.71,0,1.31,0.11,1.82,0.34c0.5,0.22,0.89,0.55,1.17,0.97s0.41,0.93,0.41,1.53
				c0,0.59-0.14,1.09-0.41,1.52c-0.27,0.43-0.66,0.75-1.17,0.97c-0.51,0.22-1.11,0.34-1.82,0.34h-2.68l0.28-0.29v3.04H64.02z
				 M64.64,337.12l-0.28-0.3h2.68c0.91,0,1.59-0.2,2.06-0.6c0.47-0.4,0.7-0.96,0.7-1.68c0-0.73-0.24-1.29-0.7-1.69
				s-1.16-0.6-2.06-0.6h-2.68l0.28-0.3V337.12z"/>
			<path class="st3" d="M73.62,340.13l3.87-8.42h0.61l3.87,8.42h-0.66l-3.66-8.03h0.26l-3.64,8.03H73.62z M75.04,337.76l0.2-0.52
				h5.04l0.2,0.52H75.04z"/>
			<path class="st3" d="M85.91,340.13v-8.42h3.02c0.71,0,1.31,0.11,1.82,0.34c0.5,0.22,0.89,0.55,1.17,0.97s0.41,0.93,0.41,1.53
				c0,0.59-0.14,1.09-0.41,1.51s-0.66,0.75-1.17,0.97c-0.51,0.23-1.11,0.34-1.82,0.34h-2.68l0.28-0.29v3.04H85.91z M86.53,337.12
				l-0.28-0.29h2.68c0.91,0,1.59-0.2,2.06-0.6c0.47-0.4,0.7-0.96,0.7-1.68c0-0.73-0.24-1.29-0.7-1.69s-1.16-0.6-2.06-0.6h-2.68
				l0.28-0.3V337.12z M91.76,340.13l-2.19-3.05h0.7l2.19,3.05H91.76z"/>
			<path class="st3" d="M98.59,340.13v-7.87h-3.03v-0.55h6.68v0.55H99.2v7.87H98.59z"/>
			<path class="st3" d="M108.14,340.13v-3.05l0.14,0.4l-3.54-5.76h0.67l3.21,5.23h-0.34l3.21-5.23h0.64l-3.54,5.76l0.14-0.4v3.05
				H108.14z"/>
			<path class="st3" d="M116.12,340.18c-0.14,0-0.25-0.05-0.35-0.15c-0.1-0.1-0.14-0.21-0.14-0.34c0-0.14,0.05-0.25,0.14-0.35
				c0.1-0.1,0.21-0.14,0.35-0.14c0.14,0,0.26,0.05,0.36,0.14c0.1,0.1,0.14,0.21,0.14,0.35c0,0.13-0.05,0.24-0.14,0.34
				C116.39,340.13,116.27,340.18,116.12,340.18z M115.9,337.71l-0.12-6h0.7l-0.12,6H115.9z"/>
		</g>
	</g>
	<g>
		<g>
			<path class="st4" d="M6.57,358.84v-8.15l0.28,0.29H4.52v-0.55h2.67v8.42H6.57z"/>
			<path class="st4" d="M12.61,358.9c-0.64,0-1.21-0.17-1.71-0.52s-0.89-0.84-1.17-1.47c-0.28-0.64-0.42-1.4-0.42-2.28
				c0-0.88,0.14-1.64,0.42-2.28c0.28-0.64,0.67-1.13,1.17-1.47s1.07-0.52,1.71-0.52c0.65,0,1.22,0.17,1.71,0.52s0.88,0.84,1.16,1.47
				c0.28,0.64,0.42,1.4,0.42,2.28c0,0.88-0.14,1.64-0.42,2.28c-0.28,0.64-0.67,1.13-1.16,1.47S13.26,358.9,12.61,358.9z
				 M12.61,358.34c0.54,0,1.01-0.15,1.41-0.44c0.4-0.29,0.71-0.72,0.94-1.27c0.22-0.55,0.34-1.22,0.34-2c0-0.79-0.11-1.45-0.34-2
				c-0.22-0.55-0.54-0.97-0.94-1.26c-0.4-0.29-0.87-0.44-1.41-0.44c-0.53,0-1,0.15-1.4,0.44c-0.41,0.29-0.72,0.71-0.94,1.26
				s-0.34,1.22-0.34,2c0,0.78,0.11,1.44,0.34,2c0.22,0.55,0.54,0.98,0.94,1.27C11.61,358.19,12.08,358.34,12.61,358.34z"/>
			<path class="st4" d="M17.77,353.54c-0.14,0-0.25-0.05-0.36-0.15c-0.1-0.1-0.15-0.22-0.15-0.37s0.05-0.26,0.15-0.36
				c0.1-0.1,0.22-0.14,0.36-0.14c0.14,0,0.25,0.05,0.35,0.14c0.1,0.1,0.15,0.22,0.15,0.36s-0.05,0.27-0.15,0.37
				C18.03,353.49,17.91,353.54,17.77,353.54z M17.77,358.89c-0.14,0-0.25-0.05-0.36-0.15c-0.1-0.1-0.15-0.22-0.15-0.37
				c0-0.14,0.05-0.26,0.15-0.36c0.1-0.1,0.22-0.14,0.36-0.14c0.14,0,0.25,0.05,0.35,0.14c0.1,0.1,0.15,0.22,0.15,0.36
				c0,0.14-0.05,0.27-0.15,0.37C18.03,358.84,17.91,358.89,17.77,358.89z"/>
			<path class="st4" d="M26.02,358.9c-0.64,0-1.21-0.17-1.71-0.52s-0.89-0.84-1.17-1.47c-0.28-0.64-0.42-1.4-0.42-2.28
				c0-0.88,0.14-1.64,0.42-2.28c0.28-0.64,0.67-1.13,1.17-1.47s1.07-0.52,1.71-0.52c0.65,0,1.22,0.17,1.71,0.52s0.88,0.84,1.16,1.47
				c0.28,0.64,0.42,1.4,0.42,2.28c0,0.88-0.14,1.64-0.42,2.28c-0.28,0.64-0.67,1.13-1.16,1.47S26.67,358.9,26.02,358.9z
				 M26.02,358.34c0.54,0,1.01-0.15,1.41-0.44c0.4-0.29,0.71-0.72,0.94-1.27c0.22-0.55,0.34-1.22,0.34-2c0-0.79-0.11-1.45-0.34-2
				c-0.22-0.55-0.54-0.97-0.94-1.26c-0.4-0.29-0.87-0.44-1.41-0.44c-0.53,0-1,0.15-1.4,0.44c-0.41,0.29-0.72,0.71-0.94,1.26
				s-0.34,1.22-0.34,2c0,0.78,0.11,1.44,0.34,2c0.22,0.55,0.54,0.98,0.94,1.27C25.03,358.19,25.49,358.34,26.02,358.34z"/>
			<path class="st4" d="M33.94,358.9c-0.64,0-1.21-0.17-1.71-0.52s-0.89-0.84-1.17-1.47c-0.28-0.64-0.42-1.4-0.42-2.28
				c0-0.88,0.14-1.64,0.42-2.28c0.28-0.64,0.67-1.13,1.17-1.47s1.07-0.52,1.71-0.52c0.65,0,1.22,0.17,1.71,0.52s0.88,0.84,1.16,1.47
				c0.28,0.64,0.42,1.4,0.42,2.28c0,0.88-0.14,1.64-0.42,2.28c-0.28,0.64-0.67,1.13-1.16,1.47S34.58,358.9,33.94,358.9z
				 M33.94,358.34c0.54,0,1.01-0.15,1.41-0.44c0.4-0.29,0.71-0.72,0.94-1.27c0.22-0.55,0.34-1.22,0.34-2c0-0.79-0.11-1.45-0.34-2
				c-0.22-0.55-0.54-0.97-0.94-1.26c-0.4-0.29-0.87-0.44-1.41-0.44c-0.53,0-1,0.15-1.4,0.44c-0.41,0.29-0.72,0.71-0.94,1.26
				s-0.34,1.22-0.34,2c0,0.78,0.11,1.44,0.34,2c0.22,0.55,0.54,0.98,0.94,1.27C32.94,358.19,33.41,358.34,33.94,358.34z"/>
			<path class="st4" d="M42.26,361.17v-8.61h0.58v2.06l-0.1,1.09l0.12,1.09v4.37H42.26z M45.41,358.89c-0.55,0-1.05-0.13-1.5-0.38
				s-0.8-0.62-1.06-1.1c-0.26-0.48-0.39-1.04-0.39-1.7c0-0.66,0.13-1.23,0.39-1.7c0.26-0.48,0.61-0.84,1.06-1.1s0.94-0.38,1.5-0.38
				c0.59,0,1.13,0.13,1.59,0.4c0.47,0.27,0.84,0.64,1.11,1.13s0.4,1.03,0.4,1.66c0,0.63-0.13,1.18-0.4,1.66
				c-0.27,0.48-0.64,0.86-1.11,1.13S46,358.89,45.41,358.89z M45.37,358.35c0.48,0,0.91-0.11,1.3-0.33
				c0.39-0.22,0.69-0.53,0.91-0.93s0.33-0.86,0.33-1.38c0-0.53-0.11-0.99-0.33-1.39s-0.52-0.71-0.91-0.93
				c-0.38-0.22-0.82-0.33-1.3-0.33c-0.48,0-0.91,0.11-1.29,0.33s-0.68,0.53-0.9,0.93c-0.22,0.4-0.33,0.86-0.33,1.39
				c0,0.52,0.11,0.98,0.33,1.38c0.22,0.4,0.52,0.71,0.9,0.93C44.46,358.24,44.89,358.35,45.37,358.35z"/>
			<path class="st4" d="M58.19,352.52c0.5,0,0.94,0.1,1.32,0.29c0.37,0.2,0.66,0.49,0.87,0.89c0.21,0.4,0.31,0.89,0.31,1.47v3.67
				h-0.6v-3.62c0-0.71-0.17-1.24-0.52-1.61c-0.34-0.37-0.83-0.55-1.44-0.55c-0.47,0-0.88,0.1-1.23,0.3s-0.61,0.48-0.79,0.84
				c-0.18,0.36-0.28,0.79-0.28,1.3v3.34h-0.6v-3.62c0-0.71-0.17-1.24-0.52-1.61c-0.35-0.37-0.83-0.55-1.44-0.55
				c-0.47,0-0.88,0.1-1.23,0.3s-0.61,0.48-0.79,0.84c-0.18,0.36-0.28,0.79-0.28,1.3v3.34h-0.6v-6.28h0.58v1.73l-0.08-0.19
				c0.18-0.49,0.49-0.88,0.93-1.16c0.43-0.28,0.95-0.43,1.56-0.43c0.63,0,1.15,0.16,1.58,0.47c0.43,0.32,0.7,0.79,0.81,1.41
				l-0.21-0.08c0.17-0.54,0.49-0.97,0.95-1.3S57.53,352.52,58.19,352.52z"/>
		</g>
	</g>
	<g>
		<path class="st9" d="M174.73,345.34c0.15,0.3,0.28,0.6,0.33,0.92c0.22,1.25-1.05,2.48-2.26,2.19c-0.64-0.16-1.11-0.8-1.16-1.58
			c-0.06-0.87,0.3-1.52,1.05-2.02c-0.38-0.25-0.78-0.38-1.21-0.43c-0.62-0.06-1.18,0.12-1.71,0.44c-0.16,0.1-0.18,0.17-0.07,0.33
			c0.52,0.75,0.98,1.52,1.26,2.39c0.09,0.28,0.15,0.57,0.16,0.87c0.01,0.58-0.24,0.99-0.79,1.23c-3.94,1.74-7.87,3.48-11.8,5.23
			c-1.08,0.48-2.15,0.96-3.23,1.43c-1.63,0.71-3.38-0.2-3.71-1.95c-0.11-0.55,0-1.09,0.23-1.61c2.2-4.95,4.38-9.9,6.58-14.84
			c0.35-0.79,0.82-1.04,1.67-0.87c1,0.19,1.85,0.7,2.68,1.24c1.63,1.08,3.07,2.38,4.41,3.8c0.17,0.18,0.27,0.19,0.48,0.06
			c1.47-0.95,3.08-1.47,4.85-1.47c0.38,0,0.59,0.18,0.59,0.5c0,0.31-0.22,0.5-0.6,0.5c-1.52,0.01-2.9,0.46-4.19,1.24
			c-0.21,0.13-0.19,0.2-0.05,0.36c0.22,0.24,0.42,0.5,0.62,0.75c0.08,0.1,0.13,0.12,0.26,0.04c1.56-1.01,3.08-0.88,4.56,0.19
			c0.13,0.09,0.23,0.12,0.4,0.1c1.22-0.17,2.39,0.04,3.52,0.51c0.31,0.13,0.43,0.38,0.33,0.66c-0.11,0.28-0.39,0.39-0.71,0.27
			c-0.65-0.26-1.33-0.44-2.03-0.47C175.04,345.34,174.89,345.34,174.73,345.34z M158.86,353.63c-1.37-0.62-2.47-1.57-3.39-2.74
			c-0.3-0.39-0.31-0.66-0.05-0.88c0.28-0.22,0.53-0.14,0.85,0.27c0.89,1.11,1.92,2.04,3.28,2.52c0.47,0.17,0.92,0.21,1.38-0.06
			c0.31-0.18,0.66-0.3,0.99-0.44c0.22-0.1,0.45-0.2,0.67-0.3c0.22-0.1,0.45-0.2,0.68-0.31c-2.34-1.22-4.18-2.96-5.74-5.03
			c-0.22-0.29-0.19-0.61,0.05-0.78c0.25-0.18,0.54-0.11,0.76,0.19c0.84,1.15,1.82,2.18,2.92,3.09c0.9,0.74,1.84,1.41,2.96,1.81
			c0.28,0.1,0.53,0.14,0.78-0.05c-0.12-0.11-0.29-0.14-0.44-0.22c-2.59-1.32-4.61-3.29-6.27-5.64c-0.19-0.26-0.12-0.56,0.12-0.73
			c0.25-0.16,0.53-0.09,0.73,0.2c1.03,1.48,2.26,2.77,3.68,3.87c0.96,0.75,1.97,1.41,3.16,1.74c0.2,0.05,0.42,0.15,0.61,0.08
			c0.61-0.25,1.2-0.52,1.77-0.78c-4.11-2.37-7.33-5.59-9.69-9.69c-0.26,0.58-0.52,1.17-0.78,1.76c-0.05,0.12-0.02,0.23,0,0.35
			c0.08,0.4,0.21,0.77,0.38,1.14c0.13,0.29,0,0.58-0.27,0.69c-0.26,0.1-0.51-0.01-0.66-0.29c-0.05-0.09-0.06-0.21-0.14-0.27
			c-0.21,0.23-0.17,0.48-0.07,0.74c0.1,0.28,0.22,0.54,0.35,0.81c0.13,0.28,0.03,0.56-0.22,0.68c-0.26,0.13-0.52,0.04-0.68-0.23
			c-0.05-0.09-0.1-0.19-0.16-0.3c-0.28,0.62-0.51,1.24-0.81,1.82c-0.4,0.75-0.6,1.48-0.18,2.29c0.12,0.23,0.02,0.48-0.23,0.6
			c-0.24,0.12-0.46,0.07-0.64-0.13c-0.04-0.04-0.04-0.11-0.11-0.12c-0.24,0.48-0.24,0.48,0.01,0.95c0.07,0.13,0.15,0.25,0.22,0.38
			c0.16,0.28,0.1,0.57-0.15,0.72c-0.24,0.15-0.51,0.08-0.69-0.17c-0.04-0.06-0.06-0.15-0.16-0.16c-0.35,0.79-0.71,1.58-1.04,2.38
			c-0.26,0.64-0.11,1.23,0.36,1.71c0.47,0.48,1.06,0.63,1.68,0.39c0.82-0.32,1.62-0.7,2.45-1.07c-0.11-0.07-0.18-0.13-0.27-0.18
			c-0.8-0.53-1.49-1.17-2.13-1.87c-0.15-0.16-0.18-0.35-0.12-0.55c0.06-0.18,0.21-0.29,0.4-0.32c0.23-0.04,0.39,0.1,0.53,0.26
			c0.68,0.75,1.43,1.41,2.32,1.91C158.23,353.84,158.54,353.92,158.86,353.63z M162.97,340.16c-0.67-0.01-1.08,0.38-1.11,0.98
			c-0.03,0.71,0.26,1.32,0.6,1.91c0.47,0.8,1.11,1.46,1.78,2.08c1.27,1.18,2.59,2.28,4.12,3.1c0.38,0.2,0.77,0.39,1.2,0.47
			c0.52,0.09,0.62-0.01,0.51-0.52c0-0.02-0.01-0.04-0.02-0.06c-0.18-0.73-0.56-1.36-0.95-1.99c-0.29-0.46-0.29-0.46-0.64-0.06
			c-0.2,0.23-0.49,0.27-0.71,0.11c-0.22-0.17-0.27-0.46-0.09-0.71c0.12-0.18,0.26-0.35,0.41-0.5c0.09-0.1,0.11-0.16,0.01-0.27
			c-0.25-0.29-0.49-0.59-0.73-0.89c-0.09-0.12-0.15-0.11-0.26-0.01c-0.37,0.32-0.7,0.66-1.01,1.04c-0.24,0.29-0.53,0.34-0.77,0.14
			c-0.24-0.2-0.24-0.49-0.01-0.79c0.33-0.41,0.69-0.78,1.09-1.13c0.1-0.09,0.16-0.14,0.03-0.27c-0.7-0.72-1.42-1.43-2.19-2.08
			C163.87,340.4,163.41,340.2,162.97,340.16z M172.64,346.65c0,0.46,0.16,0.79,0.44,0.85c0.28,0.06,0.7-0.2,0.88-0.54
			c0.21-0.41,0.04-1.12-0.32-1.36c-0.04-0.03-0.08-0.03-0.13-0.02C173.05,345.67,172.65,346.18,172.64,346.65z"/>
		<path class="st9" d="M159.3,332.35c-0.22,0.31-0.2,0.59-0.05,0.87c0.21,0.39,0.56,0.6,0.94,0.78c0.68,0.33,1.15,0.82,1.29,1.58
			c0.05,0.27,0.09,0.54,0.08,0.82c-0.01,0.3-0.22,0.51-0.5,0.51c-0.29,0-0.48-0.19-0.5-0.5c-0.01-0.18-0.03-0.35-0.05-0.53
			c-0.04-0.39-0.23-0.68-0.58-0.87c-0.32-0.17-0.65-0.33-0.94-0.56c-0.8-0.64-1.08-1.62-0.69-2.41c0.08-0.17,0.18-0.34,0.32-0.45
			c0.25-0.19,0.27-0.43,0.26-0.72c-0.03-0.94,0.27-1.75,1.11-2.27c0.32-0.2,0.61-0.16,0.78,0.1c0.17,0.26,0.08,0.54-0.24,0.74
			c-0.42,0.27-0.59,0.66-0.64,1.14c-0.02,0.21,0.04,0.26,0.24,0.21c0.32-0.09,0.65-0.08,0.97-0.03c0.66,0.12,1.08,0.6,1.07,1.18
			c-0.01,0.58-0.52,1.07-1.18,1.17C160.28,333.22,159.72,332.98,159.3,332.35z M160.18,331.82c0.21,0.31,0.51,0.39,0.82,0.24
			c0.07-0.03,0.16-0.06,0.15-0.16c-0.01-0.09-0.1-0.12-0.17-0.14C160.72,331.72,160.46,331.72,160.18,331.82z"/>
		<path class="st9" d="M156.38,331.74c-0.61,0.66-1.32,0.91-2.16,0.66c-0.61-0.18-0.99-0.76-0.93-1.35
			c0.07-0.72,0.59-1.26,1.25-1.32c0.41-0.04,0.8,0.07,1.19,0.19c-0.13-0.52-0.56-0.9-1.15-1.01c-0.11-0.02-0.21-0.03-0.32-0.06
			c-0.27-0.07-0.44-0.32-0.39-0.57c0.05-0.26,0.3-0.44,0.56-0.42c1.42,0.12,2.36,1.14,2.39,2.59c0,0.09,0,0.17,0.06,0.25
			c0.74,0.88,0.76,1.9,0.55,2.96c-0.02,0.12-0.05,0.23-0.09,0.34c-0.1,0.31-0.36,0.45-0.64,0.37c-0.28-0.08-0.42-0.35-0.32-0.66
			c0.13-0.42,0.17-0.85,0.15-1.28C156.53,332.19,156.48,331.98,156.38,331.74z M155.64,330.99c-0.3-0.15-0.61-0.27-0.96-0.25
			c-0.26,0.01-0.37,0.18-0.38,0.41c-0.01,0.21,0.14,0.3,0.34,0.33C155.07,331.53,155.4,331.38,155.64,330.99z"/>
		<path class="st9" d="M180.98,347.92c-0.45-0.37-0.93-0.42-1.44-0.26c-0.13,0.04-0.25,0.11-0.38,0.15
			c-0.26,0.08-0.52-0.03-0.62-0.26c-0.11-0.24-0.02-0.53,0.23-0.66c1.3-0.65,2.66-0.29,3.36,0.86c0.09,0.14,0.19,0.23,0.35,0.28
			c1.02,0.38,1.54,1.2,1.9,2.16c0.05,0.13,0.09,0.26,0.12,0.4c0.06,0.31-0.11,0.56-0.4,0.63c-0.25,0.05-0.51-0.1-0.58-0.39
			c-0.08-0.3-0.18-0.58-0.33-0.85c-0.17-0.31-0.38-0.6-0.68-0.8c-0.1,0.03-0.07,0.11-0.08,0.17c-0.15,0.76-0.87,1.46-1.58,1.53
			c-0.68,0.08-1.23-0.27-1.45-0.91c-0.22-0.64,0.02-1.31,0.6-1.67C180.29,348.11,180.63,348.04,180.98,347.92z M180.34,349.5
			c0.01,0.3,0.2,0.44,0.45,0.37c0.34-0.1,0.65-0.48,0.67-0.83c0.01-0.09,0.01-0.16-0.12-0.14c-0.28,0.04-0.56,0.11-0.81,0.25
			C180.39,349.23,180.33,349.36,180.34,349.5z"/>
		<path class="st9" d="M169.09,338.42c-0.86-0.9-1.01-1.59-0.51-2.22c0.49-0.61,1.34-0.74,2.05-0.31c0.83,0.5,1.05,1.19,0.65,2.13
			c0.82-0.07,1.41-0.46,1.8-1.17c0.13-0.24,0.3-0.4,0.59-0.34c0.35,0.07,0.49,0.42,0.33,0.77c-0.56,1.18-1.97,1.94-3.25,1.72
			c-0.34-0.06-0.61-0.02-0.91,0.16c-0.52,0.32-1.09,0.54-1.67,0.74c-0.35,0.12-0.64,0-0.73-0.28c-0.1-0.3,0.05-0.54,0.41-0.67
			C168.27,338.8,168.69,338.63,169.09,338.42z M169.78,336.65c-0.26,0-0.46,0.15-0.46,0.36c-0.01,0.26,0.51,0.81,0.75,0.79
			c0.13-0.01,0.44-0.4,0.44-0.56C170.51,337,170.08,336.65,169.78,336.65z"/>
		<path class="st9" d="M169.02,330.47c0.28-0.36,0.26-0.73,0.16-1.1c-0.06-0.22-0.16-0.42-0.26-0.62c-0.14-0.27-0.06-0.56,0.18-0.69
			c0.24-0.13,0.53-0.06,0.69,0.2c0.62,1.03,0.74,2.4-0.37,3.21c-0.09,0.07-0.08,0.14-0.07,0.23c0.09,0.96-0.23,1.8-0.74,2.59
			c-0.12,0.18-0.29,0.27-0.5,0.24c-0.2-0.03-0.34-0.16-0.41-0.34c-0.07-0.18,0-0.34,0.1-0.5c0.28-0.45,0.5-0.91,0.54-1.45
			c0.01-0.18-0.03-0.23-0.21-0.18c-0.31,0.09-0.64,0.14-0.96,0.08c-0.86-0.17-1.3-0.87-1.06-1.71c0.16-0.55,0.43-1.04,1.03-1.19
			c0.61-0.14,1.06,0.18,1.45,0.61C168.75,330.02,168.88,330.23,169.02,330.47z M168.14,331.01c-0.12-0.28-0.27-0.5-0.49-0.68
			c-0.19-0.16-0.34-0.17-0.46,0.08c-0.05,0.11-0.11,0.2-0.12,0.32c-0.04,0.3,0.06,0.42,0.36,0.42
			C167.67,331.16,167.89,331.09,168.14,331.01z"/>
		<path class="st9" d="M166.38,335.86c0.01,1-0.3,2.14-0.78,3.24c-0.16,0.37-0.42,0.5-0.71,0.38c-0.29-0.12-0.38-0.41-0.21-0.78
			c0.47-1.05,0.74-2.13,0.7-3.29c-0.04-0.93-0.26-1.81-0.75-2.6c-0.18-0.3-0.14-0.58,0.1-0.75c0.25-0.17,0.56-0.09,0.75,0.22
			C166.11,333.31,166.38,334.45,166.38,335.86z"/>
		<path class="st9" d="M171.94,334.53c-0.2-0.01-0.36-0.1-0.44-0.29c-0.09-0.21-0.05-0.4,0.1-0.57c0.42-0.46,0.89-0.86,1.4-1.23
			c1.12-0.8,2.33-1.38,3.68-1.65c0.33-0.07,0.58,0.07,0.65,0.34c0.07,0.3-0.08,0.55-0.42,0.62c-1.53,0.34-2.87,1.05-4.05,2.08
			c-0.19,0.17-0.37,0.36-0.55,0.54C172.21,334.48,172.09,334.54,171.94,334.53z"/>
		<path class="st9" d="M175.94,342.25c1.35-0.01,2.67,0.17,3.96,0.57c0.08,0.03,0.17,0.05,0.25,0.08c0.26,0.12,0.38,0.38,0.28,0.63
			c-0.1,0.26-0.35,0.39-0.62,0.31c-0.79-0.25-1.59-0.43-2.42-0.52c-0.73-0.08-1.46-0.12-2.19-0.07c-0.38,0.03-0.62-0.12-0.66-0.43
			c-0.04-0.31,0.18-0.55,0.56-0.58C175.39,342.24,175.66,342.25,175.94,342.25z"/>
		<path class="st9" d="M175.37,335.75c0.12-0.43,0.22-0.92,0.39-1.39c0.08-0.23,0.3-0.32,0.56-0.26c0.41,0.1,0.82,0.2,1.22,0.32
			c0.33,0.09,0.46,0.31,0.39,0.64c-0.1,0.41-0.2,0.82-0.31,1.22c-0.08,0.29-0.33,0.44-0.61,0.37c-0.42-0.1-0.83-0.22-1.25-0.33
			C175.49,336.25,175.37,336.07,175.37,335.75z"/>
		<path class="st9" d="M155.91,334.24c-0.01,0.09-0.04,0.2-0.1,0.29c-0.18,0.28-0.36,0.57-0.55,0.84c-0.18,0.26-0.45,0.32-0.72,0.16
			c-0.29-0.17-0.57-0.35-0.84-0.54c-0.28-0.19-0.34-0.45-0.16-0.74c0.17-0.28,0.35-0.55,0.53-0.82c0.2-0.3,0.46-0.35,0.76-0.16
			c0.28,0.17,0.55,0.35,0.82,0.52C155.81,333.89,155.9,334.04,155.91,334.24z"/>
		<path class="st9" d="M176.31,339.05c0.28,0.02,0.57,0.03,0.85,0.06c0.29,0.03,0.49,0.22,0.48,0.5c0,0.32-0.03,0.65-0.07,0.97
			c-0.04,0.3-0.25,0.47-0.55,0.45c-0.27-0.01-0.53-0.03-0.79-0.05c-0.41-0.04-0.57-0.23-0.56-0.64c0.01-0.26,0.04-0.51,0.06-0.76
			C175.76,339.23,175.97,339.04,176.31,339.05z"/>
		<path class="st9" d="M176.7,348.69c0.34,0.13,0.77,0.26,1.12,0.53c0.17,0.13,0.18,0.34,0.09,0.54c-0.12,0.28-0.24,0.56-0.37,0.83
			c-0.13,0.27-0.38,0.37-0.67,0.25c-0.28-0.11-0.56-0.24-0.83-0.37c-0.29-0.14-0.37-0.39-0.25-0.69c0.11-0.26,0.23-0.52,0.35-0.78
			C176.24,348.8,176.39,348.68,176.7,348.69z"/>
		<path class="st9" d="M183.6,341.55c-0.03,0.23-0.09,0.39-0.25,0.48c-0.24,0.14-0.47,0.29-0.72,0.41
			c-0.26,0.14-0.51,0.07-0.67-0.18c-0.15-0.23-0.29-0.47-0.41-0.71c-0.13-0.26-0.07-0.5,0.18-0.67c0.23-0.15,0.47-0.28,0.71-0.41
			c0.16-0.09,0.34-0.1,0.48,0.01C183.28,340.78,183.42,341.21,183.6,341.55z"/>
		<path class="st9" d="M172.96,353.04c-0.24,0-0.39-0.04-0.47-0.17c-0.17-0.27-0.34-0.55-0.48-0.84c-0.12-0.25-0.01-0.46,0.22-0.61
			c0.22-0.14,0.45-0.28,0.69-0.4c0.26-0.14,0.51-0.08,0.67,0.17c0.15,0.24,0.29,0.49,0.43,0.74c0.09,0.16,0.09,0.34-0.03,0.47
			C173.68,352.73,173.27,352.88,172.96,353.04z"/>
		<path class="st9" d="M164.17,329.9c-0.03,0.23-0.11,0.4-0.3,0.49c-0.23,0.11-0.46,0.22-0.7,0.32c-0.29,0.12-0.53,0.03-0.67-0.24
			c-0.12-0.23-0.23-0.46-0.32-0.69c-0.12-0.28-0.02-0.53,0.25-0.67c0.24-0.12,0.48-0.22,0.72-0.33c0.19-0.09,0.37-0.05,0.49,0.09
			C163.91,329.16,164.03,329.56,164.17,329.9z"/>
		<path class="st9" d="M162.75,325.79c0.03,0.46-0.11,0.67-0.44,0.72c-0.24,0.04-0.49,0.06-0.73,0.08
			c-0.32,0.02-0.51-0.12-0.56-0.43c-0.05-0.26-0.08-0.53-0.09-0.79c-0.02-0.29,0.14-0.47,0.41-0.53c0.28-0.05,0.57-0.07,0.85-0.08
			c0.27-0.01,0.46,0.17,0.5,0.44c0,0.02,0,0.04,0,0.06C162.72,325.47,162.74,325.69,162.75,325.79z"/>
		<path class="st9" d="M172.99,329.65c0,0.28-0.61,0.78-0.96,0.78c-0.28,0-0.78-0.62-0.78-0.96c0-0.28,0.62-0.78,0.97-0.78
			C172.48,328.69,172.98,329.31,172.99,329.65z"/>
		<path class="st9" d="M181.64,331.55c-0.14,0.35-0.29,0.71-0.45,1.07c-0.05,0.1-0.16,0.1-0.26,0.06c-0.3-0.12-0.6-0.24-0.9-0.36
			c-0.16-0.06-0.21-0.18-0.15-0.33c0.12-0.3,0.24-0.6,0.36-0.9c0.06-0.14,0.15-0.2,0.3-0.15c0.31,0.12,0.62,0.25,0.93,0.37
			C181.57,331.35,181.63,331.42,181.64,331.55z"/>
		<path class="st10" d="M160.18,331.82c0.27-0.1,0.54-0.1,0.8-0.05c0.07,0.01,0.17,0.04,0.17,0.14c0.01,0.09-0.08,0.12-0.15,0.16
			C160.7,332.21,160.4,332.13,160.18,331.82z"/>
		<path class="st10" d="M155.64,330.99c-0.24,0.39-0.57,0.54-1,0.48c-0.2-0.03-0.35-0.12-0.34-0.33c0.01-0.22,0.12-0.4,0.38-0.41
			C155.03,330.72,155.34,330.84,155.64,330.99z"/>
		<path class="st10" d="M169.78,336.65c0.3,0,0.73,0.35,0.73,0.59c0,0.16-0.31,0.55-0.44,0.56c-0.24,0.01-0.76-0.53-0.75-0.79
			C169.32,336.8,169.52,336.65,169.78,336.65z"/>
		<path class="st10" d="M168.14,331.01c-0.25,0.07-0.47,0.15-0.71,0.14c-0.31-0.01-0.4-0.12-0.36-0.42
			c0.01-0.12,0.07-0.22,0.12-0.32c0.12-0.25,0.27-0.24,0.46-0.08C167.87,330.51,168.02,330.73,168.14,331.01z"/>
	</g>
</g>
<g>
	<path class="st11" d="M190,180.35c0,0.68,0,1.35,0,2.03c0,0.16,0.04,0.24,0.19,0.31c0.57,0.27,0.99,0.71,1.15,1.32
		c0.08,0.28,0.23,0.33,0.45,0.37c1.9,0.31,3.68,0.96,5.31,1.97c3.93,2.45,6.39,5.94,7.19,10.51c1.41,8.04-3.75,15.76-11.69,17.58
		c-8.3,1.9-16.61-3.36-18.39-11.71c-1.85-8.68,3.81-16.51,11.67-18.21c0.01,0,0.02-0.01,0.03-0.01c0.64-0.05,1.17-0.21,1.36-0.96
		c0.1-0.38,0.46-0.65,0.83-0.81c0.25-0.11,0.29-0.26,0.29-0.5c-0.01-1.27-0.01-2.54,0-3.81c0-0.63,0.53-1.03,1.07-0.82
		c0.34,0.13,0.52,0.38,0.52,0.75C190,179.03,190,179.69,190,180.35z M183.04,196.73c0-0.55-0.01-1.09,0-1.64
		c0-0.18-0.04-0.24-0.23-0.24c-1.11,0.01-2.21,0.01-3.32,0c-0.19,0-0.24,0.06-0.23,0.24c0.01,1.09,0.01,2.19,0,3.28
		c0,0.19,0.05,0.26,0.25,0.26c1.09-0.01,2.19-0.01,3.28,0c0.21,0,0.25-0.07,0.25-0.26C183.03,197.83,183.04,197.28,183.04,196.73z
		 M191.85,198.63c0.56,0,1.12-0.01,1.68,0c0.19,0,0.26-0.05,0.26-0.25c-0.01-1.09-0.01-2.19,0-3.28c0-0.2-0.06-0.25-0.25-0.25
		c-1.09,0.01-2.19,0.01-3.28,0c-0.19,0-0.26,0.05-0.26,0.25c0.01,1.09,0.01,2.19,0,3.28c0,0.2,0.05,0.26,0.25,0.26
		C190.78,198.62,191.31,198.63,191.85,198.63z M199.16,196.77c0-0.55-0.01-1.09,0-1.64c0-0.2-0.02-0.29-0.26-0.29
		c-1.09,0.01-2.19,0.01-3.28,0c-0.2,0-0.25,0.06-0.25,0.25c0.01,1.09,0.01,2.19,0,3.28c0,0.2,0.07,0.25,0.26,0.25
		c1.09-0.01,2.19-0.01,3.28,0c0.2,0,0.25-0.06,0.25-0.26C199.15,197.84,199.16,197.31,199.16,196.77z M186.53,194.85
		c-0.55,0-1.1,0.01-1.64,0c-0.18,0-0.27,0.03-0.27,0.24c0.01,1.1,0.01,2.19,0,3.29c0,0.2,0.06,0.26,0.26,0.26
		c1.1-0.01,2.19-0.01,3.29,0c0.17,0,0.25-0.03,0.25-0.23c-0.01-1.11-0.01-2.21,0-3.32c0-0.19-0.05-0.24-0.24-0.24
		C187.62,194.86,187.07,194.85,186.53,194.85z M181.15,203.99c0.54,0,1.07-0.01,1.61,0c0.2,0,0.29-0.04,0.28-0.26
		c-0.01-1.08-0.01-2.17,0-3.25c0-0.21-0.05-0.28-0.27-0.28c-1.08,0.01-2.17,0.01-3.25,0c-0.19,0-0.27,0.04-0.27,0.25
		c0.01,1.09,0.01,2.19,0,3.28c0,0.2,0.06,0.26,0.26,0.26C180.06,203.99,180.6,203.99,181.15,203.99z M183.04,191.38
		c0-0.55,0-1.09,0-1.64c0-0.16-0.02-0.25-0.22-0.25c-0.95,0.01-1.91,0-2.87,0.01c-0.26,0-0.69,0.45-0.69,0.72
		c0,0.94,0,1.89-0.01,2.83c0,0.19,0.07,0.23,0.24,0.23c1.09-0.01,2.19-0.01,3.28,0c0.2,0,0.26-0.05,0.26-0.25
		C183.03,192.47,183.04,191.92,183.04,191.38z M190,207.51c0,0.54,0.01,1.07,0,1.61c0,0.18,0.03,0.26,0.24,0.26
		c1.11-0.01,2.21-0.01,3.32,0c0.19,0,0.23-0.05,0.23-0.23c-0.01-1.11-0.01-2.21,0-3.32c0-0.21-0.08-0.24-0.26-0.24
		c-1.09,0.01-2.19,0.01-3.28,0c-0.2,0-0.25,0.06-0.25,0.25C190,206.39,190,206.95,190,207.51z M186.5,205.58
		c-0.53,0-1.07,0.01-1.6,0c-0.2,0-0.28,0.03-0.28,0.26c0.01,1.09,0.01,2.19,0,3.28c0,0.2,0.05,0.25,0.25,0.25
		c1.09-0.01,2.19-0.01,3.28,0c0.19,0,0.26-0.04,0.26-0.24c-0.01-1.1-0.01-2.21,0-3.31c0-0.18-0.04-0.24-0.23-0.23
		C187.62,205.59,187.06,205.58,186.5,205.58z M188.4,191.37c0-0.54-0.01-1.07,0-1.61c0-0.19-0.02-0.29-0.26-0.28
		c-1.09,0.01-2.19,0.01-3.28,0c-0.2,0-0.25,0.06-0.25,0.26c0.01,1.08,0.01,2.17,0,3.25c0,0.24,0.08,0.29,0.3,0.28
		c1.07-0.01,2.14-0.01,3.21,0c0.24,0,0.29-0.08,0.28-0.3C188.39,192.44,188.4,191.91,188.4,191.37z M199.16,202.12
		c0-0.56-0.01-1.12,0-1.68c0-0.18-0.05-0.24-0.24-0.24c-1.11,0.01-2.21,0.01-3.32,0c-0.19,0-0.24,0.06-0.23,0.24
		c0.01,1.11,0.01,2.21,0,3.32c0,0.19,0.06,0.23,0.24,0.23c1.11-0.01,2.21-0.01,3.32,0c0.18,0,0.24-0.05,0.23-0.23
		C199.15,203.22,199.16,202.67,199.16,202.12z M193.78,202.12c0-0.56-0.01-1.12,0-1.68c0-0.18-0.05-0.24-0.24-0.24
		c-1.11,0.01-2.21,0.01-3.32,0c-0.19,0-0.23,0.06-0.23,0.24c0.01,1.11,0.01,2.21,0,3.32c0,0.19,0.06,0.23,0.24,0.23
		c1.11-0.01,2.21-0.01,3.32,0c0.18,0,0.24-0.05,0.23-0.23C193.77,203.22,193.78,202.67,193.78,202.12z M183.04,207.5
		c0-0.56,0-1.12,0-1.68c0-0.16-0.01-0.25-0.22-0.25c-1.12,0.01-2.24,0.01-3.35,0c-0.18,0-0.21,0.07-0.21,0.22
		c0.01,0.99,0,1.98,0,2.97c0,0.29,0.31,0.59,0.6,0.59c0.98,0,1.96-0.01,2.93,0.01c0.21,0,0.24-0.08,0.24-0.26
		C183.03,208.57,183.04,208.04,183.04,207.5z M195.38,191.35c0,0.55,0.01,1.09,0,1.64c0,0.2,0.04,0.28,0.26,0.28
		c1.08-0.01,2.17-0.01,3.25,0c0.25,0,0.28-0.09,0.28-0.3c-0.01-0.91,0-1.82-0.01-2.73c0-0.33-0.43-0.76-0.75-0.76
		c-0.92,0-1.84,0-2.76-0.01c-0.21,0-0.28,0.04-0.28,0.26C195.39,190.28,195.38,190.82,195.38,191.35z M191.89,210.97
		c-0.56,0-1.12,0.01-1.68,0c-0.17,0-0.22,0.04-0.22,0.21c0.01,0.61,0.01,1.21,0,1.82c-0.01,0.21,0.08,0.23,0.24,0.21
		c1.14-0.11,2.25-0.31,3.34-0.68c0.17-0.06,0.21-0.14,0.21-0.3c-0.01-0.34-0.01-0.68,0-1.01c0.01-0.2-0.06-0.25-0.25-0.25
		C192.98,210.97,192.43,210.97,191.89,210.97z M186.54,210.97c-0.52,0-1.05,0.01-1.57-0.01c-0.26-0.01-0.38,0.04-0.35,0.33
		c0.03,0.28,0.02,0.56,0,0.84c-0.02,0.24,0.06,0.34,0.29,0.42c1.05,0.34,2.13,0.54,3.23,0.65c0.18,0.02,0.27,0,0.27-0.22
		c-0.02-0.59-0.02-1.19,0-1.78c0.01-0.22-0.09-0.24-0.27-0.24C187.61,210.97,187.07,210.97,186.54,210.97z M177.68,202.09
		c0-0.55-0.01-1.1,0-1.64c0-0.18-0.06-0.24-0.24-0.24c-0.56,0.01-1.12,0.01-1.68,0c-0.22-0.01-0.27,0.06-0.26,0.28
		c0.06,0.98,0.25,1.93,0.51,2.87c0.18,0.63,0.18,0.63,0.86,0.63c0.14,0,0.28-0.02,0.42,0c0.29,0.04,0.41-0.04,0.39-0.37
		C177.65,203.12,177.68,202.6,177.68,202.09z M200.75,196.73c0,0.56,0,1.12,0,1.67c0,0.15,0.01,0.24,0.2,0.24
		c0.59-0.01,1.19-0.01,1.78,0c0.16,0,0.19-0.06,0.18-0.21c-0.08-0.9-0.23-1.79-0.47-2.67c-0.25-0.91-0.25-0.91-1.2-0.91
		c-0.08,0-0.16,0.01-0.24,0c-0.18-0.02-0.24,0.05-0.24,0.23C200.76,195.63,200.75,196.18,200.75,196.73z M201.87,200.21
		c-0.28,0-0.56,0.01-0.84,0c-0.21-0.01-0.28,0.04-0.28,0.26c0.01,1.09,0.01,2.19,0,3.29c0,0.18,0.04,0.25,0.23,0.24
		c0.33-0.02,0.65-0.01,0.98,0c0.16,0,0.24-0.03,0.3-0.21c0.37-1.1,0.56-2.23,0.67-3.37c0.01-0.15-0.02-0.21-0.18-0.21
		C202.45,200.22,202.16,200.21,201.87,200.21z M191.89,187.89c0.27,0,0.54,0.01,0.8,0c0.36-0.01,0.86,0.16,1.03-0.07
		c0.18-0.24,0.05-0.71,0.06-1.08c0-0.02,0-0.05,0-0.07c0.01-0.11-0.05-0.16-0.15-0.19c-1.11-0.38-2.26-0.61-3.43-0.69
		c-0.15-0.01-0.2,0.03-0.2,0.19c0.01,0.57,0.01,1.14,0,1.71c0,0.17,0.06,0.21,0.22,0.21C190.77,187.89,191.33,187.89,191.89,187.89z
		 M186.5,187.89c0.56,0,1.12-0.01,1.68,0c0.18,0,0.24-0.05,0.23-0.23c-0.01-0.52-0.03-1.05,0-1.57c0.02-0.3-0.1-0.32-0.34-0.3
		c-0.82,0.09-1.64,0.22-2.43,0.43c-1.02,0.27-1.02,0.27-1.02,1.34c0,0.03,0,0.07,0,0.1c-0.03,0.19,0.05,0.24,0.23,0.23
		C185.4,187.89,185.95,187.89,186.5,187.89z M177.68,206.93c0-0.29,0-0.48,0-0.66c0-0.7,0-0.7-0.69-0.67
		c-0.02,0-0.03,0.02-0.06,0.05C177.14,206.05,177.35,206.47,177.68,206.93z M183.04,211.75c0-0.23,0-0.43,0-0.62
		c0-0.11-0.03-0.17-0.16-0.17c-0.37,0-0.75,0-1.22,0C182.15,211.29,182.56,211.54,183.04,211.75z M196.74,210.97
		c-0.29,0-0.49,0-0.7,0c-0.69,0-0.69,0-0.67,0.68c0,0.03,0.02,0.05,0.04,0.09C195.86,211.52,196.27,211.29,196.74,210.97z
		 M201.51,205.58c-0.24,0-0.43,0-0.62,0c-0.08,0-0.13,0.02-0.13,0.12c0,0.37,0,0.75,0,1.12
		C201.06,206.44,201.3,206.05,201.51,205.58z M176.95,193.27c0.23,0,0.39,0,0.55,0c0.11,0,0.18-0.02,0.18-0.15c0-0.33,0-0.65,0-0.98
		c-0.03,0-0.05-0.01-0.08-0.01C177.39,192.49,177.19,192.85,176.95,193.27z M181.94,187.82c0.01,0.02,0.01,0.05,0.02,0.07
		c0.3,0,0.59,0,0.89,0c0.13,0,0.2-0.03,0.18-0.17c-0.02-0.15,0.05-0.31-0.05-0.48C182.63,187.44,182.28,187.63,181.94,187.82z
		 M200.75,192.18c0,0.31,0,0.61,0,0.92c0,0.11,0.03,0.17,0.15,0.17c0.16-0.01,0.33,0,0.53,0
		C201.25,192.84,201.03,192.5,200.75,192.18z M196.45,187.89c-0.32-0.27-0.67-0.49-1.06-0.65c-0.04,0.65-0.04,0.65,0.57,0.65
		C196.12,187.89,196.28,187.89,196.45,187.89z"/>
	<path class="st11" d="M200.86,210.96c0.39,0.11,0.89,0.22,1.36,0.4c0.55,0.21,1.06,0.21,1.61-0.01c0.37-0.15,0.78-0.23,1.17-0.34
		c0.32-0.09,0.62-0.07,0.87,0.18c0.25,0.25,0.27,0.55,0.17,0.87c-0.17,0.55-0.32,1.11-0.49,1.67c-0.06,0.21-0.06,0.4,0,0.6
		c0.17,0.55,0.33,1.11,0.49,1.67c0.1,0.33,0.07,0.63-0.18,0.87c-0.24,0.23-0.52,0.28-0.84,0.18c-0.58-0.18-1.16-0.33-1.73-0.51
		c-0.19-0.06-0.35-0.05-0.54,0c-0.59,0.18-1.18,0.35-1.77,0.51c-0.65,0.17-1.16-0.35-0.98-1c0.17-0.6,0.34-1.21,0.52-1.8
		c0.05-0.17,0.05-0.31,0-0.47c-0.19-0.61-0.36-1.22-0.53-1.84C199.83,211.42,200.21,210.95,200.86,210.96z M201.93,212.94
		c0.33,0.73,0.29,1.44-0.03,2.18c0.43-0.11,0.78-0.27,1.12-0.26c0.35,0,0.71,0.16,1.14,0.27c-0.38-0.76-0.37-1.47-0.04-2.2
		C203.39,213.24,202.69,213.28,201.93,212.94z"/>
	<path class="st11" d="M202.4,188.68c-0.55-0.01-0.91-0.44-0.8-0.95c0.1-0.46,0.24-0.92,0.39-1.37c0.08-0.25,0.09-0.48,0.01-0.74
		c-0.14-0.39-0.24-0.8-0.36-1.2c-0.1-0.33-0.09-0.65,0.17-0.91c0.26-0.26,0.58-0.31,0.9-0.17c1.05,0.48,2.09,0.46,3.14,0
		c0.32-0.14,0.62-0.08,0.87,0.16c0.26,0.25,0.33,0.57,0.19,0.9c-0.48,1.06-0.47,2.11,0,3.17c0.14,0.32,0.07,0.62-0.17,0.87
		c-0.25,0.26-0.57,0.31-0.87,0.18c-1.08-0.48-2.14-0.47-3.21,0.01C202.57,188.68,202.46,188.67,202.4,188.68z M203.57,185.3
		c0.22,0.48,0.18,0.93-0.01,1.41c0.49-0.21,0.95-0.21,1.43-0.01c-0.16-0.44-0.22-0.84-0.03-1.25c0.05-0.11-0.01-0.2-0.13-0.14
		C204.41,185.5,204.01,185.42,203.57,185.3z"/>
	<path class="st11" d="M171.49,211.53c-0.3,0-0.53-0.13-0.68-0.37c-0.08-0.12-0.15-0.24-0.2-0.37c-0.35-0.9-0.96-1.53-1.87-1.88
		c-0.38-0.15-0.75-0.38-0.75-0.86c-0.01-0.51,0.37-0.73,0.76-0.89c0.89-0.35,1.5-0.96,1.85-1.85c0.16-0.4,0.38-0.77,0.89-0.76
		c0.49,0.01,0.71,0.37,0.86,0.75c0.35,0.91,0.98,1.52,1.88,1.87c0.11,0.04,0.21,0.11,0.31,0.17c0.59,0.35,0.58,1.06-0.01,1.41
		c-0.42,0.25-0.85,0.48-1.28,0.7c-0.16,0.08-0.27,0.2-0.36,0.36c-0.22,0.42-0.45,0.84-0.68,1.25
		C172.05,211.35,171.81,211.52,171.49,211.53z M170.47,208.04c0.5,0.18,0.8,0.53,1.01,1.08c0.2-0.56,0.53-0.88,1.11-1.09
		c-0.59-0.19-0.9-0.53-1.11-1.08C171.27,207.51,170.95,207.84,170.47,208.04z"/>
	<path class="st11" d="M175.07,183.13c0.31-0.01,0.58,0.13,0.69,0.41c0.44,1.14,1.24,1.9,2.36,2.38c0.6,0.26,0.6,1.11,0.01,1.37
		c-1.12,0.49-1.89,1.24-2.38,2.37c-0.26,0.62-1.12,0.61-1.39-0.01c-0.48-1.11-1.23-1.87-2.35-2.35c-0.63-0.27-0.59-1.07,0.02-1.42
		c0.4-0.23,0.81-0.45,1.22-0.66c0.2-0.1,0.33-0.24,0.43-0.43c0.21-0.41,0.44-0.82,0.66-1.22
		C174.51,183.29,174.73,183.13,175.07,183.13z M176.19,186.6c-0.6-0.17-0.92-0.53-1.12-1.07c-0.2,0.54-0.53,0.88-1.08,1.07
		c0.54,0.2,0.88,0.53,1.07,1.08C175.27,187.14,175.59,186.8,176.19,186.6z"/>
	<path class="st12" d="M183.04,196.73c0,0.55-0.01,1.09,0,1.64c0,0.19-0.04,0.26-0.25,0.26c-1.09-0.01-2.19-0.01-3.28,0
		c-0.2,0-0.25-0.07-0.25-0.26c0.01-1.09,0.01-2.19,0-3.28c0-0.18,0.05-0.24,0.23-0.24c1.11,0.01,2.21,0.01,3.32,0
		c0.19,0,0.24,0.06,0.23,0.24C183.03,195.64,183.04,196.19,183.04,196.73z"/>
	<path class="st12" d="M191.85,198.63c-0.54,0-1.07-0.01-1.61,0c-0.2,0-0.25-0.06-0.25-0.26c0.01-1.09,0.01-2.19,0-3.28
		c0-0.2,0.06-0.25,0.26-0.25c1.09,0.01,2.19,0.01,3.28,0c0.2,0,0.25,0.05,0.25,0.25c-0.01,1.09-0.01,2.19,0,3.28
		c0,0.2-0.06,0.26-0.26,0.25C192.97,198.62,192.41,198.63,191.85,198.63z"/>
	<path class="st12" d="M199.16,196.77c0,0.54-0.01,1.07,0,1.61c0,0.19-0.05,0.26-0.25,0.26c-1.09-0.01-2.19-0.01-3.28,0
		c-0.19,0-0.26-0.05-0.26-0.25c0.01-1.09,0.01-2.19,0-3.28c0-0.2,0.05-0.26,0.25-0.25c1.09,0.01,2.19,0.01,3.28,0
		c0.24,0,0.26,0.09,0.26,0.29C199.15,195.68,199.16,196.23,199.16,196.77z"/>
	<path class="st12" d="M186.53,194.85c0.55,0,1.1,0.01,1.64,0c0.18,0,0.24,0.05,0.24,0.24c-0.01,1.11-0.01,2.21,0,3.32
		c0,0.2-0.08,0.23-0.25,0.23c-1.1-0.01-2.19-0.01-3.29,0c-0.2,0-0.26-0.06-0.26-0.26c0.01-1.1,0.01-2.19,0-3.29
		c0-0.22,0.09-0.25,0.27-0.24C185.43,194.86,185.98,194.85,186.53,194.85z"/>
	<path class="st12" d="M181.15,203.99c-0.55,0-1.09-0.01-1.64,0c-0.2,0-0.26-0.06-0.26-0.26c0.01-1.09,0.01-2.19,0-3.28
		c0-0.21,0.08-0.25,0.27-0.25c1.08,0.01,2.17,0.01,3.25,0c0.22,0,0.27,0.07,0.27,0.28c-0.01,1.08-0.01,2.17,0,3.25
		c0,0.23-0.08,0.27-0.28,0.26C182.22,203.98,181.69,203.99,181.15,203.99z"/>
	<path class="st12" d="M183.04,191.38c0,0.55-0.01,1.1,0,1.64c0,0.2-0.06,0.25-0.26,0.25c-1.09-0.01-2.19-0.01-3.28,0
		c-0.18,0-0.25-0.04-0.24-0.23c0.01-0.94,0-1.89,0.01-2.83c0-0.27,0.43-0.72,0.69-0.72c0.96-0.01,1.91,0,2.87-0.01
		c0.2,0,0.22,0.09,0.22,0.25C183.03,190.28,183.04,190.83,183.04,191.38z"/>
	<path class="st12" d="M190,207.51c0-0.56,0.01-1.12,0-1.68c0-0.2,0.05-0.25,0.25-0.25c1.09,0.01,2.19,0.01,3.28,0
		c0.18,0,0.26,0.03,0.26,0.24c-0.01,1.11-0.01,2.21,0,3.32c0,0.18-0.04,0.24-0.23,0.23c-1.11-0.01-2.21-0.01-3.32,0
		c-0.21,0-0.24-0.07-0.24-0.26C190,208.58,190,208.04,190,207.51z"/>
	<path class="st12" d="M186.5,205.58c0.56,0,1.12,0.01,1.67,0c0.19,0,0.23,0.05,0.23,0.23c-0.01,1.1-0.01,2.21,0,3.31
		c0,0.21-0.07,0.24-0.26,0.24c-1.09-0.01-2.19-0.01-3.28,0c-0.2,0-0.25-0.06-0.25-0.25c0.01-1.09,0.01-2.19,0-3.28
		c0-0.23,0.08-0.26,0.28-0.26C185.43,205.59,185.97,205.58,186.5,205.58z"/>
	<path class="st12" d="M188.4,191.37c0,0.54-0.01,1.07,0,1.61c0.01,0.22-0.04,0.3-0.28,0.3c-1.07-0.01-2.14-0.01-3.21,0
		c-0.22,0-0.3-0.05-0.3-0.28c0.01-1.08,0.01-2.17,0-3.25c0-0.19,0.05-0.26,0.25-0.26c1.09,0.01,2.19,0.01,3.28,0
		c0.24,0,0.26,0.09,0.26,0.28C188.39,190.3,188.4,190.83,188.4,191.37z"/>
	<path class="st12" d="M199.16,202.12c0,0.55-0.01,1.1,0,1.64c0,0.18-0.05,0.23-0.23,0.23c-1.11-0.01-2.21-0.01-3.32,0
		c-0.18,0-0.24-0.04-0.24-0.23c0.01-1.11,0.01-2.21,0-3.32c0-0.18,0.05-0.24,0.23-0.24c1.11,0.01,2.21,0.01,3.32,0
		c0.18,0,0.24,0.05,0.24,0.24C199.15,201,199.16,201.56,199.16,202.12z"/>
	<path class="st12" d="M193.78,202.12c0,0.55-0.01,1.1,0,1.64c0,0.19-0.05,0.23-0.23,0.23c-1.11-0.01-2.21-0.01-3.32,0
		c-0.18,0-0.24-0.04-0.24-0.23c0.01-1.11,0.01-2.21,0-3.32c0-0.18,0.05-0.24,0.23-0.24c1.11,0.01,2.21,0.01,3.32,0
		c0.18,0,0.24,0.05,0.24,0.24C193.77,201,193.78,201.56,193.78,202.12z"/>
	<path class="st12" d="M183.04,207.5c0,0.54-0.01,1.07,0,1.61c0,0.18-0.03,0.27-0.24,0.26c-0.98-0.01-1.96,0-2.93-0.01
		c-0.29,0-0.6-0.3-0.6-0.59c-0.01-0.99,0-1.98,0-2.97c0-0.16,0.03-0.23,0.21-0.22c1.12,0.01,2.24,0.01,3.35,0
		c0.21,0,0.22,0.09,0.22,0.25C183.03,206.39,183.04,206.94,183.04,207.5z"/>
	<path class="st12" d="M195.38,191.35c0-0.54,0.01-1.07-0.01-1.61c-0.01-0.23,0.07-0.27,0.28-0.26c0.92,0.01,1.84,0,2.76,0.01
		c0.32,0,0.75,0.44,0.75,0.76c0,0.91-0.01,1.82,0.01,2.73c0,0.21-0.03,0.3-0.28,0.3c-1.08-0.02-2.17-0.01-3.25,0
		c-0.23,0-0.27-0.08-0.26-0.28C195.39,192.45,195.38,191.9,195.38,191.35z"/>
	<path class="st12" d="M191.89,210.97c0.55,0,1.1,0.01,1.64,0c0.19,0,0.26,0.05,0.25,0.25c-0.02,0.34-0.01,0.68,0,1.01
		c0,0.16-0.04,0.24-0.21,0.3c-1.08,0.37-2.2,0.57-3.34,0.68c-0.17,0.02-0.25,0-0.24-0.21c0.02-0.61,0.01-1.21,0-1.82
		c0-0.17,0.05-0.22,0.22-0.21C190.77,210.97,191.33,210.97,191.89,210.97z"/>
	<path class="st12" d="M186.54,210.97c0.54,0,1.07,0.01,1.61,0c0.18,0,0.27,0.02,0.27,0.24c-0.02,0.59-0.02,1.19,0,1.78
		c0.01,0.23-0.09,0.24-0.27,0.22c-1.1-0.11-2.18-0.31-3.23-0.65c-0.23-0.08-0.31-0.18-0.29-0.42c0.02-0.28,0.03-0.56,0-0.84
		c-0.03-0.29,0.09-0.34,0.35-0.33C185.49,210.98,186.01,210.97,186.54,210.97z"/>
	<path class="st12" d="M177.68,202.09c0,0.51-0.02,1.03,0.01,1.54c0.02,0.33-0.1,0.41-0.39,0.37c-0.14-0.02-0.28,0-0.42,0
		c-0.68,0-0.68,0-0.86-0.63c-0.26-0.94-0.45-1.9-0.51-2.87c-0.01-0.22,0.03-0.28,0.26-0.28c0.56,0.02,1.12,0.01,1.68,0
		c0.18,0,0.24,0.05,0.24,0.24C177.67,201,177.68,201.54,177.68,202.09z"/>
	<path class="st12" d="M200.75,196.73c0-0.55,0.01-1.09,0-1.64c0-0.18,0.05-0.26,0.24-0.23c0.08,0.01,0.16,0,0.24,0
		c0.95,0,0.96,0,1.2,0.91c0.24,0.87,0.4,1.76,0.47,2.67c0.01,0.15-0.02,0.21-0.18,0.21c-0.59-0.01-1.19-0.01-1.78,0
		c-0.19,0-0.2-0.09-0.2-0.24C200.76,197.84,200.75,197.28,200.75,196.73z"/>
	<path class="st12" d="M201.87,200.21c0.29,0,0.58,0.01,0.87,0c0.16-0.01,0.19,0.06,0.18,0.21c-0.1,1.15-0.3,2.28-0.67,3.37
		c-0.06,0.17-0.14,0.21-0.3,0.21c-0.33-0.01-0.65-0.01-0.98,0c-0.19,0.01-0.23-0.06-0.23-0.24c0.01-1.1,0.01-2.19,0-3.29
		c0-0.23,0.08-0.28,0.28-0.26C201.31,200.23,201.59,200.21,201.87,200.21z"/>
	<path class="st12" d="M191.89,187.89c-0.56,0-1.12-0.01-1.68,0c-0.16,0-0.22-0.03-0.22-0.21c0.01-0.57,0.01-1.14,0-1.71
		c0-0.16,0.05-0.2,0.2-0.19c1.17,0.09,2.32,0.31,3.43,0.69c0.11,0.04,0.16,0.08,0.15,0.19c0,0.02,0,0.05,0,0.07
		c-0.01,0.37,0.12,0.84-0.06,1.08c-0.17,0.22-0.67,0.05-1.03,0.07C192.42,187.9,192.15,187.89,191.89,187.89z"/>
	<path class="st12" d="M186.5,187.89c-0.55,0-1.1-0.01-1.64,0c-0.18,0-0.26-0.05-0.23-0.23c0.01-0.03,0-0.07,0-0.1
		c0-1.07,0-1.07,1.02-1.34c0.8-0.21,1.61-0.34,2.43-0.43c0.24-0.02,0.36,0,0.34,0.3c-0.03,0.52-0.02,1.05,0,1.57
		c0,0.18-0.05,0.24-0.23,0.23C187.61,187.89,187.05,187.89,186.5,187.89z"/>
	<path class="st12" d="M177.68,206.93c-0.33-0.46-0.54-0.88-0.76-1.29c0.03-0.03,0.05-0.05,0.06-0.05c0.69-0.02,0.69-0.02,0.69,0.67
		C177.68,206.45,177.68,206.63,177.68,206.93z"/>
	<path class="st12" d="M183.04,211.75c-0.48-0.22-0.88-0.46-1.37-0.79c0.47,0,0.84,0,1.22,0c0.13,0,0.16,0.06,0.16,0.17
		C183.03,211.33,183.04,211.52,183.04,211.75z"/>
	<path class="st12" d="M196.74,210.97c-0.47,0.32-0.89,0.55-1.32,0.78c-0.02-0.04-0.04-0.07-0.04-0.09
		c-0.03-0.68-0.03-0.68,0.67-0.68C196.25,210.97,196.45,210.97,196.74,210.97z"/>
	<path class="st12" d="M201.51,205.58c-0.21,0.46-0.45,0.85-0.75,1.24c0-0.37,0-0.75,0-1.12c0-0.09,0.05-0.12,0.13-0.12
		C201.08,205.59,201.27,205.58,201.51,205.58z"/>
	<path class="st12" d="M176.95,193.27c0.24-0.42,0.45-0.78,0.65-1.14c0.03,0,0.05,0.01,0.08,0.01c0,0.33,0,0.65,0,0.98
		c0,0.13-0.07,0.15-0.18,0.15C177.34,193.27,177.18,193.27,176.95,193.27z"/>
	<path class="st12" d="M181.94,187.82c0.34-0.19,0.68-0.39,1.04-0.59c0.1,0.17,0.03,0.33,0.05,0.48c0.02,0.14-0.05,0.18-0.18,0.17
		c-0.3-0.01-0.59,0-0.89,0C181.96,187.87,181.95,187.85,181.94,187.82z"/>
	<path class="st12" d="M200.75,192.18c0.28,0.32,0.49,0.66,0.68,1.09c-0.2,0-0.36-0.01-0.53,0c-0.13,0.01-0.15-0.06-0.15-0.17
		C200.76,192.79,200.75,192.49,200.75,192.18z"/>
	<path class="st12" d="M196.45,187.89c-0.16,0-0.32,0-0.49,0c-0.6,0-0.6,0-0.57-0.65C195.78,187.41,196.12,187.63,196.45,187.89z"/>
	<path class="st12" d="M201.93,212.94c0.75,0.35,1.45,0.31,2.18-0.01c-0.33,0.73-0.34,1.44,0.04,2.2c-0.43-0.11-0.78-0.27-1.14-0.27
		c-0.35,0-0.69,0.16-1.12,0.26C202.23,214.38,202.27,213.67,201.93,212.94z"/>
	<path class="st12" d="M203.57,185.3c0.44,0.13,0.84,0.21,1.25,0.01c0.12-0.06,0.18,0.02,0.13,0.14c-0.19,0.41-0.13,0.81,0.03,1.25
		c-0.48-0.2-0.94-0.21-1.43,0.01C203.75,186.23,203.78,185.77,203.57,185.3z"/>
	<path class="st12" d="M170.47,208.04c0.48-0.21,0.81-0.53,1-1.09c0.21,0.55,0.52,0.89,1.11,1.08c-0.58,0.21-0.9,0.53-1.11,1.09
		C171.27,208.57,170.96,208.23,170.47,208.04z"/>
	<path class="st12" d="M176.19,186.6c-0.6,0.2-0.92,0.55-1.12,1.09c-0.19-0.55-0.53-0.88-1.07-1.08c0.55-0.19,0.88-0.53,1.08-1.07
		C175.27,186.07,175.59,186.42,176.19,186.6z"/>
</g>
<g>
	<path class="st13" d="M82.63,261.45c9.36,0,16.94,7.58,16.94,16.94c0,9.34-7.59,16.92-16.93,16.92c-9.35,0-16.93-7.59-16.92-16.96
		C65.72,269.03,73.3,261.45,82.63,261.45z M98.39,278.38c0-8.69-7.04-15.75-15.73-15.75c-8.71-0.01-15.77,7.04-15.77,15.74
		c0,8.69,7.04,15.75,15.72,15.76C91.32,294.13,98.39,287.08,98.39,278.38z"/>
	<path class="st10" d="M98.39,278.38c0,8.7-7.07,15.75-15.77,15.74c-8.69-0.01-15.73-7.06-15.72-15.76c0-8.7,7.06-15.75,15.77-15.74
		C91.35,262.64,98.39,269.69,98.39,278.38z M88.78,286.19c-0.02-0.21-0.1-0.37-0.26-0.49c-0.37-0.3-0.77-0.57-1.19-0.78
		c-2.45-1.24-5-1.41-7.63-0.7c-1.06,0.29-2.03,0.76-2.89,1.44c-0.33,0.26-0.39,0.61-0.17,0.89c0.23,0.29,0.55,0.3,0.9,0.03
		c0.11-0.08,0.21-0.17,0.33-0.24c2.27-1.44,4.71-1.66,7.27-1.02c0.97,0.24,1.86,0.67,2.65,1.3c0.2,0.16,0.43,0.21,0.66,0.08
		C88.67,286.59,88.76,286.4,88.78,286.19z M76.21,277.63c1.01-0.02,1.88-0.25,2.63-0.81c0.93-0.7,1.44-1.61,1.32-2.8
		c-0.04-0.39-0.31-0.64-0.64-0.61c-0.34,0.04-0.57,0.33-0.53,0.71c0.07,0.65-0.18,1.18-0.66,1.59c-0.8,0.69-1.75,0.86-2.76,0.65
		c-1.3-0.27-1.92-1.05-1.95-2.35c-0.01-0.32-0.25-0.58-0.55-0.61c-0.3-0.03-0.57,0.2-0.62,0.53c-0.12,0.84,0.1,1.58,0.63,2.23
		C73.89,277.18,75.01,277.58,76.21,277.63z M88.92,277.63c0.99-0.02,1.86-0.25,2.62-0.81c0.94-0.7,1.45-1.62,1.32-2.83
		c-0.04-0.37-0.32-0.61-0.64-0.57c-0.33,0.04-0.57,0.33-0.53,0.68c0.08,0.75-0.23,1.31-0.8,1.74c-0.78,0.59-1.68,0.73-2.62,0.53
		c-1.3-0.28-1.92-1.05-1.95-2.35c-0.01-0.32-0.25-0.58-0.55-0.61c-0.3-0.03-0.58,0.2-0.62,0.53c-0.12,0.84,0.1,1.58,0.63,2.23
		C86.59,277.18,87.71,277.58,88.92,277.63z"/>
	<path class="st13" d="M88.78,286.19c-0.01,0.22-0.11,0.4-0.32,0.52c-0.24,0.13-0.46,0.08-0.66-0.08c-0.79-0.63-1.68-1.06-2.65-1.3
		c-2.56-0.64-5-0.42-7.27,1.02c-0.11,0.07-0.22,0.16-0.33,0.24c-0.35,0.26-0.67,0.25-0.9-0.03c-0.22-0.27-0.16-0.63,0.17-0.89
		c0.86-0.69,1.83-1.16,2.89-1.44c2.63-0.71,5.18-0.54,7.63,0.7c0.43,0.22,0.82,0.48,1.19,0.78
		C88.68,285.82,88.76,285.97,88.78,286.19z"/>
	<path class="st13" d="M76.21,277.63c-1.2-0.05-2.32-0.45-3.15-1.47c-0.53-0.65-0.75-1.39-0.63-2.23c0.05-0.33,0.32-0.55,0.62-0.53
		c0.31,0.03,0.55,0.29,0.55,0.61c0.03,1.3,0.65,2.08,1.95,2.35c1.01,0.21,1.96,0.04,2.76-0.65c0.48-0.41,0.73-0.94,0.66-1.59
		c-0.04-0.38,0.19-0.67,0.53-0.71c0.33-0.04,0.6,0.21,0.64,0.61c0.12,1.2-0.39,2.11-1.32,2.8
		C78.09,277.38,77.22,277.62,76.21,277.63z"/>
	<path class="st13" d="M88.92,277.63c-1.22-0.05-2.33-0.45-3.16-1.47c-0.53-0.65-0.75-1.4-0.63-2.23c0.05-0.32,0.32-0.55,0.62-0.53
		c0.31,0.03,0.55,0.29,0.55,0.61c0.03,1.3,0.65,2.07,1.95,2.35c0.94,0.2,1.84,0.06,2.62-0.53c0.57-0.43,0.88-1,0.8-1.74
		c-0.04-0.35,0.2-0.64,0.53-0.68c0.32-0.04,0.6,0.21,0.64,0.57c0.14,1.21-0.37,2.13-1.32,2.83
		C90.78,277.38,89.91,277.61,88.92,277.63z"/>
</g>
</svg>
