<svg id="Capa_1" data-name="Capa 1" xmlns="http://www.w3.org/2000/svg" viewBox="0 0 720 600"><defs><style>.cls-1,.cls-2,.cls-3,.cls-4,.cls-8{fill:#002900;}.cls-1,.cls-2,.cls-3,.cls-8{stroke:#231f20;stroke-miterlimit:10;}.cls-1{stroke-width:1.04px;}.cls-2{stroke-width:0.52px;}.cls-3{stroke-width:1.05px;}.cls-5{fill:#111010;}.cls-6{fill:#fefdfd;}.cls-7{fill:#1c1a1a;}.cls-8{stroke-width:0.45px;}.cls-9{fill:#0e0d0d;}.cls-10{fill:#fefefe;}.cls-11{fill:#151413;}.cls-12{fill:#2a2828;}.cls-13{fill:#fcfcfc;}</style></defs><title>Itinerario GRAND</title><line class="cls-1" x1="373.78" y1="52.27" x2="373.78" y2="549.47"/><line class="cls-1" x1="405.16" y1="114.75" x2="240.87" y2="114.75"/><line class="cls-1" x1="338.76" y1="206.24" x2="477.47" y2="206.24"/><path class="cls-2" d="M251,110.7a5.92,5.92,0,0,1-2.25-.41,5.31,5.31,0,0,1-1.8-1.16,5.25,5.25,0,0,1-1.18-1.75,6,6,0,0,1,0-4.4,5.17,5.17,0,0,1,1.19-1.76,5.63,5.63,0,0,1,1.8-1.16,6,6,0,0,1,2.24-.41,6.12,6.12,0,0,1,2.15.38,4.34,4.34,0,0,1,1.72,1.13l-.5.52a4.14,4.14,0,0,0-1.54-1,5.39,5.39,0,0,0-3.74,0,4.72,4.72,0,0,0-1.56,1,4.66,4.66,0,0,0-1,1.53,5.06,5.06,0,0,0,0,3.8,4.58,4.58,0,0,0,2.58,2.53A5.15,5.15,0,0,0,251,110a5.4,5.4,0,0,0,1.8-.3,4.08,4.08,0,0,0,1.54-1l.5.52a4.47,4.47,0,0,1-1.72,1.14A5.9,5.9,0,0,1,251,110.7Z"/><path class="cls-2" d="M261.41,109.91h6.72v.72h-7.51V99.73h7.28v.72h-6.49Zm-.09-5.17h5.9v.7h-5.9Z"/><path class="cls-2" d="M274.14,110.63V99.73h3.91a5.8,5.8,0,0,1,2.35.44,3.34,3.34,0,0,1,1.51,1.25,3.93,3.93,0,0,1,0,3.94,3.49,3.49,0,0,1-1.51,1.26,5.8,5.8,0,0,1-2.35.44h-3.47l.36-.37v3.94Zm.8-3.9-.36-.37h3.47a4,4,0,0,0,2.67-.78,3.07,3.07,0,0,0,0-4.36,4,4,0,0,0-2.67-.77h-3.47l.36-.39Zm6.77,3.9-2.84-4h.91l2.83,4Z"/><path class="cls-2" d="M289.25,109.91H296v.72h-7.52V99.73h7.28v.72h-6.49Zm-.09-5.17h5.9v.7h-5.9Z"/><path class="cls-2" d="M302,110.63V99.73h.66l5.06,8.73h-.35l5-8.73h.65l0,10.9h-.78l0-9.7h.22l-4.78,8.25h-.39l-4.79-8.25h.23v9.7Z"/><path class="cls-2" d="M324.6,110.7a5.92,5.92,0,0,1-2.25-.41,5.38,5.38,0,0,1-3-2.93,5.89,5.89,0,0,1,0-4.37,5.27,5.27,0,0,1,1.19-1.76,5.49,5.49,0,0,1,1.8-1.17,6.38,6.38,0,0,1,4.5,0,5.63,5.63,0,0,1,1.8,1.16,5.47,5.47,0,0,1,1.19,1.76,5.84,5.84,0,0,1,0,4.4,5.43,5.43,0,0,1-1.19,1.75,5.31,5.31,0,0,1-1.8,1.16A5.92,5.92,0,0,1,324.6,110.7Zm0-.73a5.06,5.06,0,0,0,1.93-.36,4.63,4.63,0,0,0,2.56-2.53,5.09,5.09,0,0,0,0-3.81,4.63,4.63,0,0,0-2.56-2.53,5.35,5.35,0,0,0-3.86,0,4.66,4.66,0,0,0-2.58,2.53,5.22,5.22,0,0,0,0,3.81,4.7,4.7,0,0,0,1,1.52,4.62,4.62,0,0,0,1.55,1A5.1,5.1,0,0,0,324.6,110Z"/><path class="cls-2" d="M336.13,110.63V99.73h.67l7.77,9.91h-.36V99.73H345v10.9h-.65l-7.78-9.92h.36v9.92Z"/><path class="cls-2" d="M351.92,110.63V99.73h.79v10.9Z"/><path class="cls-2" d="M357.8,110.63l5-10.9h.79l5,10.9h-.86L363,100.23h.34l-4.72,10.4Zm1.84-3.07.26-.67h6.52l.27.67Z"/><path class="cls-3" d="M167.72,112.8v-.58l5.92-7.3h.89l-5.9,7.3-.44-.12H177v.7Zm6.21,3v-3l0-.7v-2.66h.76v6.38Z"/><path class="cls-3" d="M178.88,109a.63.63,0,0,1-.46-.19.65.65,0,0,1-.19-.48.6.6,0,0,1,.19-.46.63.63,0,0,1,.46-.19.62.62,0,0,1,.46.19.61.61,0,0,1,.2.46.66.66,0,0,1-.2.48A.62.62,0,0,1,178.88,109Zm0,6.93a.68.68,0,0,1-.46-.19.65.65,0,0,1-.19-.48.63.63,0,0,1,.19-.47.67.67,0,0,1,.46-.18.65.65,0,0,1,.46.18.63.63,0,0,1,.2.47.67.67,0,0,1-.66.67Z"/><path class="cls-3" d="M188.49,115.9a6.11,6.11,0,0,1-2.24-.41,4.08,4.08,0,0,1-1.61-1.06l.41-.6a3.68,3.68,0,0,0,1.41,1,5.07,5.07,0,0,0,2,.38,3.33,3.33,0,0,0,2.23-.65,2.39,2.39,0,0,0,0-3.51,3.64,3.64,0,0,0-2.4-.66h-.69v-.58l3.47-4.43.11.31h-6.16v-.72h6.83v.56l-3.46,4.44-.34-.25h.34a4.27,4.27,0,0,1,2.91.86,2.81,2.81,0,0,1,1,2.22,3.07,3.07,0,0,1-.43,1.62,2.85,2.85,0,0,1-1.27,1.12A4.9,4.9,0,0,1,188.49,115.9Z"/><path class="cls-3" d="M198.25,115.9a3.82,3.82,0,0,1-2.21-.67,4.41,4.41,0,0,1-1.51-1.91,8.19,8.19,0,0,1,0-5.9,4.41,4.41,0,0,1,1.51-1.91,3.82,3.82,0,0,1,2.21-.67,3.78,3.78,0,0,1,2.21.67,4.55,4.55,0,0,1,1.51,1.91,8.33,8.33,0,0,1,0,5.9,4.55,4.55,0,0,1-1.51,1.91A3.78,3.78,0,0,1,198.25,115.9Zm0-.74a3.07,3.07,0,0,0,1.82-.56,3.67,3.67,0,0,0,1.21-1.65,7.81,7.81,0,0,0,0-5.17,3.7,3.7,0,0,0-1.21-1.64,3.24,3.24,0,0,0-3.64,0,3.71,3.71,0,0,0-1.22,1.64,7.81,7.81,0,0,0,0,5.17,3.69,3.69,0,0,0,1.22,1.65A3.09,3.09,0,0,0,198.25,115.16Z"/><path class="cls-3" d="M209,118.84V107.69h.74v2.66l-.12,1.42.15,1.42v5.65Zm4.07-3a3.8,3.8,0,0,1-1.93-.5,3.54,3.54,0,0,1-1.37-1.42,5,5,0,0,1,0-4.41,3.54,3.54,0,0,1,1.37-1.42,3.8,3.8,0,0,1,1.93-.5,4.08,4.08,0,0,1,2.07.52,3.79,3.79,0,0,1,1.43,1.46,4.68,4.68,0,0,1,0,4.29,3.79,3.79,0,0,1-1.43,1.46A4.08,4.08,0,0,1,213.09,115.88Zm0-.7a3.28,3.28,0,0,0,1.68-.43,3,3,0,0,0,1.17-1.21,3.94,3.94,0,0,0,0-3.58,2.94,2.94,0,0,0-1.17-1.2,3.5,3.5,0,0,0-3.36,0,3,3,0,0,0-1.16,1.2,3.94,3.94,0,0,0,0,3.58,3,3,0,0,0,1.16,1.21A3.26,3.26,0,0,0,213.05,115.18Z"/><path class="cls-3" d="M229.64,107.63a3.64,3.64,0,0,1,1.7.38,2.73,2.73,0,0,1,1.13,1.15,4.09,4.09,0,0,1,.41,1.91v4.75h-.78v-4.69a3,3,0,0,0-.67-2.08,2.43,2.43,0,0,0-1.87-.72,3.12,3.12,0,0,0-1.59.39,2.56,2.56,0,0,0-1,1.09,3.65,3.65,0,0,0-.36,1.68v4.33h-.78v-4.69a2.91,2.91,0,0,0-.67-2.08,2.43,2.43,0,0,0-1.87-.72,3.06,3.06,0,0,0-1.58.39,2.58,2.58,0,0,0-1,1.09,3.65,3.65,0,0,0-.36,1.68v4.33h-.78v-8.13h.75v2.24l-.11-.24a3,3,0,0,1,1.2-1.51,3.57,3.57,0,0,1,2-.55,3.37,3.37,0,0,1,2.05.62,2.79,2.79,0,0,1,1,1.82l-.27-.1a3.21,3.21,0,0,1,1.23-1.69A3.72,3.72,0,0,1,229.64,107.63Z"/><path class="cls-4" d="M308.6,189.93c1.89,0,3.78,0,5.67,0,.25,0,.33-.08.38-.31a7.66,7.66,0,0,1,6.12-6.33A7.85,7.85,0,1,1,324,198.67a7.33,7.33,0,0,1-4.07-.25c-.25-.08-.37-.06-.51.19q-2.76,4.84-5.55,9.69a.91.91,0,0,0-.12.49q0,4.62,0,9.25c0,.27.07.35.34.34h3.06a.81.81,0,0,1,.77.51.89.89,0,0,1-.11,1,.92.92,0,0,1-.77.34h-8.35a.9.9,0,0,1-.95-.93.89.89,0,0,1,1-.87h2.95c.27,0,.33-.07.33-.33q0-4.63,0-9.29a1,1,0,0,0-.16-.52l-9.63-16.8A1.69,1.69,0,0,1,302,191a.86.86,0,0,1,.9-1.1Zm-4.14,1.74s0,.06,0,.08l2.58,4.54a.34.34,0,0,0,.24.18,14.71,14.71,0,0,0,3.68.38,14.22,14.22,0,0,0,3.88-.83,14.21,14.21,0,0,1,4.35-.92c.19,0,.23-.12.3-.24.56-1,1.13-2,1.68-3,0-.06.15-.13.07-.24Zm17.86-6.75.62,3.78c.75-1,1.44-2,2.14-2.95.09-.12.07-.16-.06-.23A5.9,5.9,0,0,0,322.32,184.92Zm2.36,6.58,2.95,2.13c.2.15.2,0,.25-.12a6.1,6.1,0,0,0,.57-2.34c0-.28-.1-.29-.32-.25Zm3.5-2.35a5.81,5.81,0,0,0-1.43-2.37c-.08-.09-.13-.09-.2,0l-.47.64-1.68,2.32Zm-7.63-4a6.11,6.11,0,0,0-2.28,1.35c-.17.16-.15.23,0,.36l2.61,1.88c.06.05.11.13.24.09Zm3.1,7.79c0,.07,0,.1,0,.13.19,1.14.38,2.28.56,3.42,0,.2.13.18.26.13a5.86,5.86,0,0,0,2.25-1.47ZM322,194.17l-1.39,2.43c-.1.17,0,.18.12.2a6.35,6.35,0,0,0,1.5.24c.19,0,.23,0,.2-.23C322.28,196,322.15,195.11,322,194.17Zm-2.64-4.25c-.75-.56-1.45-1.06-2.13-1.58-.19-.15-.26-.09-.34.09a8.36,8.36,0,0,0-.48,1.49Z"/><path class="cls-2" d="M391.79,201.72a6.12,6.12,0,0,1-2.25-.41,5.46,5.46,0,0,1-1.8-1.16,5.25,5.25,0,0,1-1.18-1.75,6,6,0,0,1,0-4.41,5.28,5.28,0,0,1,1.19-1.75,5.46,5.46,0,0,1,1.8-1.16,6.38,6.38,0,0,1,4.39,0,4.4,4.4,0,0,1,1.72,1.14l-.49.51a4.54,4.54,0,0,0-1.55-1,5.4,5.4,0,0,0-1.8-.3,5.19,5.19,0,0,0-1.94.36,4.62,4.62,0,0,0-1.55,1,4.54,4.54,0,0,0-1,1.53,5,5,0,0,0,0,3.79,4.44,4.44,0,0,0,1,1.53,4.62,4.62,0,0,0,1.55,1,5.19,5.19,0,0,0,1.94.36,5.4,5.4,0,0,0,1.8-.3,4.32,4.32,0,0,0,1.55-1l.49.52a4.63,4.63,0,0,1-1.72,1.14A6,6,0,0,1,391.79,201.72Z"/><path class="cls-2" d="M405.83,201.72a6.12,6.12,0,0,1-2.25-.41,5.64,5.64,0,0,1-1.81-1.17,5.32,5.32,0,0,1-1.19-1.76,5.89,5.89,0,0,1,0-4.37,5.32,5.32,0,0,1,1.19-1.76,5.64,5.64,0,0,1,1.81-1.17,6.38,6.38,0,0,1,4.5,0,5.46,5.46,0,0,1,1.8,1.16,5.59,5.59,0,0,1,1.19,1.75,6,6,0,0,1,0,4.41,5.59,5.59,0,0,1-1.19,1.75,5.46,5.46,0,0,1-1.8,1.16A6.12,6.12,0,0,1,405.83,201.72Zm0-.73a5.1,5.1,0,0,0,1.93-.36,4.58,4.58,0,0,0,1.54-1,5,5,0,0,0,1-5.33,5,5,0,0,0-1-1.52,4.58,4.58,0,0,0-1.54-1,5.35,5.35,0,0,0-3.86,0,4.62,4.62,0,0,0-1.55,1,4.81,4.81,0,0,0-1,1.52,5.19,5.19,0,0,0,0,3.8,4.74,4.74,0,0,0,1,1.53,4.62,4.62,0,0,0,1.55,1A5.06,5.06,0,0,0,405.83,201Zm-.89-11.13L407.1,188h1.12l-2.44,1.84Z"/><path class="cls-2" d="M422,201.72a6.12,6.12,0,0,1-2.25-.41,5.46,5.46,0,0,1-1.8-1.16,5.25,5.25,0,0,1-1.18-1.75,6,6,0,0,1,0-4.41,5.28,5.28,0,0,1,1.19-1.75,5.46,5.46,0,0,1,1.8-1.16,6.38,6.38,0,0,1,4.39,0,4.4,4.4,0,0,1,1.72,1.14l-.5.51a4.41,4.41,0,0,0-1.54-1,5.4,5.4,0,0,0-1.8-.3,5.15,5.15,0,0,0-1.94.36,4.56,4.56,0,0,0-2.58,2.54,5,5,0,0,0,0,3.79,4.56,4.56,0,0,0,1,1.53,4.66,4.66,0,0,0,1.56,1A5.15,5.15,0,0,0,422,201a5.4,5.4,0,0,0,1.8-.3,4.2,4.2,0,0,0,1.54-1l.5.52a4.63,4.63,0,0,1-1.72,1.14A6.08,6.08,0,0,1,422,201.72Z"/><path class="cls-2" d="M433.56,201.64V191.46h-3.92v-.71h8.64v.71h-3.92v10.18Z"/><path class="cls-2" d="M444.15,200.93h6.72v.71h-7.52V190.75h7.29v.71h-6.49Zm-.1-5.17H450v.7h-5.9Z"/><path class="cls-2" d="M456.88,201.64V190.75h.79v10.18h6.27v.71Z"/><path class="cls-3" d="M488.79,210.18a6,6,0,0,1-2.22-.4,4.11,4.11,0,0,1-1.61-1.06l.4-.61a3.81,3.81,0,0,0,1.4,1,5.25,5.25,0,0,0,2,.38,3.31,3.31,0,0,0,2.27-.68,2.29,2.29,0,0,0,.77-1.78,2.44,2.44,0,0,0-.36-1.34,2.27,2.27,0,0,0-1.21-.86,7.26,7.26,0,0,0-2.34-.31h-2.21l.58-5.27H492v.71h-5.45l.39-.37-.51,4.62-.37-.4h2a7.2,7.2,0,0,1,2.66.4,2.88,2.88,0,0,1,1.43,1.11,3.4,3.4,0,0,1,0,3.31,2.88,2.88,0,0,1-1.27,1.16A4.6,4.6,0,0,1,488.79,210.18Z"/><path class="cls-3" d="M494.8,203.24a.63.63,0,0,1-.46-.2.62.62,0,0,1-.2-.47.63.63,0,0,1,.2-.47.65.65,0,0,1,.46-.18.63.63,0,0,1,.45.18.63.63,0,0,1,.2.47.62.62,0,0,1-.2.47A.61.61,0,0,1,494.8,203.24Zm0,6.93a.63.63,0,0,1-.46-.2.65.65,0,0,1-.2-.47.62.62,0,0,1,.2-.47.66.66,0,0,1,.46-.19.64.64,0,0,1,.45.19.62.62,0,0,1,.2.47.65.65,0,0,1-.2.47A.61.61,0,0,1,494.8,210.17Z"/><path class="cls-3" d="M504.4,210.18a6.05,6.05,0,0,1-2.23-.4,4.23,4.23,0,0,1-1.62-1.06l.41-.61a3.69,3.69,0,0,0,1.41,1,5.28,5.28,0,0,0,2,.38,3.39,3.39,0,0,0,2.23-.65,2.39,2.39,0,0,0,0-3.51,3.62,3.62,0,0,0-2.4-.66h-.69v-.58l3.47-4.44.11.31H501v-.71h6.83v.56l-3.45,4.43L504,204h.35a4.3,4.3,0,0,1,2.91.85,2.84,2.84,0,0,1,1,2.23,3.07,3.07,0,0,1-.43,1.62,2.91,2.91,0,0,1-1.27,1.12A4.9,4.9,0,0,1,504.4,210.18Z"/><path class="cls-3" d="M514.16,210.18a3.75,3.75,0,0,1-2.21-.67,4.32,4.32,0,0,1-1.51-1.9,8.19,8.19,0,0,1,0-5.9A4.35,4.35,0,0,1,512,199.8a4,4,0,0,1,4.43,0,4.55,4.55,0,0,1,1.5,1.91,8.33,8.33,0,0,1,0,5.9,4.52,4.52,0,0,1-1.5,1.9A3.76,3.76,0,0,1,514.16,210.18Zm0-.73a3,3,0,0,0,1.82-.57,3.64,3.64,0,0,0,1.21-1.64,7.84,7.84,0,0,0,0-5.18,3.67,3.67,0,0,0-1.21-1.63,3.19,3.19,0,0,0-3.64,0,3.68,3.68,0,0,0-1.22,1.63,8,8,0,0,0,0,5.18,3.66,3.66,0,0,0,1.22,1.64A3,3,0,0,0,514.16,209.45Z"/><path class="cls-3" d="M524.93,213.12V202h.74v2.66l-.12,1.42.16,1.41v5.65Zm4.07-3a3.8,3.8,0,0,1-1.93-.5,3.5,3.5,0,0,1-1.37-1.43,5,5,0,0,1,0-4.4,3.56,3.56,0,0,1,1.37-1.43,3.8,3.8,0,0,1,1.93-.49,4.08,4.08,0,0,1,2.07.52,3.83,3.83,0,0,1,1.43,1.45,4.7,4.7,0,0,1,0,4.3,3.76,3.76,0,0,1-1.43,1.45A4.09,4.09,0,0,1,529,210.17Zm0-.7a3.39,3.39,0,0,0,1.68-.43,3,3,0,0,0,1.17-1.21,3.59,3.59,0,0,0,.43-1.79,3.63,3.63,0,0,0-.43-1.8,3.07,3.07,0,0,0-1.17-1.2,3.38,3.38,0,0,0-1.68-.42,3.31,3.31,0,0,0-1.67.42,3.07,3.07,0,0,0-1.17,1.2,3.63,3.63,0,0,0-.43,1.8,3.59,3.59,0,0,0,.43,1.79,3,3,0,0,0,1.17,1.21A3.32,3.32,0,0,0,529,209.47Z"/><path class="cls-3" d="M545.55,201.92a3.53,3.53,0,0,1,1.7.38,2.62,2.62,0,0,1,1.13,1.15,4.06,4.06,0,0,1,.41,1.91v4.74H548v-4.68a3,3,0,0,0-.67-2.09,2.46,2.46,0,0,0-1.87-.71,3.12,3.12,0,0,0-1.59.39,2.62,2.62,0,0,0-1,1.09,3.6,3.6,0,0,0-.36,1.68v4.32h-.78v-4.68a3,3,0,0,0-.67-2.09,2.45,2.45,0,0,0-1.87-.71,3.06,3.06,0,0,0-1.58.39,2.58,2.58,0,0,0-1,1.09,3.6,3.6,0,0,0-.36,1.68v4.32h-.78V202h.75v2.24l-.11-.25a3.06,3.06,0,0,1,1.2-1.5,3.57,3.57,0,0,1,2-.55,3.37,3.37,0,0,1,2.05.61,2.77,2.77,0,0,1,1,1.83l-.26-.11a3.15,3.15,0,0,1,1.23-1.69A3.66,3.66,0,0,1,545.55,201.92Z"/><line class="cls-1" x1="405.16" y1="297.74" x2="240.87" y2="297.74"/><path class="cls-2" d="M246.05,292.87V282H250a5.8,5.8,0,0,1,2.35.44,3.46,3.46,0,0,1,1.51,1.25,3.62,3.62,0,0,1,.53,2,3.53,3.53,0,0,1-.53,2,3.42,3.42,0,0,1-1.51,1.26,5.63,5.63,0,0,1-2.35.45h-3.47l.35-.38v3.94Zm.79-3.89-.35-.38H250a4,4,0,0,0,2.67-.77,3.08,3.08,0,0,0,0-4.37,4.07,4.07,0,0,0-2.67-.77h-3.47l.35-.39Zm6.77,3.89-2.83-3.95h.91l2.83,3.95Z"/><path class="cls-2" d="M261.16,292.15h6.73v.72h-7.52V282h7.28v.72h-6.49Zm-.09-5.16H267v.7h-5.9Z"/><path class="cls-2" d="M278.46,293a5.93,5.93,0,0,1-2.25-.42,5.44,5.44,0,0,1-1.8-1.15,5.29,5.29,0,0,1-1.18-1.76,6,6,0,0,1,0-4.4,5.13,5.13,0,0,1,1.19-1.75,5.37,5.37,0,0,1,1.79-1.16,5.92,5.92,0,0,1,2.25-.41,6.11,6.11,0,0,1,2.15.37,4.47,4.47,0,0,1,1.72,1.14l-.5.51a4.1,4.1,0,0,0-1.55-1,5.3,5.3,0,0,0-1.79-.3,5.15,5.15,0,0,0-1.94.36,4.42,4.42,0,0,0-1.56,1,4.7,4.7,0,0,0-1,1.52,5.19,5.19,0,0,0,0,3.8,4.85,4.85,0,0,0,1,1.53,4.72,4.72,0,0,0,1.56,1,5.15,5.15,0,0,0,1.94.36,5.3,5.3,0,0,0,1.79-.31,4,4,0,0,0,1.55-1l.5.51a4.61,4.61,0,0,1-1.72,1.15A6.12,6.12,0,0,1,278.46,293Z"/><path class="cls-2" d="M288.9,292.15h6.72v.72H288.1V282h7.29v.72H288.9Zm-.09-5.16h5.89v.7h-5.89Z"/><path class="cls-2" d="M301.63,292.87V282h3.91a5.8,5.8,0,0,1,2.35.44,3.46,3.46,0,0,1,1.51,1.25,3.94,3.94,0,0,1,0,3.95,3.42,3.42,0,0,1-1.51,1.26,5.8,5.8,0,0,1-2.35.44h-3.47l.35-.38v3.94Zm.79-3.89-.35-.39h3.47a4.07,4.07,0,0,0,2.67-.77,3.07,3.07,0,0,0,0-4.36,4.07,4.07,0,0,0-2.67-.77h-3.47l.35-.39Z"/><path class="cls-2" d="M320.48,293a5.93,5.93,0,0,1-2.25-.42,5.44,5.44,0,0,1-1.8-1.15,5.29,5.29,0,0,1-1.18-1.76,6,6,0,0,1,0-4.4,5.34,5.34,0,0,1,3-2.91,5.84,5.84,0,0,1,2.24-.41,6.07,6.07,0,0,1,2.15.37,4.4,4.4,0,0,1,1.72,1.14l-.49.51a4.26,4.26,0,0,0-1.55-1,5.4,5.4,0,0,0-1.8-.3,5.15,5.15,0,0,0-1.94.36,4.66,4.66,0,0,0-2.58,2.53,5.06,5.06,0,0,0,0,3.8,4.54,4.54,0,0,0,1,1.53,4.67,4.67,0,0,0,1.55,1,5.15,5.15,0,0,0,1.94.36,5.4,5.4,0,0,0,1.8-.31,4.16,4.16,0,0,0,1.55-1l.49.51a4.53,4.53,0,0,1-1.72,1.15A6.08,6.08,0,0,1,320.48,293Z"/><path class="cls-2" d="M330.13,292.87V282h.79v10.9Z"/><path class="cls-2" d="M342.45,293a5.91,5.91,0,0,1-2.24-.42,5.35,5.35,0,0,1-1.81-1.16,5.42,5.42,0,0,1-1.19-1.76,5.92,5.92,0,0,1,0-4.38,5.38,5.38,0,0,1,1.19-1.75,5.23,5.23,0,0,1,1.81-1.17,6.35,6.35,0,0,1,4.49,0,5.34,5.34,0,0,1,3,2.91,5.84,5.84,0,0,1,0,4.4,5.32,5.32,0,0,1-1.19,1.76,5.44,5.44,0,0,1-1.8,1.15A5.93,5.93,0,0,1,342.45,293Zm0-.73a5.06,5.06,0,0,0,1.93-.36,4.67,4.67,0,0,0,1.55-1,4.8,4.8,0,0,0,1-1.53,5.06,5.06,0,0,0,0-3.8,4.65,4.65,0,0,0-1-1.52,4.38,4.38,0,0,0-1.55-1,5.06,5.06,0,0,0-1.93-.36,5.14,5.14,0,0,0-1.93.36,4.69,4.69,0,0,0-2.57,2.53,5.06,5.06,0,0,0,0,3.8,4.54,4.54,0,0,0,1,1.53,4.73,4.73,0,0,0,1.54,1A5.14,5.14,0,0,0,342.45,292.22Zm-.88-11.13,2.16-1.84h1.12l-2.44,1.84Z"/><path class="cls-2" d="M354,292.87V282h.67l7.76,9.92h-.35V282h.79v10.9h-.65L354.42,283h.36v9.92Z"/><path class="cls-3" d="M169.38,297.81a4.19,4.19,0,0,1-2.41-.65,4,4,0,0,1-1.47-1.88,7.84,7.84,0,0,1-.5-2.93,7.09,7.09,0,0,1,.61-3.09,4.24,4.24,0,0,1,1.7-1.87,5,5,0,0,1,2.53-.63,7.17,7.17,0,0,1,1.34.13,3.38,3.38,0,0,1,1.14.43L172,288a3.12,3.12,0,0,0-1-.38,5.55,5.55,0,0,0-1.18-.12,3.84,3.84,0,0,0-2.94,1.19,5.15,5.15,0,0,0-1.1,3.58c0,.24,0,.54,0,.91a4.92,4.92,0,0,0,.21,1.08l-.28-.08a3,3,0,0,1,.6-1.54,3.1,3.1,0,0,1,1.28-1,4.18,4.18,0,0,1,1.71-.34,4.26,4.26,0,0,1,1.91.4,3,3,0,0,1,1.27,1.13,3.13,3.13,0,0,1,.46,1.71,3.06,3.06,0,0,1-1.76,2.88A4.16,4.16,0,0,1,169.38,297.81Zm0-.68a3.34,3.34,0,0,0,1.49-.32,2.36,2.36,0,0,0,1-.9,2.48,2.48,0,0,0,.37-1.36,2.37,2.37,0,0,0-.79-1.87,3.11,3.11,0,0,0-2.17-.7,3.45,3.45,0,0,0-1.57.34,2.7,2.7,0,0,0-1.07.93,2.46,2.46,0,0,0-.38,1.33,2.3,2.3,0,0,0,.36,1.22,2.72,2.72,0,0,0,1,1A3.67,3.67,0,0,0,169.35,297.13Z"/><path class="cls-3" d="M175.07,290.87a.63.63,0,0,1-.46-.19.65.65,0,0,1-.19-.48.6.6,0,0,1,.19-.46.63.63,0,0,1,.46-.19.62.62,0,0,1,.46.19.61.61,0,0,1,.2.46.66.66,0,0,1-.2.48A.62.62,0,0,1,175.07,290.87Zm0,6.93a.65.65,0,0,1-.46-.2.68.68,0,0,1,0-.94.67.67,0,0,1,.46-.18.65.65,0,0,1,.46.18.67.67,0,0,1-.46,1.14Z"/><path class="cls-3" d="M184.68,297.81a6.1,6.1,0,0,1-2.24-.4,4,4,0,0,1-1.61-1.06l.41-.61a3.62,3.62,0,0,0,1.4,1,5.15,5.15,0,0,0,2,.38,3.39,3.39,0,0,0,2.23-.65,2.39,2.39,0,0,0,0-3.51,3.65,3.65,0,0,0-2.41-.66h-.68v-.58l3.47-4.43.11.31h-6.16v-.72h6.83v.56l-3.46,4.44-.34-.25h.34a4.27,4.27,0,0,1,2.91.85,2.84,2.84,0,0,1,1,2.23,3.07,3.07,0,0,1-.43,1.62,2.83,2.83,0,0,1-1.28,1.12A4.83,4.83,0,0,1,184.68,297.81Z"/><path class="cls-3" d="M194.43,297.81a3.84,3.84,0,0,1-2.21-.66,4.55,4.55,0,0,1-1.51-1.91,8.33,8.33,0,0,1,0-5.9,4.49,4.49,0,0,1,1.51-1.91,4,4,0,0,1,4.43,0,4.4,4.4,0,0,1,1.5,1.91,8.19,8.19,0,0,1,0,5.9,4.46,4.46,0,0,1-1.5,1.91A3.82,3.82,0,0,1,194.43,297.81Zm0-.73a3,3,0,0,0,1.83-.57,3.66,3.66,0,0,0,1.21-1.64,7.81,7.81,0,0,0,0-5.17,3.77,3.77,0,0,0-1.21-1.64,3.24,3.24,0,0,0-3.64,0,3.71,3.71,0,0,0-1.22,1.64,7.81,7.81,0,0,0,0,5.17,3.6,3.6,0,0,0,1.22,1.64A3,3,0,0,0,194.43,297.08Z"/><path class="cls-3" d="M205.2,300.76V289.61H206v2.66l-.12,1.42.15,1.42v5.65Zm4.08-3a3.87,3.87,0,0,1-1.94-.5,3.58,3.58,0,0,1-1.36-1.42,5,5,0,0,1,0-4.41,3.52,3.52,0,0,1,1.36-1.42,3.87,3.87,0,0,1,1.94-.5,4,4,0,0,1,2.06.52,3.74,3.74,0,0,1,1.44,1.46,4.68,4.68,0,0,1,0,4.29,3.81,3.81,0,0,1-1.44,1.46A4,4,0,0,1,209.28,297.8Zm0-.7a3.28,3.28,0,0,0,1.68-.43,3.1,3.1,0,0,0,1.17-1.21,3.94,3.94,0,0,0,0-3.58,3,3,0,0,0-1.17-1.2,3.5,3.5,0,0,0-3.36,0,3,3,0,0,0-1.16,1.2,3.94,3.94,0,0,0,0,3.58,3.07,3.07,0,0,0,1.16,1.21A3.26,3.26,0,0,0,209.24,297.1Z"/><path class="cls-3" d="M225.83,289.55a3.64,3.64,0,0,1,1.7.38,2.73,2.73,0,0,1,1.13,1.15,4.09,4.09,0,0,1,.4,1.91v4.75h-.77v-4.69a3,3,0,0,0-.67-2.08,2.43,2.43,0,0,0-1.87-.72,3.12,3.12,0,0,0-1.59.39,2.64,2.64,0,0,0-1,1.09,3.79,3.79,0,0,0-.35,1.68v4.33H222v-4.69a3,3,0,0,0-.67-2.08,2.43,2.43,0,0,0-1.87-.72,3.12,3.12,0,0,0-1.59.39,2.56,2.56,0,0,0-1,1.09,3.65,3.65,0,0,0-.36,1.68v4.33h-.78v-8.13h.75v2.24l-.11-.25a3.06,3.06,0,0,1,1.2-1.5,3.57,3.57,0,0,1,2-.55,3.37,3.37,0,0,1,2.05.61,2.81,2.81,0,0,1,1,1.83l-.27-.11a3.23,3.23,0,0,1,1.23-1.68A3.69,3.69,0,0,1,225.83,289.55Z"/><circle class="cls-1" cx="373.78" cy="52.27" r="6.53"/><circle class="cls-1" cx="373.78" cy="549.47" r="6.53"/><path class="cls-5" d="M441.62,103.59c0-.88,0-1.71,0-2.54s-.05-1.61-.07-2.41a1.84,1.84,0,0,1,1.45-2c.67-.18,1.34-.36,2-.51a1.76,1.76,0,0,1,1.66.46q1.8,1.77,3.57,3.56a1.78,1.78,0,0,1,.46,1.67c-.14.69-.3,1.38-.46,2.07a1.83,1.83,0,0,1-1.86,1.47c-1.53,0-3.06-.09-4.59-.13h-.49c.21.27.4.51.57.77a12.89,12.89,0,0,1,2.51,8.76c-.46,5.6-3.35,9.48-8.48,11.72a.76.76,0,0,0-.43.43,13.23,13.23,0,0,1-10.29,8.34A13.52,13.52,0,0,1,420,109.38a.69.69,0,0,0,.4-.42,13.56,13.56,0,0,1,21.11-5.5Zm-6.14,19.63a8.28,8.28,0,0,0,1.63-.59.46.46,0,0,0,.33-.49,15.13,15.13,0,0,0-.3-2.84,12.52,12.52,0,1,0-10.83,15.11,12.32,12.32,0,0,0,7.47-3.61,11.91,11.91,0,0,0,2.57-3.76,15,15,0,0,1-2.12.37c-.2,0-.27.16-.36.29a10.41,10.41,0,0,1-10.72,4.75,10.63,10.63,0,1,1,6.7-19.89A10.35,10.35,0,0,1,435.5,121,11.57,11.57,0,0,1,435.48,123.22Zm-14-14.34a11.43,11.43,0,0,1,2-.35.59.59,0,0,0,.52-.3,10.64,10.64,0,1,1,7.69,16.26,10.3,10.3,0,0,1-8.76-7,10.15,10.15,0,0,1-.53-4.78,12,12,0,0,0-1.77.67c-.18.09-.18.21-.18.37a12.64,12.64,0,0,0,.23,2.6A12.52,12.52,0,1,0,434,101.48a12.5,12.5,0,0,0-12.55,7.4Zm-2.07,5.23a9.51,9.51,0,0,0-4,9.62,9.65,9.65,0,0,0,8.37,7.82,9.4,9.4,0,0,0,8.95-4.07A13.53,13.53,0,0,1,419.4,114.11Zm19.08,7.67a9.6,9.6,0,0,0-4.79-17.43c-3.49-.24-7.86,1.89-8.58,4.08A13.58,13.58,0,0,1,438.48,121.78Zm-3.92.1a9.54,9.54,0,0,0-5-8.32,9.17,9.17,0,0,0-5.91-1.14c-.2,0-.31.07-.34.31a9.66,9.66,0,0,0,10.77,10.79c.23,0,.34-.12.35-.35C434.49,122.77,434.53,122.36,434.56,121.88Zm8.56-24.19L444.47,99a.28.28,0,0,0,.29.1l2.39-.6L446,97.39a.79.79,0,0,0-.78-.24C444.57,97.31,443.91,97.49,443.12,97.69Zm6.13,6.1c.18-.8.35-1.54.5-2.28a.68.68,0,0,0-.21-.6c-.36-.39-.74-.75-1.15-1.16l-.52,2.34a.34.34,0,0,0,.07.38C448.37,102.88,448.79,103.31,449.25,103.79Zm-2.94-1.42-1.72-1.73-1.37,3.09Zm-3.77-.05.2,0c.35-.8.7-1.6,1.06-2.39a.19.19,0,0,0,0-.25l-1.22-1.23v3.85Zm5.92,2-.47-.41c-.29-.27-.54-.71-.86-.77s-.72.26-1.07.42l-1.41.62,0,.14Zm-2.92-4.4,1.45,1.45.43-1.92Z"/><path class="cls-6" d="M435.48,123.22a11.57,11.57,0,0,0,0-2.2,10.35,10.35,0,0,0-5.65-8.46,10.63,10.63,0,1,0-6.7,19.89,10.41,10.41,0,0,0,10.72-4.75c.09-.13.16-.28.36-.29a15,15,0,0,0,2.12-.37,11.91,11.91,0,0,1-2.57,3.76,12.32,12.32,0,0,1-7.47,3.61,12.52,12.52,0,1,1,10.83-15.11,15.13,15.13,0,0,1,.3,2.84.46.46,0,0,1-.33.49A8.28,8.28,0,0,1,435.48,123.22Z"/><path class="cls-6" d="M421.47,108.88a12.53,12.53,0,0,1,23.68,2.37,12.52,12.52,0,1,1-24.75,2.47c0-.16,0-.28.18-.37a12,12,0,0,1,1.77-.67,10.15,10.15,0,0,0,.53,4.78,10.3,10.3,0,0,0,8.76,7A10.63,10.63,0,1,0,424,108.23a.59.59,0,0,1-.52.3A11.43,11.43,0,0,0,421.47,108.88Z"/><path class="cls-6" d="M438.48,121.78a13.58,13.58,0,0,0-13.37-13.35c.72-2.19,5.09-4.32,8.58-4.08a9.6,9.6,0,0,1,4.79,17.43Z"/><path class="cls-6" d="M443.12,97.69c.79-.2,1.45-.38,2.13-.54a.79.79,0,0,1,.78.24l1.12,1.11-2.39.6a.28.28,0,0,1-.29-.1Z"/><path class="cls-6" d="M449.25,103.79c-.46-.48-.88-.91-1.31-1.32a.34.34,0,0,1-.07-.38l.52-2.34c.41.41.79.77,1.15,1.16a.68.68,0,0,1,.21.6C449.6,102.25,449.43,103,449.25,103.79Z"/><path class="cls-6" d="M446.31,102.37l-3.09,1.36,1.37-3.09Z"/><path class="cls-6" d="M442.54,102.32V98.47l1.22,1.23a.19.19,0,0,1,0,.25c-.36.79-.71,1.59-1.06,2.39Z"/><path class="cls-6" d="M448.46,104.34h-3.78l0-.14,1.41-.62c.35-.16.75-.48,1.07-.42s.57.5.86.77Z"/><path class="cls-6" d="M445.54,99.94l1.88-.47-.43,1.92Z"/><path class="cls-7" d="M296.42,397.73a18,18,0,1,1,18,18.07A18.06,18.06,0,0,1,296.42,397.73Zm18-17.48a17.49,17.49,0,1,0,17.5,17.43A17.51,17.51,0,0,0,314.44,380.25Z"/><path class="cls-7" d="M314.64,398.59a9.73,9.73,0,0,1,9.46,8.21,7.57,7.57,0,0,1,.11,1.26c0,.19,0,.29-.25.29s-.29-.07-.3-.29a9.22,9.22,0,0,0-11.45-8.63,9,9,0,0,0-6.71,6.76,8.68,8.68,0,0,0-.26,1.82c0,.21,0,.35-.29.34s-.25-.2-.25-.37a9.75,9.75,0,0,1,6.08-8.68A9.56,9.56,0,0,1,314.64,398.59Z"/><path class="cls-7" d="M307.82,393.58a2.33,2.33,0,1,1,0-4.65,2.33,2.33,0,0,1,0,4.65Z"/><path class="cls-7" d="M323.26,391.26a2.3,2.3,0,0,1-2.34,2.32,2.33,2.33,0,0,1-2.33-2.34,2.36,2.36,0,0,1,2.33-2.31A2.32,2.32,0,0,1,323.26,391.26Z"/><line class="cls-1" x1="338.76" y1="397.75" x2="477.47" y2="397.75"/><path class="cls-8" d="M385.71,377.09a5.54,5.54,0,0,1-2-.36,3.63,3.63,0,0,1-1.46-.92l.31-.52a3.81,3.81,0,0,0,1.34.85,4.67,4.67,0,0,0,1.79.34,4,4,0,0,0,1.55-.25,1.93,1.93,0,0,0,.9-.67,1.63,1.63,0,0,0,.29-.93,1.42,1.42,0,0,0-.33-1,2.21,2.21,0,0,0-.85-.58,7.38,7.38,0,0,0-1.15-.37l-1.26-.31a6.75,6.75,0,0,1-1.17-.44,2.32,2.32,0,0,1-.84-.74,2.14,2.14,0,0,1-.32-1.22,2.35,2.35,0,0,1,.35-1.24,2.48,2.48,0,0,1,1.1-.92,4.4,4.4,0,0,1,1.91-.36,5.17,5.17,0,0,1,1.55.24,4.3,4.3,0,0,1,1.31.62l-.26.55a4.4,4.4,0,0,0-1.28-.6,4.87,4.87,0,0,0-1.32-.2,3.77,3.77,0,0,0-1.5.26,1.85,1.85,0,0,0-.88.69,1.66,1.66,0,0,0-.29,1,1.46,1.46,0,0,0,.32,1,2.25,2.25,0,0,0,.85.58,7.18,7.18,0,0,0,1.16.36l1.26.32a6.25,6.25,0,0,1,1.15.44,2.45,2.45,0,0,1,.86.73,2.1,2.1,0,0,1,.32,1.2,2.25,2.25,0,0,1-.37,1.24,2.51,2.51,0,0,1-1.11.92A4.67,4.67,0,0,1,385.71,377.09Z"/><path class="cls-8" d="M394.87,376.4h5.85V377h-6.55v-9.49h6.34v.63h-5.64Zm-.09-4.5h5.14v.61h-5.14Z"/><path class="cls-8" d="M410.55,377l4.36-9.49h.7L420,377h-.75l-4.12-9h.3l-4.1,9Zm1.6-2.67.23-.59h5.68l.23.59Z"/><path class="cls-8" d="M428.27,377.09a5.29,5.29,0,0,1-2-.36,4.42,4.42,0,0,1-1.56-1,4.55,4.55,0,0,1-1-1.52,5.14,5.14,0,0,1,0-3.83,4.47,4.47,0,0,1,1-1.53,4.82,4.82,0,0,1,1.56-1,5.2,5.2,0,0,1,1.95-.36,5.27,5.27,0,0,1,1.88.33,4,4,0,0,1,1.5,1l-.44.45a3.49,3.49,0,0,0-1.35-.86,4.7,4.7,0,0,0-3.25,0,4,4,0,0,0-1.35.88,4.17,4.17,0,0,0-.9,1.33,4.44,4.44,0,0,0,0,3.31,4.13,4.13,0,0,0,.9,1.32,3.85,3.85,0,0,0,1.35.88,4.63,4.63,0,0,0,3.25.05,3.52,3.52,0,0,0,1.35-.87l.44.45a4,4,0,0,1-1.5,1A5.27,5.27,0,0,1,428.27,377.09Z"/><path class="cls-8" d="M434.83,377l4.36-9.49h.69l4.36,9.49h-.74l-4.12-9h.3l-4.11,9Zm1.6-2.67.23-.59h5.67l.23.59Z"/><path class="cls-8" d="M448.67,377v-9.49h4a4,4,0,0,1,2.4.63,2.08,2.08,0,0,1,.86,1.8,2.26,2.26,0,0,1-.36,1.3,2.28,2.28,0,0,1-1,.79,3.69,3.69,0,0,1-1.44.26l.24-.27a4.38,4.38,0,0,1,1.67.29,2.24,2.24,0,0,1,1.05.82,2.44,2.44,0,0,1,.36,1.36,2.19,2.19,0,0,1-.87,1.85,4.34,4.34,0,0,1-2.63.66Zm.69-.6h3.54A3.87,3.87,0,0,0,455,376a1.92,1.92,0,0,0,0-3,3.87,3.87,0,0,0-2.09-.47h-3.62v-.59h3.32a3.27,3.27,0,0,0,1.91-.48,1.81,1.81,0,0,0,0-2.83,3.35,3.35,0,0,0-1.91-.47h-3.24Z"/><path class="cls-8" d="M460,377l4.36-9.49H465L469.4,377h-.74l-4.12-9h.3l-4.11,9Zm1.59-2.67.23-.59h5.68l.23.59Z"/><path class="cls-8" d="M382.64,393.28V383.8h.69v8.86h5.46v.62Z"/><path class="cls-8" d="M391.69,393.28l4.36-9.48h.69l4.36,9.48h-.74l-4.12-9h.3l-4.11,9Zm1.6-2.67.23-.58h5.67l.23.58Z"/><path class="cls-8" d="M412.41,393.28h-.69V383.8h6.34v.62h-5.65Zm-.08-4.81h5.14v.63h-5.14Z"/><path class="cls-8" d="M423,393.28V383.8h.69v9.48Z"/><path class="cls-8" d="M430.38,392.66h5.85v.62h-6.54V383.8H436v.62h-5.65Zm-.08-4.5h5.13v.61H430.3Z"/><path class="cls-8" d="M444,393.35a5.58,5.58,0,0,1-2-.36,3.71,3.71,0,0,1-1.45-.93l.31-.51a3.75,3.75,0,0,0,1.33.84,4.58,4.58,0,0,0,1.8.35,4,4,0,0,0,1.55-.25,2,2,0,0,0,.89-.67,1.56,1.56,0,0,0,.29-.94,1.39,1.39,0,0,0-.32-1,2.29,2.29,0,0,0-.85-.58,7.51,7.51,0,0,0-1.16-.37l-1.26-.32a5.7,5.7,0,0,1-1.16-.44,2.25,2.25,0,0,1-.85-.74,2.11,2.11,0,0,1-.32-1.21,2.3,2.3,0,0,1,.36-1.25,2.58,2.58,0,0,1,1.09-.92,4.59,4.59,0,0,1,1.91-.35,5.51,5.51,0,0,1,1.56.23,4.48,4.48,0,0,1,1.3.62l-.25.56a4.53,4.53,0,0,0-1.28-.6,4.88,4.88,0,0,0-1.33-.2,3.84,3.84,0,0,0-1.5.26,2,2,0,0,0-.88.68,1.71,1.71,0,0,0-.28,1,1.43,1.43,0,0,0,.31,1,2.31,2.31,0,0,0,.85.59,8.09,8.09,0,0,0,1.17.36l1.26.32a6.09,6.09,0,0,1,1.15.44,2.32,2.32,0,0,1,.85.73,2,2,0,0,1,.33,1.19,2.28,2.28,0,0,1-.37,1.24,2.47,2.47,0,0,1-1.12.92A4.63,4.63,0,0,1,444,393.35Z"/><path class="cls-8" d="M454.1,393.28v-8.86h-3.42v-.62h7.52v.62h-3.41v8.86Z"/><path class="cls-8" d="M460.56,393.28l4.36-9.48h.69l4.37,9.48h-.75l-4.12-9h.3l-4.1,9Zm1.6-2.67.23-.58h5.68l.23.58Z"/><path class="cls-3" d="M488.35,387.62a4.19,4.19,0,0,1,2.41.65,4.14,4.14,0,0,1,1.47,1.87,7.87,7.87,0,0,1,.49,2.94,7.08,7.08,0,0,1-.6,3.08,4.27,4.27,0,0,1-1.7,1.88,5,5,0,0,1-2.54.63,7.14,7.14,0,0,1-1.33-.13,3.55,3.55,0,0,1-1.14-.43l.33-.64a3.08,3.08,0,0,0,1,.38,5.5,5.5,0,0,0,1.16.11,3.81,3.81,0,0,0,2.95-1.19,5.1,5.1,0,0,0,1.1-3.57,8.39,8.39,0,0,0-.05-.92,4.92,4.92,0,0,0-.2-1.07l.28.08a2.91,2.91,0,0,1-.61,1.53,3.19,3.19,0,0,1-1.26,1,4.2,4.2,0,0,1-1.72.35,4.37,4.37,0,0,1-1.91-.4,3.12,3.12,0,0,1-1.28-1.13,3.21,3.21,0,0,1-.46-1.71,3.16,3.16,0,0,1,.48-1.74,3.24,3.24,0,0,1,1.29-1.14A4.16,4.16,0,0,1,488.35,387.62Zm0,.68a3.31,3.31,0,0,0-1.49.32,2.5,2.5,0,0,0-1,.89,2.54,2.54,0,0,0-.36,1.37,2.37,2.37,0,0,0,.79,1.87,3.15,3.15,0,0,0,2.17.7,3.45,3.45,0,0,0,1.57-.34,2.67,2.67,0,0,0,1.06-.93,2.38,2.38,0,0,0,.39-1.33,2.3,2.3,0,0,0-.36-1.22,2.72,2.72,0,0,0-1.05-1A3.49,3.49,0,0,0,488.38,388.3Z"/><path class="cls-3" d="M495.14,391.72a.62.62,0,0,1-.46-.19.66.66,0,0,1-.2-.48.61.61,0,0,1,.2-.46.62.62,0,0,1,.46-.19.63.63,0,0,1,.46.19.6.6,0,0,1,.19.46.65.65,0,0,1-.19.48A.63.63,0,0,1,495.14,391.72Zm0,6.93a.62.62,0,0,1-.46-.19.66.66,0,0,1-.2-.48.63.63,0,0,1,.2-.47.65.65,0,0,1,.46-.18.67.67,0,0,1,.46.18.63.63,0,0,1,.19.47.65.65,0,0,1-.19.48A.63.63,0,0,1,495.14,398.65Z"/><path class="cls-3" d="M504.74,398.67a6.05,6.05,0,0,1-2.23-.41,4,4,0,0,1-1.61-1.06l.4-.6a3.68,3.68,0,0,0,1.41.95,5.1,5.1,0,0,0,2,.38,3.33,3.33,0,0,0,2.23-.65,2.39,2.39,0,0,0,0-3.51,3.62,3.62,0,0,0-2.4-.66h-.69v-.58l3.47-4.43.11.31H501.3v-.72h6.83v.56l-3.45,4.44-.35-.25h.35a4.29,4.29,0,0,1,2.91.86,2.83,2.83,0,0,1,1,2.22,3.16,3.16,0,0,1-.42,1.62,2.93,2.93,0,0,1-1.28,1.12A4.9,4.9,0,0,1,504.74,398.67Z"/><path class="cls-3" d="M514.5,398.67a3.82,3.82,0,0,1-2.21-.67,4.35,4.35,0,0,1-1.51-1.91,8.19,8.19,0,0,1,0-5.9,4.41,4.41,0,0,1,1.51-1.91,4,4,0,0,1,4.43,0,4.54,4.54,0,0,1,1.5,1.91,8.33,8.33,0,0,1,0,5.9,4.47,4.47,0,0,1-1.5,1.91A3.83,3.83,0,0,1,514.5,398.67Zm0-.74a3,3,0,0,0,1.82-.56,3.67,3.67,0,0,0,1.21-1.65,7.81,7.81,0,0,0,0-5.17,3.61,3.61,0,0,0-1.21-1.63,3.17,3.17,0,0,0-3.63,0,3.57,3.57,0,0,0-1.23,1.63,8,8,0,0,0,0,5.17,3.64,3.64,0,0,0,1.23,1.65A3,3,0,0,0,514.5,397.93Z"/><path class="cls-3" d="M525.27,401.61V390.46H526v2.67l-.13,1.41.16,1.42v5.65Zm4.08-3a3.84,3.84,0,0,1-1.94-.5,3.54,3.54,0,0,1-1.37-1.42,5,5,0,0,1,0-4.41,3.6,3.6,0,0,1,1.37-1.42,3.84,3.84,0,0,1,1.94-.5,4.17,4.17,0,0,1,2.06.52,3.72,3.72,0,0,1,1.43,1.46,4.68,4.68,0,0,1,0,4.29,3.72,3.72,0,0,1-1.43,1.46A4.07,4.07,0,0,1,529.35,398.65Zm-.05-.7a3.28,3.28,0,0,0,1.68-.43,3.09,3.09,0,0,0,1.18-1.2,3.73,3.73,0,0,0,.42-1.79,3.68,3.68,0,0,0-.42-1.8,3.09,3.09,0,0,0-1.18-1.2,3.28,3.28,0,0,0-1.68-.43,3.22,3.22,0,0,0-1.67.43,3.07,3.07,0,0,0-1.17,1.2,3.58,3.58,0,0,0-.43,1.8,3.62,3.62,0,0,0,.43,1.79,3.07,3.07,0,0,0,1.17,1.2A3.22,3.22,0,0,0,529.3,398Z"/><path class="cls-3" d="M545.89,390.4a3.64,3.64,0,0,1,1.7.38,2.67,2.67,0,0,1,1.13,1.15,4.09,4.09,0,0,1,.41,1.91v4.75h-.78V393.9a2.91,2.91,0,0,0-.67-2.08,2.43,2.43,0,0,0-1.87-.72,3.06,3.06,0,0,0-1.58.39,2.58,2.58,0,0,0-1,1.09,3.65,3.65,0,0,0-.36,1.68v4.33h-.78V393.9a2.91,2.91,0,0,0-.67-2.08,2.42,2.42,0,0,0-1.87-.72,3.06,3.06,0,0,0-1.58.39,2.58,2.58,0,0,0-1,1.09,3.65,3.65,0,0,0-.36,1.68v4.33h-.78v-8.13h.75v2.25l-.11-.25a3,3,0,0,1,1.2-1.51,3.65,3.65,0,0,1,2-.55,3.35,3.35,0,0,1,2,.62,2.73,2.73,0,0,1,1.05,1.82l-.26-.1a3.11,3.11,0,0,1,1.23-1.69A3.66,3.66,0,0,1,545.89,390.4Z"/><line class="cls-1" x1="406.61" y1="483.5" x2="242.31" y2="483.5"/><path class="cls-2" d="M222.68,477.66l5-10.89h.8l5,10.89h-.86l-4.73-10.39h.35l-4.72,10.39Zm1.84-3.06.26-.67h6.53l.26.67Z"/><path class="cls-2" d="M239.38,477.66h-.79V466.77h7.28v.71h-6.49Zm-.09-5.52h5.9v.71h-5.9Z"/><path class="cls-2" d="M253.69,477.66V467.48h-3.93v-.71h8.64v.71h-3.92v10.18Z"/><path class="cls-2" d="M264.27,477H271v.71h-7.51V466.77h7.28v.71h-6.49Zm-.09-5.17h5.9v.7h-5.9Z"/><path class="cls-2" d="M277,477.66V466.77h3.91a5.8,5.8,0,0,1,2.35.43,3.36,3.36,0,0,1,1.51,1.26,3.57,3.57,0,0,1,.53,2,3.51,3.51,0,0,1-.53,1.95,3.45,3.45,0,0,1-1.51,1.27,5.8,5.8,0,0,1-2.35.44h-3.47l.36-.37v3.93Zm.8-3.89-.36-.37h3.47a4,4,0,0,0,2.67-.78,3.08,3.08,0,0,0,0-4.37,4.07,4.07,0,0,0-2.67-.77h-3.47l.36-.39Zm6.77,3.89-2.84-4h.91l2.83,4Z"/><path class="cls-2" d="M298.43,477.66V466.77h3.91a5.77,5.77,0,0,1,2.35.43,3.36,3.36,0,0,1,1.51,1.26,3.93,3.93,0,0,1,0,3.94,3.36,3.36,0,0,1-1.51,1.26,5.76,5.76,0,0,1-2.35.44h-3.47l.36-.37v3.93Zm.8-3.89-.36-.39h3.47a4,4,0,0,0,2.67-.77,2.66,2.66,0,0,0,.91-2.17,2.72,2.72,0,0,0-.91-2.19,4.07,4.07,0,0,0-2.67-.77h-3.47l.36-.39Z"/><path class="cls-2" d="M310.15,477.66l5-10.89h.8l5,10.89h-.86l-4.73-10.39h.35L311,477.66ZM312,474.6l.26-.67h6.53l.26.67Z"/><path class="cls-2" d="M326.06,477.66V466.77H330a5.8,5.8,0,0,1,2.35.43,3.42,3.42,0,0,1,1.51,1.26,3.56,3.56,0,0,1,.52,2,3.32,3.32,0,0,1-2,3.22,5.8,5.8,0,0,1-2.35.44H326.5l.35-.37v3.93Zm.79-3.89-.35-.37H330a4,4,0,0,0,2.67-.78,3.08,3.08,0,0,0,0-4.37,4.07,4.07,0,0,0-2.67-.77H326.5l.35-.39Zm6.77,3.89-2.83-4h.9l2.84,4Z"/><path class="cls-2" d="M342.31,477.66V467.48h-3.92v-.71H347v.71H343.1v10.18Z"/><path class="cls-2" d="M354.62,477.66v-4l.19.51-4.58-7.45h.87l4.16,6.77h-.44l4.16-6.77h.82l-4.57,7.45.18-.51v4Z"/><path class="cls-2" d="M365.27,477.73a.63.63,0,0,1-.46-.2.64.64,0,0,1-.18-.44.61.61,0,0,1,.18-.45.62.62,0,0,1,.46-.19.6.6,0,0,1,.46.19.58.58,0,0,1,.19.45.67.67,0,0,1-.65.64Zm-.3-3.19-.16-7.77h.91l-.16,7.77Z"/><path class="cls-3" d="M167.16,501.88V491.33l.36.37h-3V491H168v10.9Z"/><path class="cls-3" d="M175,502a3.82,3.82,0,0,1-2.21-.67,4.35,4.35,0,0,1-1.51-1.91,8.19,8.19,0,0,1,0-5.9,4.41,4.41,0,0,1,1.51-1.91,3.81,3.81,0,0,1,2.21-.66,3.77,3.77,0,0,1,2.21.66,4.55,4.55,0,0,1,1.51,1.91,8.33,8.33,0,0,1,0,5.9,4.49,4.49,0,0,1-1.51,1.91A3.78,3.78,0,0,1,175,502Zm0-.74a3,3,0,0,0,1.82-.56A3.67,3.67,0,0,0,178,499a7.81,7.81,0,0,0,0-5.17,3.61,3.61,0,0,0-1.21-1.63,3.19,3.19,0,0,0-3.64,0,3.63,3.63,0,0,0-1.22,1.63,8,8,0,0,0,0,5.17,3.69,3.69,0,0,0,1.22,1.65A3,3,0,0,0,175,501.22Z"/><path class="cls-3" d="M181.65,495a.63.63,0,0,1-.46-.19.65.65,0,0,1-.19-.48.6.6,0,0,1,.19-.46.63.63,0,0,1,.46-.19.62.62,0,0,1,.46.19.61.61,0,0,1,.2.46.66.66,0,0,1-.2.48A.62.62,0,0,1,181.65,495Zm0,6.93a.63.63,0,0,1-.46-.19.65.65,0,0,1-.19-.48.63.63,0,0,1,.19-.47.67.67,0,0,1,.46-.18.65.65,0,0,1,.46.18.63.63,0,0,1,.2.47.66.66,0,0,1-.2.48A.62.62,0,0,1,181.65,501.94Z"/><path class="cls-3" d="M192.33,502a3.82,3.82,0,0,1-2.21-.67,4.42,4.42,0,0,1-1.51-1.91,8.33,8.33,0,0,1,0-5.9,4.48,4.48,0,0,1,1.51-1.91,4,4,0,0,1,4.43,0,4.46,4.46,0,0,1,1.5,1.91,8.19,8.19,0,0,1,0,5.9,4.4,4.4,0,0,1-1.5,1.91A3.83,3.83,0,0,1,192.33,502Zm0-.74a3,3,0,0,0,1.82-.56,3.69,3.69,0,0,0,1.22-1.65,8,8,0,0,0,0-5.17,3.63,3.63,0,0,0-1.22-1.63,3.17,3.17,0,0,0-3.63,0,3.56,3.56,0,0,0-1.22,1.63,7.81,7.81,0,0,0,0,5.17,3.62,3.62,0,0,0,1.22,1.65A3,3,0,0,0,192.33,501.22Z"/><path class="cls-3" d="M202.57,502a3.82,3.82,0,0,1-2.21-.67,4.42,4.42,0,0,1-1.51-1.91,8.33,8.33,0,0,1,0-5.9,4.48,4.48,0,0,1,1.51-1.91,4,4,0,0,1,4.43,0,4.46,4.46,0,0,1,1.5,1.91,8.19,8.19,0,0,1,0,5.9,4.4,4.4,0,0,1-1.5,1.91A3.83,3.83,0,0,1,202.57,502Zm0-.74a3,3,0,0,0,1.82-.56,3.69,3.69,0,0,0,1.22-1.65,8,8,0,0,0,0-5.17,3.63,3.63,0,0,0-1.22-1.63,3.17,3.17,0,0,0-3.63,0,3.56,3.56,0,0,0-1.22,1.63,7.81,7.81,0,0,0,0,5.17,3.62,3.62,0,0,0,1.22,1.65A3,3,0,0,0,202.57,501.22Z"/><path class="cls-3" d="M213.34,504.9V493.75h.75v2.67l-.13,1.41.16,1.42v5.65Zm4.08-3a3.84,3.84,0,0,1-1.94-.5,3.6,3.6,0,0,1-1.37-1.42,5.11,5.11,0,0,1,0-4.41,3.67,3.67,0,0,1,1.37-1.42,3.84,3.84,0,0,1,1.94-.5,4.12,4.12,0,0,1,2.06.52,3.65,3.65,0,0,1,1.43,1.46,4.61,4.61,0,0,1,0,4.29,3.65,3.65,0,0,1-1.43,1.46A4,4,0,0,1,217.42,501.94Zm0-.7a3.23,3.23,0,0,0,1.68-.43,3,3,0,0,0,1.18-1.2,3.73,3.73,0,0,0,.43-1.79,3.69,3.69,0,0,0-.43-1.8,3.09,3.09,0,0,0-1.18-1.2,3.48,3.48,0,0,0-3.35,0,3.14,3.14,0,0,0-1.17,1.2,3.69,3.69,0,0,0-.43,1.8,3.73,3.73,0,0,0,.43,1.79,3.07,3.07,0,0,0,1.17,1.2A3.22,3.22,0,0,0,217.37,501.24Z"/><path class="cls-3" d="M234,493.69a3.66,3.66,0,0,1,1.71.38,2.73,2.73,0,0,1,1.13,1.15,4.09,4.09,0,0,1,.4,1.91v4.75h-.78v-4.69a2.91,2.91,0,0,0-.67-2.08,2.4,2.4,0,0,0-1.86-.72,3.1,3.1,0,0,0-1.59.39,2.58,2.58,0,0,0-1,1.09,3.65,3.65,0,0,0-.36,1.68v4.33h-.77v-4.69a3,3,0,0,0-.67-2.08,2.43,2.43,0,0,0-1.87-.72,3.12,3.12,0,0,0-1.59.39,2.58,2.58,0,0,0-1,1.09,3.79,3.79,0,0,0-.35,1.68v4.33h-.78v-8.13h.74V496l-.1-.25a3,3,0,0,1,1.19-1.51,3.69,3.69,0,0,1,2-.55,3.32,3.32,0,0,1,2,.62,2.73,2.73,0,0,1,1.05,1.82l-.26-.1a3.21,3.21,0,0,1,1.23-1.69A3.66,3.66,0,0,1,234,493.69Z"/><path class="cls-3" d="M246.6,501.94a3.91,3.91,0,0,1-1.56-.29,2.18,2.18,0,0,1-1-.82,2.07,2.07,0,0,1-.35-1.21,2.28,2.28,0,0,1,.28-1.13,2.19,2.19,0,0,1,1-.82,4.25,4.25,0,0,1,1.79-.32h3V498h-3a2.63,2.63,0,0,0-1.77.46,1.52,1.52,0,0,0-.51,1.17,1.49,1.49,0,0,0,.6,1.24,2.56,2.56,0,0,0,1.66.47,3,3,0,0,0,1.74-.47,2.76,2.76,0,0,0,1.05-1.35l.21.53a2.76,2.76,0,0,1-1.11,1.41A3.52,3.52,0,0,1,246.6,501.94Zm2.93-.06V500l0-.28V496.7a2.28,2.28,0,0,0-.62-1.73,2.47,2.47,0,0,0-1.8-.59,4.2,4.2,0,0,0-1.56.28,4.58,4.58,0,0,0-1.24.74l-.39-.56a4.41,4.41,0,0,1,1.47-.84,5.11,5.11,0,0,1,1.79-.31,3.31,3.31,0,0,1,2.32.76,3,3,0,0,1,.81,2.28v5.15Z"/><path class="cls-3" d="M256.47,501.88v-.56l4.61-4.58a8.52,8.52,0,0,0,1-1.14,3.57,3.57,0,0,0,.44-.91,3,3,0,0,0,.12-.83,2,2,0,0,0-.7-1.62,3.09,3.09,0,0,0-2.06-.6,4.78,4.78,0,0,0-1.8.31,3.55,3.55,0,0,0-1.33.95l-.56-.5a4.19,4.19,0,0,1,1.58-1.11,6,6,0,0,1,2.17-.38,4.58,4.58,0,0,1,1.86.34,2.83,2.83,0,0,1,1.22,1,2.75,2.75,0,0,1,.43,1.53,3.63,3.63,0,0,1-.15,1,4.08,4.08,0,0,1-.53,1.07,9.16,9.16,0,0,1-1.1,1.27l-4.32,4.31-.27-.31H264v.72Z"/><path class="cls-3" d="M266.15,495a.62.62,0,0,1-.46-.19.65.65,0,0,1-.19-.48.6.6,0,0,1,.19-.46.65.65,0,0,1,.92,0,.6.6,0,0,1,.19.46.65.65,0,0,1-.19.48A.62.62,0,0,1,266.15,495Zm0,6.93a.62.62,0,0,1-.46-.19.65.65,0,0,1-.19-.48.63.63,0,0,1,.19-.47.68.68,0,0,1,.92,0,.63.63,0,0,1,.19.47.65.65,0,0,1-.19.48A.62.62,0,0,1,266.15,501.94Z"/><path class="cls-3" d="M275.75,502a6.05,6.05,0,0,1-2.23-.41,4,4,0,0,1-1.61-1.06l.4-.6a3.84,3.84,0,0,0,1.41.95,5.14,5.14,0,0,0,2,.38,3.36,3.36,0,0,0,2.24-.65,2.39,2.39,0,0,0,0-3.51,3.67,3.67,0,0,0-2.41-.66h-.68v-.58l3.47-4.43.11.31h-6.17V491h6.84v.56L275.69,496l-.34-.25h.34a4.27,4.27,0,0,1,2.91.86,2.84,2.84,0,0,1,1,2.22,3.16,3.16,0,0,1-.43,1.62,2.88,2.88,0,0,1-1.28,1.12A4.87,4.87,0,0,1,275.75,502Z"/><path class="cls-3" d="M285.51,502a3.84,3.84,0,0,1-2.21-.67,4.49,4.49,0,0,1-1.51-1.91,8.33,8.33,0,0,1,0-5.9,4.55,4.55,0,0,1,1.51-1.91,4,4,0,0,1,4.43,0,4.46,4.46,0,0,1,1.5,1.91,8.19,8.19,0,0,1,0,5.9,4.4,4.4,0,0,1-1.5,1.91A3.83,3.83,0,0,1,285.51,502Zm0-.74a3,3,0,0,0,1.82-.56,3.69,3.69,0,0,0,1.22-1.65,8,8,0,0,0,0-5.17,3.63,3.63,0,0,0-1.22-1.63,3.17,3.17,0,0,0-3.63,0,3.56,3.56,0,0,0-1.22,1.63,7.81,7.81,0,0,0,0,5.17,3.62,3.62,0,0,0,1.22,1.65A3,3,0,0,0,285.51,501.22Z"/><path class="cls-3" d="M298.48,501.94a4,4,0,0,1-1.57-.29,2.18,2.18,0,0,1-1-.82,2.15,2.15,0,0,1-.35-1.21,2.29,2.29,0,0,1,.29-1.13,2.08,2.08,0,0,1,1-.82,4.22,4.22,0,0,1,1.79-.32h3V498h-3a2.63,2.63,0,0,0-1.77.46,1.54,1.54,0,0,0-.5,1.17,1.5,1.5,0,0,0,.59,1.24,2.58,2.58,0,0,0,1.67.47,3,3,0,0,0,1.73-.47,2.76,2.76,0,0,0,1.05-1.35l.22.53a2.87,2.87,0,0,1-1.11,1.41A3.54,3.54,0,0,1,298.48,501.94Zm2.92-.06V500l0-.28V496.7a2.28,2.28,0,0,0-.61-1.73,2.47,2.47,0,0,0-1.8-.59,4.2,4.2,0,0,0-1.56.28,4.29,4.29,0,0,0-1.24.74l-.39-.56a4.27,4.27,0,0,1,1.46-.84,5.15,5.15,0,0,1,1.79-.31,3.29,3.29,0,0,1,2.32.76,3,3,0,0,1,.81,2.28v5.15Z"/><path class="cls-3" d="M315.47,493.69a3.69,3.69,0,0,1,1.71.38,2.73,2.73,0,0,1,1.13,1.15,4.09,4.09,0,0,1,.4,1.91v4.75h-.78v-4.69a2.91,2.91,0,0,0-.67-2.08,2.41,2.41,0,0,0-1.86-.72,3.07,3.07,0,0,0-1.59.39,2.58,2.58,0,0,0-1,1.09,3.65,3.65,0,0,0-.36,1.68v4.33h-.78v-4.69a2.91,2.91,0,0,0-.67-2.08,2.4,2.4,0,0,0-1.86-.72,3.1,3.1,0,0,0-1.59.39,2.58,2.58,0,0,0-1,1.09,3.65,3.65,0,0,0-.36,1.68v4.33h-.77v-8.13h.74V496l-.11-.25a3,3,0,0,1,1.2-1.51,3.69,3.69,0,0,1,2-.55,3.34,3.34,0,0,1,2,.62,2.73,2.73,0,0,1,1.05,1.82l-.26-.1a3.21,3.21,0,0,1,1.23-1.69A3.66,3.66,0,0,1,315.47,493.69Z"/><path class="cls-9" d="M441.36,484.41a4.48,4.48,0,0,1,.43,1.19,2.55,2.55,0,0,1-2.92,2.84,2.16,2.16,0,0,1-1.5-2.05,2.73,2.73,0,0,1,1.35-2.62,3.53,3.53,0,0,0-1.57-.55,3.6,3.6,0,0,0-2.21.57c-.22.13-.23.22-.09.43a11.73,11.73,0,0,1,1.63,3.09,4,4,0,0,1,.2,1.13,1.58,1.58,0,0,1-1,1.59l-15.27,6.76-4.18,1.85a3.4,3.4,0,0,1-4.8-2.52,3.48,3.48,0,0,1,.3-2.08q4.28-9.6,8.51-19.21a1.7,1.7,0,0,1,2.17-1.13,9.5,9.5,0,0,1,3.47,1.61,33,33,0,0,1,5.71,4.91c.22.23.35.25.62.07a11.44,11.44,0,0,1,6.27-1.9c.49,0,.76.23.76.65s-.28.65-.77.65A10.44,10.44,0,0,0,433,481.3c-.27.16-.25.26-.06.46a12.65,12.65,0,0,1,.8,1c.11.13.18.16.34.05a4.82,4.82,0,0,1,5.9.25.63.63,0,0,0,.52.13,8.46,8.46,0,0,1,4.55.66.63.63,0,0,1,.42.85.65.65,0,0,1-.91.35,8.28,8.28,0,0,0-2.63-.62C441.76,484.4,441.58,484.41,441.36,484.41Zm-20.53,10.72a11.59,11.59,0,0,1-4.39-3.55c-.39-.5-.41-.86-.06-1.13s.68-.18,1.1.35a9.64,9.64,0,0,0,4.25,3.26,2,2,0,0,0,1.79-.07,12.4,12.4,0,0,1,1.29-.58l.87-.39.88-.4a22,22,0,0,1-7.42-6.5.68.68,0,0,1,.07-1,.67.67,0,0,1,1,.25,22.44,22.44,0,0,0,3.79,4,12.69,12.69,0,0,0,3.82,2.33,1,1,0,0,0,1-.07,2.75,2.75,0,0,0-.57-.28,22.46,22.46,0,0,1-8.11-7.29.64.64,0,0,1,.15-.94.65.65,0,0,1,1,.26,22.81,22.81,0,0,0,4.76,5,11.62,11.62,0,0,0,4.09,2.25,1.25,1.25,0,0,0,.78.1c.78-.31,1.55-.67,2.29-1a33.37,33.37,0,0,1-12.53-12.54l-1,2.28a.77.77,0,0,0,0,.45,7,7,0,0,0,.49,1.48.65.65,0,1,1-1.2.52c-.06-.12-.07-.27-.18-.34a.86.86,0,0,0-.09,1c.13.36.29.7.45,1.05a.65.65,0,0,1-.29.88.63.63,0,0,1-.87-.3c-.07-.12-.13-.25-.21-.39-.36.8-.66,1.61-1.06,2.36a3,3,0,0,0-.22,3,.57.57,0,0,1-.3.78.63.63,0,0,1-.82-.18c-.05-.05-.06-.14-.14-.15-.31.62-.31.62,0,1.23.08.17.19.33.28.49a.67.67,0,0,1-.19.94.65.65,0,0,1-.9-.23c-.06-.08-.07-.2-.2-.21-.45,1-.92,2-1.35,3.08a2,2,0,0,0,.47,2.21,1.92,1.92,0,0,0,2.18.5c1.07-.41,2.09-.91,3.18-1.38l-.35-.24a14.42,14.42,0,0,1-2.75-2.42.67.67,0,0,1-.15-.71.61.61,0,0,1,.51-.41.77.77,0,0,1,.69.33,11.89,11.89,0,0,0,3,2.47A1,1,0,0,0,420.83,495.13Zm5.31-17.43a1.28,1.28,0,0,0-1.43,1.27,4.44,4.44,0,0,0,.78,2.47,12.19,12.19,0,0,0,2.31,2.7,25.48,25.48,0,0,0,5.34,4,5.37,5.37,0,0,0,1.56.6c.67.12.79,0,.65-.66a.24.24,0,0,1,0-.08,8.82,8.82,0,0,0-1.23-2.57c-.37-.59-.38-.59-.82-.07a.66.66,0,0,1-.92.14.64.64,0,0,1-.12-.92,5.56,5.56,0,0,1,.53-.65c.12-.13.14-.21,0-.35-.33-.38-.64-.76-1-1.15-.12-.16-.19-.14-.33,0a11.84,11.84,0,0,0-1.31,1.34.67.67,0,0,1-1,.19.68.68,0,0,1,0-1,11.44,11.44,0,0,1,1.41-1.46c.13-.11.2-.18,0-.35a36,36,0,0,0-2.83-2.69A3.11,3.11,0,0,0,426.14,477.7Zm12.52,8.4c0,.6.22,1,.57,1.09a1.21,1.21,0,0,0,1.13-.69,1.59,1.59,0,0,0-.41-1.77.23.23,0,0,0-.18,0A1.58,1.58,0,0,0,438.66,486.1Z"/><path class="cls-9" d="M421.4,467.6a1,1,0,0,0-.06,1.13,2.38,2.38,0,0,0,1.21,1,2.76,2.76,0,0,1,1.66,2,4.25,4.25,0,0,1,.11,1.06.64.64,0,0,1-.65.66.63.63,0,0,1-.65-.65c0-.23,0-.46-.06-.69a1.36,1.36,0,0,0-.74-1.12,8.37,8.37,0,0,1-1.22-.73,2.54,2.54,0,0,1-.89-3.11,1.59,1.59,0,0,1,.42-.59.94.94,0,0,0,.34-.93,3.11,3.11,0,0,1,1.44-2.94.69.69,0,0,1,1,.13.66.66,0,0,1-.31,1,1.91,1.91,0,0,0-.84,1.47c0,.27.06.34.31.27a2.93,2.93,0,0,1,1.25,0,1.55,1.55,0,0,1,1.39,1.53,1.68,1.68,0,0,1-1.53,1.51A2.07,2.07,0,0,1,421.4,467.6Zm1.14-.69a.8.8,0,0,0,1.07.31c.09,0,.2-.08.19-.2s-.13-.16-.22-.18A2,2,0,0,0,422.54,466.91Z"/><path class="cls-9" d="M417.62,466.81a2.59,2.59,0,0,1-2.8.85,1.66,1.66,0,0,1-1.2-1.74,1.85,1.85,0,0,1,1.62-1.71,3.71,3.71,0,0,1,1.54.24,1.8,1.8,0,0,0-1.48-1.31l-.41-.08a.64.64,0,0,1-.51-.74.68.68,0,0,1,.73-.54,3.25,3.25,0,0,1,3.09,3.35.42.42,0,0,0,.08.32,4.28,4.28,0,0,1,.71,3.83c0,.15-.07.3-.11.44a.65.65,0,0,1-.83.47.63.63,0,0,1-.42-.85,5.15,5.15,0,0,0,.2-1.66A2.57,2.57,0,0,0,417.62,466.81Zm-.95-1a2.73,2.73,0,0,0-1.24-.33.5.5,0,0,0-.5.53c0,.28.18.39.44.43A1.21,1.21,0,0,0,416.67,465.83Z"/><path class="cls-9" d="M449.45,487.74a1.85,1.85,0,0,0-1.86-.34c-.17.05-.33.14-.5.19a.66.66,0,0,1-.81-.34.64.64,0,0,1,.3-.85,3.2,3.2,0,0,1,4.35,1.12.91.91,0,0,0,.45.37,4.25,4.25,0,0,1,2.46,2.8,2.76,2.76,0,0,1,.16.51.67.67,0,0,1-.52.81.65.65,0,0,1-.75-.5,4.58,4.58,0,0,0-.43-1.1,2.75,2.75,0,0,0-.87-1c-.13,0-.09.14-.11.22a2.62,2.62,0,0,1-2,2,1.7,1.7,0,0,1-1.87-1.18,1.84,1.84,0,0,1,.77-2.17A6.2,6.2,0,0,1,449.45,487.74Zm-.83,2c0,.39.26.58.58.48a1.3,1.3,0,0,0,.87-1.07c0-.11,0-.2-.15-.17a3,3,0,0,0-1.05.32A.44.44,0,0,0,448.62,489.78Z"/><path class="cls-9" d="M434.06,475.45c-1.1-1.17-1.31-2.06-.65-2.87a2,2,0,0,1,2.65-.41,2,2,0,0,1,.84,2.76,2.81,2.81,0,0,0,2.33-1.51c.17-.31.39-.52.76-.44a.65.65,0,0,1,.42,1,4.08,4.08,0,0,1-4.2,2.23,1.58,1.58,0,0,0-1.18.22,11,11,0,0,1-2.16.95.68.68,0,0,1-.94-.37c-.12-.39.06-.71.52-.87A10.78,10.78,0,0,0,434.06,475.45Zm.89-2.29a.53.53,0,0,0-.6.46c0,.33.67,1,1,1s.57-.52.57-.72S435.35,473.16,435,473.16Z"/><path class="cls-9" d="M434,465.17a1.52,1.52,0,0,0,.21-1.43,4,4,0,0,0-.34-.8.65.65,0,0,1,.24-.9.66.66,0,0,1,.89.26c.79,1.34.95,3.11-.48,4.16-.11.09-.1.18-.09.3a5.16,5.16,0,0,1-1,3.34.65.65,0,0,1-1.18-.13.73.73,0,0,1,.13-.65,4,4,0,0,0,.7-1.88c0-.23,0-.29-.27-.23a2.52,2.52,0,0,1-1.25.1,1.67,1.67,0,0,1-1.37-2.22,1.92,1.92,0,0,1,1.34-1.53,1.88,1.88,0,0,1,1.87.78A3.89,3.89,0,0,1,434,465.17Zm-1.13.69a2.39,2.39,0,0,0-.63-.88c-.25-.21-.44-.22-.6.1a1.18,1.18,0,0,0-.16.42c-.05.39.07.54.47.55A3.08,3.08,0,0,0,432.84,465.86Z"/><path class="cls-9" d="M430.55,472.14a10.68,10.68,0,0,1-1,4.19c-.21.48-.55.65-.93.49s-.48-.53-.27-1a9.32,9.32,0,0,0,.9-4.25,6.79,6.79,0,0,0-1-3.37.65.65,0,1,1,1.1-.68A8.36,8.36,0,0,1,430.55,472.14Z"/><path class="cls-9" d="M437.75,470.42a.62.62,0,0,1-.57-.38.66.66,0,0,1,.14-.74,11,11,0,0,1,1.81-1.59,12.27,12.27,0,0,1,4.76-2.13.65.65,0,0,1,.84.44.63.63,0,0,1-.55.81,11.61,11.61,0,0,0-5.23,2.7c-.25.22-.48.46-.71.69A.64.64,0,0,1,437.75,470.42Z"/><path class="cls-9" d="M442.93,480.41a16.79,16.79,0,0,1,5.12.74l.33.11a.63.63,0,0,1,.36.82.63.63,0,0,1-.8.4,15.87,15.87,0,0,0-3.13-.67,15.65,15.65,0,0,0-2.82-.1c-.49,0-.81-.16-.86-.55s.23-.71.73-.74C442.21,480.39,442.57,480.41,442.93,480.41Z"/><path class="cls-9" d="M442.19,472c.16-.56.29-1.19.5-1.8a.56.56,0,0,1,.73-.33c.53.13,1.06.26,1.58.41a.62.62,0,0,1,.5.83c-.12.53-.25,1.06-.4,1.58a.63.63,0,0,1-.79.48l-1.62-.42A.67.67,0,0,1,442.19,472Z"/><path class="cls-9" d="M417,470a.79.79,0,0,1-.13.38c-.23.36-.46.73-.7,1.09a.63.63,0,0,1-.93.2c-.38-.22-.74-.46-1.1-.7a.65.65,0,0,1-.21-1c.22-.36.45-.71.68-1.06a.65.65,0,0,1,1-.21c.36.22.71.45,1.06.68A.68.68,0,0,1,417,470Z"/><path class="cls-9" d="M443.41,476.26c.37,0,.74,0,1.11.08a.63.63,0,0,1,.62.64q0,.63-.09,1.26a.65.65,0,0,1-.71.59l-1-.07a.7.7,0,0,1-.72-.83c0-.33.05-.66.07-1A.68.68,0,0,1,443.41,476.26Z"/><path class="cls-9" d="M443.91,488.74a4.79,4.79,0,0,1,1.45.69.55.55,0,0,1,.12.7c-.15.36-.31.72-.48,1.07a.63.63,0,0,1-.86.33c-.37-.15-.72-.31-1.08-.49a.63.63,0,0,1-.32-.89c.15-.33.3-.67.46-1A.64.64,0,0,1,443.91,488.74Z"/><path class="cls-9" d="M452.84,479.5a.76.76,0,0,1-.32.62c-.31.19-.61.37-.93.54a.62.62,0,0,1-.86-.23c-.2-.3-.37-.61-.54-.92a.63.63,0,0,1,.24-.87c.3-.19.61-.36.92-.53a.54.54,0,0,1,.62,0A4.1,4.1,0,0,1,452.84,479.5Z"/><path class="cls-9" d="M439.07,494.36c-.31,0-.51-.05-.61-.22a9.07,9.07,0,0,1-.63-1.09.58.58,0,0,1,.28-.78c.29-.19.59-.36.89-.52a.62.62,0,0,1,.87.22c.2.31.38.63.56,1a.52.52,0,0,1,0,.61A4,4,0,0,1,439.07,494.36Z"/><path class="cls-9" d="M427.69,464.42a.72.72,0,0,1-.38.63l-.9.42a.63.63,0,0,1-.87-.31c-.15-.3-.3-.6-.42-.9a.64.64,0,0,1,.32-.87l.94-.43a.54.54,0,0,1,.64.11A4.73,4.73,0,0,1,427.69,464.42Z"/><path class="cls-9" d="M425.87,459.11c0,.6-.15.86-.58.93a7.5,7.5,0,0,1-.94.1.61.61,0,0,1-.73-.56,7.09,7.09,0,0,1-.12-1,.59.59,0,0,1,.53-.68,6.72,6.72,0,0,1,1.1-.11.63.63,0,0,1,.65.57s0,.05,0,.08C425.82,458.69,425.85,459,425.87,459.11Z"/><path class="cls-9" d="M439.11,464.11c0,.36-.8,1-1.25,1s-1-.8-1-1.25.8-1,1.25-1S439.1,463.66,439.11,464.11Z"/><path class="cls-9" d="M450.31,466.56c-.19.45-.37.92-.58,1.38-.06.13-.21.12-.34.07l-1.17-.46a.3.3,0,0,1-.19-.43c.15-.39.31-.78.47-1.16.07-.18.2-.27.39-.19l1.2.48A.32.32,0,0,1,450.31,466.56Z"/><path class="cls-10" d="M422.54,466.91a2,2,0,0,1,1-.07c.09,0,.21.05.22.18s-.1.16-.19.2A.8.8,0,0,1,422.54,466.91Z"/><path class="cls-10" d="M416.67,465.83a1.21,1.21,0,0,1-1.3.63c-.26,0-.45-.15-.44-.43a.5.5,0,0,1,.5-.53A2.73,2.73,0,0,1,416.67,465.83Z"/><path class="cls-10" d="M435,473.16c.4,0,.95.45.95.76s-.4.71-.57.72-1-.69-1-1A.53.53,0,0,1,435,473.16Z"/><path class="cls-10" d="M432.84,465.86a3.08,3.08,0,0,1-.92.19c-.4,0-.52-.16-.47-.55a1.18,1.18,0,0,1,.16-.42c.16-.32.35-.31.6-.1A2.39,2.39,0,0,1,432.84,465.86Z"/><path class="cls-11" d="M426.09,282.69l-1.39.55c-.27.1-.52.12-.66-.18s0-.52.32-.63c.6-.24,1.2-.49,1.81-.71.26-.09.45-.21.5-.5s.15-.44.42-.47a.42.42,0,0,1,.48.33c.05.21.17.11.27.08a24.87,24.87,0,0,1,2.67-.68.38.38,0,0,0,.33-.37,5.55,5.55,0,0,1,.13-.71.42.42,0,0,1,.5-.36.45.45,0,0,1,.36.55c-.07.61-.07.61.52.54a18.12,18.12,0,0,1,2.44-.21c.28,0,.37-.09.35-.37s0-.61,0-.91.12-.51.44-.52.45.22.45.52,0,.63,0,.95.05.32.3.33a17,17,0,0,1,2.93.29c.29.05.39,0,.31-.32a.9.9,0,0,1-.06-.22c-.06-.31,0-.57.35-.63a.42.42,0,0,1,.51.45c0,.87.47,1.08,1.2,1.2a19.13,19.13,0,0,1,2.16.57c0-.24.09-.5.42-.51s.45.23.51.48a.69.69,0,0,0,.55.56c.54.19,1.07.41,1.59.63.28.12.49.29.34.62s-.4.3-.69.18l-1.32-.53c.24.92.47,1.79.69,2.65.05.18.21.16.32.2l1.09.28a.41.41,0,0,1,.34.54c-.06.27-.27.34-.53.3a4.57,4.57,0,0,1-.61-.16c-.33-.12-.35,0-.29.3.22,1,.4,2,.54,3,0,.15,0,.33.26.36l2.93.44c.09-.14,0-.22,0-.32a.44.44,0,0,1,.36-.5.36.36,0,0,1,.48.31c0,.77.54.8,1.09.86.3,0,.55.2.48.54s-.33.4-.64.34l-.26-.07c-.19,0-.31,0-.27.24a19.58,19.58,0,0,1,.3,3.06c0,.22.11.25.29.24h1c.3,0,.51.14.5.45a.44.44,0,0,1-.48.44h-1c-.24,0-.31.08-.31.31a16.29,16.29,0,0,1-.28,2.79c0,.23,0,.35.27.28l.36-.08a.44.44,0,0,1,.52.34c.07.26-.1.42-.33.52a.08.08,0,0,1-.08,0c-.84-.06-1.07.45-1.19,1.16s-.33,1.29-.51,1.92c0,.16-.1.27.13.33a.38.38,0,0,1,.28.42.42.42,0,0,1-.36.42c-.4.07-.55.31-.66.68s-.4,1-.6,1.51c-.12.3-.25.64-.67.47s-.25-.53-.13-.84.34-.83.53-1.32l-2.64.69c-.09,0-.17,0-.19.16-.21.86-.43,1.71-.67,2.64l1.32-.53c.27-.12.51-.1.64.19s0,.49-.29.6c-.54.23-1.08.46-1.64.66a.59.59,0,0,0-.48.51,2.41,2.41,0,0,1-.16.42.39.39,0,0,1-.43.26.4.4,0,0,1-.38-.38,2.62,2.62,0,0,1,0-.29c-1,.28-2,.58-3,.78-.21,0-.21.2-.24.33-.06.28-.09.57-.15.85s-.21.45-.51.4-.4-.27-.36-.57.23-.54.05-.72-.46,0-.69.07c-.84.11-1.69.19-2.53.23-.24,0-.31.08-.3.32s0,.66,0,1a.44.44,0,1,1-.88,0c0-.35,0-.7,0-1.05,0-.17,0-.28-.23-.29a26,26,0,0,1-3.24-.34c.06.28.1.51.15.74s0,.52-.34.58A.4.4,0,0,1,431,312c0-.92-.48-1.27-1.32-1.35a5.36,5.36,0,0,1-1-.26l-1-.27c-.07,0-.06.09-.06.15a.44.44,0,0,1-.41.46.4.4,0,0,1-.46-.36c-.07-.58-.47-.76-1-.91s-.95-.38-1.42-.58c-.27-.11-.43-.3-.29-.6s.37-.31.65-.19c.46.2.94.38,1.46.59-.23-.93-.45-1.8-.67-2.67a.25.25,0,0,0-.15-.15l-2.68-.68c.22.53.4,1,.6,1.47.12.28.09.51-.2.64s-.49,0-.6-.29a17.28,17.28,0,0,1-.65-1.63.87.87,0,0,0-.71-.71.62.62,0,0,1-.26-.09.42.42,0,0,1-.23-.41.38.38,0,0,1,.33-.38c.39,0,.27-.18.21-.38a23.48,23.48,0,0,1-.64-2.5.4.4,0,0,0-.4-.38c-.26,0-.51-.08-.76-.13s-.49-.22-.42-.53.28-.41.59-.34l.74.14a24.72,24.72,0,0,1-.35-3.27c0-.22-.15-.19-.28-.19h-1c-.31,0-.54-.12-.52-.48s.24-.42.54-.41h.18c1.06,0,1.06,0,1.1-1a13.65,13.65,0,0,1,.25-2.11c.08-.37,0-.49-.39-.38a2.14,2.14,0,0,1-.44.08.42.42,0,0,1-.47-.34.39.39,0,0,1,.29-.49,2.23,2.23,0,0,1,.67-.14c.45,0,.65-.21.72-.66a24.9,24.9,0,0,1,.68-2.57c-.08-.1-.17-.05-.25-.06a.4.4,0,0,1-.41-.36.35.35,0,0,1,.27-.45c.78-.1,1-.69,1.17-1.3a9.55,9.55,0,0,1,.41-1c.11-.24.28-.41.57-.29a.42.42,0,0,1,.23.63c-.18.42-.34.84-.52,1.27.23.11.4,0,.57-.07s.53-.15.79-.22c.46-.13,1-.08,1.35-.41s.27-.87.39-1.32.21-.85.32-1.27l0-.09Zm9.05,10c0-.76,0-1.52,0-2.27,0-.21,0-.35-.28-.33-1.38.07-2.75.14-4.13.19-.31,0-.41.16-.41.45s0,.72-.06,1.08-.17.51-.49.47-.4-.23-.38-.52,0-.67.07-1,0-.38-.31-.35c-1.18.14-2.37.26-3.56.39-.18,0-.26.11-.27.29-.13,1.28-.26,2.55-.29,3.84,0,.27.09.33.33.32.4,0,.79,0,1.18,0s.51.12.52.44-.22.44-.51.45a6,6,0,0,1-.95,0c-.44,0-.6.06-.57.55.07,1.16.15,2.32.28,3.48,0,.15.05.25.23.26l3.65.39c.22,0,.29,0,.26-.26s0-.67-.06-1a.41.41,0,0,1,.4-.46.38.38,0,0,1,.45.39c0,.35.07.69.07,1s.1.43.42.44l4.08.19c.24,0,.34,0,.33-.31,0-1.47,0-2.94,0-4.4,0-.24-.07-.31-.3-.3h-2.09c-.33,0-.6-.11-.58-.47s.26-.43.58-.42c.7,0,1.39,0,2.09,0,.23,0,.31-.06.3-.3C435.13,294.23,435.14,293.47,435.14,292.72Zm3.46,2.56h2.27c.2,0,.33,0,.32-.28-.08-1.43-.09-2.87-.22-4.3,0-.28-.11-.34-.37-.37-1.43-.12-2.87-.14-4.3-.21-.24,0-.28.08-.28.29,0,1.52,0,3,0,4.58,0,.25.08.3.31.3C437.08,295.27,437.84,295.28,438.6,295.28Zm0,.89h-2.26c-.22,0-.32,0-.32.28q0,2.22,0,4.44c0,.2,0,.31.27.29,1.44-.08,2.89-.14,4.34-.21.24,0,.33-.1.35-.35.12-1.4.14-2.8.2-4.21,0-.27-.14-.24-.31-.24Zm-2.57,8c0,.6,0,1.21,0,1.81,0,.26.07.33.33.33,1.1,0,2.2-.11,3.29-.25.76-.1.78-.11.88-.87.13-1,.22-2,.33-3.06,0-.21,0-.3-.25-.27-1.41.15-2.84.17-4.26.21-.25,0-.33.08-.32.33C436,303,436,303.55,436,304.14Zm0-17c0,.61,0,1.23,0,1.85,0,.19,0,.31.26.31,1.43,0,2.87.06,4.29.2.21,0,.31,0,.28-.27-.14-1.19-.27-2.39-.4-3.59a.31.31,0,0,0-.32-.31c-1.28-.13-2.55-.23-3.83-.29-.23,0-.28.07-.28.28C436,285.9,436,286.5,436,287.11Zm8.13,8.17c.62,0,1.24,0,1.86,0,.22,0,.28-.06.27-.28-.06-1.27-.15-2.53-.29-3.79a.36.36,0,0,0-.35-.38c-1.16-.12-2.31-.24-3.46-.38-.34,0-.37.11-.35.37A37.75,37.75,0,0,1,442,295c0,.3.11.34.37.34C443,295.27,443.57,295.28,444.16,295.28Zm-9,8.87c0-.59,0-1.18,0-1.76,0-.24,0-.35-.31-.35-1.39,0-2.78-.06-4.17-.2-.17,0-.23,0-.21.22.14,1.23.27,2.46.4,3.69a.24.24,0,0,0,.25.25c1.23.12,2.46.24,3.7.28.3,0,.35-.09.34-.36C435.12,305.33,435.14,304.74,435.14,304.15Zm0-17c0-.62,0-1.24,0-1.86,0-.19,0-.27-.25-.26-1.25.05-2.5.15-3.75.28a.28.28,0,0,0-.28.29c-.13,1.2-.25,2.4-.39,3.6,0,.22,0,.29.26.27a36.84,36.84,0,0,1,4.07-.18c.3,0,.35-.11.34-.37C435.12,288.32,435.14,287.73,435.14,287.14Zm9,9h-1.82c-.23,0-.31.05-.31.3a39.46,39.46,0,0,1-.18,4.07c0,.24,0,.32.28.29l3.6-.39a.28.28,0,0,0,.28-.29c.13-1.23.22-2.47.28-3.71,0-.22-.06-.28-.27-.27Zm-14.24,9.31-.35-3.54c0-.15-.1-.2-.24-.21-1.19-.12-2.38-.24-3.56-.38-.28,0-.31.09-.26.3.2,1.07.41,2.13.61,3.2,0,.18.08.3.29.33l3.28.62C429.87,305.84,430,305.82,429.92,305.48Zm-4.1-15.56,3.54-.36c.15,0,.21-.07.22-.22.12-1.2.25-2.4.38-3.6,0-.24,0-.29-.26-.24-1.05.21-2.1.41-3.15.59a.44.44,0,0,0-.42.43c-.19,1-.38,2.08-.59,3.11C425.48,289.9,425.51,290,425.82,289.92Zm15.5-4.47c.15,1.34.29,2.61.42,3.88,0,.17.06.22.23.24l3.85.41c-.16-1.19-.41-2.35-.64-3.51-.05-.26-.22-.32-.44-.37Zm.07,20c-.12.36,0,.41.36.34,1-.17,2-.37,3.06-.58.2,0,.36-.1.4-.35.19-1.08.4-2.16.6-3.24,0-.18.05-.28-.2-.25-1.22.15-2.43.27-3.65.39-.16,0-.2.07-.21.22Zm-18.93-10.13h1.41c.16,0,.28,0,.29-.22,0-1.28.13-2.56.27-3.84,0-.22-.07-.22-.22-.2l-2.77.44a.28.28,0,0,0-.29.27,32.49,32.49,0,0,0-.38,3.24c0,.28.09.33.33.32C421.55,295.27,422,295.28,422.46,295.28ZM436,308.81c0,.46,0,.91,0,1.36s.07.39.37.37c1.05-.09,2.1-.2,3.14-.37a.35.35,0,0,0,.33-.36c.12-.88.25-1.76.41-2.63.05-.29,0-.33-.29-.3-1.22.15-2.46.24-3.7.27-.24,0-.26.11-.26.3C436,307.91,436,308.36,436,308.81ZM446.85,291a38.54,38.54,0,0,1,.3,3.95c0,.23.06.33.33.33.92,0,1.84,0,2.76,0,.22,0,.32,0,.3-.3-.07-1.05-.18-2.1-.35-3.14,0-.21-.11-.35-.36-.39C448.85,291.33,447.87,291.17,446.85,291Zm-6.56-6.56c-.15-1-.31-2-.44-2.92a.44.44,0,0,0-.43-.42c-1-.16-2-.26-3-.34-.28,0-.4,0-.39.34q0,1.33,0,2.67c0,.32.11.37.38.38A37.34,37.34,0,0,1,440.29,284.45Zm-17.81,11.72c-.44,0-.88,0-1.31,0s-.43.06-.4.39c.09,1,.18,2,.36,3,0,.19.09.25.28.27.87.13,1.75.26,2.63.43.36.06.41-.06.37-.37-.16-1.14-.21-2.28-.26-3.43,0-.25-.08-.3-.31-.29Zm12.66,12.72c0-.48,0-1,0-1.45,0-.16,0-.28-.23-.29-1.2,0-2.41-.11-3.61-.26-.22,0-.3,0-.26.27.15.92.3,1.84.44,2.76a.25.25,0,0,0,.24.26c1,.18,2.07.27,3.1.36.28,0,.33-.09.32-.33C435.12,309.77,435.14,309.33,435.14,308.89Zm13.75-12.72h-1.36c-.26,0-.38,0-.39.33a34.48,34.48,0,0,1-.24,3.52c0,.22,0,.26.23.23l2.77-.43a.31.31,0,0,0,.3-.29c.16-1,.27-2.06.34-3.1,0-.2-.05-.27-.25-.26Zm-13.75-13.68c0-.47,0-.94,0-1.41,0-.26-.07-.32-.33-.31-1,.07-2,.18-3,.34-.2,0-.29.11-.31.31-.14.91-.28,1.82-.43,2.72,0,.23,0,.28.25.26,1.05-.11,2.1-.2,3.16-.23.67,0,.67,0,.67-.73Zm-9.9,22.44c-.27-1.22-.48-2.37-.64-3.53,0-.22-.15-.21-.3-.23-.86-.13-1.73-.25-2.59-.41-.34-.06-.35.05-.28.31.23.91.47,1.83.76,2.73a.52.52,0,0,0,.42.4C423.47,304.42,424.31,304.67,425.24,304.93Zm1.15,1.17c.25.91.5,1.79.73,2.67a.4.4,0,0,0,.29.31q1.44.46,2.91.81c.17,0,.28.05.24-.21-.15-.9-.3-1.81-.42-2.72,0-.21-.12-.23-.29-.25Zm23.54-5.26c0-.2-.16-.12-.27-.11-.87.13-1.73.28-2.6.4-.26,0-.33.16-.37.39-.17,1-.36,2.05-.56,3.07,0,.24,0,.27.23.22l2.47-.7c.11,0,.2-.06.24-.17C449.4,302.94,449.68,301.92,449.93,300.84Zm-19.62-19.42c-.93.21-1.95.49-2.95.81-.12,0-.14.14-.17.25L426.5,285c0,.14-.06.26.18.22l3.24-.6c.14,0,.2-.06.23-.21.13-.93.29-1.85.43-2.77C430.6,281.47,430.61,281.34,430.31,281.42Zm14.62,24.64c-.93.17-1.77.34-2.62.48-1.06.17-1.07.15-1.25,1.21-.12.71-.21,1.42-.32,2.16,1.09-.24,2.12-.54,3.13-.86a.46.46,0,0,0,.34-.32C444.43,307.86,444.67,307,444.93,306.06Zm-23.54-15.49,3-.45c.19,0,.2-.13.22-.27.07-.41.14-.83.22-1.24.13-.73.26-1.45.41-2.23l-2.71.73c-.2.05-.25.2-.29.36C421.93,288.47,421.63,289.48,421.39,290.57Zm19.33-9.19.43,2.95c0,.22.16.26.33.29,1,.15,2.08.33,3.11.57.23.05.29,0,.22-.25-.22-.78-.44-1.56-.64-2.35a.52.52,0,0,0-.44-.38C442.76,281.9,441.78,281.61,440.72,281.38Z"/><path class="cls-11" d="M417.7,295.41a17.87,17.87,0,0,0,35.19,4.71,17.6,17.6,0,0,0-.75-11.1l-.12-.3c-.12-.28-.08-.51.21-.63s.49,0,.6.31.3.72.43,1.09a18.74,18.74,0,1,1-21.88-12,18.22,18.22,0,0,1,17.45,5,1.87,1.87,0,0,1,.3.33.38.38,0,0,1-.07.53.37.37,0,0,1-.53,0,3.19,3.19,0,0,1-.33-.31A17.59,17.59,0,0,0,437.47,278a17.9,17.9,0,0,0-19.21,13.35,18.64,18.64,0,0,0-.38,1.95C417.78,294.08,417.74,294.91,417.7,295.41Z"/><path class="cls-11" d="M452.65,285.91a.62.62,0,0,1-.35.46,2.43,2.43,0,0,0-1.38,2.12.4.4,0,0,1-.43.43.42.42,0,0,1-.47-.44,2.4,2.4,0,0,0-1.39-2.11c-.43-.25-.43-.63,0-.88a2.39,2.39,0,0,0,1.39-2.11.43.43,0,0,1,.46-.45.42.42,0,0,1,.44.47,2.42,2.42,0,0,0,1.34,2.06A.75.75,0,0,1,452.65,285.91Zm-1.25.1,0-.14a.61.61,0,0,1-.16-.09c-.24-.25-.44-.69-.7-.72s-.42.48-.7.68-.17.27,0,.4.42.71.7.64.43-.5.7-.72C451.26,286,451.34,286,451.4,286Z"/><path class="cls-11" d="M410.44,282.92c.27,0,.44.15.45.42a2.56,2.56,0,0,0,1.45,2.19.43.43,0,0,1,0,.81,2.51,2.51,0,0,0-1.44,2.15.39.39,0,0,1-.41.43c-.34,0-.47-.22-.48-.49a2.14,2.14,0,0,0-.46-1.29,2.71,2.71,0,0,0-.89-.76.47.47,0,0,1-.32-.44c0-.26.14-.36.33-.47a2.36,2.36,0,0,0,1.34-2A.49.49,0,0,1,410.44,282.92Zm0,2.05a4,4,0,0,1-.7.78c-.15.12-.19.21,0,.34a5.08,5.08,0,0,1,.72.81,3.84,3.84,0,0,1,.72-.83c.12-.09.16-.16,0-.27A4.54,4.54,0,0,1,410.46,285Z"/><path class="cls-11" d="M435.13,270.58v-4.86c0-.33.05-.65.44-.65s.46.3.46.64q0,4.89,0,9.8c0,.33,0,.63-.46.62s-.43-.3-.43-.61Z"/><path class="cls-11" d="M449.84,317.19c.34-.62,0-1.1-.52-1.56-.28-.24-.12-.63.25-.72h.09a1.09,1.09,0,0,0,1.22-.86.44.44,0,0,1,.46-.36.46.46,0,0,1,.43.34c0,.05.05.08.06.12a.93.93,0,0,0,1,.75c.25,0,.49,0,.6.31s-.1.5-.3.64a.94.94,0,0,0-.38,1.2.52.52,0,0,1-.13.66.47.47,0,0,1-.62-.06,1.08,1.08,0,0,0-1.42,0C450.19,317.92,449.84,317.71,449.84,317.19Zm1.47-2.14a.65.65,0,0,1-.75.58c.28.28.46.51.24,1a.83.83,0,0,1,1-.08c-.15-.39.07-.62.26-.89C451.65,315.66,451.47,315.46,451.31,315.05Z"/><path class="cls-11" d="M426,273.07a1.36,1.36,0,0,1,0-.31,1,1,0,0,0-.42-1.24.48.48,0,0,1,.27-.91,1,1,0,0,0,1.12-.81.47.47,0,0,1,.92,0,1,1,0,0,0,1.15.85.45.45,0,0,1,.5.3.49.49,0,0,1-.23.59,1,1,0,0,0-.43,1.28.5.5,0,0,1-.16.65.51.51,0,0,1-.63-.09,1.06,1.06,0,0,0-1.37,0C426.32,273.65,426,273.45,426,273.07Zm2-.76a.73.73,0,0,1,.2-.92c-.39,0-.54-.26-.76-.52-.08.38-.36.45-.7.54.34.21.32.51.31.84A.76.76,0,0,1,428,272.31Z"/><path class="cls-11" d="M449.62,277c-.23-.05-.42-.16-.42-.44s0-.45,0-.68.08-.7-.5-.61c-.22,0-.36-.2-.36-.44a.39.39,0,0,1,.4-.41c.49.06.49-.21.46-.56s0-.45,0-.68a.39.39,0,0,1,.39-.45.41.41,0,0,1,.47.43c0,.32,0,.64,0,1s.05.3.28.29.56.1.57.44-.24.47-.56.43-.3.1-.29.32,0,.61,0,.91A.46.46,0,0,1,449.62,277Z"/><path class="cls-11" d="M461.1,305c0-.13,0-.27,0-.4s-.05-.32-.29-.31-.55-.1-.54-.46.26-.45.57-.42.28-.07.26-.28,0-.61,0-.91.15-.51.45-.51.44.22.44.52,0,.57,0,.86,0,.35.28.32.55.09.55.44-.26.46-.56.44-.29.07-.27.28,0,.52,0,.77-.06.64-.46.63-.45-.28-.43-.61C461.11,305.2,461.1,305.08,461.1,305Z"/><path class="cls-11" d="M412.09,311.89c.32,0,.48.14.5.41a5.76,5.76,0,0,1,0,.59c0,.36-.12.8.53.74.21,0,.32.2.31.42s-.16.42-.41.39c-.42-.05-.47.15-.44.49a6.57,6.57,0,0,1,0,.77.44.44,0,1,1-.88,0c0-.31,0-.63,0-1s0-.35-.29-.32-.55-.08-.55-.43.24-.45.53-.42.32-.13.31-.36a8.22,8.22,0,0,1,0-.86A.45.45,0,0,1,412.09,311.89Z"/><path class="cls-11" d="M454.35,308.06c0,.27-.19.44-.44.44a.41.41,0,0,1-.44-.47.41.41,0,0,1,.45-.4C454.2,307.64,454.31,307.83,454.35,308.06Z"/><path class="cls-12" d="M414.33,271.46a.42.42,0,0,1-.44.43.41.41,0,0,1-.44-.42.4.4,0,0,1,.46-.44A.41.41,0,0,1,414.33,271.46Z"/><path class="cls-12" d="M423.25,317c.26,0,.43.17.43.44a.4.4,0,0,1-.41.45.41.41,0,0,1-.45-.46A.44.44,0,0,1,423.25,317Z"/><path class="cls-12" d="M414.33,304.67c0,.26-.17.42-.44.42a.44.44,0,1,1,0-.87A.43.43,0,0,1,414.33,304.67Z"/><path class="cls-12" d="M460.71,277.9c-.23,0-.42-.15-.43-.42a.39.39,0,0,1,.4-.45.41.41,0,0,1,.48.43C461.16,277.71,461,277.86,460.71,277.9Z"/><path class="cls-13" d="M435.14,292.72c0,.75,0,1.51,0,2.27,0,.24-.07.3-.3.3-.7,0-1.39,0-2.09,0-.32,0-.57.09-.58.42s.25.47.58.47h2.09c.23,0,.3.06.3.3,0,1.46,0,2.93,0,4.4,0,.27-.09.32-.33.31l-4.08-.19c-.32,0-.42-.14-.42-.44s0-.69-.07-1a.38.38,0,0,0-.45-.39.41.41,0,0,0-.4.46c0,.33,0,.67.06,1s0,.29-.26.26l-3.65-.39c-.18,0-.21-.11-.23-.26-.13-1.16-.21-2.32-.28-3.48,0-.49.13-.59.57-.55a6,6,0,0,0,.95,0c.29,0,.51-.12.51-.45s-.21-.44-.52-.44-.78,0-1.18,0c-.24,0-.33-.05-.33-.32,0-1.29.16-2.56.29-3.84,0-.18.09-.28.27-.29,1.19-.13,2.38-.25,3.56-.39.31,0,.35.07.31.35s0,.66-.07,1,.09.49.38.52.46-.17.49-.47.05-.72.06-1.08.1-.43.41-.45c1.38-.05,2.75-.12,4.13-.19.27,0,.28.12.28.33C435.13,291.2,435.14,292,435.14,292.72Zm-7.65,2.9c0,.24,0,.32.22.43a2.47,2.47,0,0,1,1.46,2.17.41.41,0,0,0,.49.42c.28,0,.38-.2.39-.46a2.46,2.46,0,0,1,1.3-2.05c.57-.35.57-.61,0-1a2.47,2.47,0,0,1-1.31-2.05c0-.29-.14-.46-.43-.47a.43.43,0,0,0-.46.46,2.41,2.41,0,0,1-1.44,2.13A.37.37,0,0,0,427.49,295.62Z"/><path class="cls-13" d="M438.6,295.28c-.76,0-1.52,0-2.27,0-.23,0-.31-.05-.31-.3,0-1.53,0-3.06,0-4.58,0-.21,0-.3.28-.29,1.43.07,2.87.09,4.3.21.26,0,.34.09.37.37.13,1.43.14,2.87.22,4.3,0,.28-.12.29-.32.28Z"/><path class="cls-13" d="M438.6,296.17h2.27c.17,0,.33,0,.31.24-.06,1.41-.08,2.81-.2,4.21,0,.25-.11.34-.35.35-1.45.07-2.9.13-4.34.21-.24,0-.27-.09-.27-.29q0-2.22,0-4.44c0-.26.1-.29.32-.28Z"/><path class="cls-13" d="M436,304.14c0-.59,0-1.18,0-1.77,0-.25.07-.32.32-.33,1.42,0,2.85-.06,4.26-.21.24,0,.28.06.25.27-.11,1-.2,2-.33,3.06-.1.76-.12.77-.88.87-1.09.14-2.19.21-3.29.25-.26,0-.34-.07-.33-.33C436,305.35,436,304.74,436,304.14Z"/><path class="cls-13" d="M436,287.11c0-.61,0-1.21,0-1.82,0-.21.05-.29.28-.28,1.28.06,2.55.16,3.83.29a.31.31,0,0,1,.32.31c.13,1.2.26,2.4.4,3.59,0,.24-.07.29-.28.27-1.42-.14-2.86-.2-4.29-.2-.25,0-.26-.12-.26-.31C436,288.34,436,287.72,436,287.11Z"/><path class="cls-13" d="M444.16,295.28c-.59,0-1.18,0-1.76,0-.26,0-.37,0-.37-.34a37.75,37.75,0,0,0-.19-4.12c0-.26,0-.41.35-.37,1.15.14,2.3.26,3.46.38a.36.36,0,0,1,.35.38c.14,1.26.23,2.52.29,3.79,0,.22-.05.28-.27.28C445.4,295.27,444.78,295.28,444.16,295.28Z"/><path class="cls-13" d="M435.14,304.15c0,.59,0,1.18,0,1.77,0,.27,0,.37-.34.36-1.24,0-2.47-.16-3.7-.28a.24.24,0,0,1-.25-.25c-.13-1.23-.26-2.46-.4-3.69,0-.2,0-.24.21-.22,1.39.14,2.78.16,4.17.2.27,0,.32.11.31.35C435.13,303,435.14,303.56,435.14,304.15Z"/><path class="cls-13" d="M435.14,287.14c0,.59,0,1.18,0,1.77,0,.26,0,.37-.34.37a36.84,36.84,0,0,0-4.07.18c-.24,0-.28,0-.26-.27.14-1.2.26-2.4.39-3.6a.28.28,0,0,1,.28-.29c1.25-.13,2.5-.23,3.75-.28.21,0,.25.07.25.26C435.13,285.9,435.14,286.52,435.14,287.14Z"/><path class="cls-13" d="M444.16,296.17H446c.21,0,.28.05.27.27-.06,1.24-.15,2.48-.28,3.71a.28.28,0,0,1-.28.29l-3.6.39c-.25,0-.3-.05-.28-.29a39.46,39.46,0,0,0,.18-4.07c0-.25.08-.31.31-.3Z"/><path class="cls-13" d="M429.92,305.48c.08.34-.05.36-.23.32l-3.28-.62c-.21,0-.26-.15-.29-.33-.2-1.07-.41-2.13-.61-3.2-.05-.21,0-.33.26-.3,1.18.14,2.37.26,3.56.38.14,0,.22.06.24.21Z"/><path class="cls-13" d="M425.82,289.92c-.31.09-.34,0-.28-.29.21-1,.4-2.07.59-3.11a.44.44,0,0,1,.42-.43c1.05-.18,2.1-.38,3.15-.59.23-.05.29,0,.26.24-.13,1.2-.26,2.4-.38,3.6,0,.15-.07.21-.22.22Z"/><path class="cls-13" d="M441.32,285.45l3.42.65c.22,0,.39.11.44.37.23,1.16.48,2.32.64,3.51l-3.85-.41c-.17,0-.21-.07-.23-.24C441.61,288.06,441.47,286.79,441.32,285.45Z"/><path class="cls-13" d="M441.39,305.41l.36-3.47c0-.15.05-.2.21-.22,1.22-.12,2.43-.24,3.65-.39.25,0,.24.07.2.25-.2,1.08-.41,2.16-.6,3.24,0,.25-.2.31-.4.35-1,.21-2,.41-3.06.58C441.38,305.82,441.27,305.77,441.39,305.41Z"/><path class="cls-13" d="M422.46,295.28c-.45,0-.91,0-1.36,0-.24,0-.35,0-.33-.32a32.49,32.49,0,0,1,.38-3.24.28.28,0,0,1,.29-.27l2.77-.44c.15,0,.25,0,.22.2-.14,1.28-.24,2.56-.27,3.84,0,.23-.13.22-.29.22Z"/><path class="cls-13" d="M436,308.81c0-.45,0-.9,0-1.36,0-.19,0-.29.26-.3,1.24,0,2.48-.12,3.7-.27.27,0,.34,0,.29.3-.16.87-.29,1.75-.41,2.63a.35.35,0,0,1-.33.36c-1,.17-2.09.28-3.14.37-.3,0-.39-.07-.37-.37S436,309.27,436,308.81Z"/><path class="cls-13" d="M446.85,291c1,.16,2,.32,3,.45.25,0,.32.18.36.39.17,1,.28,2.09.35,3.14,0,.27-.08.3-.3.3-.92,0-1.84,0-2.76,0-.27,0-.33-.1-.33-.33A38.54,38.54,0,0,0,446.85,291Z"/><path class="cls-13" d="M440.29,284.45a37.34,37.34,0,0,0-3.89-.29c-.27,0-.39-.06-.38-.38q0-1.33,0-2.67c0-.33.11-.36.39-.34,1,.08,2,.18,3,.34a.44.44,0,0,1,.43.42C440,282.49,440.14,283.44,440.29,284.45Z"/><path class="cls-13" d="M422.48,296.17h1.36c.23,0,.31,0,.31.29.05,1.15.1,2.29.26,3.43,0,.31,0,.43-.37.37-.88-.17-1.76-.3-2.63-.43-.19,0-.25-.08-.28-.27-.18-1-.27-2-.36-3,0-.33.09-.41.4-.39S422,296.17,422.48,296.17Z"/><path class="cls-13" d="M435.14,308.89c0,.44,0,.88,0,1.32,0,.24,0,.35-.32.33-1-.09-2.07-.18-3.1-.36a.25.25,0,0,1-.24-.26c-.14-.92-.29-1.84-.44-2.76,0-.23,0-.29.26-.27,1.2.15,2.41.22,3.61.26.24,0,.23.13.23.29C435.13,307.93,435.14,308.41,435.14,308.89Z"/><path class="cls-13" d="M448.89,296.17h1.4c.2,0,.26.06.25.26-.07,1-.18,2.07-.34,3.1a.31.31,0,0,1-.3.29l-2.77.43c-.21,0-.25,0-.23-.23a34.48,34.48,0,0,0,.24-3.52c0-.3.13-.34.39-.33Z"/><path class="cls-13" d="M435.14,282.49v.95c0,.69,0,.71-.67.73-1.06,0-2.11.12-3.16.23-.24,0-.29,0-.25-.26.15-.9.29-1.81.43-2.72,0-.2.11-.28.31-.31,1-.16,2-.27,3-.34.26,0,.34.05.33.31C435.12,281.55,435.14,282,435.14,282.49Z"/><path class="cls-13" d="M425.24,304.93c-.93-.26-1.77-.51-2.63-.73a.52.52,0,0,1-.42-.4c-.29-.9-.53-1.82-.76-2.73-.07-.26-.06-.37.28-.31.86.16,1.73.28,2.59.41.15,0,.27,0,.3.23C424.76,302.56,425,303.71,425.24,304.93Z"/><path class="cls-13" d="M426.39,306.1l3.46.61c.17,0,.26,0,.29.25.12.91.27,1.82.42,2.72,0,.26-.07.25-.24.21q-1.47-.34-2.91-.81a.4.4,0,0,1-.29-.31C426.89,307.89,426.64,307,426.39,306.1Z"/><path class="cls-13" d="M449.93,300.84c-.25,1.08-.53,2.1-.86,3.1,0,.11-.13.14-.24.17l-2.47.7c-.19.05-.27,0-.23-.22.2-1,.39-2,.56-3.07,0-.23.11-.36.37-.39.87-.12,1.73-.27,2.6-.4C449.77,300.72,450,300.64,449.93,300.84Z"/><path class="cls-13" d="M430.31,281.42c.3-.08.29.05.27.18-.14.92-.3,1.84-.43,2.77,0,.15-.09.19-.23.21l-3.24.6c-.24,0-.22-.08-.18-.22l.69-2.48c0-.11.05-.21.17-.25C428.36,281.91,429.38,281.63,430.31,281.42Z"/><path class="cls-13" d="M444.93,306.06c-.26.94-.5,1.8-.72,2.67a.46.46,0,0,1-.34.32c-1,.32-2,.62-3.13.86.11-.74.2-1.45.32-2.16.18-1.06.19-1,1.25-1.21C443.16,306.4,444,306.23,444.93,306.06Z"/><path class="cls-13" d="M421.39,290.57c.24-1.09.54-2.1.86-3.1,0-.16.09-.31.29-.36l2.71-.73c-.15.78-.28,1.5-.41,2.23-.08.41-.15.83-.22,1.24,0,.14,0,.24-.22.27Z"/><path class="cls-13" d="M440.72,281.38c1.06.23,2,.52,3,.83a.52.52,0,0,1,.44.38c.2.79.42,1.57.64,2.35.07.22,0,.3-.22.25-1-.24-2.07-.42-3.11-.57-.17,0-.31-.07-.33-.29Z"/><path class="cls-13" d="M426.09,282.69h.1l0,.09Z"/><path class="cls-13" d="M451.4,286c-.06,0-.14,0-.18.05-.27.22-.45.66-.7.72s-.42-.46-.7-.64-.25-.25,0-.4.43-.72.7-.68.46.47.7.72a.61.61,0,0,0,.16.09Z"/><path class="cls-13" d="M410.46,285a4.54,4.54,0,0,0,.75.83c.14.11.1.18,0,.27a3.84,3.84,0,0,0-.72.83,5.08,5.08,0,0,0-.72-.81c-.18-.13-.14-.22,0-.34A4,4,0,0,0,410.46,285Z"/><path class="cls-13" d="M451.31,315.05c.16.41.34.61.74.57-.19.27-.41.5-.26.89a.83.83,0,0,0-1,.08c.22-.45,0-.68-.24-1A.65.65,0,0,0,451.31,315.05Z"/><path class="cls-13" d="M428,272.31a.76.76,0,0,0-.95-.06c0-.33,0-.63-.31-.84.34-.09.62-.16.7-.54.22.26.37.54.76.52A.73.73,0,0,0,428,272.31Z"/><path class="cls-11" d="M427.49,295.62a.37.37,0,0,1,.23-.38,2.41,2.41,0,0,0,1.44-2.13.43.43,0,0,1,.46-.46c.29,0,.42.18.43.47a2.47,2.47,0,0,0,1.31,2.05c.56.35.56.61,0,1a2.46,2.46,0,0,0-1.3,2.05c0,.26-.11.43-.39.46a.41.41,0,0,1-.49-.42,2.47,2.47,0,0,0-1.46-2.17C427.51,295.94,427.48,295.86,427.49,295.62Zm2.14,1c.24-.35.74-.63.77-.93s-.47-.63-.74-.95l-.05-.06c-.23.34-.69.61-.76.92s.52.58.7,1A.3.3,0,0,0,429.63,296.61Z"/><path class="cls-13" d="M429.63,296.61a.3.3,0,0,1-.08-.07c-.18-.37-.78-.59-.7-1s.53-.58.76-.92l.05.06c.27.32.77.66.74.95S429.87,296.26,429.63,296.61Z"/></svg>