<svg id="Capa_1" data-name="Capa 1" xmlns="http://www.w3.org/2000/svg" viewBox="0 0 375 600"><defs><style>.cls-1,.cls-2,.cls-3,.cls-4,.cls-8{fill:#002900;}.cls-1,.cls-2,.cls-3,.cls-8{stroke:#231f20;stroke-miterlimit:10;}.cls-1{stroke-width:0.74px;}.cls-2{stroke-width:0.37px;}.cls-3{stroke-width:0.75px;}.cls-5{fill:#111010;}.cls-6{fill:#fefdfd;}.cls-7{fill:#1c1a1a;}.cls-8{stroke-width:0.32px;}.cls-9{fill:#0e0d0d;}.cls-10{fill:#fefefe;}.cls-11{fill:#151413;}.cls-12{fill:#2a2828;}.cls-13{fill:#fcfcfc;}</style></defs><title>Itinerario PEQ</title><line class="cls-1" x1="192.11" y1="123.21" x2="192.11" y2="478.53"/><line class="cls-1" x1="214.54" y1="167.86" x2="97.13" y2="167.86"/><line class="cls-1" x1="167.08" y1="233.25" x2="266.21" y2="233.25"/><path class="cls-2" d="M104.34,165a4.18,4.18,0,0,1-1.6-.3,3.74,3.74,0,0,1-1.29-.82,3.87,3.87,0,0,1-.84-1.26,4.26,4.26,0,0,1,0-3.14,3.74,3.74,0,0,1,.85-1.26,3.8,3.8,0,0,1,1.28-.82,4.18,4.18,0,0,1,1.6-.3,4.34,4.34,0,0,1,1.54.27,3.22,3.22,0,0,1,1.23.81l-.35.37a3.18,3.18,0,0,0-1.11-.71,3.88,3.88,0,0,0-1.29-.22,3.72,3.72,0,0,0-1.38.26,3.23,3.23,0,0,0-1.11.72,3.4,3.4,0,0,0-.74,1.09,3.69,3.69,0,0,0,0,2.72,3.4,3.4,0,0,0,.74,1.09,3.23,3.23,0,0,0,1.11.72,3.72,3.72,0,0,0,1.38.26,3.88,3.88,0,0,0,1.29-.22,3.07,3.07,0,0,0,1.11-.72l.35.37a3.37,3.37,0,0,1-1.23.82A4.34,4.34,0,0,1,104.34,165Z"/><path class="cls-2" d="M111.81,164.4h4.8v.51h-5.37v-7.78h5.2v.51h-4.63Zm-.07-3.69H116v.5h-4.22Z"/><path class="cls-2" d="M120.9,164.91v-7.78h2.8a4.1,4.1,0,0,1,1.68.31,2.42,2.42,0,0,1,1.07.89,2.51,2.51,0,0,1,.38,1.42,2.47,2.47,0,0,1-.38,1.4,2.44,2.44,0,0,1-1.07.9,4.09,4.09,0,0,1-1.68.32h-2.48l.25-.27v2.81Zm.57-2.78-.25-.26h2.48a2.85,2.85,0,0,0,1.9-.56,2.2,2.2,0,0,0,0-3.12,2.85,2.85,0,0,0-1.9-.55h-2.48l.25-.28Zm4.84,2.78-2-2.82h.64l2,2.82Z"/><path class="cls-2" d="M131.7,164.4h4.81v.51h-5.37v-7.78h5.2v.51H131.7Zm-.06-3.69h4.21v.5h-4.21Z"/><path class="cls-2" d="M140.8,164.91v-7.78h.48l3.62,6.24h-.26l3.6-6.24h.47v7.78h-.55l0-6.93h.16l-3.41,5.9h-.28l-3.43-5.9h.17v6.93Z"/><path class="cls-2" d="M157,165a4.22,4.22,0,0,1-1.6-.3,3.63,3.63,0,0,1-1.29-.83,3.74,3.74,0,0,1-.85-1.26,4.21,4.21,0,0,1,0-3.12,3.74,3.74,0,0,1,.85-1.26,3.63,3.63,0,0,1,1.29-.83,4.44,4.44,0,0,1,3.21,0,3.94,3.94,0,0,1,1.29.82,4.06,4.06,0,0,1,.85,1.26,4.26,4.26,0,0,1,0,3.14,4.06,4.06,0,0,1-.85,1.26,3.94,3.94,0,0,1-1.29.82A4.23,4.23,0,0,1,157,165Zm0-.52a3.65,3.65,0,0,0,1.38-.26,3.3,3.3,0,0,0,1.83-1.81,3.4,3.4,0,0,0,.26-1.36,3.33,3.33,0,0,0-.26-1.36,3.3,3.3,0,0,0-1.83-1.81,3.65,3.65,0,0,0-1.38-.26,3.72,3.72,0,0,0-1.38.26,3.28,3.28,0,0,0-1.1.72,3.4,3.4,0,0,0-.74,1.09,3.51,3.51,0,0,0-.26,1.36,3.58,3.58,0,0,0,.26,1.36,3.4,3.4,0,0,0,.74,1.09,3.28,3.28,0,0,0,1.1.72A3.72,3.72,0,0,0,157,164.45Z"/><path class="cls-2" d="M165.21,164.91v-7.78h.48l5.55,7.08H171v-7.08h.57v7.78h-.47l-5.56-7.08h.25v7.08Z"/><path class="cls-2" d="M176.48,164.91v-7.78h.57v7.78Z"/><path class="cls-2" d="M180.69,164.91l3.58-7.78h.57l3.58,7.78h-.61l-3.38-7.43h.24l-3.37,7.43Zm1.31-2.19.19-.48h4.66l.19.48Z"/><path class="cls-3" d="M44.85,166.47v-.42l4.23-5.21h.63l-4.21,5.21-.31-.08h6.29v.5Zm4.44,2.15v-4.56h.55v4.56Z"/><path class="cls-3" d="M52.83,163.72a.45.45,0,0,1-.33-.14.48.48,0,0,1-.14-.34.48.48,0,0,1,.47-.47.49.49,0,0,1,.33.14.44.44,0,0,1,.13.33.47.47,0,0,1-.13.34A.49.49,0,0,1,52.83,163.72Zm0,4.95a.45.45,0,0,1-.33-.14.48.48,0,0,1-.14-.34.44.44,0,0,1,.14-.33.45.45,0,0,1,.33-.14.49.49,0,0,1,.33.14.43.43,0,0,1,.13.33.47.47,0,0,1-.13.34A.49.49,0,0,1,52.83,168.67Z"/><path class="cls-3" d="M59.69,168.68a4.46,4.46,0,0,1-1.6-.29,3,3,0,0,1-1.15-.76l.29-.43a2.76,2.76,0,0,0,1,.68,3.57,3.57,0,0,0,1.45.28,2.42,2.42,0,0,0,1.6-.47,1.71,1.71,0,0,0,0-2.51,2.64,2.64,0,0,0-1.72-.47h-.49v-.41l2.48-3.17.08.22H57.23v-.51h4.89v.4l-2.47,3.17-.25-.18h.25a3.06,3.06,0,0,1,2.08.61,2,2,0,0,1,.69,1.59,2.26,2.26,0,0,1-.31,1.16,2,2,0,0,1-.91.8A3.57,3.57,0,0,1,59.69,168.68Z"/><path class="cls-3" d="M66.66,168.68a2.71,2.71,0,0,1-1.58-.48A3.21,3.21,0,0,1,64,166.84a5.9,5.9,0,0,1,0-4.22,3.21,3.21,0,0,1,1.07-1.36,2.86,2.86,0,0,1,3.17,0,3.14,3.14,0,0,1,1.07,1.36,5.9,5.9,0,0,1,0,4.22,3.14,3.14,0,0,1-1.07,1.36A2.69,2.69,0,0,1,66.66,168.68Zm0-.52a2.19,2.19,0,0,0,1.31-.41,2.56,2.56,0,0,0,.86-1.17,5.68,5.68,0,0,0,0-3.7,2.56,2.56,0,0,0-.86-1.17,2.19,2.19,0,0,0-1.31-.41,2.13,2.13,0,0,0-1.29.41,2.51,2.51,0,0,0-.87,1.17,5.51,5.51,0,0,0,0,3.7,2.51,2.51,0,0,0,.87,1.17A2.13,2.13,0,0,0,66.66,168.16Z"/><path class="cls-3" d="M74.36,170.78v-8h.54v1.9l-.09,1,.11,1v4Zm2.92-2.11a2.69,2.69,0,0,1-1.39-.36,2.54,2.54,0,0,1-1-1,3.6,3.6,0,0,1,0-3.14,2.6,2.6,0,0,1,1-1,2.69,2.69,0,0,1,1.39-.36,2.9,2.9,0,0,1,1.47.38,2.62,2.62,0,0,1,1,1,3,3,0,0,1,.38,1.53,3.11,3.11,0,0,1-.38,1.54,2.75,2.75,0,0,1-1,1A3,3,0,0,1,77.28,168.67Zm0-.5a2.28,2.28,0,0,0,1.2-.31,2.11,2.11,0,0,0,.84-.86,2.55,2.55,0,0,0,.31-1.28,2.5,2.5,0,0,0-.31-1.28,2.11,2.11,0,0,0-.84-.86,2.46,2.46,0,0,0-2.39,0,2.17,2.17,0,0,0-.84.86,2.6,2.6,0,0,0-.3,1.28,2.66,2.66,0,0,0,.3,1.28,2.17,2.17,0,0,0,.84.86A2.27,2.27,0,0,0,77.24,168.17Z"/><path class="cls-3" d="M89.1,162.77a2.5,2.5,0,0,1,1.22.28,1.87,1.87,0,0,1,.8.82,2.82,2.82,0,0,1,.29,1.36v3.39h-.55v-3.34a2.09,2.09,0,0,0-.48-1.49,1.73,1.73,0,0,0-1.34-.52,2.28,2.28,0,0,0-1.13.28,2,2,0,0,0-.74.78,2.6,2.6,0,0,0-.25,1.2v3.09h-.56v-3.34a2.09,2.09,0,0,0-.48-1.49,1.69,1.69,0,0,0-1.33-.52,2.23,2.23,0,0,0-1.13.28,1.92,1.92,0,0,0-.74.78,2.6,2.6,0,0,0-.25,1.2v3.09h-.56v-5.8h.53v1.6l-.07-.18a2.14,2.14,0,0,1,.85-1.07,2.52,2.52,0,0,1,1.45-.4,2.41,2.41,0,0,1,1.46.44,2,2,0,0,1,.75,1.31l-.19-.08a2.32,2.32,0,0,1,.88-1.21A2.67,2.67,0,0,1,89.1,162.77Z"/><path class="cls-4" d="M145.53,221.59h4.05c.18,0,.24-.05.27-.22a5.49,5.49,0,0,1,4.37-4.52,5.61,5.61,0,1,1,2.31,11,5.21,5.21,0,0,1-2.9-.17c-.18-.06-.27,0-.37.13-1.31,2.31-2.64,4.62-4,6.92a.63.63,0,0,0-.09.35c0,2.21,0,4.41,0,6.62,0,.19.05.24.25.24h2.19a.58.58,0,0,1,.54.36.63.63,0,0,1-.08.68.64.64,0,0,1-.54.25h-6a.65.65,0,0,1-.68-.67.62.62,0,0,1,.69-.62h2.11c.19,0,.24,0,.24-.24q0-3.31,0-6.63a.67.67,0,0,0-.11-.37l-6.88-12a1.47,1.47,0,0,1-.14-.28.62.62,0,0,1,.65-.79Zm-3,1.24s0,0,0,.06l1.85,3.25a.24.24,0,0,0,.17.12,8.81,8.81,0,0,0,5.4-.32,10.41,10.41,0,0,1,3.11-.66c.13,0,.16-.09.21-.17l1.21-2.1s.1-.1,0-.18ZM155.34,218l.44,2.71,1.53-2.11c.06-.08.05-.12,0-.16A4.4,4.4,0,0,0,155.34,218Zm1.68,4.71,2.11,1.52c.14.11.15,0,.18-.09a4.32,4.32,0,0,0,.41-1.67c0-.2-.07-.2-.23-.17Zm2.5-1.68a4.17,4.17,0,0,0-1-1.69c-.06-.07-.09-.07-.15,0s-.22.31-.33.46l-1.2,1.66Zm-5.45-2.83a4.42,4.42,0,0,0-1.63,1c-.12.11-.11.16,0,.25.63.44,1.25.9,1.87,1.35,0,0,.08.09.17.06Zm2.21,5.56c0,.05,0,.08,0,.1.14.82.27,1.63.4,2.45,0,.14.09.13.19.09a4.08,4.08,0,0,0,1.6-1.06Zm-1.18.86c-.35.61-.66,1.18-1,1.74-.07.12,0,.12.09.14a4.78,4.78,0,0,0,1.07.17c.13,0,.17,0,.14-.16Zm-1.88-3c-.54-.4-1-.76-1.52-1.13-.14-.11-.19-.06-.24.07a5.49,5.49,0,0,0-.35,1.06Z"/><path class="cls-2" d="M205,230a4.27,4.27,0,0,1-1.61-.29,3.82,3.82,0,0,1-1.28-.83,3.7,3.7,0,0,1-.85-1.25,4.28,4.28,0,0,1,0-3.15,3.85,3.85,0,0,1,.85-1.25,4,4,0,0,1,1.29-.83,4.18,4.18,0,0,1,1.6-.29,4.57,4.57,0,0,1,1.54.26,3.13,3.13,0,0,1,1.23.82l-.36.36a3,3,0,0,0-1.1-.7,3.68,3.68,0,0,0-1.29-.22,3.5,3.5,0,0,0-1.38.26,3.23,3.23,0,0,0-1.11.72,3.29,3.29,0,0,0-.74,1.09,3.66,3.66,0,0,0,0,2.71,3.29,3.29,0,0,0,.74,1.09,3.23,3.23,0,0,0,1.11.72,3.5,3.5,0,0,0,1.38.26,3.68,3.68,0,0,0,1.29-.22,2.93,2.93,0,0,0,1.1-.71l.36.36a3.13,3.13,0,0,1-1.23.82A4.34,4.34,0,0,1,205,230Z"/><path class="cls-2" d="M215,230a4.18,4.18,0,0,1-1.6-.29,3.79,3.79,0,0,1-1.29-.84,3.73,3.73,0,0,1-.86-1.25,4.23,4.23,0,0,1,0-3.13,3.63,3.63,0,0,1,.86-1.25,3.79,3.79,0,0,1,1.29-.84,4.18,4.18,0,0,1,1.6-.29,4.23,4.23,0,0,1,1.61.29,4,4,0,0,1,1.29.83,4,4,0,0,1,0,5.65,4,4,0,0,1-1.29.83A4.23,4.23,0,0,1,215,230Zm0-.52a3.46,3.46,0,0,0,1.38-.26,3.3,3.3,0,0,0,1.83-1.81,3.69,3.69,0,0,0,0-2.72,3.33,3.33,0,0,0-.73-1.08,3.28,3.28,0,0,0-1.1-.72,3.46,3.46,0,0,0-1.38-.26,3.53,3.53,0,0,0-1.38.26,3.28,3.28,0,0,0-1.1.72,3.35,3.35,0,0,0-.74,1.08,3.69,3.69,0,0,0,0,2.72,3.36,3.36,0,0,0,1.84,1.81A3.53,3.53,0,0,0,215,229.49Zm-.63-8,1.54-1.31h.81L215,221.54Z"/><path class="cls-2" d="M226.55,230a4.23,4.23,0,0,1-1.61-.29,3.82,3.82,0,0,1-1.28-.83,3.7,3.7,0,0,1-.85-1.25,4.28,4.28,0,0,1,0-3.15,3.7,3.7,0,0,1,.85-1.25,4,4,0,0,1,1.29-.83,4.18,4.18,0,0,1,1.6-.29,4.57,4.57,0,0,1,1.54.26,3.13,3.13,0,0,1,1.23.82l-.36.36a3,3,0,0,0-1.11-.7,3.63,3.63,0,0,0-1.28-.22,3.46,3.46,0,0,0-1.38.26,3.37,3.37,0,0,0-1.12.72,3.26,3.26,0,0,0-.73,1.09,3.66,3.66,0,0,0,0,2.71,3.26,3.26,0,0,0,.73,1.09,3.37,3.37,0,0,0,1.12.72,3.46,3.46,0,0,0,1.38.26,3.63,3.63,0,0,0,1.28-.22,2.89,2.89,0,0,0,1.11-.71l.36.36a3.13,3.13,0,0,1-1.23.82A4.34,4.34,0,0,1,226.55,230Z"/><path class="cls-2" d="M234.83,230v-7.28H232v-.51h6.17v.51h-2.8V230Z"/><path class="cls-2" d="M242.4,229.45h4.8V230h-5.37v-7.79H247v.51H242.4Zm-.07-3.7h4.22v.5h-4.22Z"/><path class="cls-2" d="M251.5,230v-7.79h.56v7.28h4.49V230Z"/><path class="cls-3" d="M274.3,236.06a4.44,4.44,0,0,1-1.59-.29,3,3,0,0,1-1.15-.75l.29-.44a2.73,2.73,0,0,0,1,.69,3.7,3.7,0,0,0,1.44.27,2.38,2.38,0,0,0,1.62-.49,1.62,1.62,0,0,0,.55-1.27,1.77,1.77,0,0,0-.26-1,1.63,1.63,0,0,0-.87-.61,4.93,4.93,0,0,0-1.66-.22h-1.58l.41-3.77h4.13v.51h-3.9l.28-.27-.37,3.31-.26-.29h1.41a5.16,5.16,0,0,1,1.89.28,2,2,0,0,1,1,.8,2.24,2.24,0,0,1,.32,1.2,2.32,2.32,0,0,1-.31,1.17,2.12,2.12,0,0,1-.9.82A3.29,3.29,0,0,1,274.3,236.06Z"/><path class="cls-3" d="M278.59,231.1a.45.45,0,0,1-.32-.14.44.44,0,0,1-.14-.34.42.42,0,0,1,.14-.33.45.45,0,0,1,.32-.14.48.48,0,0,1,.47.47.48.48,0,0,1-.14.34A.45.45,0,0,1,278.59,231.1Zm0,5a.45.45,0,0,1-.32-.14.44.44,0,0,1-.14-.34.42.42,0,0,1,.14-.33.45.45,0,0,1,.32-.14.48.48,0,0,1,.47.47.48.48,0,0,1-.14.34A.45.45,0,0,1,278.59,236.05Z"/><path class="cls-3" d="M285.46,236.06a4.38,4.38,0,0,1-1.6-.29,2.88,2.88,0,0,1-1.15-.75l.29-.44a2.64,2.64,0,0,0,1,.69,3.8,3.8,0,0,0,1.46.27,2.41,2.41,0,0,0,1.59-.47,1.71,1.71,0,0,0,0-2.51,2.64,2.64,0,0,0-1.72-.47h-.49v-.41l2.48-3.17.08.22H283v-.51h4.88v.4l-2.47,3.17-.24-.18h.24a3.09,3.09,0,0,1,2.08.61,2,2,0,0,1,.69,1.59,2.25,2.25,0,0,1-.3,1.16,2.07,2.07,0,0,1-.92.8A3.49,3.49,0,0,1,285.46,236.06Z"/><path class="cls-3" d="M292.43,236.06a2.71,2.71,0,0,1-1.58-.48,3.15,3.15,0,0,1-1.08-1.36,5.9,5.9,0,0,1,0-4.22,3.15,3.15,0,0,1,1.08-1.36,2.71,2.71,0,0,1,1.58-.48,2.66,2.66,0,0,1,1.58.48,3.15,3.15,0,0,1,1.08,1.36,5.9,5.9,0,0,1,0,4.22,3.15,3.15,0,0,1-1.08,1.36A2.66,2.66,0,0,1,292.43,236.06Zm0-.52a2.14,2.14,0,0,0,1.3-.41,2.65,2.65,0,0,0,.87-1.17,5.68,5.68,0,0,0,0-3.7,2.65,2.65,0,0,0-.87-1.17,2.14,2.14,0,0,0-1.3-.4,2.18,2.18,0,0,0-1.3.4,2.65,2.65,0,0,0-.87,1.17,5.68,5.68,0,0,0,0,3.7,2.65,2.65,0,0,0,.87,1.17A2.19,2.19,0,0,0,292.43,235.54Z"/><path class="cls-3" d="M300.13,238.16v-8h.53v1.9l-.09,1,.11,1v4Zm2.91-2.11a2.68,2.68,0,0,1-1.38-.36,2.45,2.45,0,0,1-1-1,3.29,3.29,0,0,1-.36-1.58,3.22,3.22,0,0,1,.36-1.57,2.54,2.54,0,0,1,1-1,2.68,2.68,0,0,1,1.38-.36,2.87,2.87,0,0,1,1.47.38,2.64,2.64,0,0,1,1,1,3,3,0,0,1,.37,1.53,3.11,3.11,0,0,1-.37,1.54,2.71,2.71,0,0,1-1,1A2.87,2.87,0,0,1,303,236.05Zm0-.5a2.33,2.33,0,0,0,1.2-.31,2.24,2.24,0,0,0,.84-.86,2.66,2.66,0,0,0,.3-1.28,2.6,2.6,0,0,0-.3-1.28,2.24,2.24,0,0,0-.84-.86,2.44,2.44,0,0,0-1.2-.31,2.38,2.38,0,0,0-1.2.31,2.15,2.15,0,0,0-.83.86,2.5,2.5,0,0,0-.31,1.28,2.55,2.55,0,0,0,.31,1.28,2.15,2.15,0,0,0,.83.86A2.28,2.28,0,0,0,303,235.55Z"/><path class="cls-3" d="M314.86,230.15a2.59,2.59,0,0,1,1.22.28,1.84,1.84,0,0,1,.81.82,2.94,2.94,0,0,1,.29,1.36V236h-.56v-3.34a2.09,2.09,0,0,0-.48-1.49,1.74,1.74,0,0,0-1.33-.52,2.29,2.29,0,0,0-1.14.28,1.89,1.89,0,0,0-.73.78,2.62,2.62,0,0,0-.26,1.2V236h-.55v-3.34a2.09,2.09,0,0,0-.48-1.49,1.75,1.75,0,0,0-1.34-.52,2.28,2.28,0,0,0-1.13.28,1.89,1.89,0,0,0-.73.78,2.62,2.62,0,0,0-.26,1.2V236h-.56v-5.8h.54v1.6l-.08-.18a2.16,2.16,0,0,1,.86-1.07,2.59,2.59,0,0,1,1.44-.4,2.44,2.44,0,0,1,1.47.44,2.05,2.05,0,0,1,.75,1.31l-.19-.08a2.25,2.25,0,0,1,.88-1.2A2.6,2.6,0,0,1,314.86,230.15Z"/><line class="cls-1" x1="214.54" y1="298.63" x2="97.13" y2="298.63"/><path class="cls-2" d="M100.83,295.15v-7.78h2.79a4.1,4.1,0,0,1,1.68.31,2.39,2.39,0,0,1,1.08.89,2.59,2.59,0,0,1,.38,1.42,2.55,2.55,0,0,1-.38,1.4,2.41,2.41,0,0,1-1.08.9,4.09,4.09,0,0,1-1.68.32h-2.48l.26-.27v2.81Zm.57-2.78-.26-.27h2.48a2.86,2.86,0,0,0,1.91-.55,2.2,2.2,0,0,0,0-3.12,2.86,2.86,0,0,0-1.91-.55h-2.48l.26-.28Zm4.84,2.78-2-2.82h.65l2,2.82Z"/><path class="cls-2" d="M111.63,294.64h4.81v.51h-5.38v-7.78h5.21v.51h-4.64Zm-.07-3.69h4.22v.5h-4.22Z"/><path class="cls-2" d="M124,295.21a4.23,4.23,0,0,1-1.61-.3,3.8,3.8,0,0,1-1.28-.82,3.74,3.74,0,0,1-.85-1.26,4.26,4.26,0,0,1,0-3.14,3.6,3.6,0,0,1,.85-1.25,3.81,3.81,0,0,1,1.29-.83,4.18,4.18,0,0,1,1.6-.3,4.34,4.34,0,0,1,1.54.27,3.22,3.22,0,0,1,1.23.81l-.36.37a3,3,0,0,0-1.11-.71,3.87,3.87,0,0,0-1.28-.22,3.74,3.74,0,0,0-1.39.26,3.43,3.43,0,0,0-1.11.72,3.49,3.49,0,0,0,0,4.9,3.43,3.43,0,0,0,1.11.72,3.74,3.74,0,0,0,1.39.26,3.87,3.87,0,0,0,1.28-.22,2.91,2.91,0,0,0,1.11-.72l.36.37a3.37,3.37,0,0,1-1.23.82A4.34,4.34,0,0,1,124,295.21Z"/><path class="cls-2" d="M131.45,294.64h4.81v.51h-5.38v-7.78h5.21v.51h-4.64Zm-.07-3.69h4.22v.5h-4.22Z"/><path class="cls-2" d="M140.55,295.15v-7.78h2.79a4.1,4.1,0,0,1,1.68.31,2.39,2.39,0,0,1,1.08.89,2.59,2.59,0,0,1,.38,1.42,2.55,2.55,0,0,1-.38,1.4,2.29,2.29,0,0,1-1.08.9,4.09,4.09,0,0,1-1.68.32h-2.48l.26-.27v2.81Zm.57-2.78-.26-.28h2.48a2.88,2.88,0,0,0,1.91-.55,1.92,1.92,0,0,0,.65-1.55,2,2,0,0,0-.65-1.56,2.88,2.88,0,0,0-1.91-.55h-2.48l.26-.28Z"/><path class="cls-2" d="M154,295.21a4.23,4.23,0,0,1-1.61-.3,3.8,3.8,0,0,1-1.28-.82,3.74,3.74,0,0,1-.85-1.26,4.26,4.26,0,0,1,0-3.14,3.75,3.75,0,0,1,.85-1.25,3.81,3.81,0,0,1,1.29-.83,4.18,4.18,0,0,1,1.6-.3,4.34,4.34,0,0,1,1.54.27,3.22,3.22,0,0,1,1.23.81l-.36.37a3.05,3.05,0,0,0-1.1-.71,4,4,0,0,0-1.29-.22,3.65,3.65,0,0,0-1.38.26,3.25,3.25,0,0,0-1.85,1.81,3.69,3.69,0,0,0,0,2.72,3.25,3.25,0,0,0,1.85,1.81,3.65,3.65,0,0,0,1.38.26,4,4,0,0,0,1.29-.22,3,3,0,0,0,1.1-.72l.36.37a3.37,3.37,0,0,1-1.23.82A4.34,4.34,0,0,1,154,295.21Z"/><path class="cls-2" d="M160.91,295.15v-7.78h.57v7.78Z"/><path class="cls-2" d="M169.72,295.21a4.22,4.22,0,0,1-1.6-.3,3.63,3.63,0,0,1-1.29-.83,3.74,3.74,0,0,1-.85-1.26,4.21,4.21,0,0,1,0-3.12,3.74,3.74,0,0,1,.85-1.26,3.63,3.63,0,0,1,1.29-.83,4.44,4.44,0,0,1,3.21,0,3.81,3.81,0,0,1,1.29.83,3.9,3.9,0,0,1,.85,1.25,4.26,4.26,0,0,1,0,3.14,4.06,4.06,0,0,1-.85,1.26,3.94,3.94,0,0,1-1.29.82A4.23,4.23,0,0,1,169.72,295.21Zm0-.52a3.65,3.65,0,0,0,1.38-.26,3.3,3.3,0,0,0,1.83-1.81,3.4,3.4,0,0,0,.26-1.36,3.33,3.33,0,0,0-.26-1.36,3.3,3.3,0,0,0-1.83-1.81,3.65,3.65,0,0,0-1.38-.26,3.72,3.72,0,0,0-1.38.26,3.28,3.28,0,0,0-1.1.72,3.4,3.4,0,0,0-.74,1.09,3.51,3.51,0,0,0-.26,1.36,3.58,3.58,0,0,0,.26,1.36,3.4,3.4,0,0,0,.74,1.09,3.28,3.28,0,0,0,1.1.72A3.72,3.72,0,0,0,169.72,294.69Zm-.63-8,1.55-1.31h.8l-1.75,1.31Z"/><path class="cls-2" d="M178,295.15v-7.78h.47l5.55,7.08h-.25v-7.08h.57v7.78h-.47l-5.56-7.08h.25v7.08Z"/><path class="cls-3" d="M46,298.69a3,3,0,0,1-1.71-.47,2.76,2.76,0,0,1-1-1.35,5.47,5.47,0,0,1-.36-2.09,5,5,0,0,1,.43-2.21,3,3,0,0,1,1.22-1.33,3.52,3.52,0,0,1,1.81-.45,4.86,4.86,0,0,1,1,.09,2.37,2.37,0,0,1,.82.31l-.24.46a2.13,2.13,0,0,0-.69-.28,4.52,4.52,0,0,0-.84-.08,2.7,2.7,0,0,0-2.1.85,3.62,3.62,0,0,0-.79,2.55c0,.17,0,.39,0,.65a4.12,4.12,0,0,0,.14.78l-.2-.06a2.21,2.21,0,0,1,.44-1.1,2.35,2.35,0,0,1,.91-.7A3,3,0,0,1,46,294a3.1,3.1,0,0,1,1.37.28,2.17,2.17,0,0,1,.91.81,2.2,2.2,0,0,1,.33,1.22,2.3,2.3,0,0,1-.34,1.24,2.39,2.39,0,0,1-.93.82A3,3,0,0,1,46,298.69Zm0-.49a2.38,2.38,0,0,0,1.07-.23,1.74,1.74,0,0,0,1-1.62A1.69,1.69,0,0,0,47.5,295a2.22,2.22,0,0,0-1.55-.5,2.54,2.54,0,0,0-1.13.24,1.91,1.91,0,0,0-.76.67,1.69,1.69,0,0,0-.27.94,1.66,1.66,0,0,0,.25.88,2,2,0,0,0,.75.68A2.53,2.53,0,0,0,46,298.2Z"/><path class="cls-3" d="M50.11,293.73a.48.48,0,0,1-.47-.48.42.42,0,0,1,.14-.34.44.44,0,0,1,.33-.13.44.44,0,0,1,.32.13.42.42,0,0,1,.14.34.45.45,0,0,1-.14.34A.45.45,0,0,1,50.11,293.73Zm0,4.95a.48.48,0,0,1-.47-.48.42.42,0,0,1,.14-.34.44.44,0,0,1,.33-.13.44.44,0,0,1,.32.13.42.42,0,0,1,.14.34.45.45,0,0,1-.14.34A.45.45,0,0,1,50.11,298.68Z"/><path class="cls-3" d="M57,298.69a4.46,4.46,0,0,1-1.6-.29,3.08,3.08,0,0,1-1.15-.76l.29-.43a2.67,2.67,0,0,0,1,.68,3.71,3.71,0,0,0,1.45.27,2.38,2.38,0,0,0,1.59-.46,1.57,1.57,0,0,0,.55-1.26,1.55,1.55,0,0,0-.55-1.25,2.55,2.55,0,0,0-1.71-.47h-.49v-.42l2.48-3.17.07.23h-4.4v-.52h4.88v.4l-2.47,3.17-.24-.17h.24a3,3,0,0,1,2.08.61,2,2,0,0,1,.69,1.59,2.25,2.25,0,0,1-.3,1.16,2.16,2.16,0,0,1-.91.8A3.57,3.57,0,0,1,57,298.69Z"/><path class="cls-3" d="M63.94,298.69a2.71,2.71,0,0,1-1.58-.48,3.15,3.15,0,0,1-1.08-1.36,5.9,5.9,0,0,1,0-4.22,3.15,3.15,0,0,1,1.08-1.36,2.86,2.86,0,0,1,3.17,0,3.21,3.21,0,0,1,1.07,1.36,5.9,5.9,0,0,1,0,4.22,3.21,3.21,0,0,1-1.07,1.36A2.72,2.72,0,0,1,63.94,298.69Zm0-.53a2.14,2.14,0,0,0,1.3-.4,2.63,2.63,0,0,0,.87-1.18,5.65,5.65,0,0,0,0-3.69,2.65,2.65,0,0,0-.87-1.17,2.25,2.25,0,0,0-2.59,0,2.6,2.6,0,0,0-.88,1.17,5.65,5.65,0,0,0,0,3.69,2.58,2.58,0,0,0,.88,1.18A2.13,2.13,0,0,0,63.94,298.16Z"/><path class="cls-3" d="M71.64,300.79v-8h.53v1.91l-.09,1,.12,1v4Zm2.91-2.11a2.68,2.68,0,0,1-1.38-.36,2.6,2.6,0,0,1-1-1,3.22,3.22,0,0,1-.36-1.57,3.26,3.26,0,0,1,.36-1.58,2.51,2.51,0,0,1,1-1,2.68,2.68,0,0,1,1.38-.36,2.93,2.93,0,0,1,1.48.37,2.75,2.75,0,0,1,1,1,3.11,3.11,0,0,1,.37,1.54,3,3,0,0,1-.37,1.53,2.68,2.68,0,0,1-1,1A2.94,2.94,0,0,1,74.55,298.68Zm0-.51a2.4,2.4,0,0,0,1.2-.3,2.17,2.17,0,0,0,.84-.86,2.82,2.82,0,0,0,0-2.57,2.15,2.15,0,0,0-.84-.85,2.48,2.48,0,0,0-2.4,0,2.19,2.19,0,0,0-.83.85,2.82,2.82,0,0,0,0,2.57,2.21,2.21,0,0,0,.83.86A2.4,2.4,0,0,0,74.52,298.17Z"/><path class="cls-3" d="M86.38,292.78a2.57,2.57,0,0,1,1.21.27,1.86,1.86,0,0,1,.81.83,2.91,2.91,0,0,1,.29,1.36v3.39h-.56v-3.35a2.15,2.15,0,0,0-.47-1.49,1.76,1.76,0,0,0-1.34-.51,2.15,2.15,0,0,0-1.13.28,1.8,1.8,0,0,0-.74.78,2.6,2.6,0,0,0-.25,1.2v3.09h-.56v-3.35a2.1,2.1,0,0,0-.48-1.49,1.73,1.73,0,0,0-1.33-.51,2.19,2.19,0,0,0-1.14.28,1.78,1.78,0,0,0-.73.78,2.59,2.59,0,0,0-.26,1.2v3.09h-.55v-5.81h.53v1.61l-.08-.18a2.23,2.23,0,0,1,.86-1.08,2.6,2.6,0,0,1,1.45-.39,2.43,2.43,0,0,1,1.46.44,2,2,0,0,1,.75,1.31l-.19-.08a2.32,2.32,0,0,1,.88-1.21A2.6,2.6,0,0,1,86.38,292.78Z"/><circle class="cls-1" cx="192.11" cy="123.21" r="4.67"/><circle class="cls-1" cx="192.11" cy="478.53" r="4.67"/><path class="cls-5" d="M240.59,159.89c0-.63,0-1.23,0-1.82s0-1.15-.05-1.73a1.32,1.32,0,0,1,1-1.39c.48-.13,1-.26,1.44-.36a1.24,1.24,0,0,1,1.19.32c.86.84,1.7,1.69,2.55,2.55a1.3,1.3,0,0,1,.33,1.19c-.1.49-.22,1-.33,1.48a1.31,1.31,0,0,1-1.33,1.05c-1.09,0-2.18-.06-3.28-.1h-.35l.41.55A9.28,9.28,0,0,1,244,167.9a9.43,9.43,0,0,1-6.06,8.37.56.56,0,0,0-.31.31,9.43,9.43,0,0,1-7.35,6A9.67,9.67,0,0,1,225.11,164a.47.47,0,0,0,.28-.3,9.69,9.69,0,0,1,15.08-3.93Zm-4.39,14a5.41,5.41,0,0,0,1.17-.42.31.31,0,0,0,.23-.35,9.92,9.92,0,0,0-.21-2,8.95,8.95,0,1,0-7.74,10.8,9,9,0,0,0,7.18-5.26,10.75,10.75,0,0,1-1.52.26c-.15,0-.19.11-.26.21a7.43,7.43,0,0,1-7.66,3.39,7.6,7.6,0,1,1,4.79-14.22,7.41,7.41,0,0,1,4,6.05A7.51,7.51,0,0,1,236.2,173.91Zm-10-10.25a9.64,9.64,0,0,1,1.4-.25.42.42,0,0,0,.38-.21,7.6,7.6,0,1,1,5.49,11.62,7.6,7.6,0,0,1-6.64-8.44,8.76,8.76,0,0,0-1.27.48c-.12.06-.12.15-.12.26a9.6,9.6,0,0,0,.16,1.86,9,9,0,1,0,9.57-10.6,8.74,8.74,0,0,0-6,1.64A8.91,8.91,0,0,0,226.19,163.66Zm-1.48,3.75a6.77,6.77,0,0,0-2.84,6.87,6.89,6.89,0,0,0,6,5.59,6.74,6.74,0,0,0,6.4-2.91A9.68,9.68,0,0,1,224.71,167.41Zm13.64,5.47a6.75,6.75,0,0,0,2.76-7,6.82,6.82,0,0,0-6.18-5.42c-2.5-.17-5.62,1.35-6.14,2.91A9.72,9.72,0,0,1,238.35,172.88Zm-2.8.08a6.83,6.83,0,0,0-3.55-6,6.54,6.54,0,0,0-4.22-.82c-.15,0-.22.06-.24.23a6.78,6.78,0,0,0,.19,2.69,6.9,6.9,0,0,0,7.5,5c.17,0,.24-.08.25-.25S235.52,173.3,235.55,173Zm6.11-17.29,1,.93a.2.2,0,0,0,.2.08l1.71-.43-.8-.8a.6.6,0,0,0-.56-.17Zm4.39,4.36c.12-.58.24-1.1.35-1.63a.49.49,0,0,0-.15-.43c-.25-.28-.53-.54-.82-.83-.13.58-.25,1.13-.37,1.68a.23.23,0,0,0,.05.26C245.42,159.38,245.71,159.69,246.05,160Zm-2.1-1-1.23-1.23-1,2.21Zm-2.7,0h.14c.25-.57.5-1.14.76-1.71a.13.13,0,0,0,0-.18c-.28-.27-.55-.55-.87-.87V159Zm4.23,1.44-.33-.29c-.21-.2-.39-.51-.62-.55s-.51.19-.77.3l-1,.44,0,.1Zm-2.08-3.14,1,1,.3-1.38Z"/><path class="cls-6" d="M236.2,173.91a7.51,7.51,0,0,0,0-1.57,7.41,7.41,0,0,0-4-6.05,7.6,7.6,0,1,0-4.79,14.22,7.43,7.43,0,0,0,7.66-3.39c.07-.1.11-.2.26-.21a10.75,10.75,0,0,0,1.52-.26,9,9,0,0,1-7.18,5.26,8.95,8.95,0,1,1,7.74-10.8,9.92,9.92,0,0,1,.21,2,.31.31,0,0,1-.23.35A5.41,5.41,0,0,1,236.2,173.91Z"/><path class="cls-6" d="M226.19,163.66a8.91,8.91,0,0,1,3-3.64,8.74,8.74,0,0,1,6-1.64,8.95,8.95,0,1,1-9.57,10.6,9.6,9.6,0,0,1-.16-1.86c0-.11,0-.2.12-.26a8.76,8.76,0,0,1,1.27-.48,7.6,7.6,0,0,0,6.64,8.44A7.59,7.59,0,1,0,228,163.2a.42.42,0,0,1-.38.21A9.64,9.64,0,0,0,226.19,163.66Z"/><path class="cls-6" d="M238.35,172.88a9.72,9.72,0,0,0-9.56-9.54c.52-1.56,3.64-3.08,6.14-2.91a6.82,6.82,0,0,1,6.18,5.42A6.75,6.75,0,0,1,238.35,172.88Z"/><path class="cls-6" d="M241.66,155.67l1.52-.39a.6.6,0,0,1,.56.17l.8.8-1.71.43a.2.2,0,0,1-.2-.08Z"/><path class="cls-6" d="M246.05,160c-.34-.34-.63-.65-.94-.95a.23.23,0,0,1-.05-.26c.12-.55.24-1.1.37-1.68.29.29.57.55.82.83a.49.49,0,0,1,.15.43C246.29,158.93,246.17,159.45,246.05,160Z"/><path class="cls-6" d="M244,159l-2.21,1,1-2.21Z"/><path class="cls-6" d="M241.25,159v-2.75c.32.32.59.6.87.87a.13.13,0,0,1,0,.18c-.26.57-.51,1.14-.76,1.71Z"/><path class="cls-6" d="M245.48,160.42h-2.7l0-.1,1-.44c.26-.11.54-.34.77-.3s.41.35.62.55Z"/><path class="cls-6" d="M243.4,157.28l1.33-.34-.3,1.38Z"/><path class="cls-7" d="M136.83,370.09A12.89,12.89,0,1,1,149.7,383,12.9,12.9,0,0,1,136.83,370.09ZM149.7,357.6a12.5,12.5,0,1,0,12.51,12.45A12.51,12.51,0,0,0,149.7,357.6Z"/><path class="cls-7" d="M149.85,370.7a7,7,0,0,1,6.75,5.87,5.5,5.5,0,0,1,.09.91c0,.13,0,.2-.18.2s-.21-.05-.22-.21a6.59,6.59,0,0,0-8.18-6.16,6.41,6.41,0,0,0-4.8,4.83,6.26,6.26,0,0,0-.18,1.3c0,.15,0,.24-.21.24s-.18-.14-.18-.27a7,7,0,0,1,7.11-6.71Z"/><path class="cls-7" d="M145,367.13a1.67,1.67,0,0,1,0-3.33,1.67,1.67,0,0,1,0,3.33Z"/><path class="cls-7" d="M156,365.47a1.64,1.64,0,0,1-1.66,1.66,1.67,1.67,0,1,1,1.66-1.66Z"/><line class="cls-1" x1="167.08" y1="370.1" x2="266.21" y2="370.1"/><path class="cls-8" d="M200.63,355.34a3.93,3.93,0,0,1-1.42-.25,2.6,2.6,0,0,1-1-.67l.22-.37a2.69,2.69,0,0,0,1,.61,3.43,3.43,0,0,0,1.28.25,2.86,2.86,0,0,0,1.11-.18,1.41,1.41,0,0,0,.64-.48,1.13,1.13,0,0,0,.21-.67,1.05,1.05,0,0,0-.23-.7,1.68,1.68,0,0,0-.61-.41,4.75,4.75,0,0,0-.83-.26L200,352a4.09,4.09,0,0,1-.83-.32,1.6,1.6,0,0,1-.6-.52,1.49,1.49,0,0,1-.23-.87,1.64,1.64,0,0,1,.25-.89,1.84,1.84,0,0,1,.78-.66,3.2,3.2,0,0,1,1.37-.25,3.87,3.87,0,0,1,1.11.16,3.1,3.1,0,0,1,.93.45l-.18.4a3.25,3.25,0,0,0-.92-.44,3.51,3.51,0,0,0-.94-.14,2.82,2.82,0,0,0-1.08.19,1.3,1.3,0,0,0-.62.49,1.16,1.16,0,0,0-.21.68,1.05,1.05,0,0,0,.23.7,1.56,1.56,0,0,0,.6.41,4.87,4.87,0,0,0,.84.26l.9.23a4,4,0,0,1,.82.32,1.63,1.63,0,0,1,.61.52,1.4,1.4,0,0,1,.23.85,1.59,1.59,0,0,1-.26.89,1.84,1.84,0,0,1-.8.66A3.35,3.35,0,0,1,200.63,355.34Z"/><path class="cls-8" d="M207.18,354.85h4.18v.44h-4.68v-6.77h4.53V349h-4Zm-.06-3.22h3.67v.44h-3.67Z"/><path class="cls-8" d="M218.39,355.29l3.12-6.77H222l3.12,6.77h-.54l-2.94-6.46h.22l-2.94,6.46Zm1.14-1.9.17-.42h4.05l.17.42Z"/><path class="cls-8" d="M231.05,355.34a3.78,3.78,0,0,1-1.4-.25,3.39,3.39,0,0,1-1.12-.73,3.33,3.33,0,0,1-.73-1.08,3.45,3.45,0,0,1-.26-1.37,3.38,3.38,0,0,1,.26-1.37,3.15,3.15,0,0,1,.74-1.09,3.37,3.37,0,0,1,1.12-.72,3.51,3.51,0,0,1,1.39-.26,3.89,3.89,0,0,1,1.34.23,2.72,2.72,0,0,1,1.07.71l-.31.32a2.64,2.64,0,0,0-1-.62,3.46,3.46,0,0,0-1.12-.19,3.17,3.17,0,0,0-1.2.23,2.55,2.55,0,0,0-1,.63,2.76,2.76,0,0,0-.64.94,3.11,3.11,0,0,0-.23,1.19,3.06,3.06,0,0,0,.23,1.18,2.9,2.9,0,0,0,.64,1,2.81,2.81,0,0,0,1,.63,3.37,3.37,0,0,0,1.2.22,3.46,3.46,0,0,0,1.12-.19,2.67,2.67,0,0,0,1-.63l.31.32a2.74,2.74,0,0,1-1.07.72A3.89,3.89,0,0,1,231.05,355.34Z"/><path class="cls-8" d="M235.74,355.29l3.12-6.77h.49l3.12,6.77h-.54L239,348.83h.21l-2.93,6.46Zm1.14-1.9L237,353h4.06l.17.42Z"/><path class="cls-8" d="M245.63,355.29v-6.77h2.83a2.92,2.92,0,0,1,1.71.44,1.48,1.48,0,0,1,.62,1.29,1.55,1.55,0,0,1-.26.93,1.59,1.59,0,0,1-.72.57,2.82,2.82,0,0,1-1,.18l.17-.19a3.22,3.22,0,0,1,1.19.2,1.57,1.57,0,0,1,1,1.56,1.56,1.56,0,0,1-.62,1.32,3,3,0,0,1-1.88.47Zm.5-.42h2.52a2.67,2.67,0,0,0,1.49-.34,1.16,1.16,0,0,0,.52-1.07,1.17,1.17,0,0,0-.52-1.06,2.77,2.77,0,0,0-1.49-.33h-2.58v-.43h2.37a2.38,2.38,0,0,0,1.36-.33,1.16,1.16,0,0,0,.49-1,1.14,1.14,0,0,0-.49-1,2.37,2.37,0,0,0-1.36-.34h-2.31Z"/><path class="cls-8" d="M253.72,355.29l3.11-6.77h.5l3.12,6.77h-.54L257,348.83h.21l-2.93,6.46Zm1.14-1.9L255,353h4.06l.16.42Z"/><path class="cls-8" d="M198.44,366.91v-6.78h.49v6.34h3.91v.44Z"/><path class="cls-8" d="M204.91,366.91l3.12-6.78h.49l3.12,6.78h-.54l-2.94-6.46h.21l-2.93,6.46Zm1.14-1.91.16-.41h4.06l.17.41Z"/><path class="cls-8" d="M219.72,366.91h-.49v-6.78h4.53v.45h-4Zm-.06-3.43h3.67v.44h-3.67Z"/><path class="cls-8" d="M227.27,366.91v-6.78h.5v6.78Z"/><path class="cls-8" d="M232.56,366.47h4.18v.44h-4.68v-6.78h4.53v.45h-4Zm-.06-3.22h3.67v.44H232.5Z"/><path class="cls-8" d="M242.26,367a3.78,3.78,0,0,1-1.43-.26,2.66,2.66,0,0,1-1-.66l.22-.37a2.88,2.88,0,0,0,1,.61,3.43,3.43,0,0,0,1.28.24,3.16,3.16,0,0,0,1.11-.17,1.46,1.46,0,0,0,.64-.48,1.22,1.22,0,0,0,.2-.67,1,1,0,0,0-.23-.7,1.74,1.74,0,0,0-.61-.42,5.65,5.65,0,0,0-.82-.26l-.9-.22a3.87,3.87,0,0,1-.83-.32,1.45,1.45,0,0,1-.84-1.39,1.63,1.63,0,0,1,.26-.89,1.72,1.72,0,0,1,.78-.66,3.17,3.17,0,0,1,1.37-.25,3.75,3.75,0,0,1,1.1.16,3,3,0,0,1,.94.45l-.19.39a3.45,3.45,0,0,0-.91-.43,3.57,3.57,0,0,0-.94-.14,2.58,2.58,0,0,0-1.08.19,1.38,1.38,0,0,0-.63.49,1.23,1.23,0,0,0-.2.68,1,1,0,0,0,.23.7,1.56,1.56,0,0,0,.6.41,5.79,5.79,0,0,0,.83.26l.9.23a5.09,5.09,0,0,1,.83.31,1.74,1.74,0,0,1,.61.53,1.47,1.47,0,0,1,.23.85,1.68,1.68,0,0,1-.26.89,1.81,1.81,0,0,1-.8.65A3.24,3.24,0,0,1,242.26,367Z"/><path class="cls-8" d="M249.51,366.91v-6.33h-2.44v-.45h5.37v.45H250v6.33Z"/><path class="cls-8" d="M254.13,366.91l3.12-6.78h.49l3.12,6.78h-.54l-2.94-6.46h.21l-2.93,6.46Zm1.14-1.91.16-.41h4.06l.17.41Z"/><path class="cls-3" d="M274,362.86a3,3,0,0,1,1.72.47,2.9,2.9,0,0,1,1.05,1.34,5.5,5.5,0,0,1,.35,2.1,5,5,0,0,1-.43,2.2,3,3,0,0,1-1.21,1.34,3.59,3.59,0,0,1-1.82.45,4.86,4.86,0,0,1-.95-.09,2.4,2.4,0,0,1-.81-.31l.23-.46a1.9,1.9,0,0,0,.7.27,3.84,3.84,0,0,0,.83.09,2.77,2.77,0,0,0,2.11-.85,3.68,3.68,0,0,0,.79-2.56,5.73,5.73,0,0,0,0-.65,4,4,0,0,0-.14-.77l.2.06a2.09,2.09,0,0,1-.44,1.09,2.33,2.33,0,0,1-.9.7,3.36,3.36,0,0,1-2.59,0,2.2,2.2,0,0,1-.92-.81,2.31,2.31,0,0,1-.32-1.22,2.2,2.2,0,0,1,.34-1.24,2.22,2.22,0,0,1,.92-.82A3,3,0,0,1,274,362.86Zm0,.49a2.41,2.41,0,0,0-1.07.23,1.78,1.78,0,0,0-.72.64,1.81,1.81,0,0,0-.26,1,1.68,1.68,0,0,0,.57,1.33,2.22,2.22,0,0,0,1.55.5,2.52,2.52,0,0,0,1.12-.24,1.84,1.84,0,0,0,.76-.67,1.72,1.72,0,0,0,.27-.94,1.66,1.66,0,0,0-.25-.88,1.91,1.91,0,0,0-.75-.68A2.48,2.48,0,0,0,274,363.35Z"/><path class="cls-3" d="M278.84,365.8a.45.45,0,0,1-.33-.14.48.48,0,0,1-.14-.34.48.48,0,0,1,.47-.47.49.49,0,0,1,.33.14.44.44,0,0,1,.13.33.47.47,0,0,1-.13.34A.49.49,0,0,1,278.84,365.8Zm0,4.95a.45.45,0,0,1-.33-.14.48.48,0,0,1-.14-.34.44.44,0,0,1,.14-.33.45.45,0,0,1,.33-.14.49.49,0,0,1,.33.14.43.43,0,0,1,.13.33.47.47,0,0,1-.13.34A.49.49,0,0,1,278.84,370.75Z"/><path class="cls-3" d="M285.7,370.76a4.46,4.46,0,0,1-1.6-.29,3,3,0,0,1-1.15-.76l.29-.43a2.76,2.76,0,0,0,1,.68,3.57,3.57,0,0,0,1.45.28,2.42,2.42,0,0,0,1.6-.47,1.71,1.71,0,0,0,0-2.51,2.64,2.64,0,0,0-1.72-.47h-.49v-.41l2.48-3.17.08.22h-4.41v-.51h4.89v.4l-2.47,3.17-.25-.18h.25a3.06,3.06,0,0,1,2.08.61,2,2,0,0,1,.69,1.59,2.26,2.26,0,0,1-.31,1.16,2,2,0,0,1-.91.8A3.57,3.57,0,0,1,285.7,370.76Z"/><path class="cls-3" d="M292.67,370.76a2.71,2.71,0,0,1-1.58-.48,3.14,3.14,0,0,1-1.07-1.36,5.9,5.9,0,0,1,0-4.22,3.14,3.14,0,0,1,1.07-1.36,2.86,2.86,0,0,1,3.17,0,3.21,3.21,0,0,1,1.07,1.36,5.9,5.9,0,0,1,0,4.22,3.21,3.21,0,0,1-1.07,1.36A2.72,2.72,0,0,1,292.67,370.76Zm0-.52a2.19,2.19,0,0,0,1.31-.41,2.56,2.56,0,0,0,.86-1.17,5.68,5.68,0,0,0,0-3.7,2.56,2.56,0,0,0-.86-1.17,2.19,2.19,0,0,0-1.31-.41,2.13,2.13,0,0,0-1.29.41,2.6,2.6,0,0,0-.88,1.17,5.68,5.68,0,0,0,0,3.7,2.6,2.6,0,0,0,.88,1.17A2.13,2.13,0,0,0,292.67,370.24Z"/><path class="cls-3" d="M300.37,372.86v-8h.53v1.9l-.08,1,.11,1v4Zm2.91-2.11a2.68,2.68,0,0,1-1.38-.36,2.54,2.54,0,0,1-1-1,3.6,3.6,0,0,1,0-3.14,2.6,2.6,0,0,1,1-1,2.68,2.68,0,0,1,1.38-.36,2.94,2.94,0,0,1,1.48.38,2.62,2.62,0,0,1,1,1,3.35,3.35,0,0,1,0,3.06,2.71,2.71,0,0,1-1,1.05A3,3,0,0,1,303.28,370.75Zm0-.5a2.28,2.28,0,0,0,1.2-.31,2.11,2.11,0,0,0,.84-.86,2.55,2.55,0,0,0,.31-1.28,2.5,2.5,0,0,0-.31-1.28,2.11,2.11,0,0,0-.84-.86,2.46,2.46,0,0,0-2.39,0,2.11,2.11,0,0,0-.84.86,2.6,2.6,0,0,0-.3,1.28,2.66,2.66,0,0,0,.3,1.28,2.11,2.11,0,0,0,.84.86A2.27,2.27,0,0,0,303.25,370.25Z"/><path class="cls-3" d="M315.11,364.85a2.5,2.5,0,0,1,1.22.28,1.87,1.87,0,0,1,.8.82,2.82,2.82,0,0,1,.29,1.36v3.39h-.55v-3.34a2.09,2.09,0,0,0-.48-1.49,1.73,1.73,0,0,0-1.34-.52,2.28,2.28,0,0,0-1.13.28,1.92,1.92,0,0,0-.74.78,2.6,2.6,0,0,0-.25,1.2v3.09h-.56v-3.34a2.09,2.09,0,0,0-.48-1.49,1.7,1.7,0,0,0-1.33-.52,2.29,2.29,0,0,0-1.14.28,2,2,0,0,0-.73.78,2.59,2.59,0,0,0-.26,1.2v3.09h-.55v-5.8h.53v1.6l-.08-.18a2.16,2.16,0,0,1,.86-1.07,2.52,2.52,0,0,1,1.45-.4,2.43,2.43,0,0,1,1.46.44,2,2,0,0,1,.75,1.31l-.19-.08a2.32,2.32,0,0,1,.88-1.21A2.67,2.67,0,0,1,315.11,364.85Z"/><line class="cls-1" x1="215.57" y1="431.39" x2="98.16" y2="431.39"/><path class="cls-2" d="M84.13,427.21l3.58-7.78h.57l3.58,7.78h-.61l-3.38-7.42h.24l-3.37,7.42ZM85.44,425l.19-.48h4.66l.19.48Z"/><path class="cls-2" d="M96.06,427.21H95.5v-7.78h5.2v.51H96.06ZM96,423.27h4.21v.51H96Z"/><path class="cls-2" d="M106.29,427.21v-7.27h-2.81v-.51h6.18v.51h-2.81v7.27Z"/><path class="cls-2" d="M113.85,426.7h4.8v.51h-5.37v-7.78h5.21v.51h-4.64Zm-.07-3.69H118v.5h-4.22Z"/><path class="cls-2" d="M123,427.21v-7.78h2.79a4.1,4.1,0,0,1,1.68.31,2.41,2.41,0,0,1,1.08.9,2.79,2.79,0,0,1,0,2.81,2.41,2.41,0,0,1-1.08.9,4.09,4.09,0,0,1-1.68.32h-2.48l.26-.27v2.81Zm.57-2.78-.26-.26h2.48a2.88,2.88,0,0,0,1.91-.56,2.2,2.2,0,0,0,0-3.12,2.88,2.88,0,0,0-1.91-.55h-2.48l.26-.28Zm4.83,2.78-2-2.82H127l2,2.82Z"/><path class="cls-2" d="M138.26,427.21v-7.78h2.8a4.1,4.1,0,0,1,1.68.31,2.44,2.44,0,0,1,1.07.9,2.48,2.48,0,0,1,.38,1.41,2.52,2.52,0,0,1-.38,1.41,2.44,2.44,0,0,1-1.07.9,4.27,4.27,0,0,1-1.68.31h-2.48l.25-.27v2.81Zm.57-2.78-.25-.27h2.48a2.91,2.91,0,0,0,1.9-.55,2.2,2.2,0,0,0,0-3.12,2.85,2.85,0,0,0-1.9-.55h-2.48l.25-.28Z"/><path class="cls-2" d="M146.64,427.21l3.58-7.78h.57l3.58,7.78h-.61l-3.38-7.42h.24l-3.37,7.42ZM148,425l.19-.48h4.66l.19.48Z"/><path class="cls-2" d="M158,427.21v-7.78h2.79a4.1,4.1,0,0,1,1.68.31,2.41,2.41,0,0,1,1.08.9,2.79,2.79,0,0,1,0,2.81,2.41,2.41,0,0,1-1.08.9,4.09,4.09,0,0,1-1.68.32h-2.48l.25-.27v2.81Zm.56-2.78-.25-.26h2.48a2.88,2.88,0,0,0,1.91-.56,2.2,2.2,0,0,0,0-3.12,2.88,2.88,0,0,0-1.91-.55h-2.48l.25-.28Zm4.84,2.78-2-2.82H162l2,2.82Z"/><path class="cls-2" d="M169.62,427.21v-7.27h-2.8v-.51H173v.51h-2.8v7.27Z"/><path class="cls-2" d="M178.42,427.21v-2.82l.13.37-3.27-5.33h.62l3,4.84h-.31l3-4.84h.59l-3.27,5.33.13-.37v2.82Z"/><path class="cls-2" d="M186,427.26a.45.45,0,0,1-.32-.14.45.45,0,0,1,.32-.77.45.45,0,0,1,.34.13.46.46,0,0,1,0,.64A.46.46,0,0,1,186,427.26Zm-.21-2.28-.11-5.55h.65l-.11,5.55Z"/><path class="cls-3" d="M44.45,444.52V437l.26.26H42.55v-.51H45v7.79Z"/><path class="cls-3" d="M50,444.57a2.68,2.68,0,0,1-1.58-.47,3.19,3.19,0,0,1-1.08-1.37,5.88,5.88,0,0,1,0-4.21,3.1,3.1,0,0,1,1.08-1.36,2.84,2.84,0,0,1,3.16,0,3,3,0,0,1,1.07,1.36,5.88,5.88,0,0,1,0,4.21,3.1,3.1,0,0,1-1.07,1.37A2.66,2.66,0,0,1,50,444.57Zm0-.52a2.16,2.16,0,0,0,1.3-.4,2.69,2.69,0,0,0,.87-1.18,5.68,5.68,0,0,0,0-3.7,2.68,2.68,0,0,0-.87-1.16,2.27,2.27,0,0,0-2.6,0,2.6,2.6,0,0,0-.87,1.16,5.68,5.68,0,0,0,0,3.7,2.61,2.61,0,0,0,.87,1.18A2.16,2.16,0,0,0,50,444.05Z"/><path class="cls-3" d="M54.81,439.61a.42.42,0,0,1-.33-.14.46.46,0,0,1-.14-.34.45.45,0,0,1,.14-.33.44.44,0,0,1,.33-.13.48.48,0,0,1,.33.13.45.45,0,0,1,.14.33.46.46,0,0,1-.14.34A.45.45,0,0,1,54.81,439.61Zm0,4.95a.42.42,0,0,1-.33-.14.46.46,0,0,1-.14-.34.45.45,0,0,1,.14-.33.44.44,0,0,1,.33-.13.48.48,0,0,1,.33.13.45.45,0,0,1,.14.33.46.46,0,0,1-.14.34A.45.45,0,0,1,54.81,444.56Z"/><path class="cls-3" d="M62.44,444.57a2.68,2.68,0,0,1-1.58-.47,3.19,3.19,0,0,1-1.08-1.37,5.88,5.88,0,0,1,0-4.21,3.1,3.1,0,0,1,1.08-1.36,2.84,2.84,0,0,1,3.16,0,3.1,3.1,0,0,1,1.08,1.36,5.88,5.88,0,0,1,0,4.21A3.19,3.19,0,0,1,64,444.1,2.66,2.66,0,0,1,62.44,444.57Zm0-.52a2.14,2.14,0,0,0,1.3-.4,2.69,2.69,0,0,0,.87-1.18,5.68,5.68,0,0,0,0-3.7,2.68,2.68,0,0,0-.87-1.16,2.08,2.08,0,0,0-1.3-.41,2.12,2.12,0,0,0-1.3.41,2.68,2.68,0,0,0-.87,1.16,5.68,5.68,0,0,0,0,3.7,2.69,2.69,0,0,0,.87,1.18A2.18,2.18,0,0,0,62.44,444.05Z"/><path class="cls-3" d="M69.76,444.57a2.68,2.68,0,0,1-1.58-.47,3.19,3.19,0,0,1-1.08-1.37,5.88,5.88,0,0,1,0-4.21,3.1,3.1,0,0,1,1.08-1.36,2.84,2.84,0,0,1,3.16,0,3.1,3.1,0,0,1,1.08,1.36,6,6,0,0,1,0,4.21,3.19,3.19,0,0,1-1.08,1.37A2.66,2.66,0,0,1,69.76,444.57Zm0-.52a2.16,2.16,0,0,0,1.3-.4,2.69,2.69,0,0,0,.87-1.18,5.68,5.68,0,0,0,0-3.7,2.68,2.68,0,0,0-.87-1.16,2.27,2.27,0,0,0-2.6,0,2.68,2.68,0,0,0-.87,1.16,5.68,5.68,0,0,0,0,3.7,2.69,2.69,0,0,0,.87,1.18A2.18,2.18,0,0,0,69.76,444.05Z"/><path class="cls-3" d="M77.45,446.68v-8H78v1.9l-.09,1,.11,1v4Zm2.92-2.12a2.81,2.81,0,0,1-1.39-.35,2.67,2.67,0,0,1-1-1A3.63,3.63,0,0,1,78,440a2.67,2.67,0,0,1,1-1,2.81,2.81,0,0,1,1.39-.35,2.87,2.87,0,0,1,1.47.37,2.62,2.62,0,0,1,1,1,3.11,3.11,0,0,1,.38,1.54,3.07,3.07,0,0,1-.38,1.53,2.55,2.55,0,0,1-1,1A2.87,2.87,0,0,1,80.37,444.56Zm0-.5a2.44,2.44,0,0,0,1.21-.3,2.27,2.27,0,0,0,.84-.87,2.62,2.62,0,0,0,.3-1.27,2.67,2.67,0,0,0-.3-1.29,2.31,2.31,0,0,0-.84-.86,2.44,2.44,0,0,0-1.21-.3,2.36,2.36,0,0,0-1.19.3,2.31,2.31,0,0,0-.84.86,2.67,2.67,0,0,0-.3,1.29,2.62,2.62,0,0,0,.3,1.27,2.27,2.27,0,0,0,.84.87A2.36,2.36,0,0,0,80.33,444.06Z"/><path class="cls-3" d="M92.19,438.67a2.61,2.61,0,0,1,1.22.27,2,2,0,0,1,.81.82,3,3,0,0,1,.28,1.37v3.39H94v-3.35a2.1,2.1,0,0,0-.48-1.49,1.73,1.73,0,0,0-1.33-.51,2.19,2.19,0,0,0-1.14.28,1.78,1.78,0,0,0-.73.78,2.59,2.59,0,0,0-.26,1.2v3.09h-.55v-3.35a2.1,2.1,0,0,0-.48-1.49,1.76,1.76,0,0,0-1.34-.51,2.15,2.15,0,0,0-1.13.28,1.8,1.8,0,0,0-.74.78,2.6,2.6,0,0,0-.25,1.2v3.09H85v-5.81h.54v1.6l-.08-.17a2.17,2.17,0,0,1,.85-1.08,2.62,2.62,0,0,1,1.45-.39,2.33,2.33,0,0,1,1.46.44,2,2,0,0,1,.75,1.3l-.19-.07a2.32,2.32,0,0,1,.88-1.21A2.62,2.62,0,0,1,92.19,438.67Z"/><path class="cls-3" d="M101.22,444.56a3,3,0,0,1-1.12-.2,1.62,1.62,0,0,1-.72-.59,1.63,1.63,0,0,1,0-1.67,1.43,1.43,0,0,1,.68-.59,3.05,3.05,0,0,1,1.28-.23h2.14v.44h-2.13a1.87,1.87,0,0,0-1.26.33,1.15,1.15,0,0,0,.06,1.72,1.83,1.83,0,0,0,1.19.34,2.15,2.15,0,0,0,1.24-.34,1.92,1.92,0,0,0,.75-1l.16.37a2,2,0,0,1-.8,1A2.51,2.51,0,0,1,101.22,444.56Zm2.09,0V443.2l0-.2v-2.19a1.6,1.6,0,0,0-.44-1.23,1.78,1.78,0,0,0-1.28-.42,3.14,3.14,0,0,0-1.12.2,3,3,0,0,0-.88.53l-.28-.4a3.25,3.25,0,0,1,1-.61,4,4,0,0,1,1.28-.21,2.35,2.35,0,0,1,1.66.54,2.17,2.17,0,0,1,.58,1.63v3.68Z"/><path class="cls-3" d="M108.27,444.52v-.4l3.3-3.27a6.17,6.17,0,0,0,.7-.82,2.24,2.24,0,0,0,.31-.65,2.06,2.06,0,0,0,.09-.59,1.45,1.45,0,0,0-.5-1.16,2.2,2.2,0,0,0-1.47-.43,3.42,3.42,0,0,0-1.29.22,2.64,2.64,0,0,0-1,.68l-.4-.35a2.85,2.85,0,0,1,1.13-.79,4,4,0,0,1,1.55-.28,3.16,3.16,0,0,1,1.33.25,1.87,1.87,0,0,1,.87.71,2,2,0,0,1,.31,1.09,2.6,2.6,0,0,1-.11.74,2.74,2.74,0,0,1-.38.77,6.84,6.84,0,0,1-.78.91l-3.09,3.08-.19-.22h4.92v.51Z"/><path class="cls-3" d="M115.19,439.61a.45.45,0,0,1-.33-.14.45.45,0,0,1-.13-.34.44.44,0,0,1,.13-.33.48.48,0,0,1,.33-.13.44.44,0,0,1,.33.13.45.45,0,0,1,.14.33.46.46,0,0,1-.14.34A.42.42,0,0,1,115.19,439.61Zm0,4.95a.45.45,0,0,1-.33-.14.45.45,0,0,1-.13-.34.44.44,0,0,1,.13-.33.48.48,0,0,1,.33-.13.44.44,0,0,1,.33.13.45.45,0,0,1,.14.33.46.46,0,0,1-.14.34A.42.42,0,0,1,115.19,444.56Z"/><path class="cls-3" d="M122.06,444.57a4.37,4.37,0,0,1-1.6-.28,3,3,0,0,1-1.15-.76l.29-.44a2.54,2.54,0,0,0,1,.69,3.8,3.8,0,0,0,1.46.27,2.36,2.36,0,0,0,1.59-.47,1.7,1.7,0,0,0,0-2.5,2.58,2.58,0,0,0-1.72-.48h-.49v-.41l2.48-3.17.08.22h-4.4v-.51h4.88v.4L122,440.3l-.24-.17H122a3,3,0,0,1,2.08.61,2,2,0,0,1,.69,1.59,2.13,2.13,0,0,1-.31,1.15,2,2,0,0,1-.91.81A3.49,3.49,0,0,1,122.06,444.57Z"/><path class="cls-3" d="M129,444.57a2.7,2.7,0,0,1-1.58-.47,3.19,3.19,0,0,1-1.08-1.37,5.88,5.88,0,0,1,0-4.21,3.1,3.1,0,0,1,1.08-1.36,2.71,2.71,0,0,1,1.58-.48,2.66,2.66,0,0,1,1.58.48,3.1,3.1,0,0,1,1.08,1.36,5.88,5.88,0,0,1,0,4.21,3.19,3.19,0,0,1-1.08,1.37A2.66,2.66,0,0,1,129,444.57Zm0-.52a2.14,2.14,0,0,0,1.3-.4,2.69,2.69,0,0,0,.87-1.18,5.68,5.68,0,0,0,0-3.7,2.68,2.68,0,0,0-.87-1.16,2.08,2.08,0,0,0-1.3-.41,2.12,2.12,0,0,0-1.3.41,2.68,2.68,0,0,0-.87,1.16,5.68,5.68,0,0,0,0,3.7,2.69,2.69,0,0,0,.87,1.18A2.18,2.18,0,0,0,129,444.05Z"/><path class="cls-3" d="M138.29,444.56a2.86,2.86,0,0,1-1.11-.2,1.6,1.6,0,0,1-.73-.59,1.63,1.63,0,0,1,0-1.67,1.48,1.48,0,0,1,.68-.59,3.05,3.05,0,0,1,1.28-.23h2.14v.44h-2.13a1.87,1.87,0,0,0-1.26.33,1.15,1.15,0,0,0,.06,1.72,1.83,1.83,0,0,0,1.19.34,2.13,2.13,0,0,0,1.24-.34,1.92,1.92,0,0,0,.75-1l.16.37a2,2,0,0,1-.8,1A2.51,2.51,0,0,1,138.29,444.56Zm2.1,0V443.2l0-.2v-2.19a1.6,1.6,0,0,0-.44-1.23,1.78,1.78,0,0,0-1.28-.42,3,3,0,0,0-2,.73l-.28-.4a3.25,3.25,0,0,1,1-.61,4,4,0,0,1,1.28-.21,2.34,2.34,0,0,1,1.66.54,2.14,2.14,0,0,1,.58,1.63v3.68Z"/><path class="cls-3" d="M150.44,438.67a2.61,2.61,0,0,1,1.22.27,1.92,1.92,0,0,1,.8.82,2.84,2.84,0,0,1,.29,1.37v3.39h-.55v-3.35a2.1,2.1,0,0,0-.48-1.49,1.73,1.73,0,0,0-1.33-.51,2.19,2.19,0,0,0-1.14.28,1.78,1.78,0,0,0-.73.78,2.59,2.59,0,0,0-.26,1.2v3.09h-.56v-3.35a2.15,2.15,0,0,0-.47-1.49,1.76,1.76,0,0,0-1.34-.51,2.15,2.15,0,0,0-1.13.28,1.8,1.8,0,0,0-.74.78,2.6,2.6,0,0,0-.25,1.2v3.09h-.56v-5.81h.53v1.6l-.07-.17a2.17,2.17,0,0,1,.85-1.08,2.62,2.62,0,0,1,1.45-.39,2.33,2.33,0,0,1,1.46.44,2,2,0,0,1,.75,1.3l-.19-.07a2.32,2.32,0,0,1,.88-1.21A2.62,2.62,0,0,1,150.44,438.67Z"/><path class="cls-9" d="M240.4,432a2.73,2.73,0,0,1,.31.85,1.81,1.81,0,0,1-2.09,2,1.54,1.54,0,0,1-1.07-1.46,2,2,0,0,1,1-1.87,2.43,2.43,0,0,0-1.12-.39,2.56,2.56,0,0,0-1.59.4c-.15.09-.16.16-.06.31a8.52,8.52,0,0,1,1.17,2.21,2.75,2.75,0,0,1,.14.8,1.12,1.12,0,0,1-.73,1.14l-10.91,4.83-3,1.33a2.43,2.43,0,0,1-3.43-1.8,2.56,2.56,0,0,1,.22-1.49l6.08-13.73a1.21,1.21,0,0,1,1.55-.81,6.77,6.77,0,0,1,2.48,1.15,23.56,23.56,0,0,1,4.08,3.51c.16.17.25.18.44,0a8.1,8.1,0,0,1,4.48-1.35c.36,0,.55.16.55.46s-.21.46-.56.46a7.57,7.57,0,0,0-3.87,1.15c-.19.12-.18.19,0,.33s.39.46.58.7.12.11.24,0a3.43,3.43,0,0,1,4.21.18.48.48,0,0,0,.37.09,6.19,6.19,0,0,1,3.26.47.45.45,0,0,1,.3.61.47.47,0,0,1-.66.25,5.5,5.5,0,0,0-1.87-.44C240.69,432,240.56,432,240.4,432Zm-14.67,7.66a8.23,8.23,0,0,1-3.13-2.54c-.28-.36-.29-.61,0-.81s.49-.13.79.25a6.8,6.8,0,0,0,3,2.33,1.41,1.41,0,0,0,1.28-.05,7.58,7.58,0,0,1,.92-.41l.62-.28.63-.29a15.58,15.58,0,0,1-5.3-4.64.47.47,0,1,1,.75-.55,15.84,15.84,0,0,0,2.7,2.85,9,9,0,0,0,2.74,1.67.69.69,0,0,0,.72-.05,2,2,0,0,0-.41-.2,16.13,16.13,0,0,1-5.8-5.21.46.46,0,0,1,.11-.67.47.47,0,0,1,.68.18,16.28,16.28,0,0,0,3.4,3.58,8.45,8.45,0,0,0,2.92,1.61.92.92,0,0,0,.56.07c.56-.23,1.11-.48,1.64-.72a24,24,0,0,1-9-9c-.24.53-.48,1.08-.72,1.62a.53.53,0,0,0,0,.33,5.27,5.27,0,0,0,.35,1.06.46.46,0,0,1-.25.63.47.47,0,0,1-.61-.26c0-.09,0-.2-.13-.25a.6.6,0,0,0-.06.69,8,8,0,0,0,.32.75.47.47,0,0,1-.21.63.45.45,0,0,1-.62-.22,2.37,2.37,0,0,1-.15-.28c-.26.58-.47,1.15-.76,1.69a2.12,2.12,0,0,0-.16,2.11.41.41,0,0,1-.21.56.45.45,0,0,1-.59-.12s0-.1-.1-.11c-.22.44-.22.44,0,.87.06.13.13.24.2.36a.46.46,0,1,1-.78.5c0-.05-.05-.14-.15-.14-.32.73-.65,1.45-1,2.19a1.4,1.4,0,0,0,.33,1.59,1.37,1.37,0,0,0,1.56.35c.76-.29,1.49-.65,2.27-1l-.25-.17a10.11,10.11,0,0,1-2-1.73.49.49,0,0,1-.11-.5.46.46,0,0,1,.37-.3.54.54,0,0,1,.49.24,8.54,8.54,0,0,0,2.15,1.77A.68.68,0,0,0,225.73,439.7Zm3.8-12.46a.91.91,0,0,0-1,.91,3.23,3.23,0,0,0,.56,1.77,8.61,8.61,0,0,0,1.65,1.92,18.4,18.4,0,0,0,3.81,2.87,3.66,3.66,0,0,0,1.11.43c.48.09.57,0,.47-.48a.17.17,0,0,0,0-.05,6.34,6.34,0,0,0-.87-1.84c-.27-.42-.27-.42-.59,0a.46.46,0,0,1-.66.1.45.45,0,0,1-.08-.65,3.4,3.4,0,0,1,.38-.47c.08-.09.1-.15,0-.25-.23-.27-.46-.54-.68-.82-.08-.11-.14-.1-.23,0a9.46,9.46,0,0,0-.94,1c-.22.27-.49.32-.71.14a.48.48,0,0,1,0-.73,7.58,7.58,0,0,1,1-1c.1-.09.15-.13,0-.25a24.4,24.4,0,0,0-2-1.92A2.23,2.23,0,0,0,229.53,427.24Zm8.95,6c0,.43.15.73.41.78a.85.85,0,0,0,.8-.49,1.13,1.13,0,0,0-.29-1.27.19.19,0,0,0-.13,0A1.13,1.13,0,0,0,238.48,433.24Z"/><path class="cls-9" d="M226.14,420a.68.68,0,0,0,0,.81,1.78,1.78,0,0,0,.86.72,2,2,0,0,1,1.19,1.46,3.22,3.22,0,0,1,.08.76.47.47,0,1,1-.93,0c0-.16,0-.32,0-.49a1,1,0,0,0-.53-.8,5.41,5.41,0,0,1-.87-.52,1.8,1.8,0,0,1-.64-2.22,1.08,1.08,0,0,1,.3-.42.71.71,0,0,0,.25-.67,2.2,2.2,0,0,1,1-2.1c.3-.18.57-.14.72.09s.08.5-.22.69a1.34,1.34,0,0,0-.59,1.05c0,.19,0,.24.21.2a2.1,2.1,0,0,1,.9,0,1.1,1.1,0,0,1,1,1.09,1.2,1.2,0,0,1-1.09,1.08A1.48,1.48,0,0,1,226.14,420Zm.82-.49a.57.57,0,0,0,.76.22c.06,0,.14-.06.14-.14s-.1-.12-.16-.13A1.34,1.34,0,0,0,227,419.53Z"/><path class="cls-9" d="M223.44,419.45a1.85,1.85,0,0,1-2,.62,1.2,1.2,0,0,1-.86-1.25,1.32,1.32,0,0,1,1.16-1.22,2.76,2.76,0,0,1,1.1.17,1.31,1.31,0,0,0-1.06-.94l-.29-.05a.46.46,0,0,1-.37-.53.48.48,0,0,1,.53-.38,2.31,2.31,0,0,1,2.2,2.39.33.33,0,0,0,.06.23,3.7,3.7,0,0,1,.43,3.05.47.47,0,0,1-.59.34.45.45,0,0,1-.3-.61,3.67,3.67,0,0,0,.14-1.19A1.86,1.86,0,0,0,223.44,419.45Zm-.68-.69a1.85,1.85,0,0,0-.89-.24.35.35,0,0,0-.35.38c0,.2.13.28.31.31A.89.89,0,0,0,222.76,418.76Z"/><path class="cls-9" d="M246.19,434.41a1.33,1.33,0,0,0-1.33-.24l-.36.14a.48.48,0,0,1-.58-.24.46.46,0,0,1,.22-.61,2.3,2.3,0,0,1,3.11.8.55.55,0,0,0,.32.26,3.08,3.08,0,0,1,1.76,2c0,.12.08.24.11.37a.47.47,0,0,1-.91.22,3.58,3.58,0,0,0-.3-.79,2,2,0,0,0-.63-.74c-.09,0-.06.1-.08.16a1.87,1.87,0,0,1-1.45,1.42,1.2,1.2,0,0,1-1.34-.85,1.3,1.3,0,0,1,.55-1.54A4.66,4.66,0,0,1,246.19,434.41Zm-.6,1.47c0,.27.19.41.42.34a1,1,0,0,0,.62-.77c0-.08,0-.14-.1-.12a2.12,2.12,0,0,0-.75.23A.32.32,0,0,0,245.59,435.88Z"/><path class="cls-9" d="M235.19,425.63c-.79-.83-.93-1.47-.47-2.05a1.45,1.45,0,0,1,1.9-.29,1.4,1.4,0,0,1,.6,2,2,2,0,0,0,1.66-1.08c.13-.22.28-.37.55-.31a.47.47,0,0,1,.3.71,2.93,2.93,0,0,1-3,1.59,1.13,1.13,0,0,0-.84.15,7.29,7.29,0,0,1-1.54.68.48.48,0,0,1-.67-.26c-.09-.28,0-.5.37-.62A8.27,8.27,0,0,0,235.19,425.63Zm.64-1.64c-.24,0-.43.14-.43.33s.47.75.7.74a.89.89,0,0,0,.4-.52C236.5,424.32,236.11,424,235.83,424Z"/><path class="cls-9" d="M235.13,418.28a1.09,1.09,0,0,0,.15-1,2.48,2.48,0,0,0-.25-.58.46.46,0,0,1,.17-.64.47.47,0,0,1,.64.19,2.16,2.16,0,0,1-.34,3c-.09.06-.08.13-.07.21a3.76,3.76,0,0,1-.68,2.39.47.47,0,0,1-.85-.1.52.52,0,0,1,.1-.46,2.91,2.91,0,0,0,.5-1.34c0-.17,0-.21-.2-.16a1.91,1.91,0,0,1-.89.07,1.2,1.2,0,0,1-1-1.59,1.39,1.39,0,0,1,1-1.1,1.37,1.37,0,0,1,1.34.56A3.8,3.8,0,0,1,235.13,418.28Zm-.81.5a1.74,1.74,0,0,0-.46-.63c-.17-.15-.31-.16-.42.07a1.11,1.11,0,0,0-.12.3c0,.28.06.39.34.39A2,2,0,0,0,234.32,418.78Z"/><path class="cls-9" d="M232.68,423.27a7.63,7.63,0,0,1-.72,3c-.15.35-.39.47-.66.35s-.35-.38-.2-.72a6.63,6.63,0,0,0,.64-3,4.74,4.74,0,0,0-.69-2.4.48.48,0,0,1,.1-.7.47.47,0,0,1,.69.21A6,6,0,0,1,232.68,423.27Z"/><path class="cls-9" d="M237.83,422a.45.45,0,0,1-.41-.27.46.46,0,0,1,.1-.53,8.23,8.23,0,0,1,1.29-1.14,8.75,8.75,0,0,1,3.41-1.52.45.45,0,0,1,.59.32.44.44,0,0,1-.39.57,8.39,8.39,0,0,0-3.74,1.93c-.18.16-.34.33-.51.5A.42.42,0,0,1,237.83,422Z"/><path class="cls-9" d="M241.53,429.18a12,12,0,0,1,3.66.53.9.9,0,0,1,.23.08.46.46,0,0,1-.31.87,11.31,11.31,0,0,0-2.24-.48,10.48,10.48,0,0,0-2-.07c-.35,0-.57-.12-.61-.4s.17-.5.52-.53S241.27,429.18,241.53,429.18Z"/><path class="cls-9" d="M241,423.16c.11-.4.21-.85.36-1.29a.4.4,0,0,1,.52-.24l1.13.3a.44.44,0,0,1,.36.59c-.09.38-.19.76-.29,1.13a.46.46,0,0,1-.57.35c-.38-.09-.77-.2-1.15-.31S241,423.46,241,423.16Z"/><path class="cls-9" d="M223,421.77a.48.48,0,0,1-.09.27c-.16.26-.33.52-.5.78a.46.46,0,0,1-.67.14l-.78-.5a.47.47,0,0,1-.15-.69c.16-.25.32-.51.49-.75a.46.46,0,0,1,.7-.16l.76.49A.47.47,0,0,1,223,421.77Z"/><path class="cls-9" d="M241.87,426.22c.27,0,.53,0,.79,0a.45.45,0,0,1,.45.46c0,.3,0,.6-.07.9a.44.44,0,0,1-.51.41c-.24,0-.49,0-.73-.05s-.53-.21-.52-.59l.06-.7A.47.47,0,0,1,241.87,426.22Z"/><path class="cls-9" d="M242.23,435.13a3.71,3.71,0,0,1,1,.49.39.39,0,0,1,.09.5c-.11.26-.22.52-.34.77a.45.45,0,0,1-.62.23c-.26-.1-.52-.22-.77-.34a.45.45,0,0,1-.22-.64c.1-.24.21-.48.32-.72A.46.46,0,0,1,242.23,435.13Z"/><path class="cls-9" d="M248.61,428.53c0,.21-.08.36-.23.44s-.43.27-.66.39a.45.45,0,0,1-.62-.17,5.38,5.38,0,0,1-.38-.66.43.43,0,0,1,.17-.61c.21-.14.44-.26.66-.39a.39.39,0,0,1,.44,0A3,3,0,0,1,248.61,428.53Z"/><path class="cls-9" d="M238.77,439.15c-.22,0-.36,0-.44-.16a6,6,0,0,1-.44-.78.41.41,0,0,1,.2-.56c.2-.13.42-.25.63-.37a.44.44,0,0,1,.62.16c.15.22.27.45.4.68a.37.37,0,0,1,0,.44A2.83,2.83,0,0,1,238.77,439.15Z"/><path class="cls-9" d="M230.64,417.75a.5.5,0,0,1-.28.45c-.21.1-.42.21-.64.3a.45.45,0,0,1-.62-.22c-.11-.21-.21-.43-.3-.64A.46.46,0,0,1,229,417c.22-.11.45-.2.67-.3a.38.38,0,0,1,.46.08A3.45,3.45,0,0,1,230.64,417.75Z"/><path class="cls-9" d="M229.33,414c0,.42-.1.61-.41.66a5.08,5.08,0,0,1-.67.07.43.43,0,0,1-.52-.4,5.82,5.82,0,0,1-.09-.73.43.43,0,0,1,.38-.49,5.27,5.27,0,0,1,.79-.07.43.43,0,0,1,.46.4s0,0,0,.06Z"/><path class="cls-9" d="M238.8,417.53c0,.25-.57.72-.9.72s-.72-.57-.72-.89.57-.72.89-.73S238.79,417.2,238.8,417.53Z"/><path class="cls-9" d="M246.8,419.28c-.13.32-.26.65-.41,1,0,.1-.15.09-.25.06l-.83-.33a.21.21,0,0,1-.13-.31c.1-.28.21-.55.33-.83a.2.2,0,0,1,.28-.14l.85.35A.22.22,0,0,1,246.8,419.28Z"/><path class="cls-10" d="M227,419.53a1.34,1.34,0,0,1,.74,0c.06,0,.15,0,.16.13s-.08.11-.14.14A.57.57,0,0,1,227,419.53Z"/><path class="cls-10" d="M222.76,418.76a.89.89,0,0,1-.93.45c-.18,0-.32-.11-.31-.31a.35.35,0,0,1,.35-.38A1.85,1.85,0,0,1,222.76,418.76Z"/><path class="cls-10" d="M235.83,424c.28,0,.67.33.67.55a.89.89,0,0,1-.4.52c-.23,0-.71-.5-.7-.74S235.59,424,235.83,424Z"/><path class="cls-10" d="M234.32,418.78a2,2,0,0,1-.66.13c-.28,0-.37-.11-.34-.39a1.11,1.11,0,0,1,.12-.3c.11-.23.25-.22.42-.07A1.74,1.74,0,0,1,234.32,418.78Z"/><path class="cls-11" d="M229.49,287.88l-1,.39c-.19.08-.37.08-.47-.13s0-.37.23-.45c.43-.17.86-.35,1.29-.5a.47.47,0,0,0,.36-.36c0-.17.1-.32.3-.34a.29.29,0,0,1,.34.24c0,.14.12.07.2,0a18.22,18.22,0,0,1,1.9-.48.28.28,0,0,0,.24-.26,3.86,3.86,0,0,1,.09-.51c.05-.18.17-.3.36-.26a.32.32,0,0,1,.26.39c-.06.44-.06.44.37.39a12.77,12.77,0,0,1,1.74-.15c.2,0,.27-.07.25-.27s0-.43,0-.65.09-.36.32-.37.31.16.31.37,0,.45,0,.68,0,.23.21.24a12.34,12.34,0,0,1,2.1.2c.21,0,.27,0,.22-.22a1.42,1.42,0,0,1-.05-.16c0-.22,0-.4.26-.45a.3.3,0,0,1,.36.32c0,.62.34.77.86.86a12.53,12.53,0,0,1,1.54.41c0-.17.07-.36.31-.37s.32.16.35.35.19.32.4.4c.39.13.76.29,1.14.45.19.08.35.2.24.44s-.29.21-.49.13l-.95-.38c.18.66.34,1.27.5,1.89,0,.13.14.12.23.14.25.08.52.14.78.2a.3.3,0,0,1,.24.39.28.28,0,0,1-.38.21,3.15,3.15,0,0,1-.44-.11c-.24-.08-.25,0-.21.22q.24,1.05.39,2.13c0,.11,0,.23.18.26.71.09,1.41.2,2.1.31.07-.1,0-.16,0-.23a.32.32,0,0,1,.26-.36.26.26,0,0,1,.34.22c0,.55.39.57.78.62.22,0,.39.14.34.38s-.23.29-.45.24l-.19,0c-.13,0-.22,0-.19.17a14.51,14.51,0,0,1,.22,2.19c0,.15.07.17.2.17h.71c.22,0,.37.1.36.32s-.14.3-.34.31h-.71c-.18,0-.23.06-.23.22a12.2,12.2,0,0,1-.19,2c0,.16,0,.25.19.2a1.14,1.14,0,0,1,.25-.06.31.31,0,0,1,.37.24c.06.19-.06.31-.23.38h-.06c-.6,0-.76.32-.85.83a13.15,13.15,0,0,1-.36,1.37c0,.12-.07.19.09.24a.27.27,0,0,1,.2.3.29.29,0,0,1-.25.29c-.29.05-.4.23-.48.49s-.28.72-.43,1.08-.18.46-.47.34-.18-.38-.1-.6.24-.59.38-.95l-1.89.5a.15.15,0,0,0-.14.11c-.15.61-.3,1.22-.47,1.89l.94-.38c.2-.09.36-.07.46.14s0,.35-.21.43c-.39.16-.77.32-1.17.46a.46.46,0,0,0-.35.37.91.91,0,0,1-.11.3.27.27,0,0,1-.31.18.29.29,0,0,1-.27-.27,1.62,1.62,0,0,0,0-.21c-.71.21-1.41.42-2.13.56-.15,0-.15.14-.17.24s-.07.4-.11.6-.15.33-.36.29-.29-.19-.26-.41.17-.38,0-.51-.33,0-.5.05a18.16,18.16,0,0,1-1.81.16c-.17,0-.22.07-.21.23s0,.48,0,.72a.32.32,0,1,1-.63,0q0-.37,0-.75c0-.12,0-.2-.17-.2a18.72,18.72,0,0,1-2.31-.25c0,.2.07.37.11.53a.32.32,0,0,1-.24.42.29.29,0,0,1-.38-.3c0-.66-.34-.91-.94-1a6.31,6.31,0,0,1-.72-.18l-.71-.2s0,.06,0,.11a.33.33,0,0,1-.3.33.29.29,0,0,1-.32-.26c-.06-.42-.34-.54-.69-.65s-.68-.27-1-.41-.31-.22-.21-.44.26-.22.46-.13l1,.42c-.17-.67-.32-1.29-.48-1.91a.2.2,0,0,0-.11-.11l-1.91-.48c.15.38.28.72.42,1.05s.07.37-.14.46-.35,0-.43-.21c-.16-.39-.34-.77-.46-1.17a.62.62,0,0,0-.51-.5.4.4,0,0,1-.18-.07.3.3,0,0,1-.17-.29c0-.14.11-.27.24-.27.28,0,.19-.13.14-.27a18,18,0,0,1-.45-1.79.29.29,0,0,0-.29-.27,5.12,5.12,0,0,1-.54-.1c-.21,0-.35-.15-.3-.38s.2-.29.42-.24l.53.11a17.4,17.4,0,0,1-.25-2.34c0-.16-.11-.14-.2-.14h-.68c-.23,0-.39-.09-.38-.34s.18-.3.38-.29h.13c.76,0,.76,0,.79-.75a9.44,9.44,0,0,1,.18-1.51c.06-.27,0-.35-.28-.28a1.7,1.7,0,0,1-.31.06.28.28,0,0,1-.33-.24.27.27,0,0,1,.2-.35,1.65,1.65,0,0,1,.47-.1c.33,0,.47-.15.52-.47a16.62,16.62,0,0,1,.49-1.84c-.06-.07-.13,0-.18,0a.29.29,0,0,1-.29-.26.25.25,0,0,1,.19-.32c.56-.07.69-.49.83-.93a6.29,6.29,0,0,1,.3-.71c.08-.18.2-.3.41-.21a.3.3,0,0,1,.16.45c-.13.3-.24.6-.37.91.16.07.28,0,.41-.06s.37-.1.56-.15.75-.06,1-.29.2-.62.29-1,.15-.6.22-.9l0-.07ZM236,295v-1.62c0-.14,0-.24-.2-.23l-2.95.14c-.22,0-.29.1-.3.31s0,.52,0,.78-.12.36-.35.33-.28-.16-.26-.37,0-.47,0-.71,0-.27-.22-.24c-.84.1-1.69.18-2.54.27a.2.2,0,0,0-.2.21c-.09.91-.19,1.83-.2,2.74,0,.2.06.24.24.23h.84c.21,0,.36.08.36.31s-.15.32-.36.32a5.14,5.14,0,0,1-.68,0c-.31,0-.43,0-.41.39.06.83.11,1.65.21,2.48,0,.11,0,.18.16.19l2.61.28c.16,0,.2,0,.18-.19s0-.47,0-.71a.29.29,0,0,1,.28-.33.27.27,0,0,1,.32.28c0,.25,0,.49,0,.74s.07.31.3.32l2.91.13c.18,0,.24,0,.24-.22q0-1.58,0-3.15c0-.17-.05-.22-.22-.21h-1.49c-.23,0-.43-.08-.42-.34s.2-.3.42-.3h1.49c.17,0,.23,0,.22-.21C236,296.12,236,295.58,236,295Zm2.47,1.84h1.62c.15,0,.24,0,.23-.2-.05-1-.06-2.06-.15-3.08,0-.19-.08-.24-.27-.26-1-.09-2.05-.1-3.07-.15-.17,0-.2.06-.2.2,0,1.09,0,2.19,0,3.28,0,.17.06.21.22.21Zm0,.63h-1.62c-.16,0-.23,0-.23.2q0,1.59,0,3.18c0,.14,0,.21.19.2l3.1-.15c.17,0,.24-.07.25-.25.09-1,.1-2,.15-3,0-.2-.1-.18-.22-.18Zm-1.85,5.7c0,.43,0,.86,0,1.29,0,.19,0,.24.23.23a23.19,23.19,0,0,0,2.36-.17c.54-.07.55-.08.62-.63.1-.72.16-1.45.24-2.18,0-.15,0-.21-.18-.19-1,.11-2,.12-3,.15-.18,0-.24.05-.23.23C236.6,302.36,236.59,302.79,236.59,303.21Zm0-12.18c0,.45,0,.89,0,1.33,0,.13,0,.22.18.22,1,0,2,0,3.07.14.16,0,.22,0,.2-.19-.1-.85-.19-1.71-.29-2.57,0-.14-.08-.2-.22-.22-.91-.09-1.83-.16-2.74-.2-.16,0-.2,0-.2.2C236.6,290.17,236.59,290.6,236.59,291Zm5.82,5.85h1.33c.15,0,.2,0,.19-.2,0-.9-.11-1.81-.2-2.71,0-.16-.09-.25-.26-.26l-2.47-.28c-.24,0-.27.08-.25.27a26.29,26.29,0,0,1,.13,2.94c0,.21.08.25.27.24ZM236,303.22c0-.42,0-.85,0-1.27,0-.17,0-.24-.22-.25-1,0-2,0-3-.14-.12,0-.17,0-.15.16.1.88.19,1.76.29,2.64,0,.12,0,.16.17.17.88.09,1.76.18,2.65.2.21,0,.25-.06.24-.25C236,304.06,236,303.64,236,303.22Zm0-12.16c0-.45,0-.89,0-1.33,0-.14,0-.19-.18-.19-.89,0-1.79.11-2.68.2a.2.2,0,0,0-.2.21l-.27,2.57c0,.16,0,.21.18.2a28.21,28.21,0,0,1,2.91-.14c.21,0,.25-.07.24-.26C236,291.9,236,291.48,236,291.06Zm6.45,6.45h-1.3c-.17,0-.22,0-.22.21,0,1,0,1.95-.13,2.92,0,.16,0,.22.2.2l2.57-.28a.2.2,0,0,0,.2-.21c.09-.88.16-1.76.2-2.64,0-.16,0-.2-.2-.2Zm-10.18,6.66c-.08-.8-.16-1.67-.25-2.54,0-.1-.07-.14-.17-.15l-2.55-.26c-.2,0-.21.06-.18.21.14.76.29,1.52.43,2.28,0,.14.06.22.21.24l2.35.45C232.19,304.42,232.29,304.41,232.23,304.17ZM229.3,293l2.53-.25c.11,0,.15-.05.16-.16.09-.86.17-1.72.27-2.57,0-.17,0-.21-.18-.18-.75.15-1.51.3-2.26.43a.32.32,0,0,0-.3.31q-.2,1.11-.42,2.22C229.06,293,229.08,293.11,229.3,293Zm11.08-3.19c.1,1,.2,1.86.3,2.77,0,.12,0,.16.16.17l2.75.3c-.11-.85-.29-1.68-.46-2.51,0-.19-.15-.23-.31-.26Zm.05,14.26c-.09.26,0,.3.25.25.74-.12,1.46-.27,2.19-.41.15,0,.26-.08.29-.26.13-.77.28-1.54.43-2.31,0-.13,0-.2-.15-.18l-2.61.28c-.11,0-.14,0-.15.15C240.6,302.46,240.51,303.29,240.43,304.11Zm-13.53-7.23h1c.11,0,.2,0,.2-.16,0-.92.09-1.83.2-2.75,0-.16-.05-.15-.16-.14-.66.11-1.32.22-2,.31a.21.21,0,0,0-.21.2,22.57,22.57,0,0,0-.27,2.32c0,.19.06.23.24.22Zm9.69,9.67c0,.32,0,.64,0,1s0,.27.26.26c.76-.06,1.51-.14,2.25-.27.15,0,.21-.09.23-.25.09-.63.18-1.26.3-1.88,0-.2,0-.23-.21-.21-.88.1-1.76.16-2.64.19-.17,0-.19.08-.19.21C236.6,305.9,236.59,306.22,236.59,306.55Zm7.74-12.72a24.82,24.82,0,0,1,.21,2.81c0,.17.05.25.24.24h2c.16,0,.23,0,.22-.21-.06-.75-.13-1.5-.25-2.25,0-.15-.09-.25-.26-.27Zm-4.69-4.69c-.11-.73-.22-1.41-.31-2.09a.32.32,0,0,0-.31-.3c-.71-.11-1.43-.19-2.15-.24-.2,0-.29,0-.28.24,0,.63,0,1.27,0,1.91,0,.23.08.26.27.27A24.13,24.13,0,0,1,239.64,289.14Zm-12.73,8.37c-.31,0-.62,0-.94,0s-.3,0-.28.28c.07.71.13,1.43.26,2.15,0,.13.07.17.2.19.62.09,1.25.18,1.88.3.25.05.29,0,.26-.26-.11-.81-.15-1.63-.18-2.45,0-.18-.06-.22-.22-.21ZM236,306.6v-1c0-.12,0-.2-.16-.21-.86,0-1.73-.08-2.58-.18-.16,0-.22,0-.19.18.11.66.21,1.32.31,2a.18.18,0,0,0,.18.18c.73.13,1.47.2,2.22.26.19,0,.23-.06.22-.24S236,306.92,236,306.6Zm9.83-9.09h-1c-.18,0-.27,0-.27.24,0,.84-.08,1.68-.17,2.52,0,.15,0,.18.16.16l2-.31a.22.22,0,0,0,.21-.2c.12-.74.2-1.48.25-2.22,0-.15,0-.19-.18-.19ZM236,287.74c0-.34,0-.67,0-1s-.05-.23-.24-.22c-.72.05-1.44.12-2.15.24a.22.22,0,0,0-.22.22c-.1.65-.2,1.3-.31,1.95,0,.16,0,.2.18.18.75-.08,1.5-.14,2.26-.17.48,0,.48,0,.48-.51Zm-7.07,16c-.2-.87-.35-1.69-.46-2.52,0-.16-.11-.15-.22-.17-.61-.09-1.23-.17-1.84-.29-.25,0-.26,0-.21.22.17.66.34,1.31.55,1.95a.36.36,0,0,0,.3.29Zm.81.84c.19.65.36,1.28.53,1.91a.3.3,0,0,0,.2.22c.69.22,1.39.41,2.09.58.12,0,.2,0,.17-.15q-.16-1-.3-1.95c0-.15-.09-.16-.21-.18Zm16.83-3.76c0-.15-.11-.09-.19-.08-.62.09-1.24.2-1.86.28-.19,0-.23.12-.26.29-.13.73-.26,1.46-.4,2.19,0,.17,0,.19.16.15l1.77-.49a.23.23,0,0,0,.17-.13C246.15,302.35,246.35,301.62,246.53,300.85Zm-14-13.88c-.67.15-1.39.35-2.11.58-.08,0-.1.1-.12.18-.17.59-.33,1.18-.49,1.77,0,.1,0,.19.12.16l2.32-.43c.1,0,.15,0,.16-.15.1-.66.21-1.32.31-2C232.72,287,232.72,286.91,232.51,287ZM243,304.58l-1.87.34c-.76.12-.77.11-.9.87-.09.5-.15,1-.23,1.54a22.3,22.3,0,0,0,2.24-.62.29.29,0,0,0,.24-.22C242.6,305.87,242.77,305.25,243,304.58Zm-16.82-11.07,2.14-.32c.14,0,.15-.1.16-.19.05-.3.1-.6.16-.89.09-.52.19-1,.29-1.6L227,291c-.15,0-.18.14-.21.25C226.52,292,226.31,292.73,226.14,293.51ZM240,287c.1.72.21,1.41.3,2.1,0,.16.12.19.24.21.75.11,1.49.24,2.22.4.17,0,.21,0,.16-.18-.15-.55-.31-1.11-.46-1.67,0-.18-.16-.23-.31-.28C241.41,287.32,240.71,287.11,240,287Z"/><path class="cls-11" d="M223.5,297a12.77,12.77,0,0,0,25.15,3.36,12.54,12.54,0,0,0-.54-7.93l-.09-.21a.32.32,0,0,1,.16-.46c.22-.09.34,0,.42.23s.22.51.31.78a13.39,13.39,0,1,1-15.64-8.58,13,13,0,0,1,12.48,3.56,2.52,2.52,0,0,1,.21.25.28.28,0,0,1-.05.38.27.27,0,0,1-.38,0,1.65,1.65,0,0,1-.24-.22,12.52,12.52,0,0,0-7.67-3.66A12.8,12.8,0,0,0,223.9,294a11.16,11.16,0,0,0-.27,1.4C223.55,296,223.53,296.61,223.5,297Z"/><path class="cls-11" d="M248.47,290.18a.44.44,0,0,1-.24.33,1.71,1.71,0,0,0-1,1.52.29.29,0,0,1-.31.3.29.29,0,0,1-.33-.31,1.74,1.74,0,0,0-1-1.51c-.3-.18-.3-.45,0-.63a1.72,1.72,0,0,0,1-1.51.32.32,0,1,1,.64,0,1.72,1.72,0,0,0,.95,1.47A.49.49,0,0,1,248.47,290.18Zm-.89.07,0-.1s-.09,0-.11-.06-.32-.5-.5-.52-.3.35-.5.48-.12.2,0,.29.3.51.5.46.31-.36.5-.51C247.48,290.26,247.54,290.26,247.58,290.25Z"/><path class="cls-11" d="M218.31,288.05c.19,0,.31.1.32.29a1.82,1.82,0,0,0,1,1.56.31.31,0,0,1,0,.59,1.8,1.8,0,0,0-1,1.53c0,.19-.1.31-.3.31s-.33-.15-.33-.35a1.52,1.52,0,0,0-.33-.92,2,2,0,0,0-.64-.54.35.35,0,0,1-.23-.32c0-.18.1-.26.24-.34a1.67,1.67,0,0,0,1-1.43C218,288.23,218.08,288.07,218.31,288.05Zm0,1.45a3.05,3.05,0,0,1-.5.57c-.1.08-.14.14,0,.24a3.52,3.52,0,0,1,.52.57,2.61,2.61,0,0,1,.52-.58c.08-.07.11-.12,0-.2A2.82,2.82,0,0,1,218.32,289.5Z"/><path class="cls-11" d="M236,279.22c0-1.15,0-2.31,0-3.47,0-.24,0-.46.32-.47s.32.22.32.46v7c0,.24,0,.46-.33.45s-.31-.21-.31-.44C236,281.58,236,280.4,236,279.22Z"/><path class="cls-11" d="M246.47,312.54c.24-.45,0-.79-.38-1.12-.2-.17-.08-.45.18-.52h.06a.79.79,0,0,0,.88-.62.32.32,0,0,1,.33-.26.34.34,0,0,1,.3.25.41.41,0,0,1,0,.09.66.66,0,0,0,.72.53c.18,0,.35,0,.43.22s-.07.36-.22.46a.66.66,0,0,0-.26.86.37.37,0,0,1-.1.46.31.31,0,0,1-.44,0,.79.79,0,0,0-1,0C246.72,313.06,246.46,312.91,246.47,312.54Zm1.05-1.54a.47.47,0,0,1-.54.42c.2.2.33.36.17.68a.59.59,0,0,1,.71-.05c-.1-.28,0-.44.19-.64C247.76,311.44,247.63,311.29,247.52,311Z"/><path class="cls-11" d="M229.44,281a1,1,0,0,1,0-.22.68.68,0,0,0-.3-.88c-.12-.1-.24-.22-.18-.41a.34.34,0,0,1,.38-.24.74.74,0,0,0,.8-.58.35.35,0,0,1,.32-.28.33.33,0,0,1,.34.26.74.74,0,0,0,.82.6.34.34,0,0,1,.36.22.35.35,0,0,1-.17.42.72.72,0,0,0-.31.91.36.36,0,0,1-.11.47.39.39,0,0,1-.45-.06.73.73,0,0,0-1,0C229.66,281.42,229.42,281.27,229.44,281Zm1.42-.54a.52.52,0,0,1,.14-.66c-.28,0-.39-.19-.54-.37-.06.27-.26.32-.5.39.24.15.23.36.22.6A.53.53,0,0,1,230.86,280.46Z"/><path class="cls-11" d="M246.31,283.82c-.17,0-.3-.11-.3-.31s0-.33,0-.49.05-.5-.36-.44c-.16,0-.26-.14-.25-.31a.27.27,0,0,1,.28-.29c.35,0,.35-.16.33-.4s0-.33,0-.49a.27.27,0,0,1,.28-.32c.21,0,.32.11.33.31s0,.45,0,.68,0,.21.2.21.41.07.41.31-.17.34-.4.31-.21.07-.21.23,0,.43,0,.65A.32.32,0,0,1,246.31,283.82Z"/><path class="cls-11" d="M254.51,303.79a1.43,1.43,0,0,1,0-.29c0-.16,0-.22-.21-.21s-.39-.08-.39-.33.19-.32.4-.3.2-.06.2-.2,0-.44,0-.65.11-.37.32-.37.32.16.32.37v.62c0,.14,0,.25.2.23s.39.06.39.31-.18.33-.4.32-.2,0-.19.2,0,.37,0,.55,0,.45-.33.45-.32-.21-.31-.44A2.25,2.25,0,0,0,254.51,303.79Z"/><path class="cls-11" d="M219.49,308.75c.23,0,.34.1.36.29s0,.28,0,.42-.09.57.38.53c.15,0,.23.14.22.3s-.11.3-.29.28-.34.11-.31.35a5,5,0,0,1,0,.55.29.29,0,0,1-.29.32c-.21,0-.32-.11-.33-.31a5.12,5.12,0,0,1,0-.68c0-.14,0-.25-.2-.23s-.4-.05-.39-.31.16-.31.37-.29.23-.09.22-.26,0-.41,0-.61A.32.32,0,0,1,219.49,308.75Z"/><path class="cls-11" d="M249.69,306c0,.19-.13.32-.32.31a.31.31,0,1,1,0-.62A.33.33,0,0,1,249.69,306Z"/><path class="cls-12" d="M221.09,279.85a.3.3,0,0,1-.32.31.31.31,0,1,1,0-.62C221,279.55,221.07,279.67,221.09,279.85Z"/><path class="cls-12" d="M227.47,312.38c.18,0,.3.12.3.32a.29.29,0,0,1-.29.32.29.29,0,0,1-.32-.33A.31.31,0,0,1,227.47,312.38Z"/><path class="cls-12" d="M221.09,303.58c0,.19-.12.3-.32.3a.28.28,0,0,1-.31-.3.29.29,0,0,1,.33-.31A.3.3,0,0,1,221.09,303.58Z"/><path class="cls-12" d="M254.23,284.45c-.16,0-.29-.1-.3-.3a.27.27,0,0,1,.28-.32.29.29,0,0,1,.34.31C254.56,284.32,254.43,284.43,254.23,284.45Z"/><path class="cls-13" d="M236,295c0,.54,0,1.08,0,1.63,0,.17-.05.21-.22.21h-1.49c-.22,0-.41.07-.42.3s.19.34.42.34h1.49c.17,0,.22,0,.22.21q0,1.57,0,3.15c0,.19-.06.23-.24.22l-2.91-.13c-.23,0-.3-.1-.3-.32s0-.49,0-.74a.27.27,0,0,0-.32-.28.29.29,0,0,0-.28.33c0,.24,0,.48,0,.71s0,.21-.18.19l-2.61-.28c-.13,0-.15-.08-.16-.19-.1-.83-.15-1.65-.21-2.48,0-.35.1-.43.41-.39a5.14,5.14,0,0,0,.68,0c.21,0,.37-.09.36-.32s-.15-.32-.36-.31H229c-.18,0-.25,0-.24-.23,0-.91.11-1.83.2-2.74a.2.2,0,0,1,.2-.21c.85-.09,1.7-.17,2.54-.27.22,0,.25,0,.22.24s0,.48,0,.71,0,.35.26.37.34-.12.35-.33,0-.52,0-.78.08-.31.3-.31l2.95-.14c.2,0,.2.09.2.23Zm-5.47,2.08c0,.17,0,.22.16.3a1.76,1.76,0,0,1,1,1.56.3.3,0,0,0,.35.3c.2,0,.27-.14.28-.33a1.73,1.73,0,0,1,.94-1.46c.4-.25.4-.45,0-.7a1.78,1.78,0,0,1-.94-1.46c0-.2-.09-.33-.3-.33a.3.3,0,0,0-.33.32,1.72,1.72,0,0,1-1,1.53A.27.27,0,0,0,230.49,297.12Z"/><path class="cls-13" d="M238.43,296.88h-1.62c-.16,0-.22,0-.22-.21,0-1.09,0-2.19,0-3.28,0-.14,0-.21.2-.2,1,.05,2.05.06,3.07.15.19,0,.25.07.27.26.09,1,.1,2,.15,3.08,0,.19-.08.2-.23.2Z"/><path class="cls-13" d="M238.44,297.51h1.62c.12,0,.23,0,.22.18-.05,1-.06,2-.15,3,0,.18-.08.24-.25.25l-3.1.15c-.17,0-.19-.06-.19-.2q0-1.59,0-3.18c0-.18.07-.2.23-.2Z"/><path class="cls-13" d="M236.59,303.21c0-.42,0-.85,0-1.27,0-.18,0-.23.23-.23,1,0,2,0,3-.15.18,0,.2,0,.18.19-.08.73-.14,1.46-.24,2.18-.07.55-.08.56-.62.63a23.19,23.19,0,0,1-2.36.17c-.18,0-.24,0-.23-.23C236.6,304.07,236.59,303.64,236.59,303.21Z"/><path class="cls-13" d="M236.59,291c0-.43,0-.86,0-1.29,0-.15,0-.21.2-.2.91,0,1.83.11,2.74.2.14,0,.21.08.22.22.1.86.19,1.72.29,2.57,0,.17,0,.2-.2.19-1-.1-2-.14-3.07-.14-.17,0-.18-.09-.18-.22C236.6,291.92,236.59,291.48,236.59,291Z"/><path class="cls-13" d="M242.41,296.88h-1.26c-.19,0-.27,0-.27-.24a26.29,26.29,0,0,0-.13-2.94c0-.19,0-.3.25-.27l2.47.28c.17,0,.24.1.26.26.09.9.16,1.81.2,2.71,0,.16,0,.2-.19.2Z"/><path class="cls-13" d="M236,303.22c0,.42,0,.84,0,1.26,0,.19,0,.26-.24.25-.89,0-1.77-.11-2.65-.2-.12,0-.16,0-.17-.17-.1-.88-.19-1.76-.29-2.64,0-.14,0-.17.15-.16,1,.1,2,.12,3,.14.19,0,.23.08.22.25C236,302.37,236,302.8,236,303.22Z"/><path class="cls-13" d="M236,291.06c0,.42,0,.84,0,1.26,0,.19,0,.27-.24.26a28.21,28.21,0,0,0-2.91.14c-.17,0-.2,0-.18-.2l.27-2.57a.2.2,0,0,1,.2-.21c.89-.09,1.79-.16,2.68-.2.15,0,.18,0,.18.19C236,290.17,236,290.61,236,291.06Z"/><path class="cls-13" d="M242.41,297.51h1.32c.16,0,.21,0,.2.2,0,.88-.11,1.76-.2,2.64a.2.2,0,0,1-.2.21l-2.57.28c-.18,0-.22,0-.2-.2.09-1,.13-1.94.13-2.92,0-.17.05-.22.22-.21Z"/><path class="cls-13" d="M232.23,304.17c.06.24,0,.25-.16.23l-2.35-.45c-.15,0-.18-.1-.21-.24-.14-.76-.29-1.52-.43-2.28,0-.15,0-.24.18-.21l2.55.26c.1,0,.16,0,.17.15C232.07,302.5,232.15,303.37,232.23,304.17Z"/><path class="cls-13" d="M229.3,293c-.22.07-.24,0-.2-.2q.22-1.11.42-2.22a.32.32,0,0,1,.3-.31c.75-.13,1.51-.28,2.26-.43.16,0,.2,0,.18.18-.1.85-.18,1.71-.27,2.57,0,.11-.05.15-.16.16Z"/><path class="cls-13" d="M240.38,289.85l2.44.47c.16,0,.28.07.31.26.17.83.35,1.66.46,2.51l-2.75-.3c-.12,0-.15-.05-.16-.17C240.58,291.71,240.48,290.81,240.38,289.85Z"/><path class="cls-13" d="M240.43,304.11c.08-.82.17-1.65.25-2.48,0-.1,0-.14.15-.15l2.61-.28c.18,0,.17.05.15.18-.15.77-.3,1.54-.43,2.31,0,.18-.14.23-.29.26-.73.14-1.45.29-2.19.41C240.42,304.41,240.34,304.37,240.43,304.11Z"/><path class="cls-13" d="M226.9,296.88h-1c-.18,0-.25,0-.24-.22a22.57,22.57,0,0,1,.27-2.32.21.21,0,0,1,.21-.2c.66-.09,1.32-.2,2-.31.11,0,.18,0,.16.14-.11.92-.18,1.83-.2,2.75,0,.17-.09.16-.2.16Z"/><path class="cls-13" d="M236.59,306.55c0-.33,0-.65,0-1,0-.13,0-.2.19-.21.88,0,1.76-.09,2.64-.19.2,0,.24,0,.21.21-.12.62-.21,1.25-.3,1.88,0,.16-.08.23-.23.25-.74.13-1.49.21-2.25.27-.21,0-.27,0-.26-.26S236.59,306.87,236.59,306.55Z"/><path class="cls-13" d="M244.33,293.83l2.13.32c.17,0,.23.12.26.27.12.75.19,1.5.25,2.25,0,.19-.06.21-.22.21h-2c-.19,0-.23-.07-.24-.24A24.82,24.82,0,0,0,244.33,293.83Z"/><path class="cls-13" d="M239.64,289.14a24.13,24.13,0,0,0-2.78-.21c-.19,0-.28,0-.27-.27,0-.64,0-1.28,0-1.91,0-.24.08-.26.28-.24.72.05,1.44.13,2.15.24a.32.32,0,0,1,.31.3C239.42,287.73,239.53,288.41,239.64,289.14Z"/><path class="cls-13" d="M226.91,297.51h1c.16,0,.21,0,.22.21,0,.82.07,1.64.18,2.45,0,.22,0,.31-.26.26-.63-.12-1.26-.21-1.88-.3-.13,0-.18-.06-.2-.19-.13-.72-.19-1.44-.26-2.15,0-.24.06-.3.28-.28S226.6,297.51,226.91,297.51Z"/><path class="cls-13" d="M236,306.6c0,.32,0,.63,0,.94s0,.25-.22.24c-.75-.06-1.49-.13-2.22-.26a.18.18,0,0,1-.18-.18c-.1-.66-.2-1.32-.31-2,0-.16,0-.2.19-.18.85.1,1.72.15,2.58.18.17,0,.16.09.16.21Z"/><path class="cls-13" d="M245.79,297.51h1c.14,0,.19,0,.18.19-.05.74-.13,1.48-.25,2.22a.22.22,0,0,1-.21.2l-2,.31c-.15,0-.18,0-.16-.16.09-.84.16-1.68.17-2.52,0-.22.09-.25.27-.24Z"/><path class="cls-13" d="M236,287.74v.68c0,.49,0,.5-.48.51-.76,0-1.51.09-2.26.17-.17,0-.21,0-.18-.18.11-.65.21-1.3.31-1.95a.22.22,0,0,1,.22-.22c.71-.12,1.43-.19,2.15-.24.19,0,.25,0,.24.22S236,287.4,236,287.74Z"/><path class="cls-13" d="M228.89,303.77l-1.88-.52a.36.36,0,0,1-.3-.29c-.21-.64-.38-1.29-.55-1.95,0-.18,0-.26.21-.22.61.12,1.23.2,1.84.29.11,0,.2,0,.22.17C228.54,302.08,228.69,302.9,228.89,303.77Z"/><path class="cls-13" d="M229.7,304.61l2.48.43c.12,0,.19,0,.21.18q.13,1,.3,1.95c0,.18-.05.18-.17.15-.7-.17-1.4-.36-2.09-.58a.3.3,0,0,1-.2-.22C230.06,305.89,229.89,305.26,229.7,304.61Z"/><path class="cls-13" d="M246.53,300.85c-.18.77-.38,1.5-.61,2.21a.23.23,0,0,1-.17.13l-1.77.49c-.14,0-.19,0-.16-.15.14-.73.27-1.46.4-2.19,0-.17.07-.26.26-.29.62-.08,1.24-.19,1.86-.28C246.42,300.76,246.55,300.7,246.53,300.85Z"/><path class="cls-13" d="M232.51,287c.21-.06.21,0,.19.13-.1.66-.21,1.32-.31,2,0,.11-.06.13-.16.15l-2.32.43c-.17,0-.15-.06-.12-.16.16-.59.32-1.18.49-1.77,0-.08,0-.15.12-.18C231.12,287.32,231.84,287.12,232.51,287Z"/><path class="cls-13" d="M243,304.58c-.19.67-.36,1.29-.52,1.91a.29.29,0,0,1-.24.22,22.3,22.3,0,0,1-2.24.62c.08-.53.14-1,.23-1.54.13-.76.14-.75.9-.87Z"/><path class="cls-13" d="M226.14,293.51c.17-.78.38-1.5.61-2.22,0-.11.06-.22.21-.25l1.93-.53c-.1.56-.2,1.08-.29,1.6-.06.29-.11.59-.16.89,0,.09,0,.17-.16.19Z"/><path class="cls-13" d="M240,287c.76.16,1.46.37,2.15.58.15.05.27.1.31.28.15.56.31,1.12.46,1.67,0,.17,0,.22-.16.18-.73-.16-1.47-.29-2.22-.4-.12,0-.22-.05-.24-.21C240.16,288.36,240.05,287.67,240,287Z"/><path class="cls-13" d="M229.49,287.88h.08l0,.07Z"/><path class="cls-13" d="M247.58,290.25s-.1,0-.13,0c-.19.15-.32.47-.5.51s-.3-.33-.5-.46-.18-.18,0-.29.3-.5.5-.48.33.34.5.52.07,0,.11.06Z"/><path class="cls-13" d="M218.32,289.5a2.82,2.82,0,0,0,.54.6c.1.08.07.13,0,.2a2.61,2.61,0,0,0-.52.58,3.52,3.52,0,0,0-.52-.57c-.13-.1-.09-.16,0-.24A3.05,3.05,0,0,0,218.32,289.5Z"/><path class="cls-13" d="M247.52,311c.11.29.24.44.53.41-.14.2-.29.36-.19.64a.59.59,0,0,0-.71.05c.16-.32,0-.48-.17-.68A.47.47,0,0,0,247.52,311Z"/><path class="cls-13" d="M230.86,280.46a.53.53,0,0,0-.68,0c0-.24,0-.45-.22-.6.24-.07.44-.12.5-.39.15.18.26.38.54.37A.52.52,0,0,0,230.86,280.46Z"/><path class="cls-11" d="M230.49,297.12a.27.27,0,0,1,.17-.27,1.72,1.72,0,0,0,1-1.53A.3.3,0,0,1,232,295c.21,0,.29.13.3.33a1.78,1.78,0,0,0,.94,1.46c.4.25.4.45,0,.7a1.73,1.73,0,0,0-.94,1.46c0,.19-.08.31-.28.33a.3.3,0,0,1-.35-.3,1.76,1.76,0,0,0-1-1.56C230.51,297.34,230.49,297.29,230.49,297.12Zm1.53.71c.17-.25.53-.46.55-.67s-.34-.45-.53-.68l0,0c-.17.24-.49.43-.54.66s.37.41.5.67Z"/><path class="cls-13" d="M232,297.83l-.05-.06c-.13-.26-.56-.42-.5-.67s.37-.42.54-.66l0,0c.19.23.55.47.53.68S232.19,297.58,232,297.83Z"/></svg>