<svg id="Capa_1" data-name="Capa 1" xmlns="http://www.w3.org/2000/svg" viewBox="0 0 333.9 325.59"><defs><style>.cls-1,.cls-2,.cls-3,.cls-4{fill:#002900;}.cls-2,.cls-3,.cls-4{stroke:#231f20;stroke-miterlimit:10;}.cls-2{stroke-width:0.74px;}.cls-3{stroke-width:0.37px;}.cls-4{stroke-width:0.75px;}.cls-5{fill:#0e0d0d;}.cls-6{fill:#fefefe;}.cls-7{fill:#111010;}.cls-8{fill:#fefdfd;}</style></defs><title>Itinerario PEQ</title><path class="cls-1" d="M118.15,109.07v-13h.95v13Z" transform="translate(-23.66 -96)"/><path class="cls-1" d="M130.74,109.07V97h-4.67v-.86h10.29V97h-4.67v12.12Z" transform="translate(-23.66 -96)"/><path class="cls-1" d="M143.33,109.07v-13h.94v13Z" transform="translate(-23.66 -96)"/><path class="cls-1" d="M153.43,109.07v-13h.8l9.25,11.81h-.43V96.09H164v13h-.78L154,97.26h.43v11.81Z" transform="translate(-23.66 -96)"/><path class="cls-1" d="M174.1,108.22h8v.85h-9v-13h8.68V97H174.1Zm-.11-6.16h7v.84h-7Z" transform="translate(-23.66 -96)"/><path class="cls-1" d="M190.19,109.07v-13h4.65a7,7,0,0,1,2.8.52,4.1,4.1,0,0,1,1.8,1.49,4.27,4.27,0,0,1,.63,2.37,4,4,0,0,1-2.43,3.83,6.8,6.8,0,0,1-2.8.52h-4.13l.43-.44v4.69Zm.95-4.64-.43-.44h4.13a4.75,4.75,0,0,0,3.18-.93,3.65,3.65,0,0,0,0-5.2,4.81,4.81,0,0,0-3.18-.91h-4.13l.43-.47Zm8.06,4.64-3.37-4.71h1.07l3.38,4.71Z" transform="translate(-23.66 -96)"/><path class="cls-1" d="M206,109.07l6-13h.95l6,13h-1l-5.64-12.38h.41L207,109.07Zm2.19-3.65.32-.8h7.76l.32.8Z" transform="translate(-23.66 -96)"/><path class="cls-1" d="M225.88,109.07v-13h4.65a7,7,0,0,1,2.8.52,4.1,4.1,0,0,1,1.8,1.49,4.27,4.27,0,0,1,.63,2.37,4,4,0,0,1-2.43,3.83,6.8,6.8,0,0,1-2.8.52h-4.14l.43-.44v4.69Zm.94-4.64-.43-.44h4.14a4.75,4.75,0,0,0,3.18-.93,3.67,3.67,0,0,0,0-5.2,4.81,4.81,0,0,0-3.18-.91h-4.14l.43-.47Zm8.07,4.64-3.38-4.71h1.08l3.37,4.71Z" transform="translate(-23.66 -96)"/><path class="cls-1" d="M243.86,109.07v-13h.94v13Z" transform="translate(-23.66 -96)"/><path class="cls-1" d="M259.47,109.16a7.1,7.1,0,0,1-2.68-.49,6.48,6.48,0,0,1-2.15-1.39,6.35,6.35,0,0,1-1.42-2.09,6.78,6.78,0,0,1-.5-2.61,6.69,6.69,0,0,1,.5-2.6,6.29,6.29,0,0,1,1.42-2.1,6.48,6.48,0,0,1,2.15-1.39,7.1,7.1,0,0,1,2.68-.49,7.17,7.17,0,0,1,2.68.49,6.57,6.57,0,0,1,2.14,1.38,6.86,6.86,0,0,1,1.42,7.33,6.36,6.36,0,0,1-3.56,3.47A7.17,7.17,0,0,1,259.47,109.16Zm0-.87a6,6,0,0,0,2.3-.43,5.39,5.39,0,0,0,1.83-1.2,5.52,5.52,0,0,0,1.21-1.82,5.81,5.81,0,0,0-1.21-6.34,5.39,5.39,0,0,0-1.83-1.2,6,6,0,0,0-2.3-.43,6,6,0,0,0-2.3.43,5.47,5.47,0,0,0-1.85,1.2,5.61,5.61,0,0,0-1.22,1.81,6,6,0,0,0,0,4.53,5.55,5.55,0,0,0,1.22,1.82,5.47,5.47,0,0,0,1.85,1.2A6,6,0,0,0,259.47,108.29Z" transform="translate(-23.66 -96)"/><line class="cls-2" x1="169.12" y1="61.52" x2="169.12" y2="320.48"/><line class="cls-2" x1="191.55" y1="129.69" x2="59.62" y2="129.69"/><line class="cls-2" x1="144.1" y1="195.08" x2="276.02" y2="195.08"/><path class="cls-3" d="M94.74,219.23a4.27,4.27,0,0,1-1.61-.3,3.68,3.68,0,0,1-1.28-.83,3.9,3.9,0,0,1-.85-1.25,4,4,0,0,1-.3-1.57,4.08,4.08,0,0,1,.3-1.58,3.9,3.9,0,0,1,2.14-2.08,4.54,4.54,0,0,1,3.14,0,3,3,0,0,1,1.23.81l-.35.37a3,3,0,0,0-1.11-.71,3.64,3.64,0,0,0-1.29-.22,3.72,3.72,0,0,0-1.38.26,3.23,3.23,0,0,0-1.11.72,3.4,3.4,0,0,0-.74,1.09,3.58,3.58,0,0,0-.26,1.36,3.49,3.49,0,0,0,.26,1.35,3.44,3.44,0,0,0,.74,1.1,3.23,3.23,0,0,0,1.11.72,3.72,3.72,0,0,0,1.38.25,3.88,3.88,0,0,0,1.29-.21,3.21,3.21,0,0,0,1.11-.72l.35.37a3.22,3.22,0,0,1-1.23.81A4.13,4.13,0,0,1,94.74,219.23Z" transform="translate(-23.66 -96)"/><path class="cls-3" d="M102.21,218.66H107v.51h-5.37v-7.79h5.2v.52h-4.63Zm-.07-3.69h4.21v.5h-4.21Z" transform="translate(-23.66 -96)"/><path class="cls-3" d="M111.3,219.17v-7.79h2.8a4.09,4.09,0,0,1,1.68.32,2.35,2.35,0,0,1,1.07.89,2.53,2.53,0,0,1-1.07,3.72,4.1,4.1,0,0,1-1.68.31h-2.48l.25-.26v2.81Zm.57-2.78-.25-.27h2.48a2.85,2.85,0,0,0,1.9-.55,2.2,2.2,0,0,0,0-3.12,2.85,2.85,0,0,0-1.9-.55h-2.48l.25-.28Zm4.84,2.78-2-2.82h.64l2,2.82Z" transform="translate(-23.66 -96)"/><path class="cls-3" d="M122.1,218.66h4.81v.51h-5.37v-7.79h5.2v.52H122.1ZM122,215h4.21v.5H122Z" transform="translate(-23.66 -96)"/><path class="cls-3" d="M131.2,219.17v-7.79h.48l3.62,6.25H135l3.6-6.25h.47v7.79h-.55l0-6.93h.16l-3.41,5.9H135l-3.43-5.9h.17v6.93Z" transform="translate(-23.66 -96)"/><path class="cls-3" d="M147.36,219.23a4.22,4.22,0,0,1-1.6-.3,3.63,3.63,0,0,1-1.29-.83,3.74,3.74,0,0,1-.85-1.26,4,4,0,0,1-.31-1.56,4,4,0,0,1,.31-1.56,3.74,3.74,0,0,1,.85-1.26,3.79,3.79,0,0,1,1.29-.84,4.59,4.59,0,0,1,3.21,0,3.81,3.81,0,0,1,2.14,2.08,4.08,4.08,0,0,1,.3,1.58,4,4,0,0,1-.3,1.57,3.9,3.9,0,0,1-.85,1.25,3.81,3.81,0,0,1-1.29.83A4.23,4.23,0,0,1,147.36,219.23Zm0-.53a3.64,3.64,0,0,0,1.38-.25,3.18,3.18,0,0,0,1.1-.72,3.26,3.26,0,0,0,.73-1.1,3.66,3.66,0,0,0,0-2.71,3.12,3.12,0,0,0-.73-1.09,3.18,3.18,0,0,0-1.1-.72,3.65,3.65,0,0,0-1.38-.26,3.72,3.72,0,0,0-1.38.26,3.36,3.36,0,0,0-1.84,1.81,3.66,3.66,0,0,0,0,2.71,3.44,3.44,0,0,0,.74,1.1,3.28,3.28,0,0,0,1.1.72A3.72,3.72,0,0,0,147.36,218.7Z" transform="translate(-23.66 -96)"/><path class="cls-3" d="M155.61,219.17v-7.79h.47l5.55,7.09h-.25v-7.09H162v7.79h-.47l-5.56-7.08h.25v7.08Z" transform="translate(-23.66 -96)"/><path class="cls-3" d="M166.88,219.17v-7.79h.57v7.79Z" transform="translate(-23.66 -96)"/><path class="cls-3" d="M171.09,219.17l3.58-7.79h.57l3.58,7.79h-.61l-3.38-7.43h.24l-3.37,7.43ZM172.4,217l.19-.48h4.66l.19.48Z" transform="translate(-23.66 -96)"/><path class="cls-4" d="M26,226.49v-.41l4.22-5.22h.64l-4.22,5.22-.31-.09h6.3v.5Zm4.44,2.16v-4.56H31v4.56Z" transform="translate(-23.66 -96)"/><path class="cls-4" d="M34,223.74a.45.45,0,0,1-.33-.14.46.46,0,0,1-.14-.34.45.45,0,0,1,.14-.33.48.48,0,0,1,.33-.13.44.44,0,0,1,.33.13.45.45,0,0,1,.14.33.46.46,0,0,1-.14.34A.42.42,0,0,1,34,223.74Zm0,4.95a.45.45,0,0,1-.33-.14.46.46,0,0,1-.14-.34.45.45,0,0,1,.14-.33.48.48,0,0,1,.33-.13.44.44,0,0,1,.33.13.45.45,0,0,1,.14.33.46.46,0,0,1-.14.34A.42.42,0,0,1,34,228.69Z" transform="translate(-23.66 -96)"/><path class="cls-4" d="M41.61,228.7a2.71,2.71,0,0,1-1.58-.48A3.1,3.1,0,0,1,39,226.86a5.88,5.88,0,0,1,0-4.21A3.19,3.19,0,0,1,40,221.28a2.91,2.91,0,0,1,3.17,0,3.24,3.24,0,0,1,1.07,1.37,5.88,5.88,0,0,1,0,4.21,3.15,3.15,0,0,1-1.07,1.36A2.72,2.72,0,0,1,41.61,228.7Zm0-.52a2.14,2.14,0,0,0,1.3-.41,2.65,2.65,0,0,0,.87-1.17,5.68,5.68,0,0,0,0-3.7,2.65,2.65,0,0,0-.87-1.17,2.3,2.3,0,0,0-2.59,0,2.6,2.6,0,0,0-.88,1.17,5.68,5.68,0,0,0,0,3.7,2.6,2.6,0,0,0,.88,1.17A2.13,2.13,0,0,0,41.61,228.18Z" transform="translate(-23.66 -96)"/><path class="cls-4" d="M48.93,228.7a2.71,2.71,0,0,1-1.58-.48,3.1,3.1,0,0,1-1.08-1.36,5.88,5.88,0,0,1,0-4.21,3.19,3.19,0,0,1,1.08-1.37,2.91,2.91,0,0,1,3.17,0,3.24,3.24,0,0,1,1.07,1.37,5.88,5.88,0,0,1,0,4.21,3.15,3.15,0,0,1-1.07,1.36A2.72,2.72,0,0,1,48.93,228.7Zm0-.52a2.14,2.14,0,0,0,1.3-.41,2.65,2.65,0,0,0,.87-1.17,5.68,5.68,0,0,0,0-3.7,2.65,2.65,0,0,0-.87-1.17,2.3,2.3,0,0,0-2.59,0,2.6,2.6,0,0,0-.88,1.17,5.68,5.68,0,0,0,0,3.7,2.6,2.6,0,0,0,.88,1.17A2.13,2.13,0,0,0,48.93,228.18Z" transform="translate(-23.66 -96)"/><path class="cls-4" d="M56.63,230.8v-8h.53v1.9l-.09,1,.11,1v4Zm2.91-2.11a2.77,2.77,0,0,1-1.38-.35,2.6,2.6,0,0,1-1-1,3.63,3.63,0,0,1,0-3.15,2.6,2.6,0,0,1,1-1,2.77,2.77,0,0,1,1.38-.35,2.93,2.93,0,0,1,1.48.37,2.68,2.68,0,0,1,1,1,3.07,3.07,0,0,1,.37,1.53,3.11,3.11,0,0,1-.37,1.54,2.75,2.75,0,0,1-1,1A2.93,2.93,0,0,1,59.54,228.69Zm0-.5a2.43,2.43,0,0,0,1.2-.3,2.2,2.2,0,0,0,.84-.87,2.8,2.8,0,0,0,0-2.56,2.17,2.17,0,0,0-.84-.86,2.43,2.43,0,0,0-1.2-.3,2.4,2.4,0,0,0-1.2.3,2.21,2.21,0,0,0-.83.86,2.8,2.8,0,0,0,0,2.56,2.24,2.24,0,0,0,.83.87A2.4,2.4,0,0,0,59.51,228.19Z" transform="translate(-23.66 -96)"/><path class="cls-4" d="M71.37,222.8a2.57,2.57,0,0,1,1.21.27,1.84,1.84,0,0,1,.81.82,2.94,2.94,0,0,1,.29,1.36v3.4h-.56V225.3a2.1,2.1,0,0,0-.48-1.49,1.72,1.72,0,0,0-1.33-.51,2.22,2.22,0,0,0-1.13.27,1.92,1.92,0,0,0-.74.78,2.65,2.65,0,0,0-.25,1.2v3.1h-.56V225.3a2.1,2.1,0,0,0-.48-1.49,1.73,1.73,0,0,0-1.33-.51,2.29,2.29,0,0,0-1.14.27,1.89,1.89,0,0,0-.73.78,2.65,2.65,0,0,0-.26,1.2v3.1h-.55v-5.81h.53v1.6l-.08-.18a2.16,2.16,0,0,1,.86-1.07,2.58,2.58,0,0,1,1.44-.39,2.37,2.37,0,0,1,1.47.44,2,2,0,0,1,.75,1.3l-.19-.08a2.28,2.28,0,0,1,.88-1.2A2.6,2.6,0,0,1,71.37,222.8Z" transform="translate(-23.66 -96)"/><path class="cls-1" d="M146.2,279.42h4.05c.18,0,.24-.05.27-.22a5.49,5.49,0,0,1,4.37-4.52,5.61,5.61,0,1,1,2.31,11,5.21,5.21,0,0,1-2.9-.17c-.18-.06-.27-.05-.37.13-1.31,2.31-2.64,4.62-4,6.92a.63.63,0,0,0-.09.35v6.62c0,.19,0,.24.24.24h2.19a.57.57,0,0,1,.54.36.63.63,0,0,1-.08.68.64.64,0,0,1-.54.25h-6a.65.65,0,0,1-.68-.67.62.62,0,0,1,.69-.62h2.11c.19,0,.24-.05.24-.24q0-3.31,0-6.63a.67.67,0,0,0-.11-.37l-6.88-12a1.47,1.47,0,0,1-.14-.28.62.62,0,0,1,.65-.79Zm-3,1.24s0,0,0,.06l1.85,3.25a.24.24,0,0,0,.17.12,8.81,8.81,0,0,0,5.4-.32,10.41,10.41,0,0,1,3.11-.66c.13,0,.16-.09.21-.17l1.21-2.1s.1-.1,0-.18ZM156,275.83l.44,2.71,1.53-2.11c.06-.08.05-.12,0-.16A4.4,4.4,0,0,0,156,275.83Zm1.68,4.71,2.11,1.52c.14.11.15,0,.18-.09a4.32,4.32,0,0,0,.41-1.67c0-.2-.07-.2-.23-.17Zm2.51-1.68a4.31,4.31,0,0,0-1-1.69c-.06-.07-.09-.07-.14,0l-.34.46-1.2,1.66ZM154.74,276a4.42,4.42,0,0,0-1.63,1c-.12.11-.11.16,0,.25.63.44,1.25.9,1.87,1.35,0,0,.08.09.17.06Zm2.21,5.56c0,.05,0,.08,0,.1.14.82.27,1.63.4,2.45,0,.14.09.13.19.09a4.08,4.08,0,0,0,1.6-1.06Zm-1.18.86c-.35.61-.66,1.18-1,1.74-.07.12,0,.12.09.14a4.87,4.87,0,0,0,1.07.17c.14,0,.17,0,.14-.16Zm-1.88-3c-.54-.4-1-.76-1.52-1.13-.14-.11-.19-.06-.24.07a5.49,5.49,0,0,0-.35,1.06Z" transform="translate(-23.66 -96)"/><path class="cls-3" d="M225,287.06a4.22,4.22,0,0,1-1.6-.3,3.87,3.87,0,0,1-1.29-.83,3.72,3.72,0,0,1-.84-1.25,4,4,0,0,1-.3-1.57,4.08,4.08,0,0,1,.3-1.58,3.7,3.7,0,0,1,.85-1.25,4.09,4.09,0,0,1,1.28-.83,4.42,4.42,0,0,1,1.6-.29,4.3,4.3,0,0,1,1.54.27,3,3,0,0,1,1.23.81l-.35.36a3.06,3.06,0,0,0-1.11-.7,3.63,3.63,0,0,0-1.28-.22,3.74,3.74,0,0,0-1.39.26,3.32,3.32,0,0,0-1.11.72,3.12,3.12,0,0,0-.73,1.09,3.4,3.4,0,0,0-.27,1.36,3.32,3.32,0,0,0,.27,1.35,3.12,3.12,0,0,0,.73,1.09,3.2,3.2,0,0,0,1.11.73,3.73,3.73,0,0,0,1.39.25,3.86,3.86,0,0,0,1.28-.21,3.12,3.12,0,0,0,1.11-.72l.35.37a3.22,3.22,0,0,1-1.23.81A4.3,4.3,0,0,1,225,287.06Z" transform="translate(-23.66 -96)"/><path class="cls-3" d="M235.05,287.06a4.23,4.23,0,0,1-1.61-.3,4,4,0,0,1-1.29-.83,3.74,3.74,0,0,1-.85-1.26,4.23,4.23,0,0,1,0-3.13,3.8,3.8,0,0,1,.85-1.25,4,4,0,0,1,1.29-.84,4.43,4.43,0,0,1,1.61-.29,4.38,4.38,0,0,1,1.6.29,3.92,3.92,0,0,1,1.29.83,3.85,3.85,0,0,1,.85,1.25,4.08,4.08,0,0,1,.31,1.58,4,4,0,0,1-.31,1.57,3.81,3.81,0,0,1-2.14,2.08A4.18,4.18,0,0,1,235.05,287.06Zm0-.53a3.72,3.72,0,0,0,1.38-.25,3.16,3.16,0,0,0,1.1-.73,3.42,3.42,0,0,0,.73-1.09,3.49,3.49,0,0,0,.26-1.35,3.59,3.59,0,0,0-.26-1.37,3.49,3.49,0,0,0-.73-1.08,3.28,3.28,0,0,0-1.1-.72,3.72,3.72,0,0,0-1.38-.26,3.65,3.65,0,0,0-1.38.26,3.43,3.43,0,0,0-1.11.72,3.33,3.33,0,0,0-.73,1.08,3.41,3.41,0,0,0-.26,1.37,3.32,3.32,0,0,0,.26,1.35,3.26,3.26,0,0,0,.73,1.09,3.3,3.3,0,0,0,1.11.73A3.64,3.64,0,0,0,235.05,286.53Zm-.64-7.95,1.55-1.31h.8L235,278.58Z" transform="translate(-23.66 -96)"/><path class="cls-3" d="M246.58,287.06a4.27,4.27,0,0,1-1.61-.3,3.82,3.82,0,0,1-1.28-.83,3.75,3.75,0,0,1-.85-1.25,4,4,0,0,1-.3-1.57,4.08,4.08,0,0,1,.3-1.58,3.73,3.73,0,0,1,.86-1.25,4,4,0,0,1,1.28-.83,4.54,4.54,0,0,1,3.14,0,3,3,0,0,1,1.23.81l-.35.36a3.15,3.15,0,0,0-1.11-.7,3.68,3.68,0,0,0-1.29-.22,3.72,3.72,0,0,0-1.38.26,3.23,3.23,0,0,0-1.11.72,3.29,3.29,0,0,0-.74,1.09,3.58,3.58,0,0,0-.26,1.36,3.49,3.49,0,0,0,.26,1.35,3.29,3.29,0,0,0,.74,1.09,3.11,3.11,0,0,0,1.11.73,3.72,3.72,0,0,0,1.38.25,3.92,3.92,0,0,0,1.29-.21,3.21,3.21,0,0,0,1.11-.72l.35.37a3.22,3.22,0,0,1-1.23.81A4.34,4.34,0,0,1,246.58,287.06Z" transform="translate(-23.66 -96)"/><path class="cls-3" d="M254.87,287v-7.27h-2.8v-.52h6.17v.52h-2.8V287Z" transform="translate(-23.66 -96)"/><path class="cls-3" d="M262.43,286.49h4.81V287h-5.37v-7.79h5.2v.52h-4.64Zm-.06-3.69h4.21v.5h-4.21Z" transform="translate(-23.66 -96)"/><path class="cls-3" d="M271.53,287v-7.79h.57v7.28h4.48V287Z" transform="translate(-23.66 -96)"/><path class="cls-4" d="M314.3,291.13a4.35,4.35,0,0,1-1.58-.29,2.79,2.79,0,0,1-1.15-.76l.29-.43a2.52,2.52,0,0,0,1,.68,3.51,3.51,0,0,0,1.43.28,2.42,2.42,0,0,0,1.63-.49,1.64,1.64,0,0,0,.54-1.27,1.76,1.76,0,0,0-.25-1,1.63,1.63,0,0,0-.87-.61,5,5,0,0,0-1.67-.22h-1.58l.41-3.77h4.13v.51h-3.89l.27-.27-.36,3.31-.27-.29h1.41a5.18,5.18,0,0,1,1.9.28,2.06,2.06,0,0,1,1,.8,2.24,2.24,0,0,1,.32,1.2,2.32,2.32,0,0,1-.3,1.17,2.09,2.09,0,0,1-.91.82A3.26,3.26,0,0,1,314.3,291.13Z" transform="translate(-23.66 -96)"/><path class="cls-4" d="M318.6,286.17a.45.45,0,0,1-.33-.14.48.48,0,0,1-.14-.34.48.48,0,0,1,.47-.47.49.49,0,0,1,.33.14.44.44,0,0,1,.13.33.47.47,0,0,1-.13.34A.49.49,0,0,1,318.6,286.17Zm0,4.95a.45.45,0,0,1-.33-.14.48.48,0,0,1-.14-.34.48.48,0,0,1,.47-.47.49.49,0,0,1,.33.14.44.44,0,0,1,.13.33.47.47,0,0,1-.13.34A.49.49,0,0,1,318.6,291.12Z" transform="translate(-23.66 -96)"/><path class="cls-4" d="M325.46,291.13a4.46,4.46,0,0,1-1.6-.29,2.86,2.86,0,0,1-1.15-.76l.29-.43a2.56,2.56,0,0,0,1,.68,3.57,3.57,0,0,0,1.45.28,2.42,2.42,0,0,0,1.6-.47,1.71,1.71,0,0,0,0-2.51,2.64,2.64,0,0,0-1.72-.47h-.49v-.41l2.48-3.17.08.22H323v-.51h4.88v.4l-2.46,3.17-.25-.18h.25a3.11,3.11,0,0,1,2.08.61,2.06,2.06,0,0,1,.68,1.59,2.25,2.25,0,0,1-.3,1.16,2.1,2.1,0,0,1-.91.8A3.57,3.57,0,0,1,325.46,291.13Z" transform="translate(-23.66 -96)"/><path class="cls-4" d="M332.43,291.13a2.71,2.71,0,0,1-1.58-.48,3.14,3.14,0,0,1-1.07-1.36,5.9,5.9,0,0,1,0-4.22,3.14,3.14,0,0,1,1.07-1.36,2.86,2.86,0,0,1,3.17,0,3.21,3.21,0,0,1,1.07,1.36,5.9,5.9,0,0,1,0,4.22,3.21,3.21,0,0,1-1.07,1.36A2.72,2.72,0,0,1,332.43,291.13Zm0-.52a2.19,2.19,0,0,0,1.31-.41,2.56,2.56,0,0,0,.86-1.17,5.68,5.68,0,0,0,0-3.7,2.56,2.56,0,0,0-.86-1.17,2.19,2.19,0,0,0-1.31-.4,2.13,2.13,0,0,0-1.29.4,2.6,2.6,0,0,0-.88,1.17,5.68,5.68,0,0,0,0,3.7,2.6,2.6,0,0,0,.88,1.17A2.13,2.13,0,0,0,332.43,290.61Z" transform="translate(-23.66 -96)"/><path class="cls-4" d="M340.13,293.23v-8h.53v1.9l-.08,1,.11,1v4Zm2.91-2.11a2.68,2.68,0,0,1-1.38-.36,2.51,2.51,0,0,1-1-1,3.29,3.29,0,0,1-.36-1.58,3.22,3.22,0,0,1,.36-1.57,2.6,2.6,0,0,1,1-1,2.68,2.68,0,0,1,1.38-.36,2.94,2.94,0,0,1,1.48.38,2.68,2.68,0,0,1,1,1,3,3,0,0,1,.37,1.53,3.11,3.11,0,0,1-.37,1.54,2.75,2.75,0,0,1-1,1A2.93,2.93,0,0,1,343,291.12Zm0-.5a2.28,2.28,0,0,0,1.2-.31,2.11,2.11,0,0,0,.84-.86,2.55,2.55,0,0,0,.31-1.28,2.5,2.5,0,0,0-.31-1.28,2.11,2.11,0,0,0-.84-.86,2.46,2.46,0,0,0-2.39,0,2.11,2.11,0,0,0-.84.86,2.61,2.61,0,0,0-.31,1.28,2.66,2.66,0,0,0,.31,1.28,2.11,2.11,0,0,0,.84.86A2.27,2.27,0,0,0,343,290.62Z" transform="translate(-23.66 -96)"/><path class="cls-4" d="M354.87,285.22a2.53,2.53,0,0,1,1.22.28,1.87,1.87,0,0,1,.8.82,2.94,2.94,0,0,1,.29,1.36v3.39h-.55v-3.34a2.09,2.09,0,0,0-.48-1.49,1.76,1.76,0,0,0-1.34-.52,2.28,2.28,0,0,0-1.13.28,1.92,1.92,0,0,0-.74.78,2.62,2.62,0,0,0-.25,1.2v3.09h-.56v-3.34a2.09,2.09,0,0,0-.48-1.49,1.74,1.74,0,0,0-1.33-.52,2.29,2.29,0,0,0-1.14.28,2,2,0,0,0-.73.78,2.62,2.62,0,0,0-.26,1.2v3.09h-.55v-5.8h.53v1.6l-.08-.18a2.16,2.16,0,0,1,.86-1.07,2.6,2.6,0,0,1,1.45-.4,2.43,2.43,0,0,1,1.46.44,2,2,0,0,1,.75,1.31l-.19-.08a2.3,2.3,0,0,1,.88-1.2A2.61,2.61,0,0,1,354.87,285.22Z" transform="translate(-23.66 -96)"/><line class="cls-2" x1="191.55" y1="260.46" x2="59.62" y2="260.46"/><path class="cls-3" d="M97.18,351v-7.79H100a4.27,4.27,0,0,1,1.68.31,2.41,2.41,0,0,1,1.08.9,2.81,2.81,0,0,1,0,2.82,2.48,2.48,0,0,1-1.08.9,4.1,4.1,0,0,1-1.68.31H97.49l.25-.27V351Zm.56-2.78-.25-.27H100a2.88,2.88,0,0,0,1.91-.55,2,2,0,0,0,.65-1.56,1.92,1.92,0,0,0-.65-1.56,2.88,2.88,0,0,0-1.91-.55H97.49l.25-.28Zm4.84,2.78-2-2.82h.64l2,2.82Z" transform="translate(-23.66 -96)"/><path class="cls-3" d="M108,350.52h4.8V351h-5.37v-7.79h5.21v.52H108Zm-.07-3.69h4.22v.5h-4.22Z" transform="translate(-23.66 -96)"/><path class="cls-3" d="M120.33,351.09a4.22,4.22,0,0,1-1.6-.3,3.87,3.87,0,0,1-1.29-.83,3.72,3.72,0,0,1-.84-1.25,4,4,0,0,1-.3-1.57,4.08,4.08,0,0,1,.3-1.58,3.7,3.7,0,0,1,.85-1.25,4,4,0,0,1,1.28-.83,4.57,4.57,0,0,1,3.15,0,3,3,0,0,1,1.22.81l-.35.36a3.06,3.06,0,0,0-1.11-.7,3.63,3.63,0,0,0-1.28-.22A3.74,3.74,0,0,0,119,344a3.32,3.32,0,0,0-1.11.72,3.22,3.22,0,0,0-.73,1.09,3.4,3.4,0,0,0-.27,1.36,3.32,3.32,0,0,0,.27,1.35,3.12,3.12,0,0,0,.73,1.09,3.35,3.35,0,0,0,1.11.73,3.73,3.73,0,0,0,1.39.25,3.86,3.86,0,0,0,1.28-.21,3.12,3.12,0,0,0,1.11-.72l.35.37a3.26,3.26,0,0,1-1.22.81A4.4,4.4,0,0,1,120.33,351.09Z" transform="translate(-23.66 -96)"/><path class="cls-3" d="M127.8,350.52h4.8V351h-5.37v-7.79h5.21v.52H127.8Zm-.07-3.69H132v.5h-4.22Z" transform="translate(-23.66 -96)"/><path class="cls-3" d="M136.9,351v-7.79h2.79a4.27,4.27,0,0,1,1.68.31,2.52,2.52,0,0,1,1.08.9,2.87,2.87,0,0,1,0,2.82,2.52,2.52,0,0,1-1.08.9,4.1,4.1,0,0,1-1.68.31h-2.48l.25-.27V351Zm.56-2.78-.25-.28h2.48a2.88,2.88,0,0,0,1.91-.55,2.19,2.19,0,0,0,0-3.11,2.88,2.88,0,0,0-1.91-.55h-2.48l.25-.28Z" transform="translate(-23.66 -96)"/><path class="cls-3" d="M150.37,351.09a4.23,4.23,0,0,1-1.61-.3,4,4,0,0,1-1.29-.83,3.72,3.72,0,0,1-.84-1.25,4,4,0,0,1-.3-1.57,4.08,4.08,0,0,1,.3-1.58,3.7,3.7,0,0,1,.85-1.25,4.09,4.09,0,0,1,1.28-.83,4.43,4.43,0,0,1,1.61-.29,4.38,4.38,0,0,1,1.54.27,3.15,3.15,0,0,1,1.23.81l-.36.36a3,3,0,0,0-1.11-.7,3.63,3.63,0,0,0-1.28-.22A3.74,3.74,0,0,0,149,344a3.43,3.43,0,0,0-1.11.72,3.38,3.38,0,0,0-1,2.45,3.32,3.32,0,0,0,.26,1.35,3.26,3.26,0,0,0,.73,1.09,3.45,3.45,0,0,0,1.11.73,3.73,3.73,0,0,0,1.39.25,3.86,3.86,0,0,0,1.28-.21,3,3,0,0,0,1.11-.72l.36.37a3.38,3.38,0,0,1-1.23.81A4.38,4.38,0,0,1,150.37,351.09Z" transform="translate(-23.66 -96)"/><path class="cls-3" d="M157.26,351v-7.79h.57V351Z" transform="translate(-23.66 -96)"/><path class="cls-3" d="M166.07,351.09a4.27,4.27,0,0,1-1.61-.3,4,4,0,0,1-1.29-.83,3.89,3.89,0,0,1-.85-1.26,4.23,4.23,0,0,1,0-3.13,3.87,3.87,0,0,1,2.14-2.09,4.61,4.61,0,0,1,3.22,0,4,4,0,0,1,1.28.83,3.7,3.7,0,0,1,.85,1.25,3.91,3.91,0,0,1,.31,1.58,3.86,3.86,0,0,1-.31,1.57A3.6,3.6,0,0,1,169,350a3.82,3.82,0,0,1-1.28.83A4.23,4.23,0,0,1,166.07,351.09Zm0-.53a3.64,3.64,0,0,0,1.38-.25,3.31,3.31,0,0,0,1.1-.73,3.26,3.26,0,0,0,.73-1.09,3.49,3.49,0,0,0,.26-1.35,3.59,3.59,0,0,0-.26-1.37,3.33,3.33,0,0,0-.73-1.08,3.28,3.28,0,0,0-1.1-.72,3.79,3.79,0,0,0-2.76,0,3.43,3.43,0,0,0-1.11.72,3.49,3.49,0,0,0-.73,1.08,3.59,3.59,0,0,0-.26,1.37,3.49,3.49,0,0,0,.26,1.35,3.33,3.33,0,0,0,1.84,1.82A3.64,3.64,0,0,0,166.07,350.56Zm-.63-7.95L167,341.3h.8L166,342.61Z" transform="translate(-23.66 -96)"/><path class="cls-3" d="M174.31,351v-7.79h.48l5.55,7.09h-.25v-7.09h.56V351h-.46L174.62,344h.26V351Z" transform="translate(-23.66 -96)"/><path class="cls-4" d="M30.15,357a3,3,0,0,1-1.72-.46,2.76,2.76,0,0,1-1.05-1.35,5.5,5.5,0,0,1-.36-2.09,5,5,0,0,1,.43-2.21,3,3,0,0,1,1.22-1.33,3.52,3.52,0,0,1,1.81-.45,6,6,0,0,1,1,.08,2.41,2.41,0,0,1,.81.32l-.24.45a2.37,2.37,0,0,0-.69-.27,3.74,3.74,0,0,0-.84-.08,2.7,2.7,0,0,0-2.1.85,3.61,3.61,0,0,0-.79,2.55c0,.17,0,.39,0,.65a4,4,0,0,0,.14.77l-.2-.05a2.21,2.21,0,0,1,.44-1.1,2.25,2.25,0,0,1,.91-.7,3.05,3.05,0,0,1,1.22-.24,3.1,3.1,0,0,1,1.37.29,2.15,2.15,0,0,1,.91.8,2.26,2.26,0,0,1,.33,1.23,2.33,2.33,0,0,1-.34,1.24,2.29,2.29,0,0,1-.93.81A2.85,2.85,0,0,1,30.15,357Zm0-.49a2.38,2.38,0,0,0,1.07-.22,1.88,1.88,0,0,0,.72-.65,1.83,1.83,0,0,0,.26-1,1.73,1.73,0,0,0-.56-1.34,2.27,2.27,0,0,0-1.55-.5,2.41,2.41,0,0,0-1.13.25,1.84,1.84,0,0,0-.76.67,1.69,1.69,0,0,0-.27.94,1.65,1.65,0,0,0,.25.87,1.93,1.93,0,0,0,.75.69A2.65,2.65,0,0,0,30.12,356.47Z" transform="translate(-23.66 -96)"/><path class="cls-4" d="M34.22,352a.42.42,0,0,1-.33-.14.42.42,0,0,1-.14-.34.42.42,0,0,1,.14-.33.44.44,0,0,1,.33-.13.44.44,0,0,1,.32.13.42.42,0,0,1,.14.33.42.42,0,0,1-.14.34A.41.41,0,0,1,34.22,352Zm0,4.95a.42.42,0,0,1-.33-.14.42.42,0,0,1-.14-.34.42.42,0,0,1,.14-.33.44.44,0,0,1,.33-.13.44.44,0,0,1,.32.13.42.42,0,0,1,.14.33.42.42,0,0,1-.14.34A.41.41,0,0,1,34.22,357Z" transform="translate(-23.66 -96)"/><path class="cls-4" d="M41.08,357a4.25,4.25,0,0,1-1.6-.29,3,3,0,0,1-1.15-.75l.29-.44a2.58,2.58,0,0,0,1,.69,3.71,3.71,0,0,0,1.45.27,2.32,2.32,0,0,0,1.59-.47,1.56,1.56,0,0,0,.56-1.25,1.59,1.59,0,0,0-.56-1.26A2.61,2.61,0,0,0,41,353h-.49v-.41L43,349.41l.07.22h-4.4v-.51H43.5v.4L41,352.69l-.24-.18H41a3,3,0,0,1,2.08.62,2,2,0,0,1,.69,1.59,2.22,2.22,0,0,1-.3,1.15,2.1,2.1,0,0,1-.91.8A3.42,3.42,0,0,1,41.08,357Z" transform="translate(-23.66 -96)"/><path class="cls-4" d="M48.05,357a2.71,2.71,0,0,1-1.58-.48,3.1,3.1,0,0,1-1.08-1.36,5.88,5.88,0,0,1,0-4.21,3.19,3.19,0,0,1,1.08-1.37,2.91,2.91,0,0,1,3.17,0,3.24,3.24,0,0,1,1.07,1.37,5.88,5.88,0,0,1,0,4.21,3.15,3.15,0,0,1-1.07,1.36A2.72,2.72,0,0,1,48.05,357Zm0-.52a2.2,2.2,0,0,0,1.3-.4,2.74,2.74,0,0,0,.87-1.18,5.68,5.68,0,0,0,0-3.7,2.71,2.71,0,0,0-.87-1.17,2.3,2.3,0,0,0-2.59,0,2.65,2.65,0,0,0-.88,1.17,5.68,5.68,0,0,0,0,3.7,2.68,2.68,0,0,0,.88,1.18A2.19,2.19,0,0,0,48.05,356.44Z" transform="translate(-23.66 -96)"/><path class="cls-4" d="M55.75,359.07v-8h.53V353l-.09,1,.12,1v4ZM58.66,357a2.77,2.77,0,0,1-1.38-.35,2.6,2.6,0,0,1-1-1,3.63,3.63,0,0,1,0-3.15,2.6,2.6,0,0,1,1-1,2.77,2.77,0,0,1,1.38-.35,2.93,2.93,0,0,1,1.48.37,2.75,2.75,0,0,1,1,1,3.07,3.07,0,0,1,.37,1.53,3.11,3.11,0,0,1-.37,1.54,2.75,2.75,0,0,1-1,1A2.93,2.93,0,0,1,58.66,357Zm0-.5a2.38,2.38,0,0,0,1.2-.3,2.2,2.2,0,0,0,.84-.87A2.53,2.53,0,0,0,61,354a2.55,2.55,0,0,0-.31-1.28,2.17,2.17,0,0,0-.84-.86,2.38,2.38,0,0,0-1.2-.3,2.43,2.43,0,0,0-1.2.3,2.21,2.21,0,0,0-.83.86,2.66,2.66,0,0,0-.31,1.28,2.63,2.63,0,0,0,.31,1.28,2.24,2.24,0,0,0,.83.87A2.43,2.43,0,0,0,58.63,356.45Z" transform="translate(-23.66 -96)"/><path class="cls-4" d="M70.49,351.06a2.64,2.64,0,0,1,1.22.27,1.92,1.92,0,0,1,.8.82,3,3,0,0,1,.29,1.37v3.39h-.56v-3.35a2.15,2.15,0,0,0-.47-1.49,1.76,1.76,0,0,0-1.34-.51,2.15,2.15,0,0,0-1.13.28,1.8,1.8,0,0,0-.74.78,2.6,2.6,0,0,0-.25,1.2v3.09h-.56v-3.35a2.1,2.1,0,0,0-.48-1.49,1.73,1.73,0,0,0-1.33-.51,2.19,2.19,0,0,0-1.14.28,1.78,1.78,0,0,0-.73.78,2.59,2.59,0,0,0-.26,1.2v3.09h-.55V351.1h.53v1.6l-.08-.17a2.14,2.14,0,0,1,.86-1.08,2.6,2.6,0,0,1,1.45-.39,2.36,2.36,0,0,1,1.46.44,1.93,1.93,0,0,1,.75,1.3l-.19-.08a2.34,2.34,0,0,1,.88-1.2A2.6,2.6,0,0,1,70.49,351.06Z" transform="translate(-23.66 -96)"/><circle class="cls-2" cx="169.12" cy="61.52" r="4.67"/><circle class="cls-2" cx="169.12" cy="320.55" r="4.67"/><path class="cls-5" d="M249,356.66a3.81,3.81,0,0,1,.39,1.1,2.36,2.36,0,0,1-2.71,2.64,2,2,0,0,1-1.4-1.9,2.54,2.54,0,0,1,1.26-2.44,3.16,3.16,0,0,0-1.46-.51,3.36,3.36,0,0,0-2.06.53c-.19.12-.21.21-.08.39a10.92,10.92,0,0,1,1.51,2.89,3.3,3.3,0,0,1,.19,1,1.45,1.45,0,0,1-.94,1.48l-14.2,6.29-3.89,1.72a3.16,3.16,0,0,1-4.47-2.34,3.26,3.26,0,0,1,.29-1.94l7.91-17.87a1.58,1.58,0,0,1,2-1.05,9,9,0,0,1,3.23,1.5,30.45,30.45,0,0,1,5.31,4.57.37.37,0,0,0,.58.07,10.52,10.52,0,0,1,5.83-1.77c.46,0,.71.21.71.6s-.27.6-.72.61a9.7,9.7,0,0,0-5,1.49c-.25.15-.23.24-.05.43s.5.6.74.91c.1.12.16.15.31,0a4.49,4.49,0,0,1,5.49.23.58.58,0,0,0,.48.12,7.92,7.92,0,0,1,4.24.62.58.58,0,0,1,.39.79.6.6,0,0,1-.85.32,7.42,7.42,0,0,0-2.45-.57C249.37,356.65,249.2,356.66,249,356.66Zm-19.1,10a10.85,10.85,0,0,1-4.08-3.31c-.37-.47-.38-.79-.06-1.05s.64-.16,1,.32a9,9,0,0,0,4,3,1.83,1.83,0,0,0,1.67-.07,9.78,9.78,0,0,1,1.19-.53l.81-.36.83-.38a20.44,20.44,0,0,1-6.91-6.05.61.61,0,1,1,1-.71,20.68,20.68,0,0,0,3.52,3.72,12,12,0,0,0,3.56,2.17.89.89,0,0,0,.94-.07,2.37,2.37,0,0,0-.53-.26,20.94,20.94,0,0,1-7.55-6.78.61.61,0,0,1,.14-.88.63.63,0,0,1,.89.24,21,21,0,0,0,4.42,4.66,11,11,0,0,0,3.8,2.09,1.18,1.18,0,0,0,.73.1c.73-.3,1.44-.63,2.14-.94a31.1,31.1,0,0,1-11.66-11.67l-1,2.12a.75.75,0,0,0,0,.42,6.22,6.22,0,0,0,.46,1.38.61.61,0,0,1-.32.83.62.62,0,0,1-.8-.35c0-.11-.06-.25-.17-.32a.8.8,0,0,0-.08.9c.12.33.27.65.42,1a.6.6,0,0,1-.27.82.59.59,0,0,1-.82-.28L227,356c-.33.75-.61,1.5-1,2.19a2.74,2.74,0,0,0-.21,2.75.53.53,0,0,1-.27.73.58.58,0,0,1-.77-.16c0-.05,0-.13-.13-.14-.29.57-.29.57,0,1.14.08.16.17.31.26.46a.61.61,0,0,1-.18.87.6.6,0,0,1-.83-.21c0-.07-.07-.18-.19-.2-.42,1-.86,1.9-1.25,2.86a1.95,1.95,0,0,0,2.46,2.53c1-.39,2-.85,3-1.29l-.32-.22A13.68,13.68,0,0,1,225,365.1a.63.63,0,0,1-.14-.66.57.57,0,0,1,.48-.38.68.68,0,0,1,.64.31,11,11,0,0,0,2.79,2.29A.88.88,0,0,0,229.9,366.63Zm4.95-16.21a1.19,1.19,0,0,0-1.34,1.17,4.21,4.21,0,0,0,.73,2.31,11.42,11.42,0,0,0,2.15,2.5,23.45,23.45,0,0,0,5,3.73,4.75,4.75,0,0,0,1.45.56c.62.12.74,0,.61-.62l0-.06a8.1,8.1,0,0,0-1.14-2.39c-.34-.56-.34-.55-.76-.07a.61.61,0,1,1-1-.73,5.68,5.68,0,0,1,.5-.6c.11-.12.13-.2,0-.33-.31-.35-.6-.7-.88-1.07-.11-.14-.19-.13-.31,0a11.07,11.07,0,0,0-1.22,1.25.62.62,0,0,1-.92.18c-.29-.24-.3-.59,0-1a10.5,10.5,0,0,1,1.31-1.36c.12-.1.19-.16,0-.32a34.66,34.66,0,0,0-2.64-2.5A2.76,2.76,0,0,0,234.85,350.42Zm11.64,7.8c0,.56.2.95.53,1a1.15,1.15,0,0,0,1-.65,1.47,1.47,0,0,0-.39-1.64.18.18,0,0,0-.16,0A1.43,1.43,0,0,0,246.49,358.22Z" transform="translate(-23.66 -96)"/><path class="cls-5" d="M230.43,341a.91.91,0,0,0-.06,1.05,2.31,2.31,0,0,0,1.13.94,2.55,2.55,0,0,1,1.55,1.9,4.16,4.16,0,0,1,.1,1,.6.6,0,0,1-.61.61.59.59,0,0,1-.6-.61c0-.21,0-.42-.05-.63a1.26,1.26,0,0,0-.7-1,8.61,8.61,0,0,1-1.13-.67,2.37,2.37,0,0,1-.82-2.9,1.38,1.38,0,0,1,.39-.55.91.91,0,0,0,.32-.86,2.86,2.86,0,0,1,1.33-2.73.64.64,0,0,1,.94.11c.2.32.1.65-.29.9a1.76,1.76,0,0,0-.78,1.37c0,.25,0,.31.29.25a2.53,2.53,0,0,1,1.16,0,1.42,1.42,0,0,1,1.29,1.42,1.57,1.57,0,0,1-1.42,1.4A1.93,1.93,0,0,1,230.43,341Zm1.07-.64a.74.74,0,0,0,1,.29c.08,0,.18-.08.17-.19s-.12-.15-.2-.16A1.67,1.67,0,0,0,231.5,340.38Z" transform="translate(-23.66 -96)"/><path class="cls-5" d="M226.92,340.28a2.41,2.41,0,0,1-2.6.8,1.55,1.55,0,0,1-1.12-1.62,1.74,1.74,0,0,1,1.51-1.6,3.9,3.9,0,0,1,1.43.23,1.69,1.69,0,0,0-1.38-1.22l-.38-.07a.61.61,0,0,1-.48-.69.64.64,0,0,1,.68-.5,3,3,0,0,1,2.87,3.11.46.46,0,0,0,.08.3,3.93,3.93,0,0,1,.66,3.56c0,.14-.06.28-.1.41a.61.61,0,1,1-1.16-.35,4.43,4.43,0,0,0,.18-1.54A2.32,2.32,0,0,0,226.92,340.28Zm-.89-.9a2.44,2.44,0,0,0-1.15-.31.46.46,0,0,0-.46.49c0,.26.16.37.41.4A1.13,1.13,0,0,0,226,339.38Z" transform="translate(-23.66 -96)"/><path class="cls-5" d="M256.52,359.75a1.75,1.75,0,0,0-1.73-.32c-.16.05-.31.13-.46.18a.6.6,0,0,1-.75-.31.59.59,0,0,1,.27-.79,3,3,0,0,1,4,1,.76.76,0,0,0,.42.35,4,4,0,0,1,2.29,2.6,4.34,4.34,0,0,1,.14.48.61.61,0,1,1-1.18.28,5.49,5.49,0,0,0-.39-1,2.63,2.63,0,0,0-.82-1c-.12,0-.09.13-.1.2a2.43,2.43,0,0,1-1.9,1.85,1.58,1.58,0,0,1-1.74-1.1,1.7,1.7,0,0,1,.72-2A6.59,6.59,0,0,1,256.52,359.75Zm-.77,1.9c0,.36.24.54.54.45a1.25,1.25,0,0,0,.81-1c0-.1,0-.19-.14-.16a2.86,2.86,0,0,0-1,.3A.4.4,0,0,0,255.75,361.65Z" transform="translate(-23.66 -96)"/><path class="cls-5" d="M242.21,348.32c-1-1.08-1.22-1.92-.61-2.67a1.87,1.87,0,0,1,2.47-.37,1.8,1.8,0,0,1,.78,2.55,2.57,2.57,0,0,0,2.17-1.4c.15-.28.36-.48.7-.4a.61.61,0,0,1,.4.92A3.82,3.82,0,0,1,244.2,349a1.49,1.49,0,0,0-1.09.2,9.53,9.53,0,0,1-2,.89.63.63,0,0,1-.87-.35c-.12-.36.05-.65.49-.8A10.29,10.29,0,0,0,242.21,348.32Zm.83-2.13a.5.5,0,0,0-.56.43c0,.31.62,1,.91.95a1.1,1.1,0,0,0,.53-.67C243.92,346.61,243.4,346.19,243,346.19Z" transform="translate(-23.66 -96)"/><path class="cls-5" d="M242.13,338.76a1.41,1.41,0,0,0,.19-1.32,2.92,2.92,0,0,0-.32-.75.6.6,0,0,1,.22-.83.59.59,0,0,1,.83.24c.74,1.24.89,2.88-.44,3.86-.11.08-.1.17-.09.28a4.81,4.81,0,0,1-.89,3.11.59.59,0,0,1-.61.29.62.62,0,0,1-.49-.42.66.66,0,0,1,.13-.6,3.91,3.91,0,0,0,.64-1.74c0-.22,0-.28-.25-.22a2.36,2.36,0,0,1-1.15.09,1.55,1.55,0,0,1-1.28-2.06,1.62,1.62,0,0,1,3-.7A4.14,4.14,0,0,1,242.13,338.76Zm-1.06.64a2.13,2.13,0,0,0-.59-.82c-.22-.19-.41-.2-.55.1a1.22,1.22,0,0,0-.15.39c0,.36.07.5.44.51A2.94,2.94,0,0,0,241.07,339.4Z" transform="translate(-23.66 -96)"/><path class="cls-5" d="M239,345.25a9.89,9.89,0,0,1-.95,3.89c-.19.45-.51.61-.86.46s-.45-.5-.25-.94a8.86,8.86,0,0,0,.84-4,6.33,6.33,0,0,0-.91-3.14.61.61,0,1,1,1-.63A7.8,7.8,0,0,1,239,345.25Z" transform="translate(-23.66 -96)"/><path class="cls-5" d="M245.64,343.64a.56.56,0,0,1-.53-.35.61.61,0,0,1,.13-.69,10.24,10.24,0,0,1,1.68-1.47,11.32,11.32,0,0,1,4.43-2,.6.6,0,0,1,.78.41.58.58,0,0,1-.51.75,11,11,0,0,0-4.87,2.51c-.23.21-.44.43-.66.65A.54.54,0,0,1,245.64,343.64Z" transform="translate(-23.66 -96)"/><path class="cls-5" d="M250.46,352.94a15.37,15.37,0,0,1,4.76.69l.3.1a.6.6,0,0,1-.4,1.13,15.26,15.26,0,0,0-2.91-.63,15.42,15.42,0,0,0-2.63-.08c-.46,0-.75-.15-.8-.52s.22-.65.68-.69S250.13,352.94,250.46,352.94Z" transform="translate(-23.66 -96)"/><path class="cls-5" d="M249.77,345.11c.14-.52.27-1.11.47-1.68a.51.51,0,0,1,.67-.31l1.47.38a.58.58,0,0,1,.47.77c-.12.5-.24,1-.37,1.48a.59.59,0,0,1-.74.44l-1.5-.39A.62.62,0,0,1,249.77,345.11Z" transform="translate(-23.66 -96)"/><path class="cls-5" d="M226.35,343.29a.67.67,0,0,1-.12.35c-.22.34-.43.69-.65,1a.6.6,0,0,1-.87.19c-.35-.21-.68-.43-1-.66a.6.6,0,0,1-.19-.89q.3-.49.63-1a.6.6,0,0,1,.92-.19l1,.63A.62.62,0,0,1,226.35,343.29Z" transform="translate(-23.66 -96)"/><path class="cls-5" d="M250.9,349.08c.35,0,.69,0,1,.07a.58.58,0,0,1,.58.6,8.92,8.92,0,0,1-.08,1.16.6.6,0,0,1-.67.55l-.95-.06a.64.64,0,0,1-.67-.77c0-.31,0-.62.07-.93A.61.61,0,0,1,250.9,349.08Z" transform="translate(-23.66 -96)"/><path class="cls-5" d="M251.37,360.68a4.6,4.6,0,0,1,1.35.64.53.53,0,0,1,.11.65c-.14.34-.29.67-.45,1a.58.58,0,0,1-.8.3c-.34-.13-.67-.28-1-.44a.59.59,0,0,1-.3-.83l.42-.94A.63.63,0,0,1,251.37,360.68Z" transform="translate(-23.66 -96)"/><path class="cls-5" d="M259.67,352.09a.7.7,0,0,1-.29.58c-.29.17-.57.34-.87.5a.58.58,0,0,1-.8-.21c-.18-.28-.35-.57-.5-.86a.58.58,0,0,1,.22-.81c.28-.18.57-.33.86-.5a.49.49,0,0,1,.57,0A3.55,3.55,0,0,1,259.67,352.09Z" transform="translate(-23.66 -96)"/><path class="cls-5" d="M246.87,365.91c-.29,0-.47-.05-.57-.2a8.61,8.61,0,0,1-.58-1A.54.54,0,0,1,246,364c.27-.17.54-.33.83-.48a.57.57,0,0,1,.8.2c.19.29.35.6.52.9a.48.48,0,0,1,0,.57A3.58,3.58,0,0,1,246.87,365.91Z" transform="translate(-23.66 -96)"/><path class="cls-5" d="M236.29,338.07a.66.66,0,0,1-.36.58c-.28.13-.55.27-.84.39a.6.6,0,0,1-.81-.29q-.21-.4-.39-.84a.58.58,0,0,1,.31-.8c.28-.15.58-.27.87-.4a.5.5,0,0,1,.59.1A4.38,4.38,0,0,1,236.29,338.07Z" transform="translate(-23.66 -96)"/><path class="cls-5" d="M234.59,333.13c0,.55-.14.8-.53.86a6.71,6.71,0,0,1-.89.09.57.57,0,0,1-.68-.52c-.05-.31-.09-.63-.11-.95a.57.57,0,0,1,.5-.63,5.89,5.89,0,0,1,1-.1.58.58,0,0,1,.6.53v.07C234.54,332.74,234.57,333,234.59,333.13Z" transform="translate(-23.66 -96)"/><path class="cls-5" d="M246.9,337.77c0,.34-.74.94-1.16.94s-.94-.74-.94-1.16.74-.94,1.16-.94S246.9,337.35,246.9,337.77Z" transform="translate(-23.66 -96)"/><path class="cls-5" d="M257.32,340.05c-.17.42-.35.86-.54,1.29-.06.12-.2.11-.32.07l-1.08-.44a.27.27,0,0,1-.18-.39c.14-.37.29-.73.43-1.09a.26.26,0,0,1,.37-.17l1.12.44A.31.31,0,0,1,257.32,340.05Z" transform="translate(-23.66 -96)"/><path class="cls-6" d="M231.5,340.38a1.67,1.67,0,0,1,1-.06c.08,0,.2.05.2.16s-.09.15-.17.19A.74.74,0,0,1,231.5,340.38Z" transform="translate(-23.66 -96)"/><path class="cls-6" d="M226,339.38a1.13,1.13,0,0,1-1.2.58c-.25,0-.42-.14-.41-.4a.46.46,0,0,1,.46-.49A2.44,2.44,0,0,1,226,339.38Z" transform="translate(-23.66 -96)"/><path class="cls-6" d="M243,346.19c.36,0,.88.42.88.71a1.1,1.1,0,0,1-.53.67c-.29,0-.92-.64-.91-.95A.5.5,0,0,1,243,346.19Z" transform="translate(-23.66 -96)"/><path class="cls-6" d="M241.07,339.4a2.94,2.94,0,0,1-.85.18c-.37,0-.48-.15-.44-.51a1.22,1.22,0,0,1,.15-.39c.14-.3.33-.29.55-.1A2.13,2.13,0,0,1,241.07,339.4Z" transform="translate(-23.66 -96)"/><path class="cls-7" d="M248.39,210.37c0-.76,0-1.48,0-2.19s0-1.39-.06-2.08a1.57,1.57,0,0,1,1.25-1.68c.58-.16,1.15-.32,1.74-.44a1.48,1.48,0,0,1,1.43.39c1,1,2.06,2,3.07,3.07a1.53,1.53,0,0,1,.4,1.44c-.12.59-.26,1.19-.4,1.78a1.56,1.56,0,0,1-1.6,1.26c-1.31,0-2.63-.07-4-.11h-.42c.18.23.34.44.49.66a11.12,11.12,0,0,1,2.16,7.55,11.39,11.39,0,0,1-7.3,10.09.66.66,0,0,0-.38.37,11.38,11.38,0,0,1-8.85,7.19,11.65,11.65,0,0,1-6.23-22.32.56.56,0,0,0,.33-.36,11.68,11.68,0,0,1,18.18-4.74Zm-5.3,16.9a6.93,6.93,0,0,0,1.41-.51.38.38,0,0,0,.28-.42,12.66,12.66,0,0,0-.26-2.45,10.78,10.78,0,1,0-2.89,9.91,10.49,10.49,0,0,0,2.22-3.24,12.46,12.46,0,0,1-1.84.32c-.17,0-.22.14-.3.25a9,9,0,0,1-9.24,4.09,9.15,9.15,0,1,1,5.77-17.13,8.93,8.93,0,0,1,4.88,7.29A10,10,0,0,1,243.09,227.27ZM231,214.92a9.87,9.87,0,0,1,1.69-.3.52.52,0,0,0,.45-.26,9.16,9.16,0,1,1,6.61,14,8.88,8.88,0,0,1-7.54-6.05,8.78,8.78,0,0,1-.45-4.11,9.28,9.28,0,0,0-1.53.57c-.15.07-.15.18-.15.32a11.25,11.25,0,0,0,.2,2.24,10.78,10.78,0,1,0,11.53-12.78,10.58,10.58,0,0,0-7.24,2A10.71,10.71,0,0,0,231,214.92Zm-1.78,4.51a8.16,8.16,0,0,0-3.43,8.28,8.3,8.3,0,0,0,7.21,6.73,8.11,8.11,0,0,0,7.71-3.5A11.65,11.65,0,0,1,229.25,219.43Zm16.43,6.6a8.27,8.27,0,0,0-4.12-15c-3-.21-6.77,1.63-7.4,3.51A11.7,11.7,0,0,1,245.68,226Zm-3.38.08A8.21,8.21,0,0,0,238,219a7.92,7.92,0,0,0-5.09-1c-.17,0-.26.06-.29.26a8.31,8.31,0,0,0,9.27,9.3c.2,0,.29-.1.31-.3S242.27,226.53,242.3,226.11Zm7.37-20.83,1.17,1.13a.25.25,0,0,0,.24.09l2.06-.51c-.34-.35-.65-.66-1-1a.69.69,0,0,0-.68-.21Zm5.29,5.25c.15-.69.29-1.32.42-2a.6.6,0,0,0-.17-.52c-.32-.33-.65-.64-1-1-.15.7-.3,1.36-.45,2a.32.32,0,0,0,.06.32Zm-2.54-1.22-1.48-1.49-1.18,2.67Zm-3.24,0,.16,0c.31-.69.61-1.38.92-2.06a.18.18,0,0,0,0-.22c-.34-.33-.67-.66-1-1v3.31Zm5.09,1.74-.4-.36c-.25-.23-.47-.6-.75-.65s-.61.22-.92.36l-1.21.53,0,.12Zm-2.51-3.78,1.25,1.24.36-1.65Z" transform="translate(-23.66 -96)"/><path class="cls-8" d="M243.09,227.27a10,10,0,0,0,0-1.89,8.93,8.93,0,0,0-4.88-7.29,9.15,9.15,0,1,0-5.77,17.13,9,9,0,0,0,9.24-4.09c.08-.11.13-.24.3-.25a12.46,12.46,0,0,0,1.84-.32,10.49,10.49,0,0,1-2.22,3.24,10.64,10.64,0,0,1-6.43,3.11,10.78,10.78,0,1,1,9.32-13,12.66,12.66,0,0,1,.26,2.45.38.38,0,0,1-.28.42A6.93,6.93,0,0,1,243.09,227.27Z" transform="translate(-23.66 -96)"/><path class="cls-8" d="M231,214.92a10.71,10.71,0,0,1,3.57-4.39,10.58,10.58,0,0,1,7.24-2,10.78,10.78,0,1,1-11.53,12.78,11.25,11.25,0,0,1-.2-2.24c0-.14,0-.25.15-.32a9.28,9.28,0,0,1,1.53-.57,8.78,8.78,0,0,0,.45,4.11,8.88,8.88,0,0,0,7.54,6.05,9.15,9.15,0,1,0-6.61-14,.52.52,0,0,1-.45.26A9.87,9.87,0,0,0,231,214.92Z" transform="translate(-23.66 -96)"/><path class="cls-8" d="M245.68,226a11.7,11.7,0,0,0-11.52-11.5c.63-1.88,4.39-3.72,7.4-3.51a8.27,8.27,0,0,1,4.12,15Z" transform="translate(-23.66 -96)"/><path class="cls-8" d="M249.67,205.28l1.83-.46a.69.69,0,0,1,.68.21c.31.3.62.61,1,1l-2.06.51a.25.25,0,0,1-.24-.09Z" transform="translate(-23.66 -96)"/><path class="cls-8" d="M255,210.53l-1.14-1.13a.32.32,0,0,1-.06-.32c.15-.66.3-1.32.45-2,.35.35.68.66,1,1a.6.6,0,0,1,.17.52C255.25,209.21,255.11,209.84,255,210.53Z" transform="translate(-23.66 -96)"/><path class="cls-8" d="M252.42,209.31l-2.66,1.18,1.18-2.67Z" transform="translate(-23.66 -96)"/><path class="cls-8" d="M249.18,209.27V206c.38.39.71.72,1,1a.18.18,0,0,1,0,.22c-.31.68-.61,1.37-.92,2.06Z" transform="translate(-23.66 -96)"/><path class="cls-8" d="M254.27,211H251l0-.12,1.21-.53c.31-.14.65-.41.92-.36s.5.42.75.65Z" transform="translate(-23.66 -96)"/><path class="cls-8" d="M251.76,207.23l1.61-.41-.36,1.65Z" transform="translate(-23.66 -96)"/></svg>