<?xml version="1.0" encoding="utf-8"?>
<!-- Generator: Adobe Illustrator 23.0.1, SVG Export Plug-In . SVG Version: 6.00 Build 0)  -->
<svg version="1.1" id="Capa_1" xmlns="http://www.w3.org/2000/svg" xmlns:xlink="http://www.w3.org/1999/xlink" x="0px" y="0px"
	 viewBox="0 0 175.68 292.88" style="enable-background:new 0 0 175.68 292.88;" xml:space="preserve">
<style type="text/css">
	.st0{fill:#FFFFFF;stroke:#FFFFFF;stroke-miterlimit:10;}
	.st1{fill:#FFFFFF;stroke:#FFFFFF;stroke-width:10.8552;stroke-miterlimit:10;}
	.st2{fill:#002800;stroke:#000000;stroke-width:0.8018;stroke-miterlimit:10;}
	.st3{fill:#002800;stroke:#000000;stroke-width:0.4009;stroke-miterlimit:10;}
	.st4{fill:#002800;}
	.st5{fill:#111010;}
	.st6{fill:#FEFDFD;}
	.st7{fill:none;stroke:#000000;stroke-width:0.4009;stroke-miterlimit:10;}
	.st8{fill:#002800;stroke:#000000;stroke-width:0.349;stroke-miterlimit:10;}
	.st9{fill:#0E0D0D;}
	.st10{fill:#FEFEFE;}
	.st11{fill:#0A0909;}
	.st12{fill:#FCFCFC;}
	.st13{fill:#0F0E0E;}
</style>
<g>
	<g>
		<g>
			<path class="st0" d="M156.67,161.94c-7.96-9.95-17.98-14.92-30.06-14.92c-9.87,0-18.38,3.46-25.53,10.39
				c-3.75,3.64-6.72,8.06-8.95,13.24V90.88c-2.56,0.81-5.38,1.42-8.34,1.91c0,55.7-0.03,111.4-0.41,167.09
				c0.96-0.82,1.91-1.62,2.89-2.46c1.32-1.13,2.61-2.21,3.9-3.31c2.31,2.56,4.87,4.82,7.82,6.62c6.85,4.2,13.96,6.3,21.33,6.3
				c8.84,0,17.02-2.21,24.53-6.63c7.52-4.42,13.52-11.09,18.01-20c4.5-8.91,6.74-20,6.74-33.27
				C168.61,186.96,164.63,171.89,156.67,161.94z M139.76,248.59c-4.94,8.92-12.34,13.37-22.21,13.37c-5.75,0-11.35-1.44-16.8-4.31
				c-3.19-1.68-6.04-3.94-8.62-6.65v-70.11c1.85-7.54,4.9-13.57,9.17-18.06c5.82-6.11,12.12-9.17,18.9-9.17
				c6.19,0,11.27,1.95,15.25,5.86c3.98,3.91,6.92,9.84,8.84,17.79c1.91,7.96,2.87,17.9,2.87,29.84
				C147.16,225.86,144.7,239.67,139.76,248.59z"/>
		</g>
	</g>
	<g>
		<path class="st0" d="M89.36,135.07c-0.47-1.55-0.73-3.49-0.73-5.89V67.74c0-7.08-0.59-13.15-1.77-18.23
			c-1.18-5.08-3.69-9.4-7.52-12.93c-2.8-2.65-6.34-4.68-10.61-6.08c-4.27-1.4-9.43-2.1-15.47-2.1c-6.78,0-12.86,0.85-18.23,2.54
			c-5.38,1.7-9.76,3.72-13.15,6.08c-2.95,2.06-5.38,4.27-7.29,6.63c-1.92,2.36-2.87,5.45-2.87,9.29c0,3.39,1,6.45,2.99,9.17
			c1.99,2.73,5.12,4.09,9.39,4.09c3.68,0,6.7-1.07,9.06-3.2c2.36-2.14,3.54-5.05,3.54-8.73c0-3.68-1.03-6.71-3.09-9.06
			c-2.06-2.36-4.5-3.83-7.29-4.42c2.5-3.24,5.86-5.38,10.06-6.41c4.2-1.03,8.14-1.55,11.82-1.55c3.83,0,7.29,0.55,10.39,1.66
			s5.56,3.28,7.4,6.52c1.84,3.24,2.76,7.96,2.76,14.14v13.7c0,3.39-1.51,6.19-4.53,8.4c-3.02,2.21-6.89,4.2-11.6,5.97
			c-4.72,1.77-9.69,3.57-14.92,5.41c-5.23,1.85-10.21,4.06-14.92,6.63c-4.72,2.58-8.59,5.89-11.6,9.95
			c-3.02,4.05-4.53,9.17-4.53,15.36c0,7.96,2.17,14.33,6.52,19.12c4.34,4.79,11.31,7.18,20.89,7.18c6.48,0,12.71-1.32,18.68-3.98
			s11.31-7.88,16.02-15.69c0,5.16,1.25,9.73,3.76,13.7c2.5,3.98,7.59,5.97,15.25,5.97c0.08,0,0.15-0.01,0.23-0.01
			C87.92,142.88,88.38,138.9,89.36,135.07z M68.74,121.23c-3.68,6.04-7.66,10.35-11.93,12.93c-4.28,2.58-8.62,3.87-13.04,3.87
			c-5.01,0-9.21-1.66-12.6-4.97c-3.39-3.31-5.08-8.36-5.08-15.14c0-7.22,1.77-12.78,5.3-16.69c3.54-3.9,7.77-7,12.71-9.28
			c4.94-2.28,9.73-4.38,14.37-6.3c4.64-1.92,8.07-4.49,10.28-7.74V121.23z"/>
	</g>
	<line class="st1" x1="86.95" y1="9.58" x2="86.95" y2="287.82"/>
</g>
</svg>
