<svg id="Capa_1" data-name="Capa 1" xmlns="http://www.w3.org/2000/svg" viewBox="0 0 433.25 422.47"><defs><style>.cls-1,.cls-2,.cls-3,.cls-4{fill:#002900;}.cls-2,.cls-3,.cls-4{stroke:#231f20;stroke-miterlimit:10;}.cls-2{stroke-width:0.96px;}.cls-3{stroke-width:0.48px;}.cls-4{stroke-width:0.97px;}.cls-5{fill:#0e0d0d;}.cls-6{fill:#fefefe;}.cls-7{fill:#111010;}.cls-8{fill:#fefdfd;}</style></defs><title>Itinerario GRAND</title><path class="cls-1" d="M261.2,109V92.13h1.23V109Z" transform="translate(-138.59 -92.01)"/><path class="cls-1" d="M277.54,109V93.24h-6.07V92.13h13.35v1.11h-6.06V109Z" transform="translate(-138.59 -92.01)"/><path class="cls-1" d="M293.87,109V92.13h1.23V109Z" transform="translate(-138.59 -92.01)"/><path class="cls-1" d="M307,109V92.13h1l12,15.33h-.56V92.13h1.23V109h-1l-12-15.32h.56V109Z" transform="translate(-138.59 -92.01)"/><path class="cls-1" d="M333.8,107.87h10.39V109H332.57V92.13h11.26v1.11h-10Zm-.15-8h9.12V101h-9.12Z" transform="translate(-138.59 -92.01)"/><path class="cls-1" d="M354.68,109V92.13h6a8.87,8.87,0,0,1,3.63.68,5.19,5.19,0,0,1,2.33,1.93,5.52,5.52,0,0,1,.82,3.07,5.4,5.4,0,0,1-.82,3,5.3,5.3,0,0,1-2.33,2,8.87,8.87,0,0,1-3.63.68h-5.37l.55-.57V109Zm1.22-6-.55-.58h5.37a6.19,6.19,0,0,0,4.12-1.2,4.74,4.74,0,0,0,0-6.75,6.25,6.25,0,0,0-4.12-1.19h-5.37l.55-.6Zm10.47,6L362,102.86h1.4l4.37,6.11Z" transform="translate(-138.59 -92.01)"/><path class="cls-1" d="M375.2,109l7.74-16.84h1.23L391.91,109h-1.32L383.28,92.9h.53L376.52,109Zm2.83-4.74.41-1h10.08l.41,1Z" transform="translate(-138.59 -92.01)"/><path class="cls-1" d="M401,109V92.13h6a8.87,8.87,0,0,1,3.63.68A5.19,5.19,0,0,1,413,94.74a5.52,5.52,0,0,1,.82,3.07,5.4,5.4,0,0,1-.82,3,5.3,5.3,0,0,1-2.33,2,8.87,8.87,0,0,1-3.63.68h-5.36l.55-.57V109Zm1.23-6-.55-.58H407a6.18,6.18,0,0,0,4.12-1.2,4.74,4.74,0,0,0,0-6.75A6.23,6.23,0,0,0,407,93.24h-5.36l.55-.6Zm10.46,6-4.38-6.11h1.4l4.38,6.11Z" transform="translate(-138.59 -92.01)"/><path class="cls-1" d="M424.31,109V92.13h1.23V109Z" transform="translate(-138.59 -92.01)"/><path class="cls-1" d="M444.57,109.09a9.24,9.24,0,0,1-3.48-.64,8.25,8.25,0,0,1-4.63-4.52,9.11,9.11,0,0,1,0-6.76,8.14,8.14,0,0,1,1.84-2.71,8.35,8.35,0,0,1,2.79-1.81,9.75,9.75,0,0,1,7,0,8.31,8.31,0,0,1,2.78,1.79,8.19,8.19,0,0,1,1.84,2.71,9.11,9.11,0,0,1,0,6.81,8.25,8.25,0,0,1-1.84,2.7,8.16,8.16,0,0,1-2.78,1.79A9.16,9.16,0,0,1,444.57,109.09Zm0-1.13a7.86,7.86,0,0,0,3-.55,7,7,0,0,0,2.38-1.57,7.31,7.31,0,0,0,1.58-2.35,8,8,0,0,0,0-5.88,7.42,7.42,0,0,0-1.58-2.35,7.13,7.13,0,0,0-2.38-1.56,8.24,8.24,0,0,0-6,0,7.2,7.2,0,0,0-4,3.91,8,8,0,0,0,0,5.88,7.26,7.26,0,0,0,4,3.92A7.91,7.91,0,0,0,444.57,108Z" transform="translate(-138.59 -92.01)"/><line class="cls-2" x1="219.44" y1="79.83" x2="219.44" y2="415.84"/><line class="cls-2" x1="248.55" y1="168.28" x2="77.37" y2="168.28"/><line class="cls-2" x1="186.97" y1="253.12" x2="358.15" y2="253.12"/><path class="cls-3" d="M230.83,251.91a5.51,5.51,0,0,1-2.09-.39,4.89,4.89,0,0,1-1.66-1.07,4.75,4.75,0,0,1-1.1-1.62,5.56,5.56,0,0,1,0-4.09,4.9,4.9,0,0,1,1.1-1.62,5.22,5.22,0,0,1,1.67-1.08,5.62,5.62,0,0,1,2.08-.38,5.72,5.72,0,0,1,2,.35,4.1,4.1,0,0,1,1.59,1.05l-.46.48a3.85,3.85,0,0,0-1.44-.92,5.07,5.07,0,0,0-3.46,0,4.23,4.23,0,0,0-1.44.94,4.3,4.3,0,0,0-1,1.41,4.63,4.63,0,0,0-.33,1.76,4.56,4.56,0,0,0,.33,1.76,4.45,4.45,0,0,0,1,1.42,4.38,4.38,0,0,0,1.44.94,4.8,4.8,0,0,0,1.8.33,5.07,5.07,0,0,0,1.66-.28A3.87,3.87,0,0,0,234,250l.46.47a4.12,4.12,0,0,1-1.59,1.06A5.5,5.5,0,0,1,230.83,251.91Z" transform="translate(-138.59 -92.01)"/><path class="cls-3" d="M240.51,251.17h6.24v.66h-7v-10.1h6.75v.67h-6Zm-.08-4.79h5.47V247h-5.47Z" transform="translate(-138.59 -92.01)"/><path class="cls-3" d="M252.32,251.83v-10.1h3.62a5.33,5.33,0,0,1,2.18.41,3.1,3.1,0,0,1,1.4,1.16,3.28,3.28,0,0,1,.49,1.84,3.08,3.08,0,0,1-1.89,3,5.33,5.33,0,0,1-2.18.41h-3.22l.33-.35v3.65Zm.73-3.6-.33-.35h3.22a3.74,3.74,0,0,0,2.48-.72,2.86,2.86,0,0,0,0-4,3.74,3.74,0,0,0-2.48-.71h-3.22l.33-.36Zm6.28,3.6-2.62-3.66h.83l2.63,3.66Z" transform="translate(-138.59 -92.01)"/><path class="cls-3" d="M266.33,251.17h6.24v.66h-7v-10.1h6.75v.67h-6Zm-.08-4.79h5.47V247h-5.47Z" transform="translate(-138.59 -92.01)"/><path class="cls-3" d="M278.14,251.83v-10.1h.62l4.69,8.1h-.33l4.67-8.1h.61v10.1h-.72v-9h.2l-4.43,7.65h-.36l-4.45-7.65h.22v9Z" transform="translate(-138.59 -92.01)"/><path class="cls-3" d="M299.11,251.91a5.51,5.51,0,0,1-2.09-.39,5,5,0,0,1-2.78-2.71,5.45,5.45,0,0,1,0-4.05,4.82,4.82,0,0,1,1.11-1.63A5,5,0,0,1,297,242a5.91,5.91,0,0,1,4.17,0,5.11,5.11,0,0,1,1.67,1.08,4.9,4.9,0,0,1,1.1,1.62,5.43,5.43,0,0,1,0,4.09,4.91,4.91,0,0,1-2.77,2.69A5.46,5.46,0,0,1,299.11,251.91Zm0-.68a4.79,4.79,0,0,0,1.79-.33,4.34,4.34,0,0,0,1.43-.94,4.63,4.63,0,0,0,.94-4.94,4.25,4.25,0,0,0-.94-1.41,4.19,4.19,0,0,0-1.43-.94,5,5,0,0,0-3.58,0,4.23,4.23,0,0,0-1.44.94,4.28,4.28,0,0,0-.95,1.41,4.41,4.41,0,0,0,2.39,5.88A4.75,4.75,0,0,0,299.11,251.23Z" transform="translate(-138.59 -92.01)"/><path class="cls-3" d="M309.8,251.83v-10.1h.62l7.2,9.2h-.33v-9.2H318v10.1h-.61l-7.21-9.19h.33v9.19Z" transform="translate(-138.59 -92.01)"/><path class="cls-3" d="M324.44,251.83v-10.1h.73v10.1Z" transform="translate(-138.59 -92.01)"/><path class="cls-3" d="M329.89,251.83l4.65-10.1h.74l4.64,10.1h-.79l-4.39-9.64h.32l-4.37,9.64ZM331.6,249l.24-.62h6.05l.24.62Z" transform="translate(-138.59 -92.01)"/><path class="cls-4" d="M141.64,261.33v-.53l5.48-6.77H148l-5.47,6.77-.41-.12h8.17v.65Zm5.76,2.8v-5.92h.71v5.92Z" transform="translate(-138.59 -92.01)"/><path class="cls-4" d="M152,257.77a.58.58,0,0,1-.43-.18.6.6,0,0,1-.18-.44.59.59,0,0,1,.18-.44.61.61,0,0,1,.43-.17.61.61,0,0,1,.42.17.59.59,0,0,1,.18.44.6.6,0,0,1-.18.44A.58.58,0,0,1,152,257.77Zm0,6.42a.58.58,0,0,1-.43-.18.6.6,0,0,1-.18-.44.57.57,0,0,1,.18-.43A.58.58,0,0,1,152,263a.58.58,0,0,1,.42.18.57.57,0,0,1,.18.43.6.6,0,0,1-.18.44A.58.58,0,0,1,152,264.19Z" transform="translate(-138.59 -92.01)"/><path class="cls-4" d="M161.89,264.2a3.47,3.47,0,0,1-2-.62,4.07,4.07,0,0,1-1.4-1.76,6.73,6.73,0,0,1-.51-2.74,6.65,6.65,0,0,1,.51-2.73,4,4,0,0,1,1.4-1.77,3.72,3.72,0,0,1,4.11,0,4.1,4.1,0,0,1,1.39,1.77,6.83,6.83,0,0,1,.5,2.73,6.91,6.91,0,0,1-.5,2.74,4.13,4.13,0,0,1-1.39,1.76A3.48,3.48,0,0,1,161.89,264.2Zm0-.67a2.81,2.81,0,0,0,1.69-.53,3.42,3.42,0,0,0,1.12-1.52,6.41,6.41,0,0,0,.41-2.4,6.33,6.33,0,0,0-.41-2.4,3.42,3.42,0,0,0-1.12-1.52,2.8,2.8,0,0,0-1.69-.52,2.77,2.77,0,0,0-1.68.52,3.39,3.39,0,0,0-1.14,1.52,6.34,6.34,0,0,0-.4,2.4,6.42,6.42,0,0,0,.4,2.4,3.39,3.39,0,0,0,1.14,1.52A2.78,2.78,0,0,0,161.89,263.53Z" transform="translate(-138.59 -92.01)"/><path class="cls-4" d="M171.39,264.2a3.45,3.45,0,0,1-2-.62,4,4,0,0,1-1.4-1.76,6.73,6.73,0,0,1-.51-2.74,6.65,6.65,0,0,1,.51-2.73,4,4,0,0,1,1.4-1.77,3.7,3.7,0,0,1,4.1,0,4,4,0,0,1,1.39,1.77,6.65,6.65,0,0,1,.51,2.73,6.73,6.73,0,0,1-.51,2.74,4.06,4.06,0,0,1-1.39,1.76A3.45,3.45,0,0,1,171.39,264.2Zm0-.67a2.78,2.78,0,0,0,1.68-.53,3.44,3.44,0,0,0,1.13-1.52,6.42,6.42,0,0,0,.4-2.4,6.34,6.34,0,0,0-.4-2.4,3.44,3.44,0,0,0-1.13-1.52,2.77,2.77,0,0,0-1.68-.52,2.82,2.82,0,0,0-1.69.52,3.44,3.44,0,0,0-1.13,1.52,6.34,6.34,0,0,0-.4,2.4,6.42,6.42,0,0,0,.4,2.4A3.44,3.44,0,0,0,169.7,263,2.83,2.83,0,0,0,171.39,263.53Z" transform="translate(-138.59 -92.01)"/><path class="cls-4" d="M181.37,266.93V256.6h.69v2.47l-.11,1.31.14,1.31v5.24Zm3.78-2.74a3.48,3.48,0,0,1-1.79-.46,3.3,3.3,0,0,1-1.27-1.32,4.68,4.68,0,0,1,0-4.09,3.3,3.3,0,0,1,1.27-1.32,3.48,3.48,0,0,1,1.79-.46,3.83,3.83,0,0,1,1.92.48,3.56,3.56,0,0,1,1.32,1.35,4.31,4.31,0,0,1,0,4,3.56,3.56,0,0,1-1.32,1.35A3.83,3.83,0,0,1,185.15,264.19Zm0-.65a3,3,0,0,0,1.56-.4,2.8,2.8,0,0,0,1.09-1.12,3.64,3.64,0,0,0,0-3.32,2.84,2.84,0,0,0-1.09-1.11,3,3,0,0,0-1.56-.4,3,3,0,0,0-1.55.4,2.75,2.75,0,0,0-1.08,1.11,3.64,3.64,0,0,0,0,3.32,2.71,2.71,0,0,0,1.08,1.12A3,3,0,0,0,185.11,263.54Z" transform="translate(-138.59 -92.01)"/><path class="cls-4" d="M200.5,256.54a3.44,3.44,0,0,1,1.58.35,2.56,2.56,0,0,1,1,1.07,3.8,3.8,0,0,1,.38,1.77v4.4h-.72v-4.34a2.73,2.73,0,0,0-.63-1.94,2.25,2.25,0,0,0-1.73-.66,2.86,2.86,0,0,0-1.47.36,2.44,2.44,0,0,0-.95,1,3.39,3.39,0,0,0-.33,1.56v4h-.73v-4.34a2.73,2.73,0,0,0-.62-1.94,2.25,2.25,0,0,0-1.73-.66,2.86,2.86,0,0,0-1.47.36,2.44,2.44,0,0,0-1,1,3.39,3.39,0,0,0-.33,1.56v4h-.73V256.6h.7v2.08l-.1-.23a2.8,2.8,0,0,1,1.11-1.4,3.33,3.33,0,0,1,1.87-.51,3.1,3.1,0,0,1,1.9.57,2.54,2.54,0,0,1,1,1.7l-.24-.1a3,3,0,0,1,1.14-1.57A3.42,3.42,0,0,1,200.5,256.54Z" transform="translate(-138.59 -92.01)"/><path class="cls-1" d="M297.6,330c1.75,0,3.51,0,5.26,0,.23,0,.3-.07.35-.29a7.12,7.12,0,0,1,5.67-5.87,7.29,7.29,0,1,1,3,14.26,7,7,0,0,1-3.78-.23c-.23-.08-.34-.06-.47.16q-2.56,4.5-5.14,9a.82.82,0,0,0-.12.45c0,2.86,0,5.72,0,8.59,0,.25.06.32.31.31h2.84a.77.77,0,0,1,.71.47.81.81,0,0,1-.1.88.85.85,0,0,1-.71.32h-7.74a.84.84,0,0,1-.89-.86.82.82,0,0,1,.9-.81h2.74c.25,0,.3-.06.3-.3v-8.62a1,1,0,0,0-.14-.48l-8.94-15.58a1.84,1.84,0,0,1-.17-.38.79.79,0,0,1,.83-1Zm-3.84,1.62s0,.05,0,.06c.8,1.41,1.6,2.81,2.39,4.22a.37.37,0,0,0,.22.17,14,14,0,0,0,3.42.35,13.46,13.46,0,0,0,3.6-.77,13,13,0,0,1,4-.85c.18,0,.21-.12.27-.23.53-.91,1.05-1.82,1.57-2.73,0-.06.13-.13.06-.22Zm16.56-6.27.58,3.51,2-2.74c.08-.11.06-.15-.05-.21A5.5,5.5,0,0,0,310.32,325.36Zm2.19,6.1,2.73,2c.19.14.19,0,.23-.11a5.64,5.64,0,0,0,.54-2.17c0-.26-.09-.27-.3-.23Zm3.25-2.18a5.53,5.53,0,0,0-1.33-2.19c-.08-.08-.12-.08-.19,0s-.29.4-.43.6l-1.56,2.15Zm-7.08-3.66a5.55,5.55,0,0,0-2.12,1.25c-.15.15-.14.21,0,.33.81.57,1.62,1.16,2.42,1.75.06,0,.11.11.23.08Zm2.87,7.21c0,.07,0,.1,0,.13.17,1.06.35,2.11.51,3.17,0,.19.12.17.25.12a5.32,5.32,0,0,0,2.08-1.37ZM310,333.94c-.45.8-.87,1.53-1.29,2.26-.09.16,0,.16.12.18a5.85,5.85,0,0,0,1.39.22c.17,0,.21,0,.18-.21C310.28,335.6,310.16,334.81,310,333.94ZM307.57,330c-.69-.52-1.34-1-2-1.47-.17-.13-.24-.08-.31.09a7.19,7.19,0,0,0-.45,1.38Z" transform="translate(-138.59 -92.01)"/><path class="cls-3" d="M399.87,339.92a5.67,5.67,0,0,1-2.09-.38,5.11,5.11,0,0,1-1.67-1.08,4.87,4.87,0,0,1-1.09-1.62,5.22,5.22,0,0,1-.39-2,5.31,5.31,0,0,1,.39-2.05,4.75,4.75,0,0,1,1.1-1.62,5.22,5.22,0,0,1,1.67-1.08,5.58,5.58,0,0,1,2.08-.38,5.66,5.66,0,0,1,2,.35,4.13,4.13,0,0,1,1.6,1.05l-.46.48a4.15,4.15,0,0,0-1.44-.92,5.09,5.09,0,0,0-1.67-.28,4.79,4.79,0,0,0-1.79.33,4.32,4.32,0,0,0-1.45.94,4.62,4.62,0,0,0-.95,4.94,4.28,4.28,0,0,0,.95,1.41,4.17,4.17,0,0,0,1.45.94,4.79,4.79,0,0,0,1.79.33,4.84,4.84,0,0,0,1.67-.28A4,4,0,0,0,403,338l.46.48a4.27,4.27,0,0,1-1.6,1.06A5.66,5.66,0,0,1,399.87,339.92Z" transform="translate(-138.59 -92.01)"/><path class="cls-3" d="M412.88,339.92a5.66,5.66,0,0,1-2.08-.38,5.27,5.27,0,0,1-1.68-1.08,5.09,5.09,0,0,1-1.1-1.64,5.45,5.45,0,0,1,0-4.05,4.94,4.94,0,0,1,1.1-1.63,5.13,5.13,0,0,1,1.68-1.09,5.91,5.91,0,0,1,4.17,0,5.22,5.22,0,0,1,1.67,1.08,5.05,5.05,0,0,1,1.1,1.62,5.31,5.31,0,0,1,.4,2.05,5.23,5.23,0,0,1-.4,2,5.05,5.05,0,0,1-1.1,1.62,5.22,5.22,0,0,1-1.67,1.08A5.71,5.71,0,0,1,412.88,339.92Zm0-.68a4.75,4.75,0,0,0,1.79-.33,4.09,4.09,0,0,0,1.43-.94,4.28,4.28,0,0,0,.95-1.41,4.64,4.64,0,0,0,.34-1.76,4.58,4.58,0,0,0-.34-1.77,4.38,4.38,0,0,0-.95-1.41,4.24,4.24,0,0,0-1.43-.94,5,5,0,0,0-3.58,0,4.34,4.34,0,0,0-1.43.94,4.23,4.23,0,0,0-1,1.41,4.4,4.4,0,0,0-.34,1.77,4.45,4.45,0,0,0,.34,1.76,4.13,4.13,0,0,0,1,1.41,4.19,4.19,0,0,0,1.43.94A4.79,4.79,0,0,0,412.88,339.24Zm-.82-10.32,2-1.7h1l-2.27,1.7Z" transform="translate(-138.59 -92.01)"/><path class="cls-3" d="M427.85,339.92a5.71,5.71,0,0,1-2.09-.38,5.07,5.07,0,0,1-1.66-1.08,4.9,4.9,0,0,1-1.1-1.62,5.22,5.22,0,0,1-.39-2,5.31,5.31,0,0,1,.39-2.05,4.9,4.9,0,0,1,1.1-1.62,5.33,5.33,0,0,1,1.67-1.08,5.66,5.66,0,0,1,2.08-.38,5.72,5.72,0,0,1,2,.35,4.1,4.1,0,0,1,1.59,1.05l-.46.48a4,4,0,0,0-1.44-.92,5.07,5.07,0,0,0-1.66-.28,4.8,4.8,0,0,0-1.8.33,4.38,4.38,0,0,0-1.44.94,4.27,4.27,0,0,0-.95,1.42,4.38,4.38,0,0,0-.34,1.76,4.45,4.45,0,0,0,.34,1.76,4.13,4.13,0,0,0,.95,1.41,4.23,4.23,0,0,0,1.44.94,5.07,5.07,0,0,0,3.46,0A3.87,3.87,0,0,0,431,338l.46.48a4.23,4.23,0,0,1-1.59,1.06A5.72,5.72,0,0,1,427.85,339.92Z" transform="translate(-138.59 -92.01)"/><path class="cls-3" d="M438.6,339.85v-9.44H435v-.66h8v.66h-3.63v9.44Z" transform="translate(-138.59 -92.01)"/><path class="cls-3" d="M448.42,339.18h6.23v.67h-7v-10.1h6.75v.66h-6Zm-.09-4.79h5.47V335h-5.47Z" transform="translate(-138.59 -92.01)"/><path class="cls-3" d="M460.22,339.85v-10.1H461v9.43h5.81v.67Z" transform="translate(-138.59 -92.01)"/><path class="cls-4" d="M515.72,345.21a5.57,5.57,0,0,1-2.05-.38,3.88,3.88,0,0,1-1.5-1l.38-.56a3.46,3.46,0,0,0,1.3.88,4.61,4.61,0,0,0,1.86.36,3.06,3.06,0,0,0,2.11-.64,2.1,2.1,0,0,0,.7-1.64,2.25,2.25,0,0,0-.33-1.24,2.06,2.06,0,0,0-1.13-.8,6.54,6.54,0,0,0-2.16-.29h-2l.53-4.89h5.36v.67h-5l.36-.35-.48,4.29-.34-.38h1.83a6.63,6.63,0,0,1,2.46.37,2.68,2.68,0,0,1,1.33,1,3.15,3.15,0,0,1,0,3.07,2.65,2.65,0,0,1-1.18,1.08A4.27,4.27,0,0,1,515.72,345.21Z" transform="translate(-138.59 -92.01)"/><path class="cls-4" d="M521.29,338.77a.58.58,0,0,1-.42-.18.6.6,0,0,1-.18-.44.57.57,0,0,1,.18-.43.58.58,0,0,1,.42-.18.58.58,0,0,1,.43.18.57.57,0,0,1,.18.43.6.6,0,0,1-.18.44A.58.58,0,0,1,521.29,338.77Zm0,6.42a.58.58,0,0,1-.42-.18.59.59,0,0,1-.18-.44.6.6,0,0,1,.6-.6.57.57,0,0,1,.43.17.57.57,0,0,1,.18.43.59.59,0,0,1-.18.44A.58.58,0,0,1,521.29,345.19Z" transform="translate(-138.59 -92.01)"/><path class="cls-4" d="M530.2,345.21a5.64,5.64,0,0,1-2.07-.38,3.88,3.88,0,0,1-1.5-1l.38-.56a3.46,3.46,0,0,0,1.3.88,4.79,4.79,0,0,0,1.89.36,3.1,3.1,0,0,0,2.07-.61,2.21,2.21,0,0,0,0-3.25,3.37,3.37,0,0,0-2.23-.62h-.64v-.53l3.22-4.11.1.29H527V335h6.33v.52l-3.2,4.12-.32-.24h.32a4,4,0,0,1,2.7.8,2.62,2.62,0,0,1,.89,2.06,2.89,2.89,0,0,1-.39,1.5,2.65,2.65,0,0,1-1.19,1A4.49,4.49,0,0,1,530.2,345.21Z" transform="translate(-138.59 -92.01)"/><path class="cls-4" d="M539.25,345.21a3.52,3.52,0,0,1-2-.62,4.09,4.09,0,0,1-1.4-1.77,7.59,7.59,0,0,1,0-5.47,4,4,0,0,1,1.4-1.77,3.7,3.7,0,0,1,4.1,0,4,4,0,0,1,1.4,1.77,7.73,7.73,0,0,1,0,5.47,4.17,4.17,0,0,1-1.4,1.77A3.5,3.5,0,0,1,539.25,345.21Zm0-.68a2.81,2.81,0,0,0,1.69-.53,3.42,3.42,0,0,0,1.12-1.52,7.23,7.23,0,0,0,0-4.8,3.39,3.39,0,0,0-1.12-1.51,2.74,2.74,0,0,0-1.69-.53,2.72,2.72,0,0,0-1.68.53,3.35,3.35,0,0,0-1.14,1.51,7.4,7.4,0,0,0,0,4.8,3.39,3.39,0,0,0,1.14,1.52A2.78,2.78,0,0,0,539.25,344.53Z" transform="translate(-138.59 -92.01)"/><path class="cls-4" d="M549.23,347.93V337.6h.7v2.47l-.12,1.31.15,1.32v5.23Zm3.79-2.74a3.5,3.5,0,0,1-1.8-.46,3.3,3.3,0,0,1-1.27-1.32,4.66,4.66,0,0,1,0-4.08,3.26,3.26,0,0,1,1.27-1.33,3.6,3.6,0,0,1,1.8-.46,3.72,3.72,0,0,1,1.91.49,3.52,3.52,0,0,1,1.33,1.35,4.37,4.37,0,0,1,0,4,3.52,3.52,0,0,1-1.33,1.35A3.82,3.82,0,0,1,553,345.19Zm0-.65a3.11,3.11,0,0,0,1.56-.39,2.86,2.86,0,0,0,1.09-1.12,3.67,3.67,0,0,0,0-3.33,2.77,2.77,0,0,0-1.09-1.11,3.12,3.12,0,0,0-1.56-.4,3.08,3.08,0,0,0-1.55.4,2.75,2.75,0,0,0-1.08,1.11,3.67,3.67,0,0,0,0,3.33,2.84,2.84,0,0,0,1.08,1.12A3.08,3.08,0,0,0,553,344.54Z" transform="translate(-138.59 -92.01)"/><path class="cls-4" d="M568.36,337.54a3.32,3.32,0,0,1,1.58.36,2.48,2.48,0,0,1,1,1.06,3.8,3.8,0,0,1,.38,1.77v4.4h-.72v-4.34a2.73,2.73,0,0,0-.62-1.93,2.24,2.24,0,0,0-1.73-.67,2.92,2.92,0,0,0-1.48.36,2.44,2.44,0,0,0-.95,1,3.45,3.45,0,0,0-.33,1.56v4h-.72v-4.34a2.73,2.73,0,0,0-.62-1.93,2.25,2.25,0,0,0-1.74-.67,2.91,2.91,0,0,0-1.47.36,2.44,2.44,0,0,0-1,1,3.45,3.45,0,0,0-.33,1.56v4H559V337.6h.69v2.08l-.1-.23a2.77,2.77,0,0,1,1.11-1.39,3.27,3.27,0,0,1,1.88-.52,3.07,3.07,0,0,1,1.89.57,2.59,2.59,0,0,1,1,1.7l-.25-.1a3,3,0,0,1,1.14-1.57A3.42,3.42,0,0,1,568.36,337.54Z" transform="translate(-138.59 -92.01)"/><line class="cls-2" x1="248.55" y1="337.96" x2="77.37" y2="337.96"/><path class="cls-3" d="M234,422.93v-10.1h3.62a5.34,5.34,0,0,1,2.18.4,3.16,3.16,0,0,1,1.4,1.16,3.3,3.3,0,0,1,.49,1.84,3.2,3.2,0,0,1-.49,1.81,3.12,3.12,0,0,1-1.4,1.17,5.17,5.17,0,0,1-2.18.42h-3.22l.33-.35v3.65Zm.73-3.61-.33-.34h3.22a3.7,3.7,0,0,0,2.47-.73,2.83,2.83,0,0,0,0-4,3.7,3.7,0,0,0-2.47-.72h-3.22l.33-.36Zm6.28,3.61-2.62-3.67h.83l2.63,3.67Z" transform="translate(-138.59 -92.01)"/><path class="cls-3" d="M248,422.27h6.24v.66h-7v-10.1H254v.66h-6Zm-.09-4.8h5.47v.65h-5.47Z" transform="translate(-138.59 -92.01)"/><path class="cls-3" d="M264,423a5.71,5.71,0,0,1-2.09-.38,5,5,0,0,1-1.67-1.08,4.87,4.87,0,0,1-1.09-1.62,5.53,5.53,0,0,1,0-4.08,4.79,4.79,0,0,1,1.1-1.63,5,5,0,0,1,1.67-1.07,5.43,5.43,0,0,1,2.08-.39,5.66,5.66,0,0,1,2,.35,4.06,4.06,0,0,1,1.6,1l-.46.48a4.06,4.06,0,0,0-1.44-.92,5.09,5.09,0,0,0-1.67-.28,4.79,4.79,0,0,0-1.79.33,4.48,4.48,0,0,0-1.45.94,4.62,4.62,0,0,0-.95,4.94,4.44,4.44,0,0,0,.95,1.41,4.17,4.17,0,0,0,1.45.94,4.79,4.79,0,0,0,1.79.33,4.84,4.84,0,0,0,1.67-.28,4,4,0,0,0,1.44-.93l.46.48a4.19,4.19,0,0,1-1.6,1.06A5.66,5.66,0,0,1,264,423Z" transform="translate(-138.59 -92.01)"/><path class="cls-3" d="M273.72,422.27H280v.66h-7v-10.1h6.76v.66h-6Zm-.09-4.8h5.47v.65h-5.47Z" transform="translate(-138.59 -92.01)"/><path class="cls-3" d="M285.53,422.93v-10.1h3.62a5.37,5.37,0,0,1,2.18.4,3.22,3.22,0,0,1,1.4,1.16,3.39,3.39,0,0,1,.49,1.84,3.34,3.34,0,0,1-.49,1.82,3.17,3.17,0,0,1-1.4,1.17,5.37,5.37,0,0,1-2.18.41h-3.22l.33-.35v3.65Zm.73-3.61-.33-.36h3.22a3.75,3.75,0,0,0,2.47-.71,2.83,2.83,0,0,0,0-4,3.7,3.7,0,0,0-2.47-.72h-3.22l.33-.36Z" transform="translate(-138.59 -92.01)"/><path class="cls-3" d="M303,423a5.66,5.66,0,0,1-2.08-.38,5,5,0,0,1-1.67-1.08,4.9,4.9,0,0,1-1.1-1.62,5.53,5.53,0,0,1,0-4.08,4.82,4.82,0,0,1,1.11-1.63,5,5,0,0,1,1.66-1.07,5.46,5.46,0,0,1,2.08-.39,5.72,5.72,0,0,1,2,.35,4.21,4.21,0,0,1,1.6,1l-.47.48a4,4,0,0,0-1.43-.92,5.13,5.13,0,0,0-1.67-.28,4.88,4.88,0,0,0-1.8.33,4.54,4.54,0,0,0-1.44.94,4.62,4.62,0,0,0-1,4.94,4.28,4.28,0,0,0,1,1.41,4.23,4.23,0,0,0,1.44.94,5.1,5.1,0,0,0,3.47.05,3.92,3.92,0,0,0,1.43-.93l.47.48a4.35,4.35,0,0,1-1.6,1.06A5.72,5.72,0,0,1,303,423Z" transform="translate(-138.59 -92.01)"/><path class="cls-3" d="M312,422.93v-10.1h.74v10.1Z" transform="translate(-138.59 -92.01)"/><path class="cls-3" d="M323.38,423a5.66,5.66,0,0,1-2.08-.38,5.27,5.27,0,0,1-1.68-1.08,5,5,0,0,1-1.1-1.63,5.48,5.48,0,0,1,0-4.06,5,5,0,0,1,1.1-1.63,5,5,0,0,1,1.68-1.08,5.77,5.77,0,0,1,4.17,0,4.89,4.89,0,0,1,1.66,1.07,5,5,0,0,1,1.11,1.63,5.4,5.4,0,0,1,0,4.08,5,5,0,0,1-2.77,2.7A5.71,5.71,0,0,1,323.38,423Zm0-.68a4.75,4.75,0,0,0,1.79-.33,4.09,4.09,0,0,0,1.43-.94,4.44,4.44,0,0,0,.95-1.41,4.63,4.63,0,0,0,.33-1.76,4.58,4.58,0,0,0-.33-1.77,4.67,4.67,0,0,0-.95-1.41,4.39,4.39,0,0,0-1.43-.94,5,5,0,0,0-3.58,0,4.39,4.39,0,0,0-1.43.94,4.52,4.52,0,0,0-1,1.41,4.58,4.58,0,0,0-.34,1.77,4.64,4.64,0,0,0,.34,1.76,4.3,4.3,0,0,0,1,1.41,4.09,4.09,0,0,0,1.43.94A4.79,4.79,0,0,0,323.38,422.32ZM322.56,412l2-1.7h1l-2.26,1.7Z" transform="translate(-138.59 -92.01)"/><path class="cls-3" d="M334.08,422.93v-10.1h.62l7.2,9.19h-.33v-9.19h.73v10.1h-.6l-7.22-9.19h.33v9.19Z" transform="translate(-138.59 -92.01)"/><path class="cls-4" d="M147,430.63a3.85,3.85,0,0,1-2.23-.61,3.63,3.63,0,0,1-1.36-1.74,7.2,7.2,0,0,1-.47-2.72,6.39,6.39,0,0,1,.57-2.86,3.9,3.9,0,0,1,1.57-1.73,4.61,4.61,0,0,1,2.35-.59,6.14,6.14,0,0,1,1.24.12,3.2,3.2,0,0,1,1.06.4l-.31.59a2.77,2.77,0,0,0-.9-.35,5.37,5.37,0,0,0-1.09-.11,3.56,3.56,0,0,0-2.73,1.11,4.72,4.72,0,0,0-1,3.31c0,.22,0,.5,0,.84a5,5,0,0,0,.19,1l-.26-.08a3,3,0,0,1,.56-1.43,3.06,3.06,0,0,1,1.19-.9,4.3,4.3,0,0,1,3.35.06A2.83,2.83,0,0,1,150,426a2.94,2.94,0,0,1,.42,1.58,2.84,2.84,0,0,1-.44,1.61,2.88,2.88,0,0,1-1.2,1.06A3.82,3.82,0,0,1,147,430.63Zm0-.63a3.06,3.06,0,0,0,1.39-.3,2.26,2.26,0,0,0,1.27-2.1,2.22,2.22,0,0,0-.73-1.73,2.9,2.9,0,0,0-2-.65,3.1,3.1,0,0,0-1.45.32,2.39,2.39,0,0,0-1,.86,2.21,2.21,0,0,0-.36,1.23,2.07,2.07,0,0,0,.34,1.13,2.47,2.47,0,0,0,1,.89A3.3,3.3,0,0,0,147,430Z" transform="translate(-138.59 -92.01)"/><path class="cls-4" d="M152.29,424.19a.58.58,0,0,1-.42-.18.59.59,0,0,1-.18-.44.6.6,0,0,1,.6-.6.57.57,0,0,1,.43.17.57.57,0,0,1,.18.43.59.59,0,0,1-.18.44A.58.58,0,0,1,152.29,424.19Zm0,6.43a.55.55,0,0,1-.42-.19.58.58,0,0,1-.18-.43.59.59,0,0,1,.18-.44.61.61,0,0,1,.42-.17.61.61,0,0,1,.43.17.59.59,0,0,1,.18.44.58.58,0,0,1-.18.43A.56.56,0,0,1,152.29,430.62Z" transform="translate(-138.59 -92.01)"/><path class="cls-4" d="M161.2,430.63a5.66,5.66,0,0,1-2.08-.38,3.73,3.73,0,0,1-1.49-1l.38-.56a3.39,3.39,0,0,0,1.3.89,5,5,0,0,0,1.89.35,3.15,3.15,0,0,0,2.07-.6,2.23,2.23,0,0,0,0-3.26,3.38,3.38,0,0,0-2.23-.61h-.64v-.54l3.22-4.11.1.29H158v-.66h6.33V421l-3.2,4.12-.32-.23h.32a4,4,0,0,1,2.7.79,2.65,2.65,0,0,1,.89,2.06,2.87,2.87,0,0,1-.4,1.51,2.61,2.61,0,0,1-1.18,1A4.49,4.49,0,0,1,161.2,430.63Z" transform="translate(-138.59 -92.01)"/><path class="cls-4" d="M170.25,430.63a3.52,3.52,0,0,1-2.05-.62,4,4,0,0,1-1.4-1.77,7.59,7.59,0,0,1,0-5.47,4.09,4.09,0,0,1,1.4-1.77,3.7,3.7,0,0,1,4.1,0,4.15,4.15,0,0,1,1.39,1.77,7.59,7.59,0,0,1,0,5.47A4,4,0,0,1,172.3,430,3.52,3.52,0,0,1,170.25,430.63Zm0-.68a2.72,2.72,0,0,0,1.68-.53,3.39,3.39,0,0,0,1.13-1.52,7.4,7.4,0,0,0,0-4.8,3.41,3.41,0,0,0-1.13-1.51,2.78,2.78,0,0,0-1.68-.53,2.83,2.83,0,0,0-1.69.53,3.41,3.41,0,0,0-1.13,1.51,7.4,7.4,0,0,0,0,4.8,3.39,3.39,0,0,0,1.13,1.52A2.76,2.76,0,0,0,170.25,430Z" transform="translate(-138.59 -92.01)"/><path class="cls-4" d="M180.23,433.36V423h.69v2.47l-.11,1.31.14,1.32v5.24Zm3.78-2.74a3.49,3.49,0,0,1-1.79-.47,3.17,3.17,0,0,1-1.27-1.32,4.66,4.66,0,0,1,0-4.08,3.3,3.3,0,0,1,1.27-1.32A3.48,3.48,0,0,1,184,423a3.83,3.83,0,0,1,1.92.48,3.43,3.43,0,0,1,1.32,1.35,4.29,4.29,0,0,1,0,4,3.43,3.43,0,0,1-1.32,1.35A3.83,3.83,0,0,1,184,430.62Zm0-.65a3.12,3.12,0,0,0,1.56-.4,2.93,2.93,0,0,0,1.09-1.12,3.43,3.43,0,0,0,.4-1.66,3.46,3.46,0,0,0-.4-1.67,3,3,0,0,0-1.09-1.11,3.11,3.11,0,0,0-1.56-.39,3.08,3.08,0,0,0-1.55.39,2.88,2.88,0,0,0-1.08,1.11,3.36,3.36,0,0,0-.4,1.67,3.32,3.32,0,0,0,.4,1.66,2.84,2.84,0,0,0,1.08,1.12A3.08,3.08,0,0,0,184,430Z" transform="translate(-138.59 -92.01)"/><path class="cls-4" d="M199.35,423a3.33,3.33,0,0,1,1.59.35,2.5,2.5,0,0,1,1,1.07,3.74,3.74,0,0,1,.38,1.77v4.4h-.72v-4.35a2.7,2.7,0,0,0-.63-1.93,2.25,2.25,0,0,0-1.73-.66,2.86,2.86,0,0,0-1.47.36,2.38,2.38,0,0,0-.95,1,3.38,3.38,0,0,0-.33,1.55v4h-.73v-4.35a2.7,2.7,0,0,0-.62-1.93,2.25,2.25,0,0,0-1.73-.66A2.86,2.86,0,0,0,192,424a2.38,2.38,0,0,0-.95,1,3.38,3.38,0,0,0-.33,1.55v4H190V423h.7v2.08l-.1-.23a2.77,2.77,0,0,1,1.11-1.39,3.33,3.33,0,0,1,1.87-.51,3.1,3.1,0,0,1,1.9.57,2.52,2.52,0,0,1,1,1.69l-.24-.1a2.92,2.92,0,0,1,1.14-1.56A3.41,3.41,0,0,1,199.35,423Z" transform="translate(-138.59 -92.01)"/><circle class="cls-2" cx="219.44" cy="79.83" r="6.06"/><circle class="cls-2" cx="219.44" cy="415.93" r="6.06"/><path class="cls-5" d="M431,430.23a5.19,5.19,0,0,1,.52,1.44,3.07,3.07,0,0,1-3.53,3.42,2.63,2.63,0,0,1-1.81-2.47,3.3,3.3,0,0,1,1.64-3.16,4.05,4.05,0,0,0-1.89-.66,4.32,4.32,0,0,0-2.68.68c-.26.15-.27.27-.11.52a14.18,14.18,0,0,1,2,3.73,4.47,4.47,0,0,1,.24,1.36,1.9,1.9,0,0,1-1.22,1.92q-9.23,4.07-18.43,8.16c-1.68.74-3.36,1.5-5.05,2.23a4.1,4.1,0,0,1-5.79-3,4.21,4.21,0,0,1,.37-2.51q5.15-11.6,10.27-23.18a2,2,0,0,1,2.61-1.37,11.8,11.8,0,0,1,4.19,1.94,40.57,40.57,0,0,1,6.89,5.93c.26.28.42.3.75.09a13.63,13.63,0,0,1,7.56-2.29c.6,0,.93.28.92.78s-.34.78-.93.78a12.77,12.77,0,0,0-6.55,1.94c-.32.2-.3.32-.07.56s.65.78,1,1.18c.12.16.2.19.4.06a5.81,5.81,0,0,1,7.12.31.76.76,0,0,0,.62.15,10.37,10.37,0,0,1,5.5.8.77.77,0,0,1,.51,1,.78.78,0,0,1-1.11.41,9.91,9.91,0,0,0-3.17-.74Zm-24.77,12.94a14,14,0,0,1-5.3-4.29c-.47-.61-.49-1-.07-1.37s.82-.21,1.33.43a11.58,11.58,0,0,0,5.12,3.94,2.41,2.41,0,0,0,2.17-.1,15.5,15.5,0,0,1,1.55-.69l1.05-.47,1.07-.48a26.57,26.57,0,0,1-9-7.85.8.8,0,1,1,1.27-.93,26.82,26.82,0,0,0,4.57,4.83,15.47,15.47,0,0,0,4.61,2.81,1.16,1.16,0,0,0,1.22-.08,3.09,3.09,0,0,0-.68-.34,27.1,27.1,0,0,1-9.8-8.8.77.77,0,0,1,.19-1.13.8.8,0,0,1,1.15.31,27.39,27.39,0,0,0,5.73,6,14.24,14.24,0,0,0,4.94,2.72,1.55,1.55,0,0,0,.94.12c.95-.39,1.87-.82,2.77-1.22A40.42,40.42,0,0,1,406,421.48l-1.22,2.75a.86.86,0,0,0,0,.55,7.91,7.91,0,0,0,.59,1.78.79.79,0,1,1-1.45.63c-.07-.14-.08-.33-.22-.42a1,1,0,0,0-.11,1.16c.16.44.35.85.54,1.27a.78.78,0,0,1-.34,1.07.77.77,0,0,1-1.06-.37c-.08-.14-.16-.29-.25-.47-.43,1-.79,1.94-1.27,2.85a3.59,3.59,0,0,0-.28,3.57.68.68,0,0,1-.35.94.77.77,0,0,1-1-.21c0-.06-.06-.17-.17-.19-.37.75-.37.76,0,1.49.11.2.23.39.35.6a.79.79,0,1,1-1.32.85c-.07-.09-.08-.24-.25-.25-.54,1.23-1.11,2.46-1.61,3.71a2.51,2.51,0,0,0,3.19,3.27c1.28-.49,2.53-1.09,3.83-1.67l-.41-.28a17.49,17.49,0,0,1-3.33-2.92.83.83,0,0,1-.18-.86.76.76,0,0,1,.62-.5.91.91,0,0,1,.83.41,14.4,14.4,0,0,0,3.62,3A1.16,1.16,0,0,0,406.21,443.17Zm6.41-21a1.54,1.54,0,0,0-1.73,1.52,5.41,5.41,0,0,0,.95,3,14.87,14.87,0,0,0,2.78,3.25,30.69,30.69,0,0,0,6.44,4.84,6.44,6.44,0,0,0,1.88.73c.81.15,1,0,.79-.8l0-.09a10.67,10.67,0,0,0-1.48-3.1c-.44-.72-.45-.72-1-.09a.78.78,0,0,1-1.11.16.76.76,0,0,1-.14-1.1,6.91,6.91,0,0,1,.64-.79c.14-.15.16-.25,0-.42-.39-.45-.77-.92-1.14-1.39-.15-.19-.24-.17-.4,0a13.44,13.44,0,0,0-1.58,1.62.8.8,0,1,1-1.21-1,12.31,12.31,0,0,1,1.7-1.76c.16-.14.25-.22.05-.43a43.64,43.64,0,0,0-3.42-3.24A3.65,3.65,0,0,0,412.62,422.14Zm15.11,10.12c0,.73.26,1.23.69,1.32a1.46,1.46,0,0,0,1.36-.83,1.93,1.93,0,0,0-.5-2.14.26.26,0,0,0-.21,0A1.87,1.87,0,0,0,427.73,432.26Z" transform="translate(-138.59 -92.01)"/><path class="cls-5" d="M406.89,410a1.15,1.15,0,0,0-.07,1.35,3,3,0,0,0,1.46,1.22,3.31,3.31,0,0,1,2,2.47,5.51,5.51,0,0,1,.13,1.28.78.78,0,0,1-.79.8.75.75,0,0,1-.77-.79c0-.28-.05-.55-.08-.83a1.64,1.64,0,0,0-.9-1.36,10.23,10.23,0,0,1-1.46-.87,3.07,3.07,0,0,1-1.08-3.76,2.05,2.05,0,0,1,.51-.71,1.14,1.14,0,0,0,.41-1.12,3.75,3.75,0,0,1,1.73-3.55.82.82,0,0,1,1.22.16c.26.41.13.84-.37,1.16a2.25,2.25,0,0,0-1,1.77c0,.33.06.41.37.33a3.5,3.5,0,0,1,1.51,0,1.85,1.85,0,0,1,1.67,1.84,2,2,0,0,1-1.84,1.82A2.51,2.51,0,0,1,406.89,410Zm1.38-.84a1,1,0,0,0,1.29.38c.11-.06.24-.1.23-.25s-.16-.19-.27-.21A2.33,2.33,0,0,0,408.27,409.11Z" transform="translate(-138.59 -92.01)"/><path class="cls-5" d="M402.33,409a3.12,3.12,0,0,1-3.37,1,2,2,0,0,1-1.45-2.1,2.24,2.24,0,0,1,2-2.07,4.69,4.69,0,0,1,1.85.29,2.16,2.16,0,0,0-1.79-1.58c-.16,0-.33-.05-.49-.09a.8.8,0,0,1-.62-.9.84.84,0,0,1,.88-.65,3.93,3.93,0,0,1,3.73,4,.55.55,0,0,0,.1.39A5.15,5.15,0,0,1,404,412a4.58,4.58,0,0,1-.14.53.78.78,0,0,1-1,.58.77.77,0,0,1-.5-1,6.17,6.17,0,0,0,.24-2A3,3,0,0,0,402.33,409Zm-1.15-1.18a3.25,3.25,0,0,0-1.49-.4.6.6,0,0,0-.6.64c0,.33.22.47.53.52A1.47,1.47,0,0,0,401.18,407.81Z" transform="translate(-138.59 -92.01)"/><path class="cls-5" d="M440.74,434.25a2.21,2.21,0,0,0-2.24-.41c-.21.06-.4.16-.6.23a.8.8,0,0,1-1-.41.79.79,0,0,1,.36-1,3.88,3.88,0,0,1,5.26,1.35,1,1,0,0,0,.54.44,5.22,5.22,0,0,1,3,3.38,4.4,4.4,0,0,1,.18.62.79.79,0,1,1-1.53.37,6.22,6.22,0,0,0-.51-1.32,3.32,3.32,0,0,0-1.06-1.26c-.15.05-.11.18-.13.27a3.14,3.14,0,0,1-2.46,2.4,2.05,2.05,0,0,1-2.26-1.43,2.21,2.21,0,0,1,.93-2.61A8,8,0,0,1,440.74,434.25Zm-1,2.47c0,.46.31.69.71.57A1.61,1.61,0,0,0,441.5,436c0-.14,0-.24-.18-.21a3.67,3.67,0,0,0-1.27.38A.58.58,0,0,0,439.74,436.72Z" transform="translate(-138.59 -92.01)"/><path class="cls-5" d="M422.18,419.42c-1.34-1.41-1.58-2.49-.79-3.47a2.43,2.43,0,0,1,3.2-.49,2.34,2.34,0,0,1,1,3.32,3.32,3.32,0,0,0,2.81-1.82c.21-.37.48-.62.92-.52a.79.79,0,0,1,.51,1.19,5,5,0,0,1-5.08,2.7,1.91,1.91,0,0,0-1.42.25,12.62,12.62,0,0,1-2.6,1.15.81.81,0,0,1-1.14-.44c-.15-.48.08-.85.64-1.05A14.27,14.27,0,0,0,422.18,419.42Zm1.07-2.77a.65.65,0,0,0-.72.56c0,.4.8,1.25,1.18,1.23.2,0,.68-.63.68-.87S423.73,416.66,423.25,416.65Z" transform="translate(-138.59 -92.01)"/><path class="cls-5" d="M422.07,407a1.83,1.83,0,0,0,.25-1.72,4.55,4.55,0,0,0-.41-1,.78.78,0,0,1,.28-1.08.79.79,0,0,1,1.08.31c1,1.62,1.15,3.75-.57,5-.14.1-.13.22-.12.36a6.27,6.27,0,0,1-1.15,4,.77.77,0,0,1-.79.37.78.78,0,0,1-.64-.54.88.88,0,0,1,.16-.78,4.9,4.9,0,0,0,.84-2.27c0-.28-.05-.35-.32-.27a3.21,3.21,0,0,1-1.51.12,2,2,0,0,1-1.65-2.68,2.1,2.1,0,0,1,3.88-.91A5,5,0,0,1,422.07,407Zm-1.37.84a2.81,2.81,0,0,0-.76-1.07c-.3-.25-.53-.26-.72.12a1.51,1.51,0,0,0-.2.51c0,.47.09.65.57.66A3.77,3.77,0,0,0,420.7,407.85Z" transform="translate(-138.59 -92.01)"/><path class="cls-5" d="M417.94,415.42a12.73,12.73,0,0,1-1.22,5.06c-.26.58-.66.79-1.12.59s-.59-.64-.33-1.21a11.43,11.43,0,0,0,1.09-5.14,8.09,8.09,0,0,0-1.18-4.06.8.8,0,1,1,1.34-.83A10.12,10.12,0,0,1,417.94,415.42Z" transform="translate(-138.59 -92.01)"/><path class="cls-5" d="M426.63,413.35a.76.76,0,0,1-.69-.46.8.8,0,0,1,.16-.9A15.66,15.66,0,0,1,434,407.5a.78.78,0,0,1,1,.54.76.76,0,0,1-.66,1,14.08,14.08,0,0,0-6.32,3.26c-.3.26-.57.56-.86.84A.77.77,0,0,1,426.63,413.35Z" transform="translate(-138.59 -92.01)"/><path class="cls-5" d="M432.88,425.4a20.24,20.24,0,0,1,6.18.9l.39.13a.77.77,0,0,1,.44,1,.75.75,0,0,1-1,.48,20.71,20.71,0,0,0-7.19-.93c-.59,0-1-.19-1-.66s.27-.85.88-.9C432,425.38,432.45,425.4,432.88,425.4Z" transform="translate(-138.59 -92.01)"/><path class="cls-5" d="M432,415.24c.18-.67.35-1.44.6-2.17a.68.68,0,0,1,.88-.4l1.91.49a.75.75,0,0,1,.6,1c-.15.64-.31,1.28-.48,1.91a.78.78,0,0,1-1,.59c-.65-.16-1.3-.34-2-.52C432.18,416,432,415.75,432,415.24Z" transform="translate(-138.59 -92.01)"/><path class="cls-5" d="M401.6,412.89a1.18,1.18,0,0,1-.15.46c-.29.44-.56.88-.85,1.31a.77.77,0,0,1-1.13.25c-.45-.27-.89-.56-1.32-.85a.78.78,0,0,1-.25-1.16c.26-.43.54-.86.82-1.28a.79.79,0,0,1,1.19-.26l1.28.82A.83.83,0,0,1,401.6,412.89Z" transform="translate(-138.59 -92.01)"/><path class="cls-5" d="M433.46,420.4c.44,0,.89,0,1.33.09a.75.75,0,0,1,.75.78,11,11,0,0,1-.11,1.51.77.77,0,0,1-.86.71c-.41,0-.82,0-1.24-.08a.83.83,0,0,1-.86-1c0-.4,0-.8.08-1.2A.81.81,0,0,1,433.46,420.4Z" transform="translate(-138.59 -92.01)"/><path class="cls-5" d="M434.06,435.45a6.46,6.46,0,0,1,1.75.83.69.69,0,0,1,.15.85c-.19.43-.38.87-.58,1.29a.76.76,0,0,1-1,.4c-.44-.18-.88-.37-1.3-.58a.77.77,0,0,1-.39-1.08c.18-.41.37-.81.55-1.21A.8.8,0,0,1,434.06,435.45Z" transform="translate(-138.59 -92.01)"/><path class="cls-5" d="M444.83,424.31a.91.91,0,0,1-.38.75c-.37.22-.74.44-1.12.64a.74.74,0,0,1-1-.27,12.53,12.53,0,0,1-.65-1.12.74.74,0,0,1,.29-1c.36-.23.74-.44,1.11-.64a.66.66,0,0,1,.75,0A5,5,0,0,1,444.83,424.31Z" transform="translate(-138.59 -92.01)"/><path class="cls-5" d="M428.22,442.24c-.38,0-.61-.06-.74-.27a11.35,11.35,0,0,1-.75-1.31.7.7,0,0,1,.34-1c.35-.22.7-.43,1.07-.62a.74.74,0,0,1,1.05.26c.24.37.45.77.67,1.16a.63.63,0,0,1-.05.74A4.81,4.81,0,0,1,428.22,442.24Z" transform="translate(-138.59 -92.01)"/><path class="cls-5" d="M414.49,406.11a.88.88,0,0,1-.46.76c-.36.17-.72.35-1.09.5a.76.76,0,0,1-1.05-.37c-.18-.36-.35-.72-.51-1.09a.76.76,0,0,1,.4-1c.37-.19.75-.35,1.13-.52a.63.63,0,0,1,.76.13A5.55,5.55,0,0,1,414.49,406.11Z" transform="translate(-138.59 -92.01)"/><path class="cls-5" d="M412.29,399.7c0,.72-.18,1-.69,1.13a11.18,11.18,0,0,1-1.15.11.74.74,0,0,1-.88-.67,10.23,10.23,0,0,1-.14-1.24.73.73,0,0,1,.64-.82,10,10,0,0,1,1.33-.13.74.74,0,0,1,.78.69.28.28,0,0,1,0,.09Z" transform="translate(-138.59 -92.01)"/><path class="cls-5" d="M428.26,405.73c0,.44-1,1.22-1.5,1.22s-1.22-1-1.23-1.51,1-1.22,1.51-1.22S428.26,405.19,428.26,405.73Z" transform="translate(-138.59 -92.01)"/><path class="cls-5" d="M441.78,408.69c-.22.54-.45,1.11-.7,1.66-.07.16-.25.15-.41.09l-1.4-.56a.35.35,0,0,1-.23-.51c.18-.47.36-.94.55-1.41a.35.35,0,0,1,.48-.23l1.45.58A.39.39,0,0,1,441.78,408.69Z" transform="translate(-138.59 -92.01)"/><path class="cls-6" d="M408.27,409.11a2.33,2.33,0,0,1,1.25-.08c.11,0,.26.06.27.21s-.12.19-.23.25A1,1,0,0,1,408.27,409.11Z" transform="translate(-138.59 -92.01)"/><path class="cls-6" d="M401.18,407.81a1.47,1.47,0,0,1-1.56.76c-.31-.05-.55-.19-.53-.52a.6.6,0,0,1,.6-.64A3.25,3.25,0,0,1,401.18,407.81Z" transform="translate(-138.59 -92.01)"/><path class="cls-6" d="M423.25,416.65c.48,0,1.14.54,1.14.92s-.48.86-.68.87c-.38,0-1.19-.83-1.18-1.23A.65.65,0,0,1,423.25,416.65Z" transform="translate(-138.59 -92.01)"/><path class="cls-6" d="M420.7,407.85a3.77,3.77,0,0,1-1.11.22c-.48,0-.62-.19-.57-.66a1.51,1.51,0,0,1,.2-.51c.19-.38.42-.37.72-.12A2.81,2.81,0,0,1,420.7,407.85Z" transform="translate(-138.59 -92.01)"/><path class="cls-7" d="M430.19,240.41c0-1,0-1.91,0-2.84s-.06-1.8-.08-2.7a2,2,0,0,1,1.62-2.18c.75-.2,1.5-.4,2.25-.57a2,2,0,0,1,1.86.51q2,2,4,4a2,2,0,0,1,.51,1.86c-.15.77-.33,1.54-.51,2.31a2,2,0,0,1-2.08,1.64c-1.71,0-3.42-.1-5.12-.15h-.55c.23.31.44.58.64.86a14.5,14.5,0,0,1,2.8,9.8c-.52,6.25-3.75,10.59-9.48,13.09a.87.87,0,0,0-.49.49,14.78,14.78,0,0,1-11.49,9.32,15.11,15.11,0,0,1-8.08-29,.76.76,0,0,0,.44-.47,14.76,14.76,0,0,1,11.78-9.34,14.58,14.58,0,0,1,11.8,3.2Zm-6.87,21.93a9.42,9.42,0,0,0,1.83-.65.51.51,0,0,0,.36-.55,16,16,0,0,0-.33-3.17,14,14,0,1,0-3.75,12.85,13.63,13.63,0,0,0,2.87-4.2,15.77,15.77,0,0,1-2.38.4c-.22,0-.29.19-.4.33-2.92,4.19-6.9,6.06-12,5.31A11.88,11.88,0,1,1,417,250.43a11.57,11.57,0,0,1,6.32,9.46A11.83,11.83,0,0,1,423.32,262.34Zm-15.65-16a12.19,12.19,0,0,1,2.19-.39.68.68,0,0,0,.59-.34A11.89,11.89,0,1,1,419,263.77a11.55,11.55,0,0,1-9.79-7.86,11.33,11.33,0,0,1-.58-5.34,12.77,12.77,0,0,0-2,.75c-.19.09-.19.23-.19.41a13.44,13.44,0,0,0,.26,2.9,14,14,0,1,0,15-16.57,13.68,13.68,0,0,0-9.4,2.57A13.87,13.87,0,0,0,407.67,246.32Zm-2.31,5.85a10.6,10.6,0,0,0-4.44,10.75,10.75,10.75,0,0,0,9.34,8.73,10.51,10.51,0,0,0,10-4.55A15.11,15.11,0,0,1,405.36,252.17Zm21.31,8.56a10.72,10.72,0,0,0-5.34-19.47c-3.91-.27-8.78,2.12-9.59,4.56A15.17,15.17,0,0,1,426.67,260.73Zm-4.37.12a10.67,10.67,0,0,0-5.55-9.3,10.26,10.26,0,0,0-6.6-1.28c-.22,0-.34.09-.38.35a10.79,10.79,0,0,0,12,12.06c.26,0,.38-.13.4-.39C422.22,261.84,422.26,261.38,422.3,260.85Zm9.56-27,1.51,1.47a.3.3,0,0,0,.32.11l2.67-.66c-.45-.45-.84-.86-1.25-1.25a.91.91,0,0,0-.87-.27Zm6.85,6.82c.2-.9.39-1.72.56-2.55a.78.78,0,0,0-.23-.67c-.41-.43-.83-.84-1.29-1.29l-.58,2.62a.4.4,0,0,0,.08.42C437.73,239.62,438.19,240.1,438.71,240.63ZM435.43,239l-1.92-1.93L432,240.57Zm-4.21,0,.21,0c.4-.9.79-1.79,1.2-2.68a.22.22,0,0,0-.05-.28c-.44-.43-.87-.87-1.36-1.37V239Zm6.61,2.25c-.19-.16-.36-.3-.52-.46-.33-.29-.61-.78-1-.85s-.8.29-1.2.47l-1.57.69,0,.15Zm-3.26-4.9,1.62,1.62.47-2.15Z" transform="translate(-138.59 -92.01)"/><path class="cls-8" d="M423.32,262.34a11.83,11.83,0,0,0,0-2.45,11.57,11.57,0,0,0-6.32-9.46,11.88,11.88,0,1,0-7.49,22.23c5.08.75,9.06-1.12,12-5.31.11-.14.18-.31.4-.33a15.77,15.77,0,0,0,2.38-.4,13.63,13.63,0,0,1-2.87,4.2A14,14,0,1,1,425.18,258a16,16,0,0,1,.33,3.17.51.51,0,0,1-.36.55A9.42,9.42,0,0,1,423.32,262.34Z" transform="translate(-138.59 -92.01)"/><path class="cls-8" d="M407.67,246.32a13.87,13.87,0,0,1,4.63-5.69,13.68,13.68,0,0,1,9.4-2.57,14,14,0,1,1-15,16.57,13.44,13.44,0,0,1-.26-2.9c0-.18,0-.32.19-.41a12.77,12.77,0,0,1,2-.75,11.33,11.33,0,0,0,.58,5.34,11.55,11.55,0,0,0,9.79,7.86,11.88,11.88,0,1,0-8.58-18.18.68.68,0,0,1-.59.34A12.19,12.19,0,0,0,407.67,246.32Z" transform="translate(-138.59 -92.01)"/><path class="cls-8" d="M426.67,260.73a15.17,15.17,0,0,0-14.93-14.91c.81-2.44,5.68-4.83,9.59-4.56a10.72,10.72,0,0,1,5.34,19.47Z" transform="translate(-138.59 -92.01)"/><path class="cls-8" d="M431.86,233.81l2.38-.6a.91.91,0,0,1,.87.27c.41.39.8.8,1.25,1.25l-2.67.66a.3.3,0,0,1-.32-.11Z" transform="translate(-138.59 -92.01)"/><path class="cls-8" d="M438.71,240.63c-.52-.53-1-1-1.46-1.47a.4.4,0,0,1-.08-.42l.58-2.62c.46.45.88.86,1.29,1.29a.78.78,0,0,1,.23.67C439.1,238.91,438.91,239.73,438.71,240.63Z" transform="translate(-138.59 -92.01)"/><path class="cls-8" d="M435.43,239,432,240.57l1.53-3.46Z" transform="translate(-138.59 -92.01)"/><path class="cls-8" d="M431.22,239v-4.3c.49.5.92.94,1.36,1.37a.22.22,0,0,1,.05.28c-.41.89-.8,1.78-1.2,2.68Z" transform="translate(-138.59 -92.01)"/><path class="cls-8" d="M437.83,241.24H433.6l0-.15,1.57-.69c.4-.18.84-.53,1.2-.47s.64.56,1,.85C437.47,240.94,437.64,241.08,437.83,241.24Z" transform="translate(-138.59 -92.01)"/><path class="cls-8" d="M434.57,236.34l2.09-.53-.47,2.15Z" transform="translate(-138.59 -92.01)"/></svg>