<svg id="Capa_1" data-name="Capa 1" xmlns="http://www.w3.org/2000/svg" viewBox="0 0 375 600"><defs><style>.cls-1{fill:#fff;}.cls-2{fill:none;stroke:#fff;stroke-miterlimit:10;stroke-width:10.86px;}</style></defs><title>LOGO</title><path class="cls-1" d="M256.55,326.48q-11.94-14.93-30.06-14.92A35.46,35.46,0,0,0,201,322a40.51,40.51,0,0,0-9,13.24V255.42a60.51,60.51,0,0,1-8.34,1.91c0,55.7,0,111.4-.41,167.09l2.89-2.45,3.9-3.31a36,36,0,0,0,7.82,6.62,40.25,40.25,0,0,0,21.33,6.3A47.54,47.54,0,0,0,243.73,425q11.28-6.63,18-20t6.75-33.27Q268.49,341.41,256.55,326.48Zm-16.91,86.64q-7.41,13.38-22.21,13.38a35.55,35.55,0,0,1-16.8-4.32,33,33,0,0,1-8.62-6.65v-70.1q2.78-11.31,9.17-18.06,8.73-9.18,18.9-9.18,9.28,0,15.25,5.86t8.84,17.79q2.88,11.94,2.87,29.84Q247,399.76,239.64,413.12Z"/><path class="cls-1" d="M189.24,299.61a20.47,20.47,0,0,1-.73-5.89V232.28A82.27,82.27,0,0,0,186.75,214a24.91,24.91,0,0,0-7.52-12.93A27.88,27.88,0,0,0,168.62,195a50,50,0,0,0-15.47-2.1,60.33,60.33,0,0,0-18.23,2.55,48.68,48.68,0,0,0-13.16,6.07,36.06,36.06,0,0,0-7.29,6.63,14.28,14.28,0,0,0-2.87,9.29,15.15,15.15,0,0,0,3,9.17q3,4.1,9.39,4.09a13,13,0,0,0,9.07-3.2,11.22,11.22,0,0,0,3.53-8.73,13.25,13.25,0,0,0-10.39-13.49,17.63,17.63,0,0,1,10.06-6.41,49.78,49.78,0,0,1,11.83-1.55A30.79,30.79,0,0,1,158.45,199a13.83,13.83,0,0,1,7.41,6.52q2.76,4.88,2.76,14.15v13.7a10,10,0,0,1-4.53,8.4,48.66,48.66,0,0,1-11.6,6q-7.08,2.66-14.92,5.41a100.9,100.9,0,0,0-14.92,6.64A35.45,35.45,0,0,0,111,269.74q-4.53,6.08-4.53,15.36,0,11.94,6.52,19.12t20.89,7.18a45.56,45.56,0,0,0,18.68-4q8.94-4,16-15.7a25.15,25.15,0,0,0,3.76,13.71q3.75,6,15.25,6h.23A44.89,44.89,0,0,1,189.24,299.61Zm-20.62-13.84q-5.52,9.06-11.93,12.93a25,25,0,0,1-13,3.86,17.28,17.28,0,0,1-12.6-5q-5.09-5-5.09-15.14,0-10.83,5.31-16.69A39.12,39.12,0,0,1,144,256.48q7.4-3.42,14.36-6.3t10.28-7.74Z"/><line class="cls-2" x1="186.83" y1="174.12" x2="186.83" y2="452.36"/></svg>