<svg id="Capa_1" data-name="Capa 1" xmlns="http://www.w3.org/2000/svg" viewBox="0 0 612 578.88"><defs><style>.cls-1{opacity:0.6;}.cls-2{fill:#502400;}.cls-3{fill:#fff;}.cls-4,.cls-5{fill:none;stroke:#fff;stroke-miterlimit:10;}.cls-4{stroke-width:10px;}.cls-5{stroke-width:2px;}</style></defs><title>SAVE THE DATE</title><g class="cls-1"><path class="cls-2" d="M14.05,231.43a16.43,16.43,0,0,1,6.69,1.06,24.8,24.8,0,0,1,4.06,2.37c.7.44,1.28.76,1.72,1a2.85,2.85,0,0,0,1.28.32c.94,0,1.58-1.36,1.94-4.08h2c-.06,1-.13,2.3-.22,3.76s-.14,3.38-.17,5.76-.05,5.53-.05,9.43h-2a28.06,28.06,0,0,0-1.86-8.54,16.47,16.47,0,0,0-4.62-6.7,11.88,11.88,0,0,0-8-2.6,10.56,10.56,0,0,0-7.71,3,10.45,10.45,0,0,0-3,7.81,11.77,11.77,0,0,0,2,7,20.83,20.83,0,0,0,5.42,5.11q3.39,2.28,7.36,4.88a90.25,90.25,0,0,1,8.16,5.9,24.29,24.29,0,0,1,5.64,6.46,16.61,16.61,0,0,1,2.07,8.55,17.57,17.57,0,0,1-2.56,9.85,16,16,0,0,1-6.78,5.86,22.08,22.08,0,0,1-9.35,1.95,19.89,19.89,0,0,1-7.4-1.12A31.23,31.23,0,0,1,4,296.11a6.21,6.21,0,0,0-3-1.3q-1.41,0-1.94,4.09H-3c.12-1.3.19-2.84.22-4.6s.06-4.08.09-6.93,0-6.44,0-10.78h2A40.47,40.47,0,0,0,1.4,287a17.24,17.24,0,0,0,5,7.76,13.35,13.35,0,0,0,9,2.93,12.18,12.18,0,0,0,7.89-2.93q3.57-2.92,3.57-9.43a12.63,12.63,0,0,0-3.79-9.39,60.1,60.1,0,0,0-10-7.62Q9,265.64,5.41,262.84a22.64,22.64,0,0,1-5.78-6.46,17.23,17.23,0,0,1-2.16-8.88,16.26,16.26,0,0,1,2.34-9.06,14.28,14.28,0,0,1,6.13-5.3A19.47,19.47,0,0,1,14.05,231.43Z"/><path class="cls-2" d="M62.71,232l21.5,58.46c.89,2.36,1.88,3.92,3,4.69a6.25,6.25,0,0,0,3.09,1.26v1.86c-1.18-.13-2.62-.2-4.32-.24s-3.41,0-5.12,0q-3.44,0-6.43,0c-2,0-3.61.11-4.85.24v-1.86q4.5-.19,5.73-1.63c.82-1,.65-3-.53-6.18L58.39,242.39l1.41-1.21-15.34,42A22.63,22.63,0,0,0,42.69,291a4.59,4.59,0,0,0,2,4,11.36,11.36,0,0,0,5.64,1.3v1.86c-1.64-.13-3.36-.2-5.15-.24s-3.46,0-5,0-2.72,0-3.75,0a26.84,26.84,0,0,0-2.86.24v-1.86a8.72,8.72,0,0,0,3.61-2.19,15,15,0,0,0,3.35-5.9L61.29,232h1.42Zm10.75,39.5v1.86H47.19l.88-1.86Z"/><path class="cls-2" d="M137.1,232.45v1.86a8,8,0,0,0-3.56,2.13,15.06,15.06,0,0,0-3.4,5.95l-20.71,56.32H108L86.51,240.25q-1.33-3.52-3-4.69a6.32,6.32,0,0,0-3.09-1.25v-1.86c1.18.06,2.63.12,4.37.18s3.42.1,5.07.1q3.44,0,6.43-.1c2-.06,3.62-.12,4.85-.18v1.86c-3,.12-4.89.66-5.69,1.62s-.63,3,.49,6.18l16.39,45.82-1.41,1.58,15.34-42a22.59,22.59,0,0,0,1.77-7.85,4.57,4.57,0,0,0-2-4,11.28,11.28,0,0,0-5.64-1.3v-1.86l5.2.18c1.76.07,3.4.1,4.93.1s2.79,0,3.79-.1Z"/><path class="cls-2" d="M179.77,232.45c-.24,2.17-.4,4.27-.48,6.32s-.14,3.59-.14,4.64,0,2.19.09,3.21.12,1.87.18,2.56h-2a46,46,0,0,0-1.5-8.69,7.5,7.5,0,0,0-3.3-4.56q-2.34-1.35-7-1.35h-7.32a15.26,15.26,0,0,0-4.54.52,3.12,3.12,0,0,0-2.07,2.13,17.88,17.88,0,0,0-.53,5.07v46.1a17.78,17.78,0,0,0,.53,5,3.13,3.13,0,0,0,2.07,2.19,15.32,15.32,0,0,0,4.54.51h6.44q5.55,0,8.41-1.58a9.07,9.07,0,0,0,4.15-5.16,42.52,42.52,0,0,0,1.89-9.71h2a65.9,65.9,0,0,0-.26,6.69c0,1.18,0,2.87.13,5.07s.25,4.47.48,6.83c-3-.13-6.37-.2-10.13-.24s-7.12,0-10.05,0h-7q-4.36,0-9.3,0c-3.29,0-6.38.11-9.26.24v-1.86a17.13,17.13,0,0,0,4.54-.75,3.25,3.25,0,0,0,2.07-2.23,17.42,17.42,0,0,0,.53-5V242.3a17.52,17.52,0,0,0-.53-5.07,3.41,3.41,0,0,0-2.07-2.23,14.36,14.36,0,0,0-4.54-.69v-1.86l9.26.18q4.94.1,9.3.1h7q4.05,0,9.21,0T179.77,232.45Zm-15.16,31.78v1.86H148.48v-1.86ZM167.16,252c-.23,3.54-.33,6.23-.3,8.09s0,3.56,0,5.11,0,3.25.09,5.11.2,4.56.44,8.09h-2q-.35-3-.84-5.81a9,9,0,0,0-2.11-4.65q-1.63-1.81-5.51-1.81v-1.86q3.87,0,5.42-2.14a11.25,11.25,0,0,0,2-5c.3-1.92.56-3.63.8-5.12Z"/><path class="cls-2" d="M266.51,232.45q-.36,3.53-.48,6.83c-.09,2.2-.14,3.89-.14,5.06,0,1.49,0,2.88.09,4.19s.12,2.44.18,3.43h-2a61.52,61.52,0,0,0-1.67-10.27,9,9,0,0,0-3.71-5.43q-2.64-1.68-8.19-1.68h-4.77v52.89a17.65,17.65,0,0,0,.67,5.57,3.91,3.91,0,0,0,2.6,2.51,22.16,22.16,0,0,0,5.64.84v1.86c-1.53-.13-3.47-.2-5.82-.24s-4.73,0-7.14,0c-2.64,0-5.13,0-7.45,0s-4.19.11-5.6.24v-1.86a22.16,22.16,0,0,0,5.64-.84,4,4,0,0,0,2.61-2.51,17.7,17.7,0,0,0,.66-5.57V234.58h-4.76q-5.47,0-8.16,1.68a8.88,8.88,0,0,0-3.74,5.43A60.34,60.34,0,0,0,219.26,252h-2c.12-1,.19-2.13.22-3.43s.05-2.7.05-4.19c0-1.17-.05-2.86-.13-5.06s-.25-4.48-.49-6.83l8.07.18q4.37.1,8.77.1h16q4.36,0,8.77-.1Z"/><path class="cls-2" d="M268.36,298.25v-1.86a17.13,17.13,0,0,0,4.54-.75,3.25,3.25,0,0,0,2.07-2.23,17.78,17.78,0,0,0,.53-5V242.3a17.88,17.88,0,0,0-.53-5.07A3.41,3.41,0,0,0,272.9,235a14.36,14.36,0,0,0-4.54-.69v-1.86c1.23.06,2.85.12,4.85.18s4.14.1,6.43.1q3.09,0,6.13-.1t5.07-.18v1.86a14.36,14.36,0,0,0-4.54.69,3.41,3.41,0,0,0-2.07,2.23,17.88,17.88,0,0,0-.53,5.07v46.1a17.78,17.78,0,0,0,.53,5,3.25,3.25,0,0,0,2.07,2.23,17.13,17.13,0,0,0,4.54.75v1.86c-1.35-.13-3-.2-5.07-.24s-4.07,0-6.13,0q-3.43,0-6.43,0C271.21,298.05,269.59,298.12,268.36,298.25Zm12.25-32.16v-1.86h34.82v1.86Zm24.6,32.16v-1.86a17.13,17.13,0,0,0,4.54-.75,3.25,3.25,0,0,0,2.07-2.23,17.78,17.78,0,0,0,.53-5V242.3a17.88,17.88,0,0,0-.53-5.07,3.41,3.41,0,0,0-2.07-2.23,14.36,14.36,0,0,0-4.54-.69v-1.86c1.35.06,3.05.12,5.11.18s4.08.1,6.08.1c2.3,0,4.44,0,6.44-.1s3.61-.12,4.85-.18v1.86a14.31,14.31,0,0,0-4.54.69,3.41,3.41,0,0,0-2.07,2.23,17.52,17.52,0,0,0-.53,5.07v46.1a17.42,17.42,0,0,0,.53,5,3.25,3.25,0,0,0,2.07,2.23,17.05,17.05,0,0,0,4.54.75v1.86c-1.24-.13-2.86-.2-4.85-.24s-4.14,0-6.44,0c-2,0-4,0-6.08,0S306.56,298.12,305.21,298.25Z"/><path class="cls-2" d="M374.67,232.45c-.24,2.17-.4,4.27-.48,6.32s-.14,3.59-.14,4.64,0,2.19.09,3.21.12,1.87.18,2.56h-2a46,46,0,0,0-1.5-8.69,7.5,7.5,0,0,0-3.3-4.56q-2.34-1.35-7-1.35h-7.32a15.26,15.26,0,0,0-4.54.52,3.12,3.12,0,0,0-2.07,2.13,17.88,17.88,0,0,0-.53,5.07v46.1a17.78,17.78,0,0,0,.53,5,3.13,3.13,0,0,0,2.07,2.19,15.32,15.32,0,0,0,4.54.51h6.44q5.55,0,8.41-1.58a9.07,9.07,0,0,0,4.15-5.16,42.52,42.52,0,0,0,1.89-9.71h2a65.9,65.9,0,0,0-.26,6.69c0,1.18,0,2.87.13,5.07s.25,4.47.48,6.83c-3-.13-6.37-.2-10.13-.24s-7.12,0-10.05,0h-7q-4.37,0-9.3,0c-3.29,0-6.38.11-9.26.24v-1.86a17.13,17.13,0,0,0,4.54-.75,3.25,3.25,0,0,0,2.07-2.23,17.42,17.42,0,0,0,.53-5V242.3a17.52,17.52,0,0,0-.53-5.07,3.41,3.41,0,0,0-2.07-2.23,14.36,14.36,0,0,0-4.54-.69v-1.86l9.26.18q4.94.1,9.3.1h7q4,0,9.21,0T374.67,232.45Zm-15.16,31.78v1.86H343.38v-1.86ZM362.06,252c-.23,3.54-.33,6.23-.3,8.09s0,3.56,0,5.11,0,3.25.09,5.11.2,4.56.44,8.09h-2q-.35-3-.84-5.81a9,9,0,0,0-2.11-4.65q-1.64-1.81-5.51-1.81v-1.86q3.87,0,5.42-2.14a11.25,11.25,0,0,0,2-5c.3-1.92.56-3.63.8-5.12Z"/><path class="cls-2" d="M439.11,232.45q15.78,0,23.45,8.32t7.66,23.83a39.45,39.45,0,0,1-3.74,17.71,27.33,27.33,0,0,1-10.89,11.75q-7.14,4.19-17.28,4.19c-1.29,0-3.2-.05-5.73-.14S427.85,298,426,298q-3.08,0-6.08,0c-2,0-3.61.11-4.85.24v-1.86a17.13,17.13,0,0,0,4.54-.75,3.25,3.25,0,0,0,2.07-2.23,17.42,17.42,0,0,0,.53-5V242.3a17.52,17.52,0,0,0-.53-5.07,3.41,3.41,0,0,0-2.07-2.23,14.36,14.36,0,0,0-4.54-.69v-1.86l4.85.23q3,.13,5.91,0c2.05-.06,4.37-.13,7-.19S437.46,232.45,439.11,232.45Zm-2.21,1.67q-4,0-5.29,1.58t-1.23,6.41v46.47q0,4.83,1.28,6.41c.85,1.06,2.63,1.58,5.33,1.58q9.61,0,14.9-3.67a19.21,19.21,0,0,0,7.4-10.73A60.2,60.2,0,0,0,461.41,265q0-15.62-5.42-23.24T436.9,234.12Z"/><path class="cls-2" d="M497.29,232l21.51,58.46q1.32,3.54,3,4.69a6.25,6.25,0,0,0,3.09,1.26v1.86c-1.18-.13-2.62-.2-4.32-.24s-3.41,0-5.11,0c-2.3,0-4.44,0-6.44,0s-3.61.11-4.85.24v-1.86q4.5-.19,5.73-1.63c.82-1,.65-3-.53-6.18L493,242.39l1.41-1.21-15.34,42a22.34,22.34,0,0,0-1.76,7.85,4.56,4.56,0,0,0,2,4,11.4,11.4,0,0,0,5.65,1.3v1.86c-1.65-.13-3.37-.2-5.16-.24s-3.46,0-5,0-2.72,0-3.75,0a26.84,26.84,0,0,0-2.86.24v-1.86a8.72,8.72,0,0,0,3.61-2.19,15,15,0,0,0,3.35-5.9L495.88,232h1.41ZM508,271.48v1.86H481.77l.88-1.86Z"/><path class="cls-2" d="M567.72,232.45q-.36,3.53-.48,6.83c-.09,2.2-.14,3.89-.14,5.06,0,1.49,0,2.88.09,4.19s.12,2.44.18,3.43h-2a61.52,61.52,0,0,0-1.67-10.27,9,9,0,0,0-3.71-5.43q-2.64-1.68-8.2-1.68H547v52.89a17.36,17.36,0,0,0,.67,5.57,3.91,3.91,0,0,0,2.6,2.51,22.16,22.16,0,0,0,5.64.84v1.86c-1.53-.13-3.47-.2-5.82-.24s-4.73,0-7.14,0q-4,0-7.45,0c-2.32,0-4.19.11-5.6.24v-1.86a22.16,22.16,0,0,0,5.64-.84,4,4,0,0,0,2.61-2.51,17.7,17.7,0,0,0,.66-5.57V234.58h-4.76q-5.47,0-8.16,1.68a8.88,8.88,0,0,0-3.74,5.43A60.34,60.34,0,0,0,520.47,252h-2c.12-1,.19-2.13.22-3.43s.05-2.7.05-4.19c0-1.17-.05-2.86-.13-5.06s-.25-4.48-.49-6.83l8.07.18q4.37.1,8.77.1h16q4.37,0,8.77-.1Z"/><path class="cls-2" d="M613.56,232.45c-.24,2.17-.4,4.27-.49,6.32s-.13,3.59-.13,4.64,0,2.19.09,3.21.12,1.87.17,2.56h-2a47.71,47.71,0,0,0-1.5-8.69,7.47,7.47,0,0,0-3.31-4.56c-1.55-.9-3.89-1.35-7-1.35h-7.32a15.26,15.26,0,0,0-4.54.52,3.12,3.12,0,0,0-2.07,2.13,17.52,17.52,0,0,0-.53,5.07v46.1a17.42,17.42,0,0,0,.53,5,3.13,3.13,0,0,0,2.07,2.19,15.32,15.32,0,0,0,4.54.51h6.43c3.71,0,6.51-.53,8.42-1.58a9.06,9.06,0,0,0,4.14-5.16,41.91,41.91,0,0,0,1.9-9.71h2a65.42,65.42,0,0,0-.27,6.69c0,1.18,0,2.87.13,5.07s.25,4.47.49,6.83c-3-.13-6.38-.2-10.14-.24s-7.11,0-10,0h-7q-4.36,0-9.3,0c-3.3,0-6.38.11-9.26.24v-1.86a17.13,17.13,0,0,0,4.54-.75,3.25,3.25,0,0,0,2.07-2.23,17.78,17.78,0,0,0,.53-5V242.3a17.88,17.88,0,0,0-.53-5.07,3.41,3.41,0,0,0-2.07-2.23,14.36,14.36,0,0,0-4.54-.69v-1.86l9.26.18q4.93.1,9.3.1h7q4.07,0,9.22,0T613.56,232.45ZM598.4,264.23v1.86H582.26v-1.86ZM601,252c-.23,3.54-.34,6.23-.31,8.09s.05,3.56.05,5.11,0,3.25.09,5.11.2,4.56.44,8.09h-2q-.36-3-.84-5.81a9.1,9.1,0,0,0-2.11-4.65q-1.63-1.81-5.51-1.81v-1.86q3.87,0,5.42-2.14a11.37,11.37,0,0,0,2-5c.29-1.92.56-3.63.79-5.12Z"/></g><path class="cls-3" d="M253.43,180.43q-13.83,0-20.09-6.91t-6.27-18.38q0-8.94,4.36-14.78a34.06,34.06,0,0,1,11.16-9.56,97.58,97.58,0,0,1,14.34-6.38q7.54-2.65,14.35-5.2a47.06,47.06,0,0,0,11.16-5.74,9.66,9.66,0,0,0,4.35-8.08V92.22q0-8.93-2.65-13.6A13.32,13.32,0,0,0,277,72.35a29.66,29.66,0,0,0-10-1.59,47.85,47.85,0,0,0-11.37,1.49A16.9,16.9,0,0,0,246,78.41a12.76,12.76,0,0,1,10,13,10.78,10.78,0,0,1-3.4,8.4,12.52,12.52,0,0,1-8.72,3.08q-6.17,0-9-3.93A14.61,14.61,0,0,1,232,90.1a13.75,13.75,0,0,1,2.76-8.93,34.16,34.16,0,0,1,7-6.37A46.58,46.58,0,0,1,254.38,69a58.27,58.27,0,0,1,17.54-2.44,47.94,47.94,0,0,1,14.87,2A26.63,26.63,0,0,1,297,74.37a23.91,23.91,0,0,1,7.22,12.43,78.87,78.87,0,0,1,1.7,17.54v59.08c0,3.41.5,5.92,1.49,7.55s2.69,2.44,5.1,2.44a10.34,10.34,0,0,0,5.21-1.27,25.1,25.1,0,0,0,4.36-3.19l2.33,3.61a70,70,0,0,1-8.5,5.64q-4,2.22-10.84,2.23-11.06,0-14.66-5.74a24.22,24.22,0,0,1-3.62-13.18q-6.8,11.27-15.4,15.09A43.79,43.79,0,0,1,253.43,180.43Zm9.35-8.5a24,24,0,0,0,12.54-3.72q6.17-3.72,11.47-12.44V114.12q-3.18,4.66-9.88,7.43t-13.81,6.06a37.67,37.67,0,0,0-12.22,8.93q-5.1,5.63-5.11,16.05,0,9.76,4.89,14.55A16.65,16.65,0,0,0,262.78,171.93Z"/><path class="cls-3" d="M322.43,348.8V504.17c-1.85,1.56-3.72,3.15-5.63,4.78l-5.64,4.78q-2.76,2.34-5.73,4.89l-3.62-1.49a34.51,34.51,0,0,0,1.17-6.06,61.44,61.44,0,0,0,.32-6.26V374.31q0-9.57-3.4-14.14t-12.75-4.57v-4.46q6.8.64,13.17.64a89.47,89.47,0,0,0,11.8-.75A59.68,59.68,0,0,0,322.43,348.8Zm33.15,54q17.43,0,28.91,14.34T396,460.6q0,19.13-6.49,32t-17.32,19.24a45.69,45.69,0,0,1-23.59,6.37,38.68,38.68,0,0,1-20.51-6.05q-9.88-6.06-14.77-18l4.25,2.34a34.43,34.43,0,0,0,29.33,16.79q14.24,0,21.36-12.86t7.12-39.85q0-17.22-2.76-28.7t-8.5-17.11q-5.74-5.62-14.67-5.63-9.78,0-18.17,8.82t-10.31,25.83l-2.55-3q2.34-18.06,12.65-28.05A34,34,0,0,1,355.58,402.79Z"/><line class="cls-4" x1="305.7" y1="35.28" x2="305.7" y2="549"/><line class="cls-5" x1="291.92" y1="249.52" x2="341.36" y2="249.52"/><path class="cls-3" d="M354.4,267.81v-1.19l9.8-9.73a16.89,16.89,0,0,0,2.08-2.44,6.8,6.8,0,0,0,.94-1.93,6.39,6.39,0,0,0,.25-1.76A4.31,4.31,0,0,0,366,247.3a6.55,6.55,0,0,0-4.37-1.27,10.19,10.19,0,0,0-3.82.66,7.45,7.45,0,0,0-2.83,2l-1.19-1.06a8.71,8.71,0,0,1,3.36-2.35,12.23,12.23,0,0,1,4.62-.83,9.57,9.57,0,0,1,3.95.75,5.59,5.59,0,0,1,3.49,5.38,7.8,7.8,0,0,1-.31,2.2,8.27,8.27,0,0,1-1.13,2.27,20.45,20.45,0,0,1-2.33,2.71l-9.2,9.17-.56-.66h14.66v1.52Z"/><path class="cls-3" d="M377.5,267.81l10.2-22.38.59.73H373.5l.86-.79v5.23H372.7v-6h16.62v1.19l-10,22Z"/><path class="cls-3" d="M418.71,268a8,8,0,0,1-4.7-1.42,9.37,9.37,0,0,1-3.21-4.05,17.55,17.55,0,0,1,0-12.55,9.37,9.37,0,0,1,3.21-4,8.47,8.47,0,0,1,9.42,0,9.48,9.48,0,0,1,3.19,4,17.55,17.55,0,0,1,0,12.55,9.48,9.48,0,0,1-3.19,4.05A8,8,0,0,1,418.71,268Zm0-1.55a6.35,6.35,0,0,0,3.87-1.21,7.85,7.85,0,0,0,2.59-3.49,16.93,16.93,0,0,0,0-11,7.78,7.78,0,0,0-2.59-3.47,6.78,6.78,0,0,0-7.73,0,7.71,7.71,0,0,0-2.59,3.47,16.76,16.76,0,0,0,0,11,7.77,7.77,0,0,0,2.59,3.49A6.4,6.4,0,0,0,418.71,266.42Z"/><path class="cls-3" d="M431,261.39v-1.23l12.58-15.52h1.89l-12.55,15.52-.92-.26h18.73v1.49Zm13.21,6.42v-6.42l0-1.49v-5.66h1.62v13.57Z"/><path class="cls-3" d="M469.62,267.81v-1.19l9.79-9.73a16.43,16.43,0,0,0,2.09-2.44,6.8,6.8,0,0,0,.94-1.93,6.39,6.39,0,0,0,.25-1.76,4.34,4.34,0,0,0-1.49-3.46,6.55,6.55,0,0,0-4.37-1.27,10.19,10.19,0,0,0-3.82.66,7.45,7.45,0,0,0-2.83,2L469,247.65a8.71,8.71,0,0,1,3.36-2.35,12.14,12.14,0,0,1,4.61-.83,9.62,9.62,0,0,1,4,.75,5.84,5.84,0,0,1,2.58,2.12,5.72,5.72,0,0,1,.91,3.26,7.8,7.8,0,0,1-.31,2.2,8.27,8.27,0,0,1-1.13,2.27,20.45,20.45,0,0,1-2.33,2.71l-9.2,9.17-.57-.66h14.67v1.52Z"/><path class="cls-3" d="M487.46,261.39v-1.23L500,244.64h1.89l-12.54,15.52-.93-.26h18.73v1.49Zm13.2,6.42v-6.42l0-1.49v-5.66h1.62v13.57Z"/><circle class="cls-3" cx="400.94" cy="256.62" r="1.86"/><circle class="cls-3" cx="456.51" cy="256.62" r="1.86"/><path class="cls-3" d="M20.77,282.25a8.83,8.83,0,0,1-3.21-.58,5.9,5.9,0,0,1-2.33-1.49l.5-.82a6.26,6.26,0,0,0,2.14,1.36,7.5,7.5,0,0,0,2.88.55,6.47,6.47,0,0,0,2.48-.4,3.15,3.15,0,0,0,1.44-1.08,2.59,2.59,0,0,0,.47-1.5,2.25,2.25,0,0,0-.53-1.56,3.57,3.57,0,0,0-1.36-.93,12.15,12.15,0,0,0-1.85-.59l-2-.51a9.19,9.19,0,0,1-1.87-.71,3.55,3.55,0,0,1-1.36-1.18,3.4,3.4,0,0,1-.51-1.95,3.72,3.72,0,0,1,.57-2A4,4,0,0,1,18,267.39a7.08,7.08,0,0,1,3.06-.57,8.49,8.49,0,0,1,2.49.37,7.12,7.12,0,0,1,2.09,1l-.41.89a7.27,7.27,0,0,0-2.05-1A7.66,7.66,0,0,0,21,267.8a6.18,6.18,0,0,0-2.41.41,3.09,3.09,0,0,0-1.41,1.1,2.67,2.67,0,0,0-.46,1.53,2.33,2.33,0,0,0,.51,1.57,3.5,3.5,0,0,0,1.36.93,12.46,12.46,0,0,0,1.87.59c.68.16,1.35.33,2,.51a9.36,9.36,0,0,1,1.84.7,3.66,3.66,0,0,1,1.37,1.18,3.22,3.22,0,0,1,.52,1.91,3.66,3.66,0,0,1-.58,2,4.06,4.06,0,0,1-1.8,1.47A7.39,7.39,0,0,1,20.77,282.25Z"/><path class="cls-3" d="M27.46,282.14l7-15.21h1.1l7,15.21H41.37l-6.61-14.51h.48l-6.58,14.51ZM30,277.86l.37-.94H39.5l.37.94Z"/><path class="cls-3" d="M45.32,282.14V266.93h.93l10.84,13.84H56.6V266.93h1.1v15.21h-.91L45.93,268.3h.5v13.84Z"/><path class="cls-3" d="M70,282.25a4.78,4.78,0,0,1-2.32-.58,4.48,4.48,0,0,1-1.72-1.6l.67-.73a4.56,4.56,0,0,0,1.49,1.42,3.69,3.69,0,0,0,1.88.49q3,0,3-3.59v-9.73H67.37v-1h6.71v10.73a5,5,0,0,1-1,3.44A4,4,0,0,1,70,282.25Z"/><path class="cls-3" d="M85.71,282.25a8.28,8.28,0,0,1-3.14-.58A7.45,7.45,0,0,1,80.05,280a7.33,7.33,0,0,1-1.66-2.45,8.2,8.2,0,0,1,0-6.11A7.33,7.33,0,0,1,80.05,269a7.45,7.45,0,0,1,2.52-1.63,8.79,8.79,0,0,1,6.28,0A7.47,7.47,0,0,1,93,271.46a8.18,8.18,0,0,1,0,6.15,7.47,7.47,0,0,1-4.17,4.06A8.31,8.31,0,0,1,85.71,282.25Zm0-1a7.15,7.15,0,0,0,2.69-.5,6.48,6.48,0,0,0,2.15-1.41A6.6,6.6,0,0,0,92,277.19a7.19,7.19,0,0,0,0-5.32,6.51,6.51,0,0,0-1.43-2.11,6.35,6.35,0,0,0-2.15-1.42,7.15,7.15,0,0,0-2.69-.5,7.24,7.24,0,0,0-2.7.5,6.7,6.7,0,0,0-2.16,1.42,6.51,6.51,0,0,0-1.43,2.11,7.19,7.19,0,0,0,0,5.32,6.6,6.6,0,0,0,1.43,2.13A6.84,6.84,0,0,0,83,280.73,7.24,7.24,0,0,0,85.71,281.23Z"/><path class="cls-3" d="M101.46,282.25a8.74,8.74,0,0,1-3.2-.58,5.87,5.87,0,0,1-2.34-1.49l.5-.82a6.26,6.26,0,0,0,2.14,1.36,7.5,7.5,0,0,0,2.88.55,6.55,6.55,0,0,0,2.49-.4,3.18,3.18,0,0,0,1.43-1.08,2.59,2.59,0,0,0,.47-1.5,2.29,2.29,0,0,0-.52-1.56,3.69,3.69,0,0,0-1.37-.93,11.8,11.8,0,0,0-1.85-.59l-2-.51A9.42,9.42,0,0,1,98.2,274a3.63,3.63,0,0,1-1.36-1.18,3.4,3.4,0,0,1-.51-1.95,3.72,3.72,0,0,1,.57-2,4,4,0,0,1,1.76-1.47,7.11,7.11,0,0,1,3.06-.57,8.49,8.49,0,0,1,2.49.37,7.06,7.06,0,0,1,2.1,1l-.42.89a7.27,7.27,0,0,0-2-1,7.66,7.66,0,0,0-2.12-.31,6.21,6.21,0,0,0-2.41.41,3.09,3.09,0,0,0-1.41,1.1,2.67,2.67,0,0,0-.46,1.53,2.33,2.33,0,0,0,.51,1.57,3.5,3.5,0,0,0,1.36.93,12.46,12.46,0,0,0,1.87.59c.68.16,1.35.33,2,.51a9.7,9.7,0,0,1,1.85.7,3.63,3.63,0,0,1,1.36,1.18,3.22,3.22,0,0,1,.53,1.91,3.67,3.67,0,0,1-.59,2,4.09,4.09,0,0,1-1.79,1.47A7.47,7.47,0,0,1,101.46,282.25Z"/><path class="cls-3" d="M111.8,281.14h9.39v1h-10.5V266.93h10.17v1H111.8Zm-.13-7.21h8.24v1h-8.24Zm2.89-8.24,3-2.56h1.57l-3.42,2.56Z"/><path class="cls-3" d="M124.06,285.25l.84-3.68.11.63a.92.92,0,0,1-.68-.26.92.92,0,0,1,0-1.3.9.9,0,0,1,.64-.26.87.87,0,0,1,.66.27.91.91,0,0,1,.25.64c0,.1,0,.2,0,.31s0,.2-.07.3-.06.23-.1.39l-.85,3Z"/><path class="cls-3" d="M141.81,282.25a8.28,8.28,0,0,1-3.14-.58,7.41,7.41,0,0,1-4.16-4.06,8.31,8.31,0,0,1,0-6.15,7.19,7.19,0,0,1,1.66-2.44,7.43,7.43,0,0,1,2.51-1.62,8.19,8.19,0,0,1,3.13-.58,8.67,8.67,0,0,1,3,.52,6.27,6.27,0,0,1,2.41,1.59l-.7.72a5.85,5.85,0,0,0-2.16-1.38,7.24,7.24,0,0,0-2.51-.43,7.33,7.33,0,0,0-2.71.5,6.64,6.64,0,0,0-2.17,1.42,6.45,6.45,0,0,0-1.43,2.12,7.17,7.17,0,0,0,0,5.31,6.6,6.6,0,0,0,1.43,2.13,6.78,6.78,0,0,0,2.17,1.41,7.33,7.33,0,0,0,2.71.5,7.24,7.24,0,0,0,2.51-.43,5.78,5.78,0,0,0,2.16-1.4l.7.72a6.41,6.41,0,0,1-2.41,1.6A8.45,8.45,0,0,1,141.81,282.25Z"/><path class="cls-3" d="M157.06,282.25a8.28,8.28,0,0,1-3.14-.58A7.26,7.26,0,0,1,151.4,280a7.33,7.33,0,0,1-1.66-2.45,8.2,8.2,0,0,1,0-6.11A7.33,7.33,0,0,1,151.4,269a7.26,7.26,0,0,1,2.52-1.63,8.79,8.79,0,0,1,6.28,0,7.47,7.47,0,0,1,4.17,4.06,8.18,8.18,0,0,1,0,6.15,7.47,7.47,0,0,1-4.17,4.06A8.31,8.31,0,0,1,157.06,282.25Zm0-1a7.15,7.15,0,0,0,2.69-.5,6.48,6.48,0,0,0,3.58-3.54,7.19,7.19,0,0,0,0-5.32,6.59,6.59,0,0,0-3.58-3.53,7.15,7.15,0,0,0-2.69-.5,7.24,7.24,0,0,0-2.7.5,6.7,6.7,0,0,0-2.16,1.42,6.51,6.51,0,0,0-1.43,2.11,7.19,7.19,0,0,0,0,5.32,6.6,6.6,0,0,0,1.43,2.13,6.84,6.84,0,0,0,2.16,1.41A7.24,7.24,0,0,0,157.06,281.23Z"/><path class="cls-3" d="M172.81,282.25a8.83,8.83,0,0,1-3.21-.58,5.9,5.9,0,0,1-2.33-1.49l.5-.82a6.26,6.26,0,0,0,2.14,1.36,7.5,7.5,0,0,0,2.88.55,6.55,6.55,0,0,0,2.49-.4,3.18,3.18,0,0,0,1.43-1.08,2.59,2.59,0,0,0,.47-1.5,2.29,2.29,0,0,0-.52-1.56,3.69,3.69,0,0,0-1.37-.93,11.8,11.8,0,0,0-1.85-.59l-2-.51a9.42,9.42,0,0,1-1.87-.71,3.63,3.63,0,0,1-1.36-1.18,3.4,3.4,0,0,1-.51-1.95,3.72,3.72,0,0,1,.57-2,4,4,0,0,1,1.76-1.47,7.08,7.08,0,0,1,3.06-.57,8.49,8.49,0,0,1,2.49.37,6.88,6.88,0,0,1,2.09,1l-.41.89a7.27,7.27,0,0,0-2.05-1,7.66,7.66,0,0,0-2.12-.31,6.21,6.21,0,0,0-2.41.41,3.09,3.09,0,0,0-1.41,1.1,2.67,2.67,0,0,0-.46,1.53,2.33,2.33,0,0,0,.51,1.57,3.5,3.5,0,0,0,1.36.93,12.46,12.46,0,0,0,1.87.59c.68.16,1.35.33,2,.51a9.36,9.36,0,0,1,1.84.7,3.58,3.58,0,0,1,1.37,1.18,3.22,3.22,0,0,1,.52,1.91,3.66,3.66,0,0,1-.58,2,4.09,4.09,0,0,1-1.79,1.47A7.47,7.47,0,0,1,172.81,282.25Z"/><path class="cls-3" d="M184.74,282.14V267.93h-5.48v-1h12.06v1h-5.47v14.21Z"/><path class="cls-3" d="M190.76,282.14l7-15.21h1.11l7,15.21h-1.2l-6.6-14.51h.47L192,282.14Zm2.56-4.28.37-.94h9.1l.37.94Z"/><path class="cls-3" d="M214.2,282.14V266.93h5.45a7.94,7.94,0,0,1,3.28.61,4.69,4.69,0,0,1,2.11,1.75,5,5,0,0,1,.74,2.77,4.9,4.9,0,0,1-.74,2.72,4.71,4.71,0,0,1-2.11,1.76,7.77,7.77,0,0,1-3.28.62h-4.84l.5-.52v5.5Zm1.11-5.43-.5-.52h4.84a5.63,5.63,0,0,0,3.73-1.09,4.29,4.29,0,0,0,0-6.09,5.63,5.63,0,0,0-3.73-1.08h-4.84l.5-.54Zm9.45,5.43-4-5.52h1.26l4,5.52Z"/><path class="cls-3" d="M229.84,282.14V266.93H231v15.21Z"/><path class="cls-3" d="M242.68,282.25a8.28,8.28,0,0,1-3.14-.58,7.43,7.43,0,0,1-2.51-1.62,7.31,7.31,0,0,1-1.65-2.44,8.31,8.31,0,0,1,0-6.15A7.34,7.34,0,0,1,237,269a7.63,7.63,0,0,1,2.51-1.62,8.22,8.22,0,0,1,3.13-.58,8.73,8.73,0,0,1,3,.52,6.31,6.31,0,0,1,2.4,1.59l-.69.72a6,6,0,0,0-2.17-1.38,7.54,7.54,0,0,0-5.21.07,6.54,6.54,0,0,0-2.17,1.42,6.33,6.33,0,0,0-1.44,2.12,7.17,7.17,0,0,0,0,5.31,6.47,6.47,0,0,0,1.44,2.13,6.67,6.67,0,0,0,2.17,1.41,7.54,7.54,0,0,0,5.21.07,5.9,5.9,0,0,0,2.17-1.4l.69.72a6.45,6.45,0,0,1-2.4,1.6A8.5,8.5,0,0,1,242.68,282.25Z"/><path class="cls-3" d="M248.85,282.14l7-15.21H257l7,15.21h-1.19l-6.61-14.51h.48l-6.58,14.51Zm2.57-4.28.36-.94h9.11l.37.94Z"/><line class="cls-5" x1="270.4" y1="280.44" x2="319.84" y2="280.44"/><circle class="cls-3" cx="305.69" cy="548.64" r="5.07"/><circle class="cls-3" cx="305.73" cy="35.24" r="5.03"/></svg>