<svg id="Capa_1" data-name="Capa 1" xmlns="http://www.w3.org/2000/svg" viewBox="0 0 597.11 791.42"><defs><style>.cls-1{opacity:0.6;}.cls-2{font-size:91.73px;fill:#502400;font-family:PlayfairDisplay-Regular, Playfair Display;letter-spacing:-0.05em;}.cls-3{letter-spacing:-0.1em;}.cls-4{letter-spacing:-0.05em;}.cls-5{letter-spacing:-0.07em;}.cls-6{letter-spacing:-0.07em;}.cls-7{fill:#fff;}.cls-8,.cls-9{fill:none;stroke:#fff;stroke-miterlimit:10;}.cls-8{stroke-width:9.81px;}.cls-9{stroke-width:1.96px;}</style></defs><title>SAVE THE DATE</title><g class="cls-1"><text class="cls-2" transform="translate(-11.7 407.77) scale(0.95 1)">S<tspan class="cls-3" x="44.49" y="0">A</tspan><tspan class="cls-4" x="93.1" y="0">VE </tspan><tspan class="cls-5" x="215.84" y="0"> </tspan><tspan class="cls-4" x="231.89" y="0" xml:space="preserve">THE  </tspan><tspan class="cls-6" x="436.9" y="0">D</tspan><tspan class="cls-3" x="496.7" y="0">A</tspan><tspan class="cls-4" x="545.32" y="0">TE</tspan></text></g><path class="cls-7" d="M297.36,283.05c-.88-1.6-1.33-4-1.33-7.16V218a76.52,76.52,0,0,0-1.67-17.2,23.45,23.45,0,0,0-7.08-12.2,26.14,26.14,0,0,0-10-5.73,47.17,47.17,0,0,0-14.59-2,57.1,57.1,0,0,0-17.2,2.4,46.14,46.14,0,0,0-12.4,5.73,33.9,33.9,0,0,0-6.88,6.25,13.47,13.47,0,0,0-2.71,8.76,14.29,14.29,0,0,0,2.82,8.65q2.81,3.85,8.85,3.86a12.21,12.21,0,0,0,8.55-3,10.55,10.55,0,0,0,3.34-8.23,12.51,12.51,0,0,0-9.8-12.72,16.6,16.6,0,0,1,9.48-6A47,47,0,0,1,257.89,185a29,29,0,0,1,9.79,1.56,13.08,13.08,0,0,1,7,6.15q2.59,4.59,2.6,13.34V219a9.45,9.45,0,0,1-4.27,7.92,46.15,46.15,0,0,1-10.94,5.63q-6.67,2.49-14.08,5.1a95.91,95.91,0,0,0-14.07,6.26A33.5,33.5,0,0,0,223,253.28q-4.28,5.73-4.27,14.48,0,11.26,6.15,18t19.69,6.77a43,43,0,0,0,17.62-3.75q8.44-3.75,15.11-14.8a23.67,23.67,0,0,0,3.55,12.92q3.54,5.64,14.38,5.63c1.06,0,2.06,0,3-.13A12.17,12.17,0,0,1,297.36,283.05Zm-20.09-14.66q-5.2,8.55-11.25,12.19a23.51,23.51,0,0,1-12.3,3.65,16.29,16.29,0,0,1-11.88-4.69q-4.8-4.68-4.8-14.28,0-10.2,5-15.73a36.87,36.87,0,0,1,12-8.76q7-3.22,13.55-5.94a20.89,20.89,0,0,0,9.69-7.3Z"/><path class="cls-7" d="M373.09,524.72q-11.26-14.07-28.35-14.07a33.42,33.42,0,0,0-24.08,9.8,38.12,38.12,0,0,0-8.44,12.45V457.71a59.44,59.44,0,0,1-10.11,2.19c-2.76.36-5.61.59-8.57.68a12.33,12.33,0,0,1,0,7.17,12.11,12.11,0,0,1-1.08,6.29,33.75,33.75,0,0,1,1,8.68v128a59.31,59.31,0,0,1-.31,6.15A35.22,35.22,0,0,1,292,622.8l3.54,1.46,5.63-4.8c1.81-1.52,3.65-3.09,5.53-4.69l3.62-3.07a34,34,0,0,0,7.42,6.2,38,38,0,0,0,20.12,5.94A44.82,44.82,0,0,0,361,617.59q10.63-6.26,17-18.87t6.35-31.37Q384.34,538.79,373.09,524.72Zm-15.95,81.72q-7,12.62-20.95,12.61A33.58,33.58,0,0,1,320.35,615a31.4,31.4,0,0,1-8.13-6.2V542.56q2.63-10.65,8.65-17,8.24-8.65,17.82-8.65a19.71,19.71,0,0,1,14.39,5.52q5.63,5.52,8.33,16.78t2.71,28.14Q364.12,593.83,357.14,606.44Z"/><line class="cls-8" x1="295.82" y1="150.21" x2="295.82" y2="654.05"/><line class="cls-9" x1="282.3" y1="360.33" x2="330.79" y2="360.33"/><path class="cls-7" d="M343.11,368.68v-.77l6.27-6.22a10.09,10.09,0,0,0,1.33-1.56,4,4,0,0,0,.77-2.36,2.74,2.74,0,0,0-1-2.21,4.13,4.13,0,0,0-2.79-.82,6.38,6.38,0,0,0-2.45.43,4.71,4.71,0,0,0-1.81,1.29l-.76-.68a5.49,5.49,0,0,1,2.15-1.5,7.64,7.64,0,0,1,2.95-.53,6.11,6.11,0,0,1,2.53.47,3.57,3.57,0,0,1,2.24,3.44,5.16,5.16,0,0,1-.2,1.41,5.43,5.43,0,0,1-.72,1.45,12.85,12.85,0,0,1-1.5,1.74l-5.88,5.87-.36-.43h9.38v1Z"/><path class="cls-7" d="M354.53,364.57v-.79l8-9.93h1.21l-8,9.93-.59-.17h12v1Zm8.45,4.11v-4.11l0-1V360h1v8.69Z"/><path class="cls-7" d="M385.32,368.78a5.12,5.12,0,0,1-3-.91,5.9,5.9,0,0,1-2.05-2.59,11.12,11.12,0,0,1,0-8,5.9,5.9,0,0,1,2.05-2.59,5.43,5.43,0,0,1,6,0,6,6,0,0,1,2.05,2.59,11.26,11.26,0,0,1,0,8,6,6,0,0,1-2.05,2.59A5.08,5.08,0,0,1,385.32,368.78Zm0-1a4,4,0,0,0,2.47-.78,5,5,0,0,0,1.66-2.23,10.8,10.8,0,0,0,0-7,5,5,0,0,0-1.66-2.22,4.3,4.3,0,0,0-4.94,0,4.91,4.91,0,0,0-1.66,2.22,10.63,10.63,0,0,0,0,7,4.94,4.94,0,0,0,1.66,2.23A4.06,4.06,0,0,0,385.32,367.79Z"/><path class="cls-7" d="M393.15,368.68v-.77l6.27-6.22a10.09,10.09,0,0,0,1.33-1.56,4,4,0,0,0,.77-2.36,2.74,2.74,0,0,0-1-2.21,4.13,4.13,0,0,0-2.79-.82,6.38,6.38,0,0,0-2.45.43,4.71,4.71,0,0,0-1.81,1.29l-.76-.68a5.49,5.49,0,0,1,2.15-1.5,7.64,7.64,0,0,1,3-.53,6.11,6.11,0,0,1,2.53.47,3.57,3.57,0,0,1,2.24,3.44,5.16,5.16,0,0,1-.2,1.41,5.43,5.43,0,0,1-.72,1.45,12.85,12.85,0,0,1-1.5,1.74l-5.88,5.87-.36-.43h9.38v1Z"/><path class="cls-7" d="M416,368.68v-.77l6.27-6.22a10.09,10.09,0,0,0,1.33-1.56,4.12,4.12,0,0,0,.6-1.24,4,4,0,0,0,.16-1.12,2.74,2.74,0,0,0-.95-2.21,4.15,4.15,0,0,0-2.79-.82,6.35,6.35,0,0,0-2.45.43,4.71,4.71,0,0,0-1.81,1.29l-.76-.68a5.49,5.49,0,0,1,2.15-1.5,7.61,7.61,0,0,1,3-.53,6.14,6.14,0,0,1,2.53.47,3.77,3.77,0,0,1,1.65,1.36,3.65,3.65,0,0,1,.58,2.08,4.81,4.81,0,0,1-.2,1.41,4.89,4.89,0,0,1-.72,1.45,12,12,0,0,1-1.49,1.74l-5.89,5.87-.36-.43h9.39v1Z"/><path class="cls-7" d="M427.37,364.57v-.79l8.05-9.93h1.21l-8,9.93-.59-.17h12v1Zm8.45,4.11v-4.11l0-1V360h1v8.69Z"/><circle class="cls-7" cx="372.89" cy="361.52" r="1.19"/><circle class="cls-7" cx="408.44" cy="361.52" r="1.19"/><path class="cls-7" d="M93.82,394.34a6,6,0,0,1-2.13-.38,4,4,0,0,1-1.54-1l.33-.54a4,4,0,0,0,1.41.89,4.92,4.92,0,0,0,1.91.37,4.53,4.53,0,0,0,1.65-.26,2.16,2.16,0,0,0,1-.72,1.73,1.73,0,0,0,.31-1,1.52,1.52,0,0,0-.35-1,2.35,2.35,0,0,0-.9-.61,7.38,7.38,0,0,0-1.23-.39l-1.34-.34a6.16,6.16,0,0,1-1.23-.47,2.28,2.28,0,0,1-.9-.78,2.23,2.23,0,0,1-.34-1.29,2.5,2.5,0,0,1,.37-1.33,2.68,2.68,0,0,1,1.17-1,4.91,4.91,0,0,1,2-.37,5.55,5.55,0,0,1,1.65.25A4.42,4.42,0,0,1,97,385l-.27.59a4.7,4.7,0,0,0-1.36-.64,5,5,0,0,0-1.4-.21,4.08,4.08,0,0,0-1.6.27,2.06,2.06,0,0,0-.93.73,1.72,1.72,0,0,0-.31,1,1.55,1.55,0,0,0,.34,1,2.49,2.49,0,0,0,.9.62,9.06,9.06,0,0,0,1.24.39c.45.1.9.22,1.34.34a6.3,6.3,0,0,1,1.22.46,2.46,2.46,0,0,1,.91.78,2.16,2.16,0,0,1,.34,1.27,2.36,2.36,0,0,1-.39,1.31,2.64,2.64,0,0,1-1.18,1A4.88,4.88,0,0,1,93.82,394.34Z"/><path class="cls-7" d="M98.25,394.27l4.63-10.08h.74l4.63,10.08h-.79l-4.38-9.62h.32L99,394.27Zm1.7-2.84.24-.62h6l.25.62Z"/><path class="cls-7" d="M110.08,394.27V384.19h.62l7.18,9.17h-.33v-9.17h.73v10.08h-.6l-7.2-9.17h.33v9.17Z"/><path class="cls-7" d="M126.4,394.34a3.21,3.21,0,0,1-1.53-.38,3.09,3.09,0,0,1-1.15-1.06l.45-.49a2.91,2.91,0,0,0,1,.94,2.46,2.46,0,0,0,1.25.33c1.33,0,2-.79,2-2.38v-6.44h-3.71v-.67h4.44v7.11a3.31,3.31,0,0,1-.69,2.28A2.64,2.64,0,0,1,126.4,394.34Z"/><path class="cls-7" d="M136.83,394.34a5.66,5.66,0,0,1-2.08-.38,5.22,5.22,0,0,1-1.67-1.08,5,5,0,0,1-1.1-1.63,5.43,5.43,0,0,1,0-4,5,5,0,0,1,1.1-1.63,5.22,5.22,0,0,1,1.67-1.08,5.88,5.88,0,0,1,4.16,0,5,5,0,0,1,1.66,1.07,4.9,4.9,0,0,1,1.1,1.62,5.4,5.4,0,0,1,0,4.08,4.9,4.9,0,0,1-1.1,1.62,5,5,0,0,1-1.66,1.07A5.66,5.66,0,0,1,136.83,394.34Zm0-.68a4.79,4.79,0,0,0,1.79-.33,4.27,4.27,0,0,0,1.42-.93,4.42,4.42,0,0,0,1.28-3.17,4.42,4.42,0,0,0-1.28-3.17,4.27,4.27,0,0,0-1.42-.93,4.79,4.79,0,0,0-1.79-.33,4.7,4.7,0,0,0-1.78.33,4.21,4.21,0,0,0-1.43.93,4.41,4.41,0,0,0-1,1.41,4.56,4.56,0,0,0-.33,1.76,4.63,4.63,0,0,0,.33,1.76,4.52,4.52,0,0,0,1,1.41,4.21,4.21,0,0,0,1.43.93A4.7,4.7,0,0,0,136.83,393.66Z"/><path class="cls-7" d="M147.27,394.34a6,6,0,0,1-2.13-.38,4,4,0,0,1-1.54-1l.33-.54a4.12,4.12,0,0,0,1.41.89,4.92,4.92,0,0,0,1.91.37,4.53,4.53,0,0,0,1.65-.26,2.11,2.11,0,0,0,.95-.72,1.66,1.66,0,0,0,.31-1,1.52,1.52,0,0,0-.35-1,2.35,2.35,0,0,0-.9-.61,7.38,7.38,0,0,0-1.23-.39l-1.34-.34a6.16,6.16,0,0,1-1.23-.47,2.28,2.28,0,0,1-.9-.78,2.23,2.23,0,0,1-.34-1.29,2.5,2.5,0,0,1,.37-1.33,2.68,2.68,0,0,1,1.17-1,4.91,4.91,0,0,1,2-.37,5.51,5.51,0,0,1,1.65.25,4.59,4.59,0,0,1,1.39.66l-.28.59a4.58,4.58,0,0,0-1.36-.64,5,5,0,0,0-1.4-.21,4.11,4.11,0,0,0-1.6.27,2.06,2.06,0,0,0-.93.73,1.72,1.72,0,0,0-.31,1,1.55,1.55,0,0,0,.34,1,2.49,2.49,0,0,0,.9.62,9.52,9.52,0,0,0,1.24.39c.45.1.9.22,1.34.34a6.3,6.3,0,0,1,1.22.46,2.46,2.46,0,0,1,.91.78,2.16,2.16,0,0,1,.34,1.27,2.36,2.36,0,0,1-.39,1.31,2.58,2.58,0,0,1-1.18,1A4.88,4.88,0,0,1,147.27,394.34Z"/><path class="cls-7" d="M154.12,393.61h6.21v.66h-7V384.19h6.74v.67h-6Zm-.09-4.78h5.46v.64H154Zm1.91-5.46,2-1.7h1l-2.26,1.7Z"/><path class="cls-7" d="M162.23,396.32l.56-2.43.08.42a.65.65,0,0,1-.46-.17.58.58,0,0,1-.18-.43.59.59,0,0,1,.18-.44.61.61,0,0,1,.43-.17.57.57,0,0,1,.44.18.6.6,0,0,1,.16.43,1.41,1.41,0,0,1,0,.2,1.94,1.94,0,0,1-.05.2,2.67,2.67,0,0,1-.07.26l-.56,1.95Z"/><path class="cls-7" d="M174,394.34a5.66,5.66,0,0,1-2.08-.38,5,5,0,0,1-1.66-1.07,4.73,4.73,0,0,1-1.09-1.62,5.53,5.53,0,0,1,0-4.08,4.61,4.61,0,0,1,1.1-1.62,5.15,5.15,0,0,1,1.66-1.07,5.56,5.56,0,0,1,2.07-.38,5.62,5.62,0,0,1,2,.35,4.21,4.21,0,0,1,1.6,1l-.47.47a3.91,3.91,0,0,0-1.43-.91,5,5,0,0,0-3.45.05,4.25,4.25,0,0,0-2.39,2.34,4.73,4.73,0,0,0,0,3.52,4.25,4.25,0,0,0,2.39,2.34,5,5,0,0,0,3.45.05,3.72,3.72,0,0,0,1.43-.93l.47.48A4.35,4.35,0,0,1,176,394,5.62,5.62,0,0,1,174,394.34Z"/><path class="cls-7" d="M184.09,394.34A5.69,5.69,0,0,1,182,394a5.18,5.18,0,0,1-1.66-1.08,4.92,4.92,0,0,1-1.11-1.63,5.56,5.56,0,0,1,0-4,4.92,4.92,0,0,1,1.11-1.63A5.18,5.18,0,0,1,182,384.5a5.69,5.69,0,0,1,2.08-.38,5.62,5.62,0,0,1,2.08.38,4.91,4.91,0,0,1,2.77,2.69,5.53,5.53,0,0,1,0,4.08,4.91,4.91,0,0,1-2.77,2.69A5.62,5.62,0,0,1,184.09,394.34Zm0-.68a4.75,4.75,0,0,0,1.79-.33,4.17,4.17,0,0,0,1.42-.93,4.49,4.49,0,0,0,.95-1.41,4.63,4.63,0,0,0,.33-1.76,4.56,4.56,0,0,0-.33-1.76,4.38,4.38,0,0,0-.95-1.41,4.17,4.17,0,0,0-1.42-.93,5,5,0,0,0-3.57,0,4.31,4.31,0,0,0-1.43.93,4.23,4.23,0,0,0-.95,1.41,4.38,4.38,0,0,0-.34,1.76,4.45,4.45,0,0,0,.34,1.76,4.27,4.27,0,0,0,2.38,2.34A4.74,4.74,0,0,0,184.09,393.66Z"/><path class="cls-7" d="M194.53,394.34a6,6,0,0,1-2.12-.38,4,4,0,0,1-1.55-1l.33-.54a4.17,4.17,0,0,0,1.42.89,4.87,4.87,0,0,0,1.9.37,4.45,4.45,0,0,0,1.65-.26,2.05,2.05,0,0,0,1-.72,1.66,1.66,0,0,0,.31-1,1.52,1.52,0,0,0-.34-1,2.39,2.39,0,0,0-.91-.61,7,7,0,0,0-1.22-.39l-1.34-.34a6.26,6.26,0,0,1-1.24-.47,2.43,2.43,0,0,1-.9-.78,2.31,2.31,0,0,1-.34-1.29,2.51,2.51,0,0,1,.38-1.33,2.65,2.65,0,0,1,1.16-1,4.94,4.94,0,0,1,2-.37,5.46,5.46,0,0,1,1.65.25,4.59,4.59,0,0,1,1.39.66l-.28.59a4.58,4.58,0,0,0-1.36-.64,5,5,0,0,0-1.4-.21,4.14,4.14,0,0,0-1.6.27,2.06,2.06,0,0,0-.93.73,1.79,1.79,0,0,0-.3,1,1.5,1.5,0,0,0,.34,1,2.36,2.36,0,0,0,.89.62,9.52,9.52,0,0,0,1.24.39c.45.1.9.22,1.34.34a6.3,6.3,0,0,1,1.22.46,2.39,2.39,0,0,1,.91.78,2.17,2.17,0,0,1,.35,1.27,2.36,2.36,0,0,1-.39,1.31,2.67,2.67,0,0,1-1.19,1A4.85,4.85,0,0,1,194.53,394.34Z"/><path class="cls-7" d="M202.43,394.27v-9.41H198.8v-.67h8v.67h-3.63v9.41Z"/><path class="cls-7" d="M206.42,394.27l4.63-10.08h.74l4.63,10.08h-.79l-4.38-9.62h.32l-4.36,9.62Zm1.7-2.84.24-.62h6l.24.62Z"/><path class="cls-7" d="M222,394.27V384.19h3.61a5.28,5.28,0,0,1,2.17.41,3.13,3.13,0,0,1,1.4,1.15,3.39,3.39,0,0,1,.49,1.84,3.33,3.33,0,0,1-.49,1.81,3.22,3.22,0,0,1-1.4,1.16,5.28,5.28,0,0,1-2.17.41h-3.21l.33-.34v3.64Zm.73-3.6-.33-.35h3.21a3.73,3.73,0,0,0,2.47-.72,2.84,2.84,0,0,0,0-4,3.73,3.73,0,0,0-2.47-.71h-3.21l.33-.37Zm6.26,3.6-2.62-3.66h.84l2.61,3.66Z"/><path class="cls-7" d="M232.31,394.27V384.19H233v10.08Z"/><path class="cls-7" d="M240.81,394.34a5.66,5.66,0,0,1-2.08-.38,5,5,0,0,1-1.66-1.07,4.87,4.87,0,0,1-1.09-1.62,5.53,5.53,0,0,1,0-4.08,4.75,4.75,0,0,1,1.1-1.62,5.15,5.15,0,0,1,1.66-1.07,5.56,5.56,0,0,1,2.07-.38,5.72,5.72,0,0,1,2,.35,4.17,4.17,0,0,1,1.59,1l-.46.47a4,4,0,0,0-1.44-.91,5,5,0,0,0-3.45.05,4.35,4.35,0,0,0-1.44.93,4.49,4.49,0,0,0-1,1.41,4.73,4.73,0,0,0,0,3.52,4.49,4.49,0,0,0,1,1.41,4.35,4.35,0,0,0,1.44.93,5,5,0,0,0,3.45.05,3.83,3.83,0,0,0,1.44-.93l.46.48a4.31,4.31,0,0,1-1.59,1.06A5.72,5.72,0,0,1,240.81,394.34Z"/><path class="cls-7" d="M244.9,394.27l4.63-10.08h.74l4.63,10.08h-.79l-4.37-9.62h.31l-4.36,9.62Zm1.7-2.84.24-.62h6l.25.62Z"/><line class="cls-9" x1="261.19" y1="390.66" x2="309.68" y2="390.66"/><circle class="cls-7" cx="295.8" cy="653.7" r="4.97"/><circle class="cls-7" cx="295.84" cy="150.18" r="4.94"/></svg>