<svg id="Capa_1" data-name="Capa 1" xmlns="http://www.w3.org/2000/svg" viewBox="0 0 722.88 791.42"><defs><style>.cls-1{fill:#020;}.cls-2{opacity:0.6;}.cls-3{font-size:106.13px;fill:#502400;font-family:PlayfairDisplay-Regular, Playfair Display;letter-spacing:-0.05em;}.cls-4{letter-spacing:-0.1em;}.cls-5{letter-spacing:-0.05em;}.cls-6{letter-spacing:-0.07em;}.cls-7{letter-spacing:-0.07em;}.cls-8{letter-spacing:-0.1em;}.cls-9{fill:#fff;}.cls-10,.cls-11{fill:none;stroke:#fff;stroke-miterlimit:10;}.cls-10{stroke-width:9.81px;}.cls-11{stroke-width:1.96px;}</style></defs><title>SAVE THE DATE</title><rect class="cls-1" y="-7.16" width="722.88" height="798.59"/><g class="cls-2"><text class="cls-3" transform="translate(1.81 415.5) scale(0.95 1)">S<tspan class="cls-4" x="51.48" y="0">A</tspan><tspan class="cls-5" x="107.73" y="0">VE </tspan><tspan class="cls-6" x="249.73" y="0"> </tspan><tspan class="cls-5" x="268.31" y="0" xml:space="preserve">THE  </tspan><tspan class="cls-7" x="505.51" y="0">D</tspan><tspan class="cls-8" x="574.71" y="0">A</tspan><tspan class="cls-5" x="630.96" y="0">TE</tspan></text></g><path class="cls-9" d="M367.29,236.91q-1.8-3.24-1.8-9.69V148.69a104.15,104.15,0,0,0-2.26-23.3,31.83,31.83,0,0,0-9.6-16.53,35.56,35.56,0,0,0-13.56-7.77,64.32,64.32,0,0,0-19.78-2.68,77.58,77.58,0,0,0-23.3,3.25,62.34,62.34,0,0,0-16.81,7.77,45.65,45.65,0,0,0-9.32,8.47q-3.67,4.53-3.67,11.87A19.4,19.4,0,0,0,271,141.49c2.54,3.49,6.54,5.22,12,5.22a16.61,16.61,0,0,0,11.58-4.09q4.52-4.1,4.52-11.16a17,17,0,0,0-13.28-17.23A22.53,22.53,0,0,1,298.68,106a63.5,63.5,0,0,1,15.12-2,39.3,39.3,0,0,1,13.27,2.12,17.63,17.63,0,0,1,9.47,8.33q3.52,6.22,3.53,18.08v17.52c0,4.33-1.94,7.9-5.79,10.73a62.51,62.51,0,0,1-14.83,7.63q-9,3.39-19.07,6.92a129,129,0,0,0-19.07,8.47,45.42,45.42,0,0,0-14.83,12.71q-5.79,7.77-5.79,19.63,0,15.26,8.33,24.44t26.7,9.18a58.17,58.17,0,0,0,23.87-5.08q11.43-5.1,20.48-20.06a32.16,32.16,0,0,0,4.8,17.51q4.8,7.63,19.49,7.63c1.44,0,2.8-.06,4.09-.17A16.55,16.55,0,0,1,367.29,236.91Zm-27.22-19.86q-7.06,11.59-15.26,16.53a31.94,31.94,0,0,1-16.66,4.94,22.1,22.1,0,0,1-16.1-6.36q-6.51-6.34-6.5-19.34,0-13.84,6.78-21.33a50.11,50.11,0,0,1,16.24-11.87q9.46-4.37,18.36-8.05t13.14-9.88Z"/><path class="cls-9" d="M460.92,559.84q-14-17.52-35.28-17.51a41.58,41.58,0,0,0-30,12.19A47.48,47.48,0,0,0,385.16,570V476.43a72.6,72.6,0,0,1-12.58,2.72,103.64,103.64,0,0,1-10.66.85,15.4,15.4,0,0,1,0,8.92,15.14,15.14,0,0,1-1.34,7.84,42.38,42.38,0,0,1,1.21,10.8v159.3a74.2,74.2,0,0,1-.39,7.65A42.12,42.12,0,0,1,360,681.9l4.41,1.82q3.63-3.12,7-6l6.88-5.83c1.53-1.31,3-2.57,4.51-3.83a42.06,42.06,0,0,0,9.24,7.72,47.23,47.23,0,0,0,25,7.39,55.77,55.77,0,0,0,28.79-7.78q13.23-7.78,21.15-23.48t7.91-39.05Q474.93,577.36,460.92,559.84Zm-19.85,101.7q-8.69,15.69-26.07,15.69a41.72,41.72,0,0,1-19.72-5.06,39.16,39.16,0,0,1-10.12-7.71V582q3.27-13.26,10.77-21.17,10.24-10.75,22.18-10.76,10.9,0,17.9,6.87t10.38,20.89q3.38,14,3.37,35Q449.76,645.85,441.07,661.54Z"/><line class="cls-10" x1="363.49" y1="63.08" x2="363.49" y2="724.04"/><line class="cls-11" x1="349.97" y1="360.33" x2="398.46" y2="360.33"/><path class="cls-9" d="M411.56,379.78v-1.44l11.86-11.78a20.36,20.36,0,0,0,2.52-2.95,8.68,8.68,0,0,0,1.15-2.34,7.92,7.92,0,0,0,.3-2.12,5.2,5.2,0,0,0-1.81-4.19,7.9,7.9,0,0,0-5.28-1.54,12.36,12.36,0,0,0-4.63.8,9,9,0,0,0-3.43,2.44l-1.44-1.28a10.42,10.42,0,0,1,4.07-2.84,14.66,14.66,0,0,1,5.59-1,11.68,11.68,0,0,1,4.78.91,7.12,7.12,0,0,1,3.13,2.56,7,7,0,0,1,1.1,3.95,9.61,9.61,0,0,1-.38,2.66,10.1,10.1,0,0,1-1.36,2.74,23.73,23.73,0,0,1-2.83,3.29l-11.14,11.1-.68-.8h17.75v1.84Z"/><path class="cls-9" d="M433.15,372v-1.49l15.23-18.78h2.28l-15.18,18.78-1.12-.32H457V372Zm16,7.77V372l0-1.81v-6.85h2v16.43Z"/><path class="cls-9" d="M491.4,380a9.83,9.83,0,0,1-5.69-1.72,11.4,11.4,0,0,1-3.88-4.91,21.3,21.3,0,0,1,0-15.19,11.37,11.37,0,0,1,3.88-4.9,10.26,10.26,0,0,1,11.4,0,11.49,11.49,0,0,1,3.87,4.9,21.3,21.3,0,0,1,0,15.19,11.53,11.53,0,0,1-3.87,4.91A9.75,9.75,0,0,1,491.4,380Zm0-1.88a7.72,7.72,0,0,0,4.69-1.47,9.42,9.42,0,0,0,3.12-4.22,20.19,20.19,0,0,0,0-13.32,9.5,9.5,0,0,0-3.12-4.21,8.21,8.21,0,0,0-9.35,0,9.48,9.48,0,0,0-3.15,4.21,20.36,20.36,0,0,0,0,13.32,9.4,9.4,0,0,0,3.15,4.22A7.7,7.7,0,0,0,491.4,378.1Z"/><path class="cls-9" d="M506.22,379.78v-1.44l11.86-11.78a20.52,20.52,0,0,0,2.53-2.95,8.33,8.33,0,0,0,1.14-2.34,7.92,7.92,0,0,0,.3-2.12,5.23,5.23,0,0,0-1.8-4.19,8,8,0,0,0-5.29-1.54,12.4,12.4,0,0,0-4.63.8,9,9,0,0,0-3.42,2.44l-1.45-1.28a10.49,10.49,0,0,1,4.07-2.84,14.7,14.7,0,0,1,5.59-1,11.73,11.73,0,0,1,4.79.91A7.09,7.09,0,0,1,523,355a7,7,0,0,1,1.1,3.95,9.61,9.61,0,0,1-.38,2.66,9.82,9.82,0,0,1-1.36,2.74,24.27,24.27,0,0,1-2.82,3.29l-11.14,11.1-.68-.8h17.74v1.84Z"/><path class="cls-9" d="M549.37,379.78v-1.44l11.86-11.78a20.36,20.36,0,0,0,2.52-2.95,8.33,8.33,0,0,0,1.14-2.34,7.92,7.92,0,0,0,.3-2.12,5.23,5.23,0,0,0-1.8-4.19,7.91,7.91,0,0,0-5.29-1.54,12.34,12.34,0,0,0-4.62.8,8.93,8.93,0,0,0-3.43,2.44l-1.44-1.28a10.45,10.45,0,0,1,4.06-2.84,14.73,14.73,0,0,1,5.59-1,11.7,11.7,0,0,1,4.79.91,7,7,0,0,1,3.12,2.56,6.94,6.94,0,0,1,1.11,3.95,9.61,9.61,0,0,1-.38,2.66,9.87,9.87,0,0,1-1.37,2.74,22.9,22.9,0,0,1-2.82,3.29l-11.14,11.1-.68-.8h17.75v1.84Z"/><path class="cls-9" d="M571,372v-1.49l15.23-18.78h2.28l-15.18,18.78-1.12-.32h22.67V372Zm16,7.77V372l0-1.81v-6.85h2v16.43Z"/><circle class="cls-9" cx="468.69" cy="367.56" r="1.76"/><circle class="cls-9" cx="537.52" cy="367.56" r="1.76"/><path class="cls-9" d="M40.47,398a10.48,10.48,0,0,1-3.72-.66,7,7,0,0,1-2.7-1.73l.58-1a7.21,7.21,0,0,0,2.48,1.58,8.71,8.71,0,0,0,3.34.64,7.6,7.6,0,0,0,2.88-.47A3.62,3.62,0,0,0,45,395.17a2.93,2.93,0,0,0,.55-1.74,2.67,2.67,0,0,0-.61-1.82,4.22,4.22,0,0,0-1.59-1.08,13.77,13.77,0,0,0-2.14-.68c-.77-.19-1.55-.38-2.34-.59a11.36,11.36,0,0,1-2.17-.82,4.2,4.2,0,0,1-1.57-1.38,3.86,3.86,0,0,1-.6-2.25,4.31,4.31,0,0,1,.66-2.32,4.6,4.6,0,0,1,2-1.71,8.27,8.27,0,0,1,3.55-.66,9.82,9.82,0,0,1,2.89.43,8.07,8.07,0,0,1,2.43,1.16l-.48,1a8.23,8.23,0,0,0-2.38-1.12,9,9,0,0,0-2.46-.36,7,7,0,0,0-2.79.48A3.54,3.54,0,0,0,36.34,383a3.15,3.15,0,0,0-.53,1.77,2.71,2.71,0,0,0,.59,1.82A4.18,4.18,0,0,0,38,387.68a13.37,13.37,0,0,0,2.16.68c.79.19,1.57.38,2.35.59a11.59,11.59,0,0,1,2.14.82,4.47,4.47,0,0,1,1.59,1.36,3.8,3.8,0,0,1,.6,2.22,4.29,4.29,0,0,1-.68,2.31,4.72,4.72,0,0,1-2.08,1.71A8.61,8.61,0,0,1,40.47,398Z"/><path class="cls-9" d="M48.23,397.89l8.12-17.64h1.28l8.12,17.64H64.36L56.7,381.05h.55l-7.63,16.84Zm3-5,.42-1.08H62.19l.43,1.08Z"/><path class="cls-9" d="M69,397.89V380.25H70L82.6,396.3H82V380.25h1.29v17.64H82.25l-12.6-16.05h.58v16.05Z"/><path class="cls-9" d="M97.52,398a5.63,5.63,0,0,1-2.68-.66,5.44,5.44,0,0,1-2-1.86l.79-.85a5.18,5.18,0,0,0,1.72,1.65,4.29,4.29,0,0,0,2.18.56c2.34,0,3.5-1.38,3.5-4.15V381.41h-6.5v-1.16h7.79V392.7a5.74,5.74,0,0,1-1.21,4A4.59,4.59,0,0,1,97.52,398Z"/><path class="cls-9" d="M115.79,398a9.85,9.85,0,0,1-3.64-.66,8.86,8.86,0,0,1-2.92-1.89,8.51,8.51,0,0,1-1.93-2.85,9.55,9.55,0,0,1,0-7.08,8.32,8.32,0,0,1,1.93-2.85,8.7,8.7,0,0,1,2.92-1.89,10.22,10.22,0,0,1,7.28,0,8.69,8.69,0,0,1,2.91,1.88,8.53,8.53,0,0,1,1.93,2.83,9.55,9.55,0,0,1,0,7.13,8.57,8.57,0,0,1-1.93,2.84,8.69,8.69,0,0,1-2.91,1.88A9.85,9.85,0,0,1,115.79,398Zm0-1.18a8.22,8.22,0,0,0,3.13-.58,7.5,7.5,0,0,0,4.14-4.11,8.33,8.33,0,0,0,0-6.16,7.6,7.6,0,0,0-1.65-2.46,7.37,7.37,0,0,0-2.49-1.63,8.71,8.71,0,0,0-6.25,0A7.48,7.48,0,0,0,108.5,386a8.21,8.21,0,0,0,0,6.16,7.32,7.32,0,0,0,1.66,2.47,7.48,7.48,0,0,0,2.51,1.64A8.17,8.17,0,0,0,115.79,396.83Z"/><path class="cls-9" d="M134.06,398a10.48,10.48,0,0,1-3.72-.66,7,7,0,0,1-2.71-1.73l.58-1a7.36,7.36,0,0,0,2.49,1.58,8.7,8.7,0,0,0,3.33.64,7.62,7.62,0,0,0,2.89-.47,3.62,3.62,0,0,0,1.66-1.24,3,3,0,0,0,.55-1.74,2.67,2.67,0,0,0-.61-1.82,4.22,4.22,0,0,0-1.59-1.08,13.77,13.77,0,0,0-2.14-.68c-.77-.19-1.55-.38-2.34-.59a11.11,11.11,0,0,1-2.17-.82,4.2,4.2,0,0,1-1.57-1.38,3.86,3.86,0,0,1-.6-2.25,4.31,4.31,0,0,1,.66-2.32,4.49,4.49,0,0,1,2-1.71,8.27,8.27,0,0,1,3.55-.66,9.82,9.82,0,0,1,2.89.43,8.07,8.07,0,0,1,2.43,1.16l-.48,1a8.23,8.23,0,0,0-2.38-1.12,9,9,0,0,0-2.46-.36,7.11,7.11,0,0,0-2.8.48,3.56,3.56,0,0,0-1.63,1.27,3.07,3.07,0,0,0-.53,1.77,2.66,2.66,0,0,0,.59,1.82,4.14,4.14,0,0,0,1.57,1.08,13.83,13.83,0,0,0,2.17.68c.79.19,1.57.38,2.35.59a11.59,11.59,0,0,1,2.14.82,4.36,4.36,0,0,1,1.58,1.36,3.73,3.73,0,0,1,.61,2.22,4.29,4.29,0,0,1-.68,2.31,4.72,4.72,0,0,1-2.08,1.71A8.61,8.61,0,0,1,134.06,398Z"/><path class="cls-9" d="M146.05,396.73h10.89v1.16H144.77V380.25h11.79v1.16H146.05Zm-.15-8.37h9.55v1.14H145.9Zm3.35-9.55,3.51-3h1.81l-3.95,3Z"/><path class="cls-9" d="M160.27,401.49l1-4.26.13.73a1.12,1.12,0,0,1-.8-.3,1.07,1.07,0,0,1,0-1.51,1,1,0,0,1,.74-.3,1,1,0,0,1,.77.31,1,1,0,0,1,.29.74c0,.12,0,.24,0,.36a2.49,2.49,0,0,1-.08.35l-.12.45-1,3.43Z"/><path class="cls-9" d="M180.85,398a9.85,9.85,0,0,1-3.64-.66,8.89,8.89,0,0,1-2.91-1.88,8.51,8.51,0,0,1-1.91-2.84,9.69,9.69,0,0,1,0-7.13,8.24,8.24,0,0,1,1.93-2.83,8.89,8.89,0,0,1,2.91-1.88,9.52,9.52,0,0,1,3.62-.67,9.74,9.74,0,0,1,3.49.61,7.06,7.06,0,0,1,2.79,1.84l-.81.83a6.88,6.88,0,0,0-2.5-1.6,8.55,8.55,0,0,0-2.91-.49,8.28,8.28,0,0,0-3.14.58,7.43,7.43,0,0,0-4.18,4.1,8.18,8.18,0,0,0,0,6.15,7.32,7.32,0,0,0,1.66,2.47,7.43,7.43,0,0,0,2.52,1.64,8.28,8.28,0,0,0,3.14.58,8.55,8.55,0,0,0,2.91-.49,6.71,6.71,0,0,0,2.5-1.63l.81.83a7.32,7.32,0,0,1-2.79,1.86A9.74,9.74,0,0,1,180.85,398Z"/><path class="cls-9" d="M198.54,398a9.85,9.85,0,0,1-3.64-.66,9,9,0,0,1-2.92-1.89,8.66,8.66,0,0,1-1.93-2.85,9.55,9.55,0,0,1,0-7.08,8.46,8.46,0,0,1,1.93-2.85,8.8,8.8,0,0,1,2.92-1.89,10.25,10.25,0,0,1,7.29,0,8.89,8.89,0,0,1,2.91,1.88A8.65,8.65,0,0,1,207,385.5a9.43,9.43,0,0,1,0,7.13,8.69,8.69,0,0,1-1.92,2.84,8.89,8.89,0,0,1-2.91,1.88A9.91,9.91,0,0,1,198.54,398Zm0-1.18a8.22,8.22,0,0,0,3.13-.58,7.3,7.3,0,0,0,2.49-1.64,7.44,7.44,0,0,0,1.65-2.47,8.21,8.21,0,0,0,0-6.16,7.6,7.6,0,0,0-1.65-2.46,7.27,7.27,0,0,0-2.49-1.63,8.71,8.71,0,0,0-6.25,0,7.56,7.56,0,0,0-2.51,1.63,7.63,7.63,0,0,0-1.66,2.46,8.33,8.33,0,0,0,0,6.16,7.47,7.47,0,0,0,1.66,2.47,7.58,7.58,0,0,0,2.51,1.64A8.21,8.21,0,0,0,198.54,396.83Z"/><path class="cls-9" d="M216.81,398a10.39,10.39,0,0,1-3.71-.66,7,7,0,0,1-2.71-1.73l.58-1a7.21,7.21,0,0,0,2.48,1.58,8.71,8.71,0,0,0,3.34.64,7.57,7.57,0,0,0,2.88-.47,3.65,3.65,0,0,0,1.67-1.24,3,3,0,0,0,.54-1.74,2.62,2.62,0,0,0-.61-1.82,4.26,4.26,0,0,0-1.58-1.08,13.9,13.9,0,0,0-2.15-.68c-.77-.19-1.55-.38-2.34-.59a11.36,11.36,0,0,1-2.17-.82,4.2,4.2,0,0,1-1.57-1.38,3.86,3.86,0,0,1-.59-2.25,4.39,4.39,0,0,1,.65-2.32,4.6,4.6,0,0,1,2-1.71,8.32,8.32,0,0,1,3.56-.66,9.81,9.81,0,0,1,2.88.43,8.07,8.07,0,0,1,2.43,1.16l-.48,1a8.23,8.23,0,0,0-2.38-1.12,9,9,0,0,0-2.45-.36,7.07,7.07,0,0,0-2.8.48,3.54,3.54,0,0,0-1.64,1.27,3.15,3.15,0,0,0-.53,1.77,2.71,2.71,0,0,0,.59,1.82,4.18,4.18,0,0,0,1.58,1.08,13.5,13.5,0,0,0,2.17.68c.79.19,1.57.38,2.34.59a11.32,11.32,0,0,1,2.14.82,4.31,4.31,0,0,1,1.59,1.36,3.8,3.8,0,0,1,.6,2.22,4.2,4.2,0,0,1-.68,2.31,4.67,4.67,0,0,1-2.08,1.71A8.58,8.58,0,0,1,216.81,398Z"/><path class="cls-9" d="M230.65,397.89V381.41H224.3v-1.16h14v1.16h-6.35v16.48Z"/><path class="cls-9" d="M237.63,397.89l8.11-17.64H247l8.11,17.64h-1.38l-7.67-16.84h.56L239,397.89Zm3-5,.43-1.08h10.56l.43,1.08Z"/><path class="cls-9" d="M264.82,397.89V380.25h6.32a9.36,9.36,0,0,1,3.81.7,5.46,5.46,0,0,1,2.44,2,5.8,5.8,0,0,1,.86,3.21,5.71,5.71,0,0,1-.86,3.17,5.54,5.54,0,0,1-2.44,2,9.19,9.19,0,0,1-3.81.72h-5.62l.58-.61v6.38Zm1.28-6.3-.58-.61h5.62a6.47,6.47,0,0,0,4.32-1.26,5,5,0,0,0,0-7.07,6.53,6.53,0,0,0-4.32-1.24h-5.62l.58-.63Zm11,6.3-4.58-6.4h1.46l4.59,6.4Z"/><path class="cls-9" d="M283,397.89V380.25h1.29v17.64Z"/><path class="cls-9" d="M297.85,398a9.85,9.85,0,0,1-3.64-.66,8.79,8.79,0,0,1-2.91-1.88,8.51,8.51,0,0,1-1.91-2.84,9.69,9.69,0,0,1,0-7.13,8.35,8.35,0,0,1,1.92-2.83,9.1,9.1,0,0,1,2.91-1.88,9.57,9.57,0,0,1,3.63-.67,9.74,9.74,0,0,1,3.49.61,7.06,7.06,0,0,1,2.79,1.84l-.81.83a6.84,6.84,0,0,0-2.51-1.6,8.47,8.47,0,0,0-2.91-.49,8.26,8.26,0,0,0-3.13.58,7.4,7.4,0,0,0-2.52,1.63,7.6,7.6,0,0,0-1.67,2.47,8.31,8.31,0,0,0,0,6.15,7.55,7.55,0,0,0,4.19,4.11,8.26,8.26,0,0,0,3.13.58,8.47,8.47,0,0,0,2.91-.49,6.67,6.67,0,0,0,2.51-1.63l.81.83a7.32,7.32,0,0,1-2.79,1.86A9.74,9.74,0,0,1,297.85,398Z"/><path class="cls-9" d="M305,397.89l8.11-17.64h1.29l8.11,17.64h-1.38l-7.66-16.84H314l-7.63,16.84Zm3-5,.43-1.08H319l.43,1.08Z"/><line class="cls-11" x1="328.87" y1="390.66" x2="377.36" y2="390.66"/><circle class="cls-9" cx="363.48" cy="653.7" r="4.97"/><circle class="cls-9" cx="363.52" cy="150.18" r="4.94"/></svg>