<svg id="Capa_1" data-name="Capa 1" xmlns="http://www.w3.org/2000/svg" viewBox="0 0 597.11 791.42"><defs><style>.cls-1{fill:#fff;}.cls-2{fill:none;stroke:#fff;stroke-miterlimit:10;stroke-width:10px;}</style></defs><title>SAVE THE DATE</title><path class="cls-1" d="M294.31,275.24Q293,272.8,293,268V208.86a78.71,78.71,0,0,0-1.7-17.53A23.92,23.92,0,0,0,284,178.89a26.64,26.64,0,0,0-10.2-5.84A48,48,0,0,0,259,171a58.2,58.2,0,0,0-17.53,2.44,46.66,46.66,0,0,0-12.65,5.85,34.36,34.36,0,0,0-7,6.37,13.75,13.75,0,0,0-2.76,8.93,14.55,14.55,0,0,0,2.87,8.82q2.87,3.93,9,3.93a12.45,12.45,0,0,0,8.71-3.08,10.74,10.74,0,0,0,3.4-8.39,12.73,12.73,0,0,0-10-13,17,17,0,0,1,9.67-6.16,47.91,47.91,0,0,1,11.37-1.49,29.58,29.58,0,0,1,10,1.59,13.3,13.3,0,0,1,7.12,6.27q2.65,4.68,2.66,13.61v13.17a9.64,9.64,0,0,1-4.36,8.08,46.78,46.78,0,0,1-11.15,5.74q-6.81,2.55-14.35,5.2a98.17,98.17,0,0,0-14.35,6.38,34.27,34.27,0,0,0-11.16,9.56q-4.35,5.85-4.35,14.78,0,11.47,6.27,18.38T240.46,285a43.75,43.75,0,0,0,18-3.83Q267,277.29,273.83,266a24.21,24.21,0,0,0,3.61,13.18q3.62,5.75,14.67,5.74c1.08,0,2.1-.05,3.08-.13A12.42,12.42,0,0,1,294.31,275.24Zm-20.48-14.95q-5.31,8.73-11.48,12.44a24,24,0,0,1-12.54,3.72,16.68,16.68,0,0,1-12.11-4.78q-4.89-4.79-4.89-14.56,0-10.41,5.1-16.05a37.67,37.67,0,0,1,12.22-8.93q7.13-3.28,13.82-6c4.46-1.84,7.76-4.33,9.88-7.44Z"/><path class="cls-1" d="M371.53,521.65Q360,507.31,342.62,507.31a34.06,34.06,0,0,0-24.55,10A39,39,0,0,0,309.46,530V453.32a58.44,58.44,0,0,1-10.3,2.23,84.27,84.27,0,0,1-8.74.7,12.64,12.64,0,0,1,0,7.31,12.28,12.28,0,0,1-1.1,6.42,34.53,34.53,0,0,1,1,8.85v130.5a61.78,61.78,0,0,1-.32,6.27,36.53,36.53,0,0,1-1.17,6l3.61,1.49c2-1.7,3.9-3.33,5.74-4.89s3.72-3.15,5.63-4.78l3.7-3.14a34.07,34.07,0,0,0,7.57,6.33,38.7,38.7,0,0,0,20.51,6.06,45.72,45.72,0,0,0,23.59-6.38Q370,610,376.52,597.1t6.48-32Q383,536,371.53,521.65ZM355.27,605q-7.12,12.85-21.36,12.86a34.19,34.19,0,0,1-16.16-4.15,32.18,32.18,0,0,1-8.29-6.32V539.84q2.67-10.86,8.82-17.34,8.4-8.81,18.18-8.82,8.93,0,14.66,5.64t8.5,17.1q2.76,11.49,2.77,28.7Q362.39,592.11,355.27,605Z"/><line class="cls-2" x1="292.74" y1="139.8" x2="292.74" y2="653.52"/></svg>